<svg xmlns="http://www.w3.org/2000/svg" version="1.2"><font><font-face font-family="Speedee Condensed" units-per-em="2048" ascent="1434" descent="-614" font-style="normal" font-weight="300" font-stretch="extra-condensed" cap-height="670" x-height="496" underline-position="-575" underline-thickness="81"/><glyph glyph-name="glyph1"/><glyph glyph-name="uni000D" horiz-adv-x="315"/><glyph glyph-name="space" horiz-adv-x="315"/><glyph glyph-name="exclam" unicode="!" horiz-adv-x="335" d="M104 57q0 31 17.5 50.5T168 127q29 0 46-19.5T231 57q0-33-17-51t-46-18q-29 0-46.5 18.5T104 57zm19 1315h90L201 338h-66l-12 1034z"/><glyph glyph-name="quotedbl" unicode="&quot;" horiz-adv-x="595" d="M187 1290v113h84v-113q0-84-4-159.5T252 954h-47q-10 100-14 176t-4 160zm241 0v113h84v-113q0-84-4-159.5T493 954h-47q-10 100-14 176t-4 160z"/><glyph glyph-name="numbersign" unicode="#" horiz-adv-x="808" d="M53 401v82h140l51 406H96v82h158l51 401h78l-51-401h221l51 401h78l-51-401h129v-82H621l-52-406h148v-82H559L508 0h-78l51 401H260L209 0h-78l51 401H53zm217 82h222l51 406H322l-52-406z"/><glyph glyph-name="dollar" unicode="$" horiz-adv-x="808" d="M68 352h86Q168 78 362 55v611l-47 30q-102 66-162.5 148T92 1057q0 133 75 219t195 94v186h74v-186q127-16 191.5-118.5T696 981h-86q-14 279-174 309V717l53-37q113-78 170.5-166T717 301q0-137-74-225T436-23v-182h-74v182Q215-13 144.5 84.5T68 352zm112 711q0-96 40-163t122-120l20-14v526q-86-8-134-67.5T180 1063zM436 55q92 10 142.5 73.5T629 301q0 111-51.5 185.5T436 618V55z"/><glyph glyph-name="percent" unicode="%" horiz-adv-x="1222" d="M71 950q0 422 211 422t211-422q0-421-211-421T71 950zm74 0q0-186 32.5-272T282 592q72 0 105 87t33 271q0 184-33 271.5T282 1309q-72 0-104.5-86T145 950zM315 0l516 1352h76L391 0h-76zm414 401q0 422 211 422t211-422q0-421-211-421T729 401zm74 0q0-186 32.5-272T940 43q72 0 105 87t33 271q0 184-33 271.5T940 760q-72 0-104.5-86T803 401z"/><glyph glyph-name="ampersand" unicode="&amp;" horiz-adv-x="980" d="M123 371q0 231 190 381-68 129-91 203.5T199 1102q0 119 63.5 194.5T424 1372q96 0 153.5-72.5T635 1104q0-109-52.5-198T416 735l186-362q25-49 45.5-88t36.5-68q31 72 45 181.5T745 662h82q-2-346-100-517 29-39 50.5-52T825 80q35 0 60 12l12-72Q864 0 817 0q-37 0-68.5 18.5T682 80Q590-20 442-20q-94 0-165.5 49T164 167q-41 89-41 204zm88 10q0-143 64.5-231.5T449 61q125 0 190 78-39 63-94 170L346 688q-72-66-103.5-137.5T211 381zm70 727q0-59 21.5-123.5T383 801q90 68 131 140.5t41 162.5q0 90-36 141t-99 51q-63 0-101-51t-38-137z"/><glyph glyph-name="quotesingle" unicode="'" horiz-adv-x="407" d="M162 1290v113h84v-113q0-84-4-159.5T227 954h-47q-10 100-14 176t-4 160z"/><glyph glyph-name="parenleft" unicode="(" horiz-adv-x="403" d="M106 635q0 225 43.5 436T274 1475h76q-80-193-120-411t-40-429q0-211 40-429t120-411h-76Q192-12 149 199t-43 436z"/><glyph glyph-name="parenright" unicode=")" horiz-adv-x="403" d="M53-205q80 193 120 411t40 429q0 211-40 429T53 1475h76q84-193 126-404t42-436q0-225-42-436T129-205H53z"/><glyph glyph-name="asterisk" unicode="*" horiz-adv-x="542" d="M20 1231l21 72q41-16 100.5-39t110.5-47q-8 66-12 137t-7 114h76q-2-43-6-114.5T291 1217q53 25 111.5 47t99.5 39l20-72q-43-12-103.5-26.5T303 1178q45-49 90-103.5t74-89.5l-61-45q-25 35-64 96.5T270 1155q-33-57-70.5-118.5T137 940l-61 45q27 35 73 89t91 104q-55 12-116 26.5T20 1231z"/><glyph glyph-name="plus" unicode="+" horiz-adv-x="808" d="M109 639v74h258v293h79V713h254v-74H446V346h-79v293H109z"/><glyph glyph-name="comma" unicode="," horiz-adv-x="409" d="M109-182q98 35 104 170-41 0-56.5 21.5T141 57q0 31 17.5 50.5T203 127q72 0 71-115 0-100-42.5-165T109-236v54z"/><glyph glyph-name="hyphen" unicode="-" horiz-adv-x="630" d="M127 449v75h377v-75H127z"/><glyph glyph-name="period" unicode="." horiz-adv-x="409" d="M141 57q0 31 17.5 50.5T205 127q29 0 46-19.5T268 57q0-33-17-51t-46-18q-29 0-46.5 18.5T141 57z"/><glyph glyph-name="slash" unicode="/" horiz-adv-x="466" d="M35-215l319 1618h80L115-215H35z"/><glyph glyph-name="zero" unicode="0" horiz-adv-x="847" d="M106 670q0 258 35 412.5t105.5 222Q317 1372 424 1372q106 0 177-67.5t105.5-222Q741 928 741 670t-31.5-413Q678 102 608.5 34.5T424-33q-115 0-184.5 67.5T138 257q-32 155-32 413zm89 0q0-334 54-479.5T424 45q121 0 175 145.5T653 670q0 334-54 479t-175 145q-121 0-175-145t-54-479z"/><glyph glyph-name="one" unicode="1" horiz-adv-x="587" d="M72 1049v77q76 16 150.5 72.5T340 1339h66V0h-87v1169q-100-106-247-120z"/><glyph glyph-name="two" unicode="2" horiz-adv-x="798" d="M102 942q10 430 301 430 133 0 208-95t75-261q0-115-40-207T506 608L344 432q-80-88-113.5-167T193 80h509V0H111v74q0 123 41 218t141 208l158 176q82 94 115.5 172t33.5 166q0 137-50 208.5T403 1294q-215 0-215-352h-86z"/><glyph glyph-name="three" unicode="3" horiz-adv-x="808" d="M80 375h86q2-330 223-330 111 0 170 79t59 228q0 156-63 239t-184 83h-39v74h39q109 0 166 70.5t57 203.5q0 125-53.5 198.5T395 1294q-203 0-207-299h-82q4 184 78 280.5t211 96.5q129 0 207-94t78-252q0-256-178-315 96-33 149.5-126T705 348q0-180-82-280.5T389-33Q86-33 80 375z"/><glyph glyph-name="four" unicode="4" horiz-adv-x="800" d="M57 299v76l441 964h80V373h145v-74H578V0h-84v299H57zm78 74h359v786L135 373z"/><glyph glyph-name="five" unicode="5" horiz-adv-x="765" d="M86 334h82q8-150 59.5-219.5T381 45q221 0 221 367 0 350-209 350-166 0-211-207h-65l35 784h499v-79H225l-24-533q59 113 205 113 131 0 206.5-112T688 418q0-221-79-336T377-33q-139 0-213 93.5T86 334z"/><glyph glyph-name="six" unicode="6" horiz-adv-x="819" d="M106 623q0 385 80 567t246 182q123 0 193.5-92t76.5-260h-81q-16 274-193 274-119 0-174-151.5T193 649q33 90 93 139.5T432 838q137 0 213-113t76-319q0-213-78-326T420-33q-162 0-238 158t-76 498zm99-211q0-162 59.5-264.5T420 45q215 0 215 363 0 172-54.5 262T424 760q-100 0-159.5-94.5T205 412z"/><glyph glyph-name="seven" unicode="7" horiz-adv-x="649" d="M33 1260v79h579v-79q-117-203-190.5-398.5T308 456Q268 246 258 0h-96q12 190 38.5 352T269 661.5q42 147.5 105.5 294T524 1260H33z"/><glyph glyph-name="eight" unicode="8" horiz-adv-x="806" d="M84 371q0 127 47 218t131 132q-141 80-141 307 0 156 76.5 250t205.5 94q129 0 206-93t77-251q0-227-143-307 84-43 132-134t48-216q0-184-87.5-294T403-33Q256-33 170 75.5T84 371zm86-2q0-152 62-238t171-86q109 0 171.5 86T637 369q0 145-62.5 231T403 686q-109 0-171-86t-62-231zm35 661q0-129 52-202.5T403 754q94 0 146.5 73.5T602 1030q0 125-52 194.5T403 1294q-94 0-146-69.5T205 1030z"/><glyph glyph-name="nine" unicode="9" horiz-adv-x="819" d="M98 934q0 213 78 325.5T399 1372q162 0 238-157.5T713 717q0-385-80-567.5T387-33q-123 0-193.5 92.5T117 319h82Q215 45 391 45q119 0 174.5 151.5T627 690q-33-90-93.5-139T387 502q-137 0-213 112.5T98 934zm86-2q0-172 54.5-262T395 580q100 0 159.5 94T614 928q0 162-59.5 264T399 1294q-215 0-215-362z"/><glyph glyph-name="colon" unicode=":" horiz-adv-x="409" d="M141 57q0 31 17.5 50.5T205 127q29 0 46-19.5T268 57q0-33-17-51t-46-18q-29 0-46.5 18.5T141 57zm0 870q0 31 17.5 50.5T205 997q29 0 46-19.5t17-50.5q0-33-17-51t-46-18q-29 0-46.5 18.5T141 927z"/><glyph glyph-name="semicolon" unicode=";" horiz-adv-x="409" d="M109-182q98 35 104 170-41 0-56.5 21.5T141 57q0 31 17.5 50.5T203 127q72 0 71-115 0-100-42.5-165T109-236v54zm32 1109q0 31 17.5 50.5T205 997q29 0 46-19.5t17-50.5q0-33-17-51t-46-18q-29 0-46.5 18.5T141 927z"/><glyph glyph-name="less" unicode="&lt;" horiz-adv-x="808" d="M143 653v54l463 243v-82L231 680l375-193v-77L143 653z"/><glyph glyph-name="equal" unicode="=" horiz-adv-x="808" d="M100 463v74h609v-74H100zm0 311v74h609v-74H100z"/><glyph glyph-name="greater" unicode="&gt;" horiz-adv-x="808" d="M203 410v82l375 188-375 192v78l463-243v-54L203 410z"/><glyph glyph-name="question" unicode="?" horiz-adv-x="645" d="M39 995q0 203 77 306.5T326 1405q133 0 201.5-96.5T596 1075q0-72-14.5-126t-44-106Q508 791 463 729l-41-57q-33-45-54.5-85T335 496.5Q324 446 324 371v-43h-76v43q0 88 11 142t38 100q27 46 70 108l41 57q59 82 80.5 143.5T510 1071q0 119-45 188.5T326 1329q-96 0-149.5-76.5T119 995H39zM227 57q0 31 17.5 50.5T291 127q29 0 46-19.5T354 57q0-33-17-51t-46-18q-29 0-46.5 18.5T227 57z"/><glyph glyph-name="at" unicode="@" horiz-adv-x="1320" d="M94 526q0 416 149.5 635T666 1380q285 0 423-208.5T1227 596q0-238-56.5-376T987 82q-57 0-94 39t-51 104Q781 82 639 82q-125 0-192.5 114.5T379 506q0 195 70.5 311.5T641 934q74 0 125-38t78-103l8 118h59V303q0-72 20.5-111.5T997 152q76 0 114 112.5t38 331.5q0 207-47 367.5t-153.5 252Q842 1307 666 1307q-166 0-274.5-95.5T228.5 941Q174 766 174 526q0-397 124-588.5T659-254q94 0 163.5 18.5T958-176l33-64q-78-51-159.5-70.5T659-330q-285 0-425 208T94 526zm367-18q0-160 46-258t134-98q66 0 110 45t65.5 118.5Q838 389 838 479v58q0 82-18.5 156.5T759 816q-42 48-116 48-90 0-136-98t-46-258z"/><glyph glyph-name="A" unicode="A" horiz-adv-x="888" d="M61 0l332 1372h105L827 0h-92l-86 375H236L150 0H61zm193 451h377l-189 819-188-819z"/><glyph glyph-name="B" unicode="B" horiz-adv-x="860" d="M145 0v1372h244q164 0 252-88t88-256q0-115-50-199T543 711q106-35 166.5-126T770 362Q770 0 416 0H145zm84 76h181q143 0 205.5 68.5T678 371q0 299-287 299H229V76zm0 667h162q248 0 248 287 0 137-63.5 201.5T381 1296H229V743z"/><glyph glyph-name="C" unicode="C" horiz-adv-x="933" d="M96 686q0 371 103.5 545T489 1405q182 0 265.5-124T858 932h-92q-14 190-74.5 291.5T489 1325q-147 0-223-154.5T190 686q0-330 75-484.5T487 47q139 0 201 92t78 289h90Q836 197 750 82T487-33q-188 0-289.5 174T96 686z"/><glyph glyph-name="D" unicode="D" horiz-adv-x="980" d="M145 0v1372h263q248 0 362.5-164T885 686q0-358-114-522T410 0H145zm86 76h177q203 0 294 149.5T793 686q0 311-91 460.5T408 1296H231V76z"/><glyph glyph-name="E" unicode="E" horiz-adv-x="774" d="M145 0v1372h529v-76H233V735h404v-76H233V76h451V0H145z"/><glyph glyph-name="F" unicode="F" horiz-adv-x="763" d="M145 0v1372h555v-76H233V715h406v-76H233V0h-88z"/><glyph glyph-name="G" unicode="G" horiz-adv-x="978" d="M96 686q0 371 100.5 545T496 1405q135 0 213.5-67.5t116.5-176Q864 1053 872 930h-94q-8 102-34.5 192t-86 146.5Q598 1325 496 1325q-158 0-232-154.5T190 686q0-330 76-484.5T500 47q115 0 178 64.5T767 298q26 122 28 292H508v76h375v-48q0-205-34-351T731 44q-84-77-231-77-207 0-305.5 174T96 686z"/><glyph glyph-name="H" unicode="H" horiz-adv-x="968" d="M145 0v1372h88V727h502v645h88V0h-88v651H233V0h-88z"/><glyph glyph-name="I" unicode="I" horiz-adv-x="378" d="M145 0v1372h88V0h-88z"/><glyph glyph-name="J" unicode="J" horiz-adv-x="786" d="M41 449h88q0-207 53.5-304.5T348 47q117 0 168 95.5T567 457v915h88V467q0-254-75.5-377T348-33Q43-33 41 449z"/><glyph glyph-name="K" unicode="K" horiz-adv-x="835" d="M145 0v1372h88V707l437 665h96L313 692q119-49 210-135t154.5-222Q741 199 784 0h-90q-59 285-175 437.5T233 639V0h-88z"/><glyph glyph-name="L" unicode="L" horiz-adv-x="731" d="M145 0v1372h88V76h439V0H145z"/><glyph glyph-name="M" unicode="M" horiz-adv-x="1138" d="M96 0l72 1372h102L567 248l297 1124h105L1042 0h-88l-53 1214L608 133h-86L233 1210 180 0H96z"/><glyph glyph-name="N" unicode="N" horiz-adv-x="993" d="M145 0v1372h105L768 137v1235h80V0H741L225 1231V0h-80z"/><glyph glyph-name="O" unicode="O" horiz-adv-x="1015" d="M96 686q0 371 107.5 545T508 1405q197 0 304.5-174T920 686q0-371-107.5-545T508-33q-197 0-304.5 174T96 686zm94 0q0-330 80-484.5T508 47q158 0 237.5 154.5T825 686q0 330-79.5 484.5T508 1325q-158 0-238-154.5T190 686z"/><glyph glyph-name="P" unicode="P" horiz-adv-x="819" d="M145 0v1372h222q190 0 282-99t92-306q0-203-92-301.5T367 567H233V0h-88zm88 643h134q145 0 213.5 76T649 967q0 176-68.5 252.5T367 1296H233V643z"/><glyph glyph-name="Q" unicode="Q" horiz-adv-x="1015" d="M96 686q0 371 107.5 545T508 1405q197 0 304.5-174T920 686q0-340-90.5-514T571-29q51-72 122-102.5T850-162v-90q-145 10-223 65.5T498-33q-190 4-296 178T96 686zm94 0q0-330 80-484.5T508 47q158 0 237.5 154.5T825 686q0 330-79.5 484.5T508 1325q-158 0-238-154.5T190 686z"/><glyph glyph-name="R" unicode="R" horiz-adv-x="874" d="M145 0v1372h222q188 0 285.5-92T750 995q0-160-76-248T461 639q86-31 147.5-105.5T716 328q46-131 89-328h-98q-59 332-156.5 475T299 618h-66V0h-88zm88 692h134q150 0 220 74t70 229q0 158-69 229.5T367 1296H233V692z"/><glyph glyph-name="S" unicode="S" horiz-adv-x="851" d="M88 354h90Q190 47 432 47q109 0 172.5 67.5T668 301q0 102-47.5 178T469 625l-141 94q-111 74-162 160t-51 198q0 143 87 235.5t224 92.5q150 0 229.5-102.5T741 1001h-90q-10 324-225 324-100 0-160.5-66.5T205 1081q0-174 170-286l135-90q129-86 188.5-181.5T758 303q0-154-89-245T428-33Q266-33 178 67.5T88 354z"/><glyph glyph-name="T" unicode="T" horiz-adv-x="825" d="M61 1296v76h703v-76H457V0h-88v1296H61z"/><glyph glyph-name="U" unicode="U" horiz-adv-x="942" d="M129 424v948h88V424q0-193 62.5-285T471 47q131 0 192.5 90T725 424v948h88V424q0-457-342-457T129 424z"/><glyph glyph-name="V" unicode="V" horiz-adv-x="868" d="M61 1372h93L436 96l285 1276h86L492 0H373L61 1372z"/><glyph glyph-name="W" unicode="W" horiz-adv-x="1267" d="M66 1372h92L350 92l230 1280h112L920 92l194 1280h88L983 0H858L633 1253 408 0H285L66 1372z"/><glyph glyph-name="X" unicode="X" horiz-adv-x="827" d="M39 0l321 707-299 665h103l248-592 252 592h102L455 696 772 0H670L403 623 139 0H39z"/><glyph glyph-name="Y" unicode="Y" horiz-adv-x="831" d="M55 1372h97l266-719 266 719h92L461 553V0h-90v553L55 1372z"/><glyph glyph-name="Z" unicode="Z" horiz-adv-x="811" d="M90 0v61l549 1235H111v76h618v-61L180 76h559V0H90z"/><glyph glyph-name="bracketleft" unicode="[" horiz-adv-x="382" d="M104-205v1680h226v-74H186V-131h144v-74H104z"/><glyph glyph-name="backslash" unicode="\" horiz-adv-x="464" d="M6 1403h80L406-215h-80L6 1403z"/><glyph glyph-name="bracketright" unicode="]" horiz-adv-x="382" d="M53-131h144v1532H53v74h226V-205H53v74z"/><glyph glyph-name="asciicircum" unicode="^" horiz-adv-x="808" d="M133 741l238 611h67l238-611h-80l-195 510-192-510h-76z"/><glyph glyph-name="underscore" unicode="_" horiz-adv-x="714" d="M25-174h665v-82H25v82z"/><glyph glyph-name="grave" unicode="`" horiz-adv-x="665" d="M203 1411l64 64 196-277-39-41-221 254z"/><glyph glyph-name="a" unicode="a" horiz-adv-x="747" d="M86 244q0 164 122 258t339 98v113q0 258-172 258-166 0-187-232h-79q8 139 79.5 221t188.5 82q252 0 252-352V0h-72l-6 143q-31-80-90.5-125T322-27q-104 0-170 75T86 244zm82 0q0-94 46-148.5T338 41q59 0 106.5 40t75 106.5Q547 254 547 336v199q-379-6-379-291z"/><glyph glyph-name="b" unicode="b" horiz-adv-x="817" d="M131 0v1434h84V864q66 178 229 178 125 0 206-130t81-404q0-274-81-404.5T444-27q-176 0-235 193L203 0h-72zm82 477q0-203 58.5-316.5T426 47q102 0 159.5 111.5T643 508q0 238-57.5 349.5T426 969q-100 0-156.5-114T213 539v-62z"/><glyph glyph-name="c" unicode="c" horiz-adv-x="774" d="M86 506q0 262 81 399t234 137q127 0 197-85t88-261h-84q-16 143-63 208t-138 65q-227 0-227-463 0-459 227-459 94 0 144.5 71.5T608 344h82Q657-27 401-27q-154 0-234.5 136.5T86 506z"/><glyph glyph-name="d" unicode="d" horiz-adv-x="817" d="M86 508q0 274 80 404t207 130q164 0 229-172v564h84V0h-72l-6 172Q543-27 373-27q-127 0-207 130T86 508zm88 0q0-238 57.5-349.5T391 47q100 0 156.5 113.5T604 477v62q0 203-56 316.5T391 969q-102 0-159.5-112T174 508z"/><glyph glyph-name="e" unicode="e" horiz-adv-x="784" d="M86 506q0 270 84 403t231 133q139 0 216-121.5T694 506v-23H170q2-227 63.5-331.5T401 47q98 0 147.5 65.5T606 313h80Q657-27 397-27q-145 0-228 132.5T86 506zm84 45h444q-8 231-59.5 324.5T401 969q-106 0-165.5-99.5T170 551z"/><glyph glyph-name="f" unicode="f" horiz-adv-x="483" d="M45 944v72h113v176q0 127 62.5 197.5T395 1460q68 0 113-24l-21-66q-43 16-86 16-160 0-159-192v-178h219v-72H242V0h-84v944H45z"/><glyph glyph-name="g" unicode="g" horiz-adv-x="817" d="M86 518q0 266 80 395t207 129q90 0 146-50t89-146l6 170h72V-31q0-223-77-324.5T389-457q-131 0-204.5 91.5T106-109h84q12-274 201-274 104 0 158.5 75T604-47v231Q541 0 371 0 246 0 166 127T86 518zm88 0q0-225 55.5-334.5T391 74q100 0 156.5 112.5T604 498v41q0 203-56 316.5T391 969q-104 0-160.5-109.5T174 518z"/><glyph glyph-name="h" unicode="h" horiz-adv-x="808" d="M131 0v1434h82V854q31 88 92.5 138t145.5 50q240 0 239-335V0h-84v698q0 270-166 271-225 0-225-424V0h-84z"/><glyph glyph-name="i" unicode="i" horiz-adv-x="342" d="M109 1282q0 29 17 49.5t46 20.5q29 0 46.5-20.5T236 1282q0-29-17.5-49.5T172 1212q-29 0-46 20.5t-17 49.5zM129 0v1016h84V0h-84z"/><glyph glyph-name="j" unicode="j" horiz-adv-x="342" d="M-104-438l18 67q33-12 74-12 141 0 141 188v1211h84V-186q0-271-223-271-59 0-94 19zm213 1720q0 29 17 49.5t46 20.5q29 0 46.5-20.5T236 1282q0-29-17.5-49.5T172 1212q-29 0-46 20.5t-17 49.5z"/><glyph glyph-name="k" unicode="k" horiz-adv-x="704" d="M131 0v1434h84V567l330 449h96L281 543q150-63 239.5-197.5T647 0h-86q-33 197-122 323T215 492V0h-84z"/><glyph glyph-name="l" unicode="l" horiz-adv-x="346" d="M131 0v1434h84V0h-84z"/><glyph glyph-name="m" unicode="m" horiz-adv-x="1251" d="M131 0v1016h72l6-166q29 88 87 140t146 52q176 0 220-200 27 90 87 145t152 55q113 0 172.5-81.5T1133 707V0h-84v698q0 141-40 206t-118 65q-98 0-157.5-95.5T674 545V0h-84v698q0 141-40 206t-118 65q-96 0-156.5-95.5T215 545V0h-84z"/><glyph glyph-name="n" unicode="n" horiz-adv-x="808" d="M131 0v1016h72l6-166q29 86 91 139t151 53q117 0 178-81.5T690 707V0h-84v698q0 141-41 206t-125 65q-98 0-161.5-95.5T215 545V0h-84z"/><glyph glyph-name="o" unicode="o" horiz-adv-x="806" d="M86 508q0 266 81 400t236 134q156 0 237-134t81-400q0-266-81-400.5T403-27q-156 0-236.5 134.5T86 508zm88 0q0-240 57-350.5T403 47q115 0 172.5 110.5T633 508q0 240-57.5 350.5T403 969q-115 0-172-110.5T174 508z"/><glyph glyph-name="p" unicode="p" horiz-adv-x="817" d="M131-430v1446h72l6-172q66 198 233 198h2q125 0 206-130t81-404q0-274-81-404.5T444-27q-168 0-229 174v-577h-84zm82 907q0-203 58.5-316.5T426 47q102 0 159.5 111.5T643 508q0 238-57.5 349.5T426 969q-100 0-156.5-114T213 539v-62z"/><glyph glyph-name="q" unicode="q" horiz-adv-x="817" d="M86 508q0 274 80 404t207 130q170 0 235-186l6 160h72V-430h-84v582Q536-26 375-27q-127 0-208 129T86 508zm88 0q0-238 57.5-349.5T391 47q100 0 156.5 113.5T604 477v62q0 203-56.5 316.5T391 969q-104 0-160.5-112T174 508z"/><glyph glyph-name="r" unicode="r" horiz-adv-x="503" d="M131 0v1016h72l6-172q27 88 81 138t126 50q20 0 45-6v-78q-14 2-24.5 3t-20.5 1q-96 0-148.5-99T215 575V0h-84z"/><glyph glyph-name="s" unicode="s" horiz-adv-x="692" d="M78 276h84Q174 43 354 43q174 0 174 188 0 61-33.5 116.5T401 442l-151 97q-150 96-150 256 0 111 70 179t178 68q115 0 181.5-76.5T600 752h-82q-2 106-47 163.5T344 973q-74 0-118-47t-44-127q0-123 111-193l147-94q170-109 170-281 0-121-68.5-189.5T352-27q-129 0-199.5 77T78 276z"/><glyph glyph-name="t" unicode="t" horiz-adv-x="503" d="M31 944v72h116v307h84v-307h207v-72H231V215q0-168 140-168 47 0 82 14l18-67q-47-21-113-21-100 0-155.5 62.5T147 215v729H31z"/><glyph glyph-name="u" unicode="u" horiz-adv-x="798" d="M119 279v737h84V279q0-231 164-232 104 0 160.5 105.5T584 455v561h84V0h-72l-6 166q-29-92-90.5-142.5T354-27q-113 0-174 79t-61 227z"/><glyph glyph-name="v" unicode="v" horiz-adv-x="704" d="M49 1016h90l215-914 217 914h84L399 0h-94L49 1016z"/><glyph glyph-name="w" unicode="w" horiz-adv-x="1038" d="M49 1016h90l156-897 182 897h90l181-889 161 889h80L791 0h-91L520 889 336 0h-92L49 1016z"/><glyph glyph-name="x" unicode="x" horiz-adv-x="690" d="M45 0l258 526-235 490h88l198-420 195 420h88L393 520 641 0h-90L342 451 133 0H45z"/><glyph glyph-name="y" unicode="y" horiz-adv-x="696" d="M8-436l21 69q37-14 80-14 57 0 92 43t59 139l47 185L47 1016h90l209-899 217 899h84L338-209q-33-127-89-187.5T104-457q-55 0-96 21z"/><glyph glyph-name="z" unicode="z" horiz-adv-x="667" d="M70 0v72l428 870H88v74h498v-72L154 72h444V0H70z"/><glyph glyph-name="braceleft" unicode="{" horiz-adv-x="458" d="M63 598v74h33q47 0 65.5 29.5T180 807q0 119-9 215t-9 201q0 119 46 185.5t154 66.5h56v-74h-53q-70 0-97.5-42T240 1229q0-82 4-149.5t8-137.5q4-70 4-166 0-78-24.5-106.5T176 635q31-6 55.5-35T256 494q0-96-4-166t-8-137.5Q240 123 240 41q0-88 27.5-130t97.5-42h53v-74h-56q-109 0-154.5 66.5T162 47q0 104 9 200.5t9 215.5q0 76-18.5 105.5T96 598H63z"/><glyph glyph-name="bar" unicode="|" horiz-adv-x="331" d="M127-205v1680h78V-205h-78z"/><glyph glyph-name="braceright" unicode="}" horiz-adv-x="458" d="M41-131h53q70 0 97.5 42T219 41q0 82-4 149.5t-8 137q-4 69.5-4 166.5 0 78 24.5 106.5T283 635q-31 6-55.5 34.5T203 776q0 96 4 166t8 137.5q4 67.5 4 149.5 0 88-27.5 130T94 1401H41v74h55q109 0 155-67t46-185q0-104-9-200.5T279 807q0-76 18-105.5t65-29.5h33v-74h-33q-47 0-65-29.5T279 463q0-119 9-215t9-201q0-119-46-185.5T96-205H41v74z"/><glyph glyph-name="asciitilde" unicode="~" horiz-adv-x="808" d="M125 530q8 137 42 224.5T283 842q41 0 74.5-32t74.5-95q41-63 60.5-85t42.5-22q35 0 57 54.5T621 844h71q-8-139-42-225.5T535 532q-41 0-75 30.5T385 659q-41 66-61.5 86.5T283 766q-35 0-57.5-55.5T197 530h-72z"/><glyph glyph-name="uni00A0" horiz-adv-x="315"/><glyph glyph-name="exclamdown" unicode="¡" horiz-adv-x="335" d="M109 967q0 31 17 50t46 19q29 0 46.5-19.5T236 967q0-33-17.5-51.5T172 897q-29 0-46 18.5T109 967zm18-1315l12 1034h66l12-1034h-90z"/><glyph glyph-name="cent" unicode="¢" horiz-adv-x="784" d="M100 664q0 248 74 379t197 149v160h73v-160q102-10 165-91t79-249h-78q-14 127-53 191.5T444 1120V213q74 10 117 76.5T616 504h76q-16-186-81.5-270T444 139V0h-73v139q-123 18-197 148.5T100 664zm80 0q0-213 51.5-322T371 215v903q-88-18-139.5-126.5T180 664z"/><glyph glyph-name="sterling" unicode="£" horiz-adv-x="784" d="M76 0v82q80 0 114.5 58.5T225 358q0 66-9 132.5T197 627H78v78h106q-10 66-18 133t-8 137q0 193 74.5 295T432 1372q123 0 189.5-97t78.5-259h-88q-12 131-54 200.5T428 1286q-80 0-131-71.5T246 969q0-74 7-138.5T270 705h260v-78H283q12-66 20-131.5t8-137.5q0-111-17.5-177T246 82h456V0H76z"/><glyph glyph-name="currency" unicode="¤" horiz-adv-x="786" d="M86 207l104 182q-35 53-54 127t-19 164q0 90 19.5 164T190 971L86 1149l57 35 90-160q72 70 162 70t162-70l90 160 58-35-105-178q35-53 54.5-127T674 680q0-90-19.5-164T600 389l105-182-54-33-94 162q-72-70-162-70t-162 70l-94-162-53 33zm102 473q0-162 59.5-251T395 340q88 0 147.5 89T602 680q0 162-59.5 251T395 1020q-88 0-147.5-89T188 680z"/><glyph glyph-name="yen" unicode="¥" horiz-adv-x="784" d="M53 1339h90l248-688 254 688h84L455 621h186v-70H430V356h211v-69H430V0h-82v287H133v69h215v195H133v70h193L53 1339z"/><glyph glyph-name="section" unicode="§" horiz-adv-x="692" d="M63 1053q0 141 77 230t196 89q119 0 191.5-84t80.5-233h-84q-14 244-188 243-86 0-138.5-65.5T145 1061q0-104 38-171t120-108l258-125v-86L285 698q-115 53-168.5 138.5T63 1053zm5-951h84q16-244 192-243 84 0 135 64.5T530 96q0 104-37.5 172T373 375L115 500v86l276-127q115-53 168-137t53-218q0-141-74.5-230T342-215q-123 0-194.5 83T68 102z"/><glyph glyph-name="dieresis" unicode="¨" horiz-adv-x="665" d="M137 1282q0 29 17.5 49.5T201 1352q29 0 46-20.5t17-49.5q0-29-17-49.5t-46-20.5q-29 0-46.5 20.5T137 1282zm263 0q0 29 17 49.5t46 20.5q29 0 46.5-20.5T527 1282q0-29-17.5-49.5T463 1212q-29 0-46 20.5t-17 49.5z"/><glyph glyph-name="copyright" unicode="©" horiz-adv-x="1107" d="M119 686q0 211 52 364.5T320.5 1288q97.5 84 234.5 84t234.5-84q97.5-84 149.5-237.5T991 686q0-209-52-363.5T789.5 84Q692 0 555 0T320.5 84Q223 168 171 322.5T119 686zm76 0q0-281 90-448.5T555 70q180 0 270 168t90 448q0 281-90 449t-270 168q-180 0-270-168t-90-449zm133 0q0 195 65.5 296T563 1083q82 0 136.5-63.5T772 821h-74q-14 104-49 147.5t-88 43.5q-66 0-112-72t-46-254q0-176 46.5-250T561 362q55 0 92 48.5T700 571h74q-12-143-71.5-211.5T561 291q-102 0-167.5 98T328 686z"/><glyph glyph-name="ordfeminine" unicode="ª" horiz-adv-x="561" d="M53 776q0 96 46 153.5t125 83q79 25.5 173 27.5v43q0 109-32.5 165.5T276 1305q-119 0-131-164H72q12 109 64 170t143 61q94 0 143-76.5t49-240.5V584h-63l-5 114q-51-123-172-123-74 0-126 51.5T53 776zm76 8q0-78 33-109.5t78-31.5q72 0 114.5 69.5T397 881v98q-123-2-195.5-45T129 784z"/><glyph glyph-name="guillemotleft" unicode="«" horiz-adv-x="817" d="M74 502l192 395h86L164 504l190-398h-88L74 502zm369 0l192 395h86L533 504l190-398h-88L443 502z"/><glyph glyph-name="logicalnot" unicode="¬" horiz-adv-x="808" d="M113 766v74h557V426h-70v340H113z"/><glyph glyph-name="uni00AD" unicode="­" horiz-adv-x="630" d="M127 449v75h377v-75H127z"/><glyph glyph-name="registered" unicode="®" horiz-adv-x="739" d="M43 889q0 238 87 371t239 133q152 0 238.5-133.5T694 889q0-238-86.5-371T369 385q-152 0-239 133T43 889zm68 0q0-213 64.5-329T369 444q129 0 193.5 116T627 889q0 213-64.5 328.5T369 1333q-129 0-193.5-115.5T111 889zm135-246v506h131q66 0 96.5-40t30.5-105q0-109-86-136 39-23 62.5-76T520 643h-65q-16 115-45 165t-91 50h-16V643h-57zm57 262h66q41 0 58 24.5t17 71.5q0 39-16 68t-57 29h-68V905z"/><glyph glyph-name="overscore" unicode="¯" horiz-adv-x="665" d="M152 1233v70h360v-70H152z"/><glyph glyph-name="degree" unicode="°" horiz-adv-x="425" d="M35 1180q0 127 50 190.5t128 63.5q78 0 128-63.5t50-190.5q0-127-50-190.5T213 926q-78 0-128 63.5T35 1180zm69 0q0-92 31-141.5t78-49.5q47 0 78 49t31 142q0 92-31 141t-78 49q-47 0-78-49t-31-141z"/><glyph glyph-name="uni00B2" unicode="²" horiz-adv-x="532" d="M80 1333q2 127 52 195.5t144 68.5q84 0 134.5-57t50.5-152q0-133-115-247l-102-103q-86-86-90-198h315v-66H82v23q0 92 29.5 161.5T203 1091l96 101q51 53 70.5 97t19.5 95q0 150-115 150-125 0-124-201H80z"/><glyph glyph-name="uni00B3" unicode="³" horiz-adv-x="540" d="M66 1005h69q10-188 139-188 131 0 132 172 0 170-158 170h-27v61h27q143 0 143 160 0 72-30.5 113t-86.5 41q-117 0-122-164H82q2 104 54 165.5t140 61.5q84 0 135.5-59t51.5-154q0-147-109-194 125-47 125-201 0-111-54.5-173T274 754q-203 0-208 251z"/><glyph glyph-name="acute" unicode="´" horiz-adv-x="665" d="M203 1198l196 277 72-54-221-258-47 35z"/><glyph glyph-name="paragraph" unicode="¶" horiz-adv-x="747" d="M59 948q0 209 89.5 316.5T375 1372h252V-215h-74v1513H453V-215h-74v739q-143 0-231.5 112T59 948z"/><glyph glyph-name="middot" unicode="·" horiz-adv-x="409" d="M141 401q0 31 17.5 50.5T205 471q29 0 46-19.5t17-50.5q0-33-17-51t-46-18q-29 0-46.5 18.5T141 401z"/><glyph glyph-name="cedilla" unicode="¸" horiz-adv-x="665" d="M231-467l4 59q35-12 80-12 113 0 113 121 0 115-92 115-29 0-48-13h-26L282 0h54l-17-139q16 6 37 6 61 0 100-43t39-119q0-88-48-136t-134-48q-43 0-82 12z"/><glyph glyph-name="uni00B9" unicode="¹" horiz-adv-x="399" d="M57 1388v62q57 4 109.5 41t73.5 86h53V774h-68v682q-63-66-168-68z"/><glyph glyph-name="ordmasculine" unicode="º" horiz-adv-x="567" d="M39 971q0 188 67.5 294.5T283 1372q109 0 176-106.5T526 971q0-188-67-295T283 569q-109 0-176.5 106.5T39 971zm78 0q0-160 45-245t121-85q76 0 121 85t45 245q0 160-45.5 244.5T283 1300q-76 0-121-85t-45-244z"/><glyph glyph-name="guillemotright" unicode="»" horiz-adv-x="817" d="M94 897h88l193-395-193-396H96l189 394L94 897zm369 0h88l193-395-193-396h-86l189 394-191 397z"/><glyph glyph-name="onequarter" unicode="¼" horiz-adv-x="1249" d="M57 1163v62q57 4 109.5 41t73.5 86h53V549h-68v682q-63-66-168-68zM305 0l516 1352h76L381 0h-76zm459 178v53l297 572h62V238h84v-60h-84V0h-68v178H764zm66 60h225v424L830 238z"/><glyph glyph-name="onehalf" unicode="½" horiz-adv-x="1243" d="M57 1163v62q57 4 109.5 41t73.5 86h53V549h-68v682q-63-66-168-68zM266 0l516 1352h76L342 0h-76zm525 559q2 127 52 195.5T987 823q84 0 134.5-57t50.5-152q0-133-115-247L955 264q-86-86-90-198h315V0H793v23q0 92 29.5 161.5T914 317l96 101q51 53 70.5 97t19.5 95q0 150-115 150-125 0-124-201h-70z"/><glyph glyph-name="threequarters" unicode="¾" horiz-adv-x="1312" d="M66 780h69q10-188 139-188 131 0 132 172 0 170-158 170h-27v61h27q143 0 143 160 0 72-30.5 113t-86.5 41q-117 0-122-164H82q2 104 54 165.5t140 61.5q84 0 135.5-59t51.5-154q0-147-109-194 125-47 125-201 0-111-54.5-173T274 529Q71 529 66 780zM385 0l516 1352h76L461 0h-76zm442 178v53l297 572h62V238h84v-60h-84V0h-68v178H827zm66 60h225v424L893 238z"/><glyph glyph-name="questiondown" unicode="¿" horiz-adv-x="645" d="M39-51q0 72 14.5 126t44 106Q127 233 172 295l41 57q33 45 54.5 85t32.5 90.5Q311 578 311 653v43h76v-43q0-88-12.5-142t-38-100Q311 365 268 303l-41-57q-59-82-80.5-143.5T125-47q0-113 45-182.5T309-299q96 0 149.5 76T516 29h80q0-199-77-301.5T309-375q-88 0-148.5 44t-91 118Q39-139 39-51zM281 967q0 31 17 50t46 19q29 0 46.5-19.5T408 967q0-33-17.5-51.5T344 897q-29 0-46 18.5T281 967z"/><glyph glyph-name="Agrave" unicode="À" horiz-adv-x="888" d="M61 0l332 1372h105L827 0h-92l-86 375H236L150 0H61zm193 451h377l-189 819-188-819zm30 1200l49 90 258-223-30-60-277 193z"/><glyph glyph-name="Aacute" unicode="Á" horiz-adv-x="888" d="M61 0l332 1372h105L827 0h-92l-86 375H236L150 0H61zm193 451h377l-189 819-188-819zm79 1060l246 228 60-68-271-207-35 47z"/><glyph glyph-name="Acircumflex" unicode="Â" horiz-adv-x="888" d="M61 0l332 1372h105L827 0h-92l-86 375H236L150 0H61zm145 1513l215 238h48l213-238-37-43-201 191-201-191-37 43zm48-1062h377l-189 819-188-819z"/><glyph glyph-name="Atilde" unicode="Ã" horiz-adv-x="888" d="M61 0l332 1372h105L827 0h-92l-86 375H236L150 0H61zm158 1491q4 106 36.5 168.5T344 1722q23 0 46-15t66-69q29-35 46.5-54t39.5-19q23 0 38.5 33.5T600 1718h67q-2-109-35-170t-88-61q-47 0-116 84-33 39-49.5 56.5T342 1645q-20 0-37-34t-19-120h-67zm35-1040h377l-189 819-188-819z"/><glyph glyph-name="Adieresis" unicode="Ä" horiz-adv-x="888" d="M61 0l332 1372h105L827 0h-92l-86 375H236L150 0H61zm184 1608q0 29 17.5 49t46.5 20q29 0 46-20.5t17-48.5q0-29-17-49.5t-46-20.5q-29 0-46.5 20.5T245 1608zm9-1157h377l-189 819-188-819zm264 1157q0 29 17.5 49t45.5 20q29 0 46.5-20.5T645 1608q0-29-17.5-49.5T581 1538q-29 0-46 20.5t-17 49.5z"/><glyph glyph-name="Aring" unicode="Å" horiz-adv-x="888" d="M61 0l332 1372h105L827 0h-92l-86 375H236L150 0H61zm193 451h377l-189 819-188-819zm20 1233q0 88 47 142t125 54q76 0 122-53t46-143q0-92-46-146.5T446 1483q-78 0-125 55t-47 146zm64-2q0-142 106-142t106 142q0 141-106 141t-106-141z"/><glyph glyph-name="AE" unicode="Æ" horiz-adv-x="1239" d="M61 0l531 1372h573v-76H725V735h403v-76H725V76h451V0H637v375H289L145 0H61zm256 451h320v831L317 451z"/><glyph glyph-name="Ccedilla" unicode="Ç" horiz-adv-x="933" d="M96 686q0 371 103.5 545T489 1405q182 0 265.5-124T858 932h-92q-14 190-74.5 291.5T489 1325q-147 0-223-154.5T190 686q0-330 75-484.5T487 47q139 0 201 92t78 289h90Q836 197 750 82T487-33q-188 0-289.5 174T96 686zM409-479l4 61q37-12 84-12 117 0 117 125 0 121-96 121-27 0-49-15h-27L462 0h54l-17-139q18 6 39 6 63 0 104.5-45T684-301q0-90-49.5-140.5T495-492q-43 0-86 13z"/><glyph glyph-name="Egrave" unicode="È" horiz-adv-x="774" d="M145 0v1372h529v-76H233V735h404v-76H233V76h451V0H145zm109 1651l49 90 258-223-30-60-277 193z"/><glyph glyph-name="Eacute" unicode="É" horiz-adv-x="774" d="M145 0v1372h529v-76H233V735h404v-76H233V76h451V0H145zm158 1511l246 228 60-68-271-207-35 47z"/><glyph glyph-name="Ecircumflex" unicode="Ê" horiz-adv-x="774" d="M145 0v1372h529v-76H233V735h404v-76H233V76h451V0H145zm31 1513l215 238h48l213-238-37-43-201 191-201-191-37 43z"/><glyph glyph-name="Edieresis" unicode="Ë" horiz-adv-x="774" d="M145 0v1372h529v-76H233V735h404v-76H233V76h451V0H145zm70 1608q0 29 17.5 49t46.5 20q29 0 46-20.5t17-48.5q0-29-17-49.5t-46-20.5q-29 0-46.5 20.5T215 1608zm273 0q0 29 17.5 49t45.5 20q29 0 46.5-20.5T615 1608q0-29-17.5-49.5T551 1538q-29 0-46 20.5t-17 49.5z"/><glyph glyph-name="Igrave" unicode="Ì" horiz-adv-x="378" d="M28 1651l49 90 258-223-30-60-277 193zM145 0v1372h88V0h-88z"/><glyph glyph-name="Iacute" unicode="Í" horiz-adv-x="378" d="M77 1511l246 228 60-68-271-207-35 47zM145 0v1372h88V0h-88z"/><glyph glyph-name="Icircumflex" unicode="Î" horiz-adv-x="378" d="M-50 1513l215 238h48l213-238-37-43-201 191-201-191-37 43zM145 0v1372h88V0h-88z"/><glyph glyph-name="Idieresis" unicode="Ï" horiz-adv-x="378" d="M-11 1608q0 29 17.5 49t46.5 20q29 0 46-20.5t17-48.5q0-29-17-49.5T53 1538q-29 0-46.5 20.5T-11 1608zM145 0v1372h88V0h-88zm117 1608q0 29 17.5 49t45.5 20q29 0 46.5-20.5T389 1608q0-29-17.5-49.5T325 1538q-29 0-46 20.5t-17 49.5z"/><glyph glyph-name="Eth" unicode="Ð" horiz-adv-x="931" d="M16 655v74h129v643h263q248 0 362.5-164T885 686q0-358-114-522T410 0H145v655H16zM231 76h177q203 0 294 149.5T793 686q0 311-91.5 460.5T408 1296H231V729h250v-74H231V76z"/><glyph glyph-name="Ntilde" unicode="Ñ" horiz-adv-x="993" d="M145 0v1372h105L768 137v1235h80V0H741L225 1231V0h-80zm150 1491q4 106 36.5 168.5T420 1722q23 0 46-15t66-69q29-35 46.5-54t39.5-19q23 0 38.5 33.5T676 1718h67q-2-109-35-170t-88-61q-47 0-116 84-33 39-49.5 56.5T418 1645q-20 0-37-34t-19-120h-67z"/><glyph glyph-name="Ograve" unicode="Ò" horiz-adv-x="1015" d="M96 686q0 371 107.5 545T508 1405q197 0 304.5-174T920 686q0-371-107.5-545T508-33q-197 0-304.5 174T96 686zm94 0q0-330 80-484.5T508 47q158 0 237.5 154.5T825 686q0 330-79.5 484.5T508 1325q-158 0-238-154.5T190 686zm158 965l49 90 258-223-30-60-277 193z"/><glyph glyph-name="Oacute" unicode="Ó" horiz-adv-x="1015" d="M96 686q0 371 107.5 545T508 1405q197 0 304.5-174T920 686q0-371-107.5-545T508-33q-197 0-304.5 174T96 686zm94 0q0-330 80-484.5T508 47q158 0 237.5 154.5T825 686q0 330-79.5 484.5T508 1325q-158 0-238-154.5T190 686zm207 825l246 228 60-68-271-207-35 47z"/><glyph glyph-name="Ocircumflex" unicode="Ô" horiz-adv-x="1015" d="M96 686q0 371 107.5 545T508 1405q197 0 304.5-174T920 686q0-371-107.5-545T508-33q-197 0-304.5 174T96 686zm94 0q0-330 80-484.5T508 47q158 0 237.5 154.5T825 686q0 330-79.5 484.5T508 1325q-158 0-238-154.5T190 686zm80 827l215 238h48l213-238-37-43-201 191-201-191-37 43z"/><glyph glyph-name="Otilde" unicode="Õ" horiz-adv-x="1015" d="M96 686q0 371 107.5 545T508 1405q197 0 304.5-174T920 686q0-371-107.5-545T508-33q-197 0-304.5 174T96 686zm94 0q0-330 80-484.5T508 47q158 0 237.5 154.5T825 686q0 330-79.5 484.5T508 1325q-158 0-238-154.5T190 686zm93 805q4 106 36.5 168.5T408 1722q23 0 46-15t66-69q29-35 46.5-54t39.5-19q23 0 38.5 33.5T664 1718h67q-2-109-35-170t-88-61q-47 0-116 84-33 39-49.5 56.5T406 1645q-20 0-37-34t-19-120h-67z"/><glyph glyph-name="Odieresis" unicode="Ö" horiz-adv-x="1015" d="M96 686q0 371 107.5 545T508 1405q197 0 304.5-174T920 686q0-371-107.5-545T508-33q-197 0-304.5 174T96 686zm94 0q0-330 80-484.5T508 47q158 0 237.5 154.5T825 686q0 330-79.5 484.5T508 1325q-158 0-238-154.5T190 686zm119 922q0 29 17.5 49t46.5 20q29 0 46-20.5t17-48.5q0-29-17-49.5t-46-20.5q-29 0-46.5 20.5T309 1608zm273 0q0 29 17.5 49t45.5 20q29 0 46.5-20.5T709 1608q0-29-17.5-49.5T645 1538q-29 0-46 20.5t-17 49.5z"/><glyph glyph-name="multiply" unicode="×" horiz-adv-x="808" d="M115 389l241 275-241 272 51 47 237-268 238 268 51-47-241-272 241-275-51-47-238 268-237-268-51 47z"/><glyph glyph-name="Oslash" unicode="Ø" horiz-adv-x="1015" d="M96 686q0 371 107.5 545T508 1405q143 0 237-88l60 131 67-33-73-164q59-88 90-228t31-337q0-371-107.5-545T508-33q-143 0-238 88L211-76l-68 33 74 164q-59 88-90 228T96 686zm94 0q0-315 74-473l441 1022q-74 90-197 90-158 0-238-154.5T190 686zm121-549q74-90 197-90 158 0 237.5 155.5T825 686q0 315-73 473L311 137z"/><glyph glyph-name="Ugrave" unicode="Ù" horiz-adv-x="942" d="M129 424v948h88V424q0-193 62.5-285T471 47q131 0 192.5 90T725 424v948h88V424q0-457-342-457T129 424zm182 1227l49 90 258-223-30-60-277 193z"/><glyph glyph-name="Uacute" unicode="Ú" horiz-adv-x="942" d="M129 424v948h88V424q0-193 62.5-285T471 47q131 0 192.5 90T725 424v948h88V424q0-457-342-457T129 424zm231 1087l246 228 60-68-271-207-35 47z"/><glyph glyph-name="Ucircumflex" unicode="Û" horiz-adv-x="942" d="M129 424v948h88V424q0-193 62.5-285T471 47q131 0 192.5 90T725 424v948h88V424q0-457-342-457T129 424zm104 1089l215 238h48l213-238-37-43-201 191-201-191-37 43z"/><glyph glyph-name="Udieresis" unicode="Ü" horiz-adv-x="942" d="M129 424v948h88V424q0-193 62.5-285T471 47q131 0 192.5 90T725 424v948h88V424q0-457-342-457T129 424zm143 1184q0 29 17.5 49t46.5 20q29 0 46-20.5t17-48.5q0-29-17-49.5t-46-20.5q-29 0-46.5 20.5T272 1608zm273 0q0 29 17.5 49t45.5 20q29 0 46.5-20.5T672 1608q0-29-17.5-49.5T608 1538q-29 0-46 20.5t-17 49.5z"/><glyph glyph-name="Yacute" unicode="Ý" horiz-adv-x="831" d="M55 1372h97l266-719 266 719h92L461 553V0h-90v553L55 1372zm250 139l246 228 60-68-271-207-35 47z"/><glyph glyph-name="Thorn" unicode="Þ" horiz-adv-x="821" d="M145 0v1372h88v-272h134q190 0 282-99.5T741 694q0-203-92-301t-282-98H233V0h-88zm88 371h134q145 0 213.5 75.5T649 694q0 174-68.5 252T367 1024H233V371z"/><glyph glyph-name="germandbls" unicode="ß" horiz-adv-x="854" d="M131 0v1073q0 186 74 286.5T416 1460q133 0 209.5-98t76.5-270q0-236-143-314 209-61 209-395 0-197-77-303.5T471-27q-69 0-135 27l20 70q55-20 113-21 100 0 155.5 88T680 385q0 348-260 348h-35v72h33q199 0 198 289 0 291-200 290-201 0-201-297V0h-84z"/><glyph glyph-name="agrave" unicode="à" horiz-adv-x="747" d="M86 244q0 164 122 258t339 98v113q0 258-172 258-166 0-187-232h-79q8 139 79.5 221t188.5 82q252 0 252-352V0h-72l-6 143q-31-80-90.5-125T322-27q-104 0-170 75T86 244zm82 0q0-94 46-148.5T338 41q59 0 106.5 40t75 106.5Q547 254 547 336v199q-379-6-379-291zm47 1167l64 64 196-277-39-41-221 254z"/><glyph glyph-name="aacute" unicode="á" horiz-adv-x="747" d="M86 244q0 164 122 258t339 98v113q0 258-172 258-166 0-187-232h-79q8 139 79.5 221t188.5 82q252 0 252-352V0h-72l-6 143q-31-80-90.5-125T322-27q-104 0-170 75T86 244zm82 0q0-94 46-148.5T338 41q59 0 106.5 40t75 106.5Q547 254 547 336v199q-379-6-379-291zm111 954l196 277 72-54-221-258-47 35z"/><glyph glyph-name="acircumflex" unicode="â" horiz-adv-x="747" d="M86 244q0 164 122 258t339 98v113q0 258-172 258-166 0-187-232h-79q8 139 79.5 221t188.5 82q252 0 252-352V0h-72l-6 143q-31-80-90.5-125T322-27q-104 0-170 75T86 244zm82 0q0-94 46-148.5T338 41q59 0 106.5 40t75 106.5Q547 254 547 336v199q-379-6-379-291zm2 919l184 307h48l184-307-41-33-168 244-166-244-41 33z"/><glyph glyph-name="atilde" unicode="ã" horiz-adv-x="747" d="M86 244q0 164 122 258t339 98v113q0 258-172 258-166 0-187-232h-79q8 139 79.5 221t188.5 82q252 0 252-352V0h-72l-6 143q-31-80-90.5-125T322-27q-104 0-170 75T86 244zm82 0q0-94 46-148.5T338 41q59 0 106.5 40t75 106.5Q547 254 547 336v199q-379-6-379-291zm8 946q4 219 109 219 33 0 60.5-26.5T395 1325q20-27 39-46t37-19q18 0 31.5 31.5T518 1405h62q-2-106-30-162.5t-79-56.5q-31 0-59.5 26.5T361 1270q-20 27-39 46t-37 19q-18 0-30.5-31.5T238 1190h-62z"/><glyph glyph-name="adieresis" unicode="ä" horiz-adv-x="747" d="M86 244q0 164 122 258t339 98v113q0 258-172 258-166 0-187-232h-79q8 139 79.5 221t188.5 82q252 0 252-352V0h-72l-6 143q-31-80-90.5-125T322-27q-104 0-170 75T86 244zm82 0q0-94 46-148.5T338 41q59 0 106.5 40t75 106.5Q547 254 547 336v199q-379-6-379-291zm14 1038q0 29 17.5 49.5T246 1352q29 0 46-20.5t17-49.5q0-29-17-49.5t-46-20.5q-29 0-46.5 20.5T182 1282zm263 0q0 29 17 49.5t46 20.5q29 0 46.5-20.5T572 1282q0-29-17.5-49.5T508 1212q-29 0-46 20.5t-17 49.5z"/><glyph glyph-name="aring" unicode="å" horiz-adv-x="747" d="M86 244q0 164 122 258t339 98v113q0 258-172 258-166 0-187-232h-79q8 139 79.5 221t188.5 82q252 0 252-352V0h-72l-6 143q-31-80-90.5-125T322-27q-104 0-170 75T86 244zm82 0q0-94 46-148.5T338 41q59 0 106.5 40t75 106.5Q547 254 547 336v199q-379-6-379-291zm45 1112q0 90 45 144t121 54q76 0 119-52t43-146q0-92-43-146.5T379 1155q-76 0-121 54.5T213 1356zm62-2q0-144 102-144t102 144q0 145-102 145t-102-145z"/><glyph glyph-name="ae" unicode="æ" horiz-adv-x="1239" d="M86 244q0 164 122 258t339 98v113q0 258-172 258-86 0-131-58.5T188 739h-79q4 82 33.5 150.5t88 110.5q58.5 42 146.5 42 92 0 149.5-49T606 836q72 207 250 206 139 0 216-121.5t77-414.5v-23H625q2-227 63.5-331.5T856 47q98 0 147.5 65.5T1061 313h80Q1112-27 852-27q-197 0-262 242-27-117-94.5-179.5T322-27q-104 0-170 75T86 244zm82 0q0-94 46-148.5T338 41q63 0 110.5 43t73 109.5Q547 260 547 336v199q-379-6-379-291zm457 307h444q-8 231-59.5 324.5T856 969q-106 0-165.5-99.5T625 551z"/><glyph glyph-name="ccedilla" unicode="ç" horiz-adv-x="774" d="M86 506q0 262 81 399t234 137q127 0 197-85t88-261h-84q-16 143-63 208t-138 65q-227 0-227-463 0-459 227-459 94 0 144.5 71.5T608 344h82Q657-27 401-27q-154 0-234.5 136.5T86 506zm235-973l4 59q35-12 80-12 113 0 113 121 0 115-92 115-29 0-48-13h-26L372 0h54l-17-139q16 6 37 6 61 0 100-43t39-119q0-88-48-136t-134-48q-43 0-82 12z"/><glyph glyph-name="egrave" unicode="è" horiz-adv-x="784" d="M86 506q0 270 84 403t231 133q139 0 216-121.5T694 506v-23H170q2-227 63.5-331.5T401 47q98 0 147.5 65.5T606 313h80Q657-27 397-27q-145 0-228 132.5T86 506zm84 45h444q-8 231-59.5 324.5T401 969q-106 0-165.5-99.5T170 551zm69 860l64 64 196-277-39-41-221 254z"/><glyph glyph-name="eacute" unicode="é" horiz-adv-x="784" d="M86 506q0 270 84 403t231 133q139 0 216-121.5T694 506v-23H170q2-227 63.5-331.5T401 47q98 0 147.5 65.5T606 313h80Q657-27 397-27q-145 0-228 132.5T86 506zm84 45h444q-8 231-59.5 324.5T401 969q-106 0-165.5-99.5T170 551zm133 647l196 277 72-54-221-258-47 35z"/><glyph glyph-name="ecircumflex" unicode="ê" horiz-adv-x="784" d="M86 506q0 270 84 403t231 133q139 0 216-121.5T694 506v-23H170q2-227 63.5-331.5T401 47q98 0 147.5 65.5T606 313h80Q657-27 397-27q-145 0-228 132.5T86 506zm84 45h444q-8 231-59.5 324.5T401 969q-106 0-165.5-99.5T170 551zm24 612l184 307h48l184-307-41-33-168 244-166-244-41 33z"/><glyph glyph-name="edieresis" unicode="ë" horiz-adv-x="784" d="M86 506q0 270 84 403t231 133q139 0 216-121.5T694 506v-23H170q2-227 63.5-331.5T401 47q98 0 147.5 65.5T606 313h80Q657-27 397-27q-145 0-228 132.5T86 506zm84 45h444q-8 231-59.5 324.5T401 969q-106 0-165.5-99.5T170 551zm36 731q0 29 17.5 49.5T270 1352q29 0 46-20.5t17-49.5q0-29-17-49.5t-46-20.5q-29 0-46.5 20.5T206 1282zm263 0q0 29 17 49.5t46 20.5q29 0 46.5-20.5T596 1282q0-29-17.5-49.5T532 1212q-29 0-46 20.5t-17 49.5z"/><glyph glyph-name="igrave" unicode="ì" horiz-adv-x="342" d="M37 1436l76 49 135-311-47-33-164 295zM129 0v1016h84V0h-84z"/><glyph glyph-name="iacute" unicode="í" horiz-adv-x="342" d="M100 1174l136 311 79-37-161-299-54 25zM129 0v1016h84V0h-84z"/><glyph glyph-name="icircumflex" unicode="î" horiz-adv-x="342" d="M-10 1159l157 311h48l157-311-41-29-141 246-139-246-41 29zM129 0v1016h84V0h-84z"/><glyph glyph-name="idieresis" unicode="ï" horiz-adv-x="342" d="M-4 1282q0 29 17.5 49.5T59 1352q29 0 46.5-20.5T123 1282q0-29-17.5-49.5T59 1212q-29 0-46 20.5T-4 1282zM129 0v1016h84V0h-84zm88 1282q0 29 17.5 49.5T281 1352q29 0 46-20.5t17-49.5q0-29-17-49.5t-46-20.5q-29 0-46.5 20.5T217 1282z"/><glyph glyph-name="eth" unicode="ð" horiz-adv-x="786" d="M86 489q0 242 79 381.5T383 1010q80 0 139.5-49.5T616 823q-23 281-174 430l-137-157-47 45 135 155q-72 55-164 82l27 72q106-39 184-98l123 141 47-45-121-139q113-111 163-292t50-460q0-584-307-584-150 0-229.5 134.5T86 489zm88 3q0-213 57.5-329T395 47q221 0 221 451 0 195-62 316.5T391 936q-106 0-161.5-113.5T174 492z"/><glyph glyph-name="ntilde" unicode="ñ" horiz-adv-x="808" d="M131 0v1016h72l6-166q29 86 91 139t151 53q117 0 178-81.5T690 707V0h-84v698q0 141-41 206t-125 65q-98 0-161.5-95.5T215 545V0h-84zm78 1190q4 219 109 219 33 0 60.5-26.5T428 1325q20-27 39-46t37-19q18 0 31.5 31.5T551 1405h62q-2-106-30-162.5t-79-56.5q-31 0-59.5 26.5T394 1270q-20 27-39 46t-37 19q-18 0-30.5-31.5T271 1190h-62z"/><glyph glyph-name="ograve" unicode="ò" horiz-adv-x="806" d="M86 508q0 266 81 400t236 134q156 0 237-134t81-400q0-266-81-400.5T403-27q-156 0-236.5 134.5T86 508zm88 0q0-240 57-350.5T403 47q115 0 172.5 110.5T633 508q0 240-57.5 350.5T403 969q-115 0-172-110.5T174 508zm67 903l64 64 196-277-39-41-221 254z"/><glyph glyph-name="oacute" unicode="ó" horiz-adv-x="806" d="M86 508q0 266 81 400t236 134q156 0 237-134t81-400q0-266-81-400.5T403-27q-156 0-236.5 134.5T86 508zm88 0q0-240 57-350.5T403 47q115 0 172.5 110.5T633 508q0 240-57.5 350.5T403 969q-115 0-172-110.5T174 508zm131 690l196 277 72-54-221-258-47 35z"/><glyph glyph-name="ocircumflex" unicode="ô" horiz-adv-x="806" d="M86 508q0 266 81 400t236 134q156 0 237-134t81-400q0-266-81-400.5T403-27q-156 0-236.5 134.5T86 508zm88 0q0-240 57-350.5T403 47q115 0 172.5 110.5T633 508q0 240-57.5 350.5T403 969q-115 0-172-110.5T174 508zm22 655l184 307h48l184-307-41-33-168 244-166-244-41 33z"/><glyph glyph-name="otilde" unicode="õ" horiz-adv-x="806" d="M86 508q0 266 81 400t236 134q156 0 237-134t81-400q0-266-81-400.5T403-27q-156 0-236.5 134.5T86 508zm88 0q0-240 57-350.5T403 47q115 0 172.5 110.5T633 508q0 240-57.5 350.5T403 969q-115 0-172-110.5T174 508zm28 682q4 219 109 219 33 0 60.5-26.5T421 1325q20-27 39-46t37-19q18 0 31.5 31.5T544 1405h62q-2-106-30-162.5t-79-56.5q-31 0-59.5 26.5T387 1270q-20 27-39 46t-37 19q-18 0-30.5-31.5T264 1190h-62z"/><glyph glyph-name="odieresis" unicode="ö" horiz-adv-x="806" d="M86 508q0 266 81 400t236 134q156 0 237-134t81-400q0-266-81-400.5T403-27q-156 0-236.5 134.5T86 508zm88 0q0-240 57-350.5T403 47q115 0 172.5 110.5T633 508q0 240-57.5 350.5T403 969q-115 0-172-110.5T174 508zm34 774q0 29 17.5 49.5T272 1352q29 0 46-20.5t17-49.5q0-29-17-49.5t-46-20.5q-29 0-46.5 20.5T208 1282zm263 0q0 29 17 49.5t46 20.5q29 0 46.5-20.5T598 1282q0-29-17.5-49.5T534 1212q-29 0-46 20.5t-17 49.5z"/><glyph glyph-name="divide" unicode="÷" horiz-adv-x="808" d="M100 639v74h609v-74H100zm244-221q0 29 17.5 49t46.5 20q29 0 46-20.5t17-48.5q0-29-17-49.5T408 348q-29 0-46.5 20.5T344 418zm0 518q0 29 17.5 49.5T408 1006q29 0 46-20.5t17-49.5q0-29-17-49.5T408 866q-29 0-46.5 20.5T344 936z"/><glyph glyph-name="oslash" unicode="ø" horiz-adv-x="804" d="M86 508q0 266 81 400t236 134q106 0 179-63l57 123 55-31-67-143q94-135 94-420 0-266-81-400.5T403-27q-106 0-178 64L168-86l-55 31 67 143Q86 223 86 508zm88 0q0-219 49-332l322 729q-53 63-142 64-115 0-172-110.5T174 508zm88-397q53-64 141-64 115 0 172.5 110.5T633 508q0 219-49 332L262 111z"/><glyph glyph-name="ugrave" unicode="ù" horiz-adv-x="798" d="M119 279v737h84V279q0-231 164-232 104 0 160.5 105.5T584 455v561h84V0h-72l-6 166q-29-92-90.5-142.5T354-27q-113 0-174 79t-61 227zm112 1132l64 64 196-277-39-41-221 254z"/><glyph glyph-name="uacute" unicode="ú" horiz-adv-x="798" d="M119 279v737h84V279q0-231 164-232 104 0 160.5 105.5T584 455v561h84V0h-72l-6 166q-29-92-90.5-142.5T354-27q-113 0-174 79t-61 227zm176 919l196 277 72-54-221-258-47 35z"/><glyph glyph-name="ucircumflex" unicode="û" horiz-adv-x="798" d="M119 279v737h84V279q0-231 164-232 104 0 160.5 105.5T584 455v561h84V0h-72l-6 166q-29-92-90.5-142.5T354-27q-113 0-174 79t-61 227zm67 884l184 307h48l184-307-41-33-168 244-166-244-41 33z"/><glyph glyph-name="udieresis" unicode="ü" horiz-adv-x="798" d="M119 279v737h84V279q0-231 164-232 104 0 160.5 105.5T584 455v561h84V0h-72l-6 166q-29-92-90.5-142.5T354-27q-113 0-174 79t-61 227zm79 1003q0 29 17.5 49.5T262 1352q29 0 46-20.5t17-49.5q0-29-17-49.5t-46-20.5q-29 0-46.5 20.5T198 1282zm263 0q0 29 17 49.5t46 20.5q29 0 46.5-20.5T588 1282q0-29-17.5-49.5T524 1212q-29 0-46 20.5t-17 49.5z"/><glyph glyph-name="yacute" unicode="ý" horiz-adv-x="696" d="M8-436l21 69q37-14 80-14 57 0 92 43t59 139l47 185L47 1016h90l209-899 217 899h84L338-209q-33-127-89-187.5T104-457q-55 0-96 21zm261 1634l196 277 72-54-221-258-47 35z"/><glyph glyph-name="thorn" unicode="þ" horiz-adv-x="815" d="M131-430v1864h84V864q66 178 229 178 125 0 206-130t81-404q0-274-81-404.5T444-27q-168 0-229 177v-580h-84zm82 907q0-203 58.5-316.5T426 47q102 0 159.5 111.5T643 508q0 238-57.5 349.5T426 969q-100 0-156.5-114T213 539v-62z"/><glyph glyph-name="ydieresis" unicode="ÿ" horiz-adv-x="696" d="M8-436l21 69q37-14 80-14 57 0 92 43t59 139l47 185L47 1016h90l209-899 217 899h84L338-209q-33-127-89-187.5T104-457q-55 0-96 21zm164 1718q0 29 17.5 49.5T236 1352q29 0 46-20.5t17-49.5q0-29-17-49.5t-46-20.5q-29 0-46.5 20.5T172 1282zm263 0q0 29 17 49.5t46 20.5q29 0 46.5-20.5T562 1282q0-29-17.5-49.5T498 1212q-29 0-46 20.5t-17 49.5z"/><glyph glyph-name="OE" unicode="Œ" horiz-adv-x="1263" d="M72 686q0 213 57 366.5T292.5 1289q106.5 83 254.5 83h641v-76H748V735h403v-76H748V76h450V0H549Q402 0 294 83T129 319.5Q72 473 72 686zm92 0q0-295 98.5-449.5T549 82h110v1208H549q-186 0-285.5-156.5T164 686z"/><glyph glyph-name="oe" unicode="œ" horiz-adv-x="1327" d="M86 508q0 266 81 400t236 134q205 0 273-243 35 123 103.5 183t164.5 60q139 0 216-121.5t77-414.5v-23H713q2-227 63.5-331.5T944 47q98 0 147.5 65.5T1149 313h80Q1200-27 940-27q-197 0-266 238Q611-27 403-27q-156 0-236.5 134.5T86 508zm88 0q0-240 57-350.5T403 47q117 0 173.5 110.5T633 508q0 240-56.5 350.5T403 969q-115 0-172-110.5T174 508zm539 43h444q-8 231-59.5 324.5T944 969q-106 0-165.5-99.5T713 551z"/><glyph glyph-name="Ydieresis" unicode="Ÿ" horiz-adv-x="831" d="M55 1372h97l266-719 266 719h92L461 553V0h-90v553L55 1372zm162 236q0 29 17.5 49t46.5 20q29 0 46-20.5t17-48.5q0-29-17-49.5t-46-20.5q-29 0-46.5 20.5T217 1608zm273 0q0 29 17.5 49t45.5 20q29 0 46.5-20.5T617 1608q0-29-17.5-49.5T553 1538q-29 0-46 20.5t-17 49.5z"/><glyph glyph-name="circumflex" unicode="ˆ" horiz-adv-x="1024" d="M305 1163l184 307h48l184-307-41-33-168 244-166-244-41 33z"/><glyph glyph-name="tilde" unicode="˜" horiz-adv-x="665" d="M131 1190q4 219 109 219 33 0 60.5-26.5T350 1325q20-27 39-46t37-19q18 0 31.5 31.5T473 1405h62q-2-106-30-162.5t-79-56.5q-31 0-59.5 26.5T316 1270q-20 27-39 46t-37 19q-18 0-30.5-31.5T193 1190h-62z"/><glyph glyph-name="uni2000" horiz-adv-x="940"/><glyph glyph-name="uni2001" horiz-adv-x="1880"/><glyph glyph-name="uni2002" horiz-adv-x="940"/><glyph glyph-name="uni2003" horiz-adv-x="1880"/><glyph glyph-name="uni2004" horiz-adv-x="626"/><glyph glyph-name="uni2005" horiz-adv-x="470"/><glyph glyph-name="uni2006" horiz-adv-x="313"/><glyph glyph-name="uni2007" horiz-adv-x="313"/><glyph glyph-name="uni2008" horiz-adv-x="235"/><glyph glyph-name="uni2009" horiz-adv-x="376"/><glyph glyph-name="uni200A" horiz-adv-x="104"/><glyph glyph-name="uni2010" unicode="‐" horiz-adv-x="630" d="M127 449v75h377v-75H127z"/><glyph glyph-name="uni2011" unicode="‑" horiz-adv-x="630" d="M127 449v75h377v-75H127z"/><glyph glyph-name="figuredash" unicode="‒" horiz-adv-x="630" d="M127 449v75h377v-75H127z"/><glyph glyph-name="endash" unicode="–" horiz-adv-x="665" d="M0 446v82h666v-82H0z"/><glyph glyph-name="emdash" unicode="—" horiz-adv-x="1331" d="M0 446v82h1331v-82H0z"/><glyph glyph-name="quoteleft" unicode="‘" horiz-adv-x="397" d="M143 1227q0 186 152 227v-49q-80-45-88-150 39 0 55.5-21.5T279 1186q0-70-64-70-72 0-72 111z"/><glyph glyph-name="quoteright" unicode="’" horiz-adv-x="432" d="M139 1116v49q80 45 88 150-39 0-55 21.5t-16 47.5q0 70 63 70 72 0 72-111 0-186-152-227z"/><glyph glyph-name="quotesinglbase" unicode="‚" horiz-adv-x="395" d="M102-162q80 45 88 150-39 0-55 21.5T119 57q0 70 63 70 72 0 72-111 0-186-152-227v49z"/><glyph glyph-name="quotedblleft" unicode="“" horiz-adv-x="579" d="M141 1227q0 186 152 227v-49q-80-45-88-150 39 0 55.5-21.5T277 1186q0-70-64-70-72 0-72 111zm184 0q0 186 152 227v-49q-80-45-88-150 39 0 55.5-21.5T461 1186q0-70-64-70-72 0-72 111z"/><glyph glyph-name="quotedblright" unicode="”" horiz-adv-x="579" d="M102 1116v49q80 45 88 150-39 0-55 21.5t-16 47.5q0 70 63 70 72 0 72-111 0-186-152-227zm184 0v49q80 45 88 150-39 0-55 21.5t-16 47.5q0 70 63 70 72 0 72-111 0-186-152-227z"/><glyph glyph-name="quotedblbase" unicode="„" horiz-adv-x="579" d="M102-144q80 45 88 150-39 0-55 21.5T119 75q0 70 63 70 72 0 72-111 0-186-152-227v49zm184 0q80 45 88 150-39 0-55 21.5T303 75q0 70 63 70 72 0 72-111 0-186-152-227v49z"/><glyph glyph-name="bullet" unicode="•" horiz-adv-x="380" d="M49 487q0 70 39 113t102 43q63 0 102.5-43T332 487q0-70-39-112.5T190 332q-63 0-102 42.5T49 487z"/><glyph glyph-name="ellipsis" unicode="…" horiz-adv-x="1228" d="M139 57q0 31 17.5 50.5T203 127q29 0 46-19.5T266 57q0-33-17-51t-46-18q-29 0-46.5 18.5T139 57zm410 0q0 31 17.5 50.5T613 127q29 0 46-19.5T676 57q0-33-17-51t-46-18q-29 0-46.5 18.5T549 57zm409 0q0 31 17.5 50.5T1022 127q29 0 46-19.5t17-50.5q0-33-17-51t-46-18q-29 0-46.5 18.5T958 57z"/><glyph glyph-name="uni202F" horiz-adv-x="376"/><glyph glyph-name="guilsinglleft" unicode="‹" horiz-adv-x="448" d="M74 502l192 395h86L164 504l190-398h-88L74 502z"/><glyph glyph-name="guilsinglright" unicode="›" horiz-adv-x="448" d="M94 897h88l193-395-193-396H96l189 394L94 897z"/><glyph glyph-name="uni205F" horiz-adv-x="470"/><glyph glyph-name="Euro" unicode="€" horiz-adv-x="786" d="M0 506v69h100q-2 45-2 95 0 47 2 90H0v69h104q20 279 112.5 411T444 1372q141 0 218-121t94-342h-80q-12 188-68.5 286.5T444 1294q-104 0-172.5-113.5T186 829h351l-9-69H182q-2-43-2-90 0-49 2-95h324l-8-69H186q16-238 85-349.5T442 45q104 0 160.5 90T676 418h78Q721-35 442-35 305-35 215 97T104 506H0z"/><glyph glyph-name="trademark" unicode="™" horiz-adv-x="1183" d="M23 1309v63h456v-63H287V512h-72v797H23zm499-797l68 860h80l159-672 158 672h80l70-860h-68l-53 702-154-614h-67l-154 612-53-700h-66z"/><glyph glyph-name="uni25FC" unicode="◼" horiz-adv-x="1013" d="M0 0v1014h1014V0H0z"/><glyph glyph-name="uniFB01" unicode="ﬁ" horiz-adv-x="782" d="M45 944v72h113v184q0 123 62.5 191.5T395 1460q53 0 92-16v-72q-39 14-86 14-160 0-159-184v-186h219v-72H242V0h-84v944H45zm504 338q0 29 17.5 49.5T612 1352q29 0 46.5-20.5T676 1282q0-29-17.5-49.5T612 1212q-29 0-46 20.5t-17 49.5zM569 0v1016h84V0h-84z"/><glyph glyph-name="uniFB02" unicode="ﬂ" horiz-adv-x="784" d="M45 944v72h113v184q0 123 62.5 191.5T395 1460q53 0 92-16v-72q-39 14-86 14-160 0-159-184v-186h209v-72H242V0h-84v944H45zM569 0v1434h84V0h-84z"/><glyph glyph-name="uniFB03" unicode="ﬃ" horiz-adv-x="1206" d="M45 944v72h113v184q0 123 62.5 191.5T395 1460q29 0 55.5-5t49.5-15l-19-68q-41 14-80 14-160 0-159-184v-186h340v184q0 123 62.5 191.5T819 1460q53 0 92-16v-72q-39 14-86 14-160 0-159-184v-186h219v-72H666V0h-84v944H242V0h-84v944H45zm928 338q0 29 17.5 49.5t45.5 20.5q29 0 46.5-20.5t17.5-49.5q0-29-17.5-49.5T1036 1212q-29 0-46 20.5t-17 49.5zM993 0v1016h84V0h-84z"/><glyph glyph-name="uniFB04" unicode="ﬄ" horiz-adv-x="1208" d="M45 944v72h113v184q0 123 62.5 191.5T395 1460q29 0 55.5-5t49.5-15l-19-68q-41 14-80 14-160 0-159-184v-186h340v184q0 123 62.5 191.5T819 1460q53 0 92-16v-72q-39 14-86 14-160 0-159-184v-186h219v-72H666V0h-84v944H242V0h-84v944H45zM993 0v1434h84V0h-84z"/></font>
</svg>
