<svg xmlns="http://www.w3.org/2000/svg" version="1.2"><font><font-face font-family="Speedee Condensed" units-per-em="2048" ascent="1434" descent="-614" font-style="normal" font-weight="700" font-stretch="extra-condensed" cap-height="670" x-height="504" underline-position="-575" underline-thickness="81"/><glyph glyph-name="glyph1"/><glyph glyph-name="uni000D" horiz-adv-x="225"/><glyph glyph-name="space" horiz-adv-x="315"/><glyph glyph-name="exclam" unicode="!" horiz-adv-x="411" d="M57 1372h297l-51-950H111l-54 950zM70 135q0 66 41 107t98 41q61 0 102-41t41-107q-2-66-44-109.5T209-18q-57 0-98 44T70 135z"/><glyph glyph-name="quotedbl" unicode="&quot;" horiz-adv-x="675" d="M55 1354v49h244v-49q0-47-7-124t-19.5-167Q260 973 242 891H113q-18 82-31.5 172t-20 167q-6.5 77-6.5 124zm317 0v49h244v-49q0-47-7-124t-19.5-167Q577 973 559 891H430q-18 82-31.5 172t-20 167q-6.5 77-6.5 124z"/><glyph glyph-name="numbersign" unicode="#" horiz-adv-x="808" d="M4 356v197h113l35 266H61v197h115l45 356h223l-45-356h95l45 356h223l-45-356h88V819H692l-35-266h91V356H633L588 0H365l45 356h-95L270 0H47l45 356H4zm336 197h94l35 266h-94l-35-266z"/><glyph glyph-name="dollar" unicode="$" horiz-adv-x="856" d="M53 451h269q2-133 28.5-187.5T436 209q94 0 94 104 0 72-38.5 131.5T377 557l-129 94q-76 55-124 135t-48 218q0 141 71.5 237T344 1364v207h168v-207q129-25 199.5-131.5T784 940H524q0 121-24.5 172t-71.5 51q-92 0-92-116 0-63 28.5-109.5T457 844l151-115q86-66 137.5-156T797 362q0-143-73-239T512 6v-225H344V8Q55 57 53 451z"/><glyph glyph-name="percent" unicode="%" horiz-adv-x="1478" d="M66 950q0 205 67.5 313.5T332 1372q131 0 198.5-108.5T598 950q0-205-67.5-313T332 529q-131 0-198.5 108.5T66 950zm211 0q0-156 11-211t44-55q33 0 44.5 55.5T388 950q0 156-11.5 211.5T332 1217q-33 0-44-55.5T277 950zM379 0l500 1352h219L600 0H379zm502 399q0 205 67.5 313.5T1147 821q131 0 198.5-108.5T1413 399q0-205-67.5-313T1147-22q-131 0-198.5 108.5T881 399zm211 0q0-156 11-211t44-55q33 0 44.5 55.5T1203 399q0 156-11.5 211.5T1147 666q-33 0-44-55.5T1092 399z"/><glyph glyph-name="ampersand" unicode="&amp;" horiz-adv-x="1026" d="M66 379q0 225 206 369-45 92-68.5 146T173 987q-7 39-7 84 0 133 83 217t216 84q133 0 212-82t79-221q0-219-211-373l135-274q12-27 25-47 25 106 24 280h215q0-137-26.5-250.5T840 205q12-2 26-2 35 0 86 10l17-201Q934 2 911.5-2T850-6q-72 0-152 55-102-70-231-69-184 0-292.5 107.5T66 379zm249 24q0-104 51.5-166.5T500 174q35 0 65 10-37 49-65 107L365 563q-50-66-50-160zm72 689q0-39 13.5-82T457 879q80 84 80 198 0 121-76 121-74 0-74-106z"/><glyph glyph-name="quotesingle" unicode="'" horiz-adv-x="358" d="M57 1354v49h244v-49q0-47-7-124t-19.5-167Q262 973 244 891H115q-18 82-31.5 172t-20 167q-6.5 77-6.5 124z"/><glyph glyph-name="parenleft" unicode="(" horiz-adv-x="501" d="M98 635q0 227 48.5 439T274 1475h205q-68-190-96.5-409.5T354 635q0-211 29-427t96-413H274Q194-12 146 199T98 635z"/><glyph glyph-name="parenright" unicode=")" horiz-adv-x="501" d="M23-205q68 190 96 409.5T147 635q0 211-28.5 427T23 1475h204q80-193 128-404t48-436q0-227-48-439T227-205H23z"/><glyph glyph-name="asterisk" unicode="*" horiz-adv-x="548" d="M8 1186l53 172q41-23 82-45.5t82-50.5q-29 104-45 208h189q-8-55-19.5-105T324 1262q41 29 81.5 51t81.5 45l54-172q-90-12-187-19 43-33 82-67.5t78-73.5L362 915q-27 49-48 96.5t-40 98.5q-18-51-39.5-98T186 915L35 1026q39 39 78 74t82 67q-96 6-187 19z"/><glyph glyph-name="plus" unicode="+" horiz-adv-x="808" d="M74 582v188h233v250h195V770h233V582H502V332H307v250H74z"/><glyph glyph-name="comma" unicode="," horiz-adv-x="368" d="M39 127q0 68 40 112t103 44q70 0 112-52.5T336 80q0-145-77-254.5T43-311v125q51 16 88 57t49 111h-4q-57 0-97 39.5T39 127z"/><glyph glyph-name="hyphen" unicode="-" horiz-adv-x="559" d="M53 391v219h453V391H53z"/><glyph glyph-name="period" unicode="." horiz-adv-x="368" d="M41 133q0 63 41 106.5T182 283q61 0 103.5-42T328 133q-2-66-44.5-108.5T182-18q-59 0-100 43T41 133z"/><glyph glyph-name="slash" unicode="/" horiz-adv-x="514" d="M-2-213l278 1616h238L236-213H-2z"/><glyph glyph-name="zero" unicode="0" horiz-adv-x="862" d="M66 670q0 377 86 539.5T430 1372q193 0 279-162.5T795 670q0-377-86-540T430-33q-193 0-278.5 163T66 670zm294 0q0-158 3.5-255.5T375 267q8-50 21.5-67.5T430 182q20 0 33.5 17.5t22 67.5q8.5 50 11.5 147.5t3 255.5q0 158-3 255t-11.5 147q-8.5 50-21.5 67.5t-34 17.5q-20 0-33.5-17.5T375 1072q-8-50-11.5-147.5T360 670z"/><glyph glyph-name="one" unicode="1" horiz-adv-x="655" d="M49 907v240q92 12 150.5 57T305 1339h217V0H233v942q-86-35-184-35z"/><glyph glyph-name="two" unicode="2" horiz-adv-x="811" d="M63 0v63q0 96 19.5 169T143 375.5Q184 446 248 535l129 176q53 72 72.5 139.5T469 993q0 94-15.5 129t-50.5 35q-39 0-52-58.5T336 907H66q0 225 91 345t255 120q166 0 254-103.5T754 985q0-125-32-204t-81-148L496 432q-57-76-82-117t-35-75h373V0H63z"/><glyph glyph-name="three" unicode="3" horiz-adv-x="813" d="M45 403h272q0-117 20.5-169t61.5-52q39 0 58.5 42T477 371q0 121-29.5 172T352 594h-59v211h59q45 0 68.5 38T444 989q0 92-14 130t-43 38q-31 0-45-37t-16-123H61q4 174 93.5 274.5T397 1372q158 0 249-99t91-269q0-221-168-299 109-39 156-127.5T772 362q0-178-95.5-286.5T399-33Q215-33 132 85T45 403z"/><glyph glyph-name="four" unicode="4" horiz-adv-x="819" d="M27 256v197l403 886h250V475h94V256h-94V0H430v256H27zm233 217l19 2h151v443L260 473z"/><glyph glyph-name="five" unicode="5" horiz-adv-x="806" d="M66 356h272q0-82 14.5-128t50.5-46q23 0 38.5 19.5t22.5 74q7 54.5 7 156.5 0 133-19.5 192.5T393 684q-33 0-50-30.5T317 567H90l35 772h586v-245H346l-14-301q27 39 67.5 60T500 874q127 0 196.5-108.5T766 457q0-250-90-370T401-33q-152 0-240.5 94.5T66 356z"/><glyph glyph-name="six" unicode="6" horiz-adv-x="843" d="M61 668q0 266 48.5 419.5t136.5 219q88 65.5 207 65.5 152 0 228.5-96t90.5-258H500q-2 139-62 139-27 0-43-27.5T368.5 1026Q358 950 356 803q31 37 71 51t85 14q127 0 204-107.5T793 430q0-231-95.5-347T432-33q-125 0-208 68.5T101 259Q61 414 61 668zm293-244q0-139 15.5-195.5T426 172q41 0 56.5 54.5T498 418q0 139-17.5 199.5T424 678q-39 0-54.5-60.5T354 424z"/><glyph glyph-name="seven" unicode="7" horiz-adv-x="712" d="M8 1094v245h680v-245Q579 922 515 755t-93-350.5Q393 221 391 0H109q6 217 40.5 402.5T253 757q69 169 175 337H8z"/><glyph glyph-name="eight" unicode="8" horiz-adv-x="831" d="M45 377q0 127 47 215t133 131Q71 801 72 1012q0 176 95 268t249 92q160 0 253-92t93-266q0-211-154-289 84-45 131-133t47-215q0-197-98-303.5T416-33Q240-33 142.5 75.5T45 377zm295-17q0-117 19.5-167t56.5-50q41 0 58.5 50.5T492 360q0 139-18.5 195.5T416 612q-37 0-56.5-56T340 360zm12 648q0-113 16.5-151t47.5-38q31 0 48 38t17 151q0 113-17.5 151.5T416 1198q-31 0-47.5-39T352 1008z"/><glyph glyph-name="nine" unicode="9" horiz-adv-x="843" d="M51 909q0 236 100.5 349.5T422 1372q131 0 210-70.5t114.5-225Q782 922 782 672q0-266-48-420T598 32.5Q510-33 391-33q-152 0-228.5 96.5T72 322h272q2-139 62-140 27 0 43 28t26 103.5Q485 389 487 537q-33-37-72.5-51.5T328 471q-127 0-202 104.5T51 909zm295 13q0-139 17.5-199.5T420 662q39 0 54 60t15 193q0 139-15 195.5t-56 56.5q-41 0-56.5-54T346 922z"/><glyph glyph-name="colon" unicode=":" horiz-adv-x="368" d="M41 133q0 63 41 106.5T182 283q61 0 103.5-42T328 133q-2-66-44.5-108.5T182-18q-59 0-100 43T41 133zm0 719q0 63 41 106.5t100 43.5q61 0 103.5-42T328 852q-2-66-44.5-108.5T182 701q-59 0-100 43T41 852z"/><glyph glyph-name="semicolon" unicode=";" horiz-adv-x="368" d="M39 127q0 68 40 112t103 44q70 0 112-52.5T336 80q0-145-77-254.5T43-311v125q51 16 88 57t49 111h-4q-57 0-97 39.5T39 127zm2 725q0 63 41 106.5t100 43.5q61 0 103.5-42T328 852q-2-66-44.5-108.5T182 701q-59 0-100 43T41 852z"/><glyph glyph-name="less" unicode="&lt;" horiz-adv-x="808" d="M145 588v155l500 258V797L354 666l291-129V330L145 588z"/><glyph glyph-name="equal" unicode="=" horiz-adv-x="808" d="M102 392v188h605V392H102zm0 340v188h605V732H102z"/><glyph glyph-name="greater" unicode="&gt;" horiz-adv-x="808" d="M164 330v205l291 131-291 129v206l500-258V588L164 330z"/><glyph glyph-name="question" unicode="?" horiz-adv-x="739" d="M35 1001q0 199 89 301.5T387 1405q141 0 229.5-86t88.5-225q0-59-9.5-105.5t-37-97.5Q631 840 580 764l-27-39q-37-53-55.5-89T473 567.5q-6-32.5-6-80.5v-53H213v41q0 100 20.5 171T303 791l27 38q39 55 58.5 92t26.5 72q7 35 7 80 0 70-13.5 98.5T367 1200q-35 0-48.5-42T305 1001H35zm168-868q0 63 42 106.5t99 43.5q61 0 103-42t42-108q-2-66-45-108.5T344-18q-57 0-99 43t-42 108z"/><glyph glyph-name="at" unicode="@" horiz-adv-x="1368" d="M51 532q0 436 169 669t462 233q207 0 348-101.5t214-289q73-187.5 73-447.5 0-283-84-413T985 53q-66 0-127 39t-84 144q-20-82-70.5-120T588 78q-106 0-179 108.5T336 514q0 223 73.5 329.5T586 950q55 0 93-27.5t62-86.5l15 104h233V317q0-68 12.5-90t34.5-22q53 0 85 87t32 304q0 336-119 514t-356 178q-231 0-346-194.5T217 532q0-371 120-559t339-188q90 0 162.5 17.5T991-135l58-133q-90-55-183.5-76T674-365q-299 0-461 222.5T51 532zm555-18q1-250 64-250 35 0 48 56.5T731 498v32q0 231-61 232-63 0-64-248z"/><glyph glyph-name="A" unicode="A" horiz-adv-x="942" d="M6 0l295 1372h340L936 0H639l-45 276H338L293 0H6zm367 498h184l-92 565-92-565z"/><glyph glyph-name="B" unicode="B" horiz-adv-x="911" d="M100 0v1372h340q197 0 297.5-91T838 1022q0-106-44-182T647 725q117-39 173.5-128T877 387q0-205-104.5-296T461 0H100zm279 199h51q84 0 114.5 44T575 408q0 119-33.5 161.5T430 612h-51V199zm0 598h43q66 0 95.5 40T547 989q0 109-30.5 147T414 1174h-35V797z"/><glyph glyph-name="C" unicode="C" horiz-adv-x="917" d="M45 686q0 377 106.5 548T477 1405q199 0 299.5-129T893 887H590q-8 162-34 231.5t-79 69.5q-43 0-70.5-42t-41-150.5Q352 887 352 686q0-203 14.5-311.5t42-149.5q27.5-41 68.5-41 59 0 84 67.5T588 471h305Q877 203 772.5 85T479-33q-219 0-326.5 169T45 686z"/><glyph glyph-name="D" unicode="D" horiz-adv-x="970" d="M100 0v1372h346q254 0 367-179t113-507q0-328-113-507T446 0H100zm279 209h51q70 0 111 43t59 146.5Q618 502 618 686q0 182-18 286.5T541 1120q-41 43-111 43h-51V209z"/><glyph glyph-name="E" unicode="E" horiz-adv-x="792" d="M100 0v1372h623v-221H395V801h287V582H395V221h334V0H100z"/><glyph glyph-name="F" unicode="F" horiz-adv-x="761" d="M100 0v1372h625v-221H395V772h277V553H395V0H100z"/><glyph glyph-name="G" unicode="G" horiz-adv-x="958" d="M45 686q0 719 438 719 190 0 292-117t126-364H596q-10 145-37 204.5t-82 59.5q-70 0-99.5-116T348 686q0-276 35-389t119-113q70 0 101.5 69T639 485H498v217h415V530q0-268-109.5-415.5T498-33q-233 0-343 174T45 686z"/><glyph glyph-name="H" unicode="H" horiz-adv-x="1009" d="M100 0v1372h295V803h219v569h295V0H614v584H395V0H100z"/><glyph glyph-name="I" unicode="I" horiz-adv-x="495" d="M100 0v1372h295V0H100z"/><glyph glyph-name="J" unicode="J" horiz-adv-x="821" d="M6 494h293q0-121 6-188.5t22.5-94.5q16.5-27 47.5-27 41 0 56 44t15 165v979h295V436q1-469-370-469Q181-33 94.5 91T6 494z"/><glyph glyph-name="K" unicode="K" horiz-adv-x="952" d="M100 0v1372h295V766l219 606h308L623 711q135-88 205.5-268.5T909 0H604q-8 147-33.5 268T501 469q-44 80-106 106V0H100z"/><glyph glyph-name="L" unicode="L" horiz-adv-x="747" d="M100 0v1372h295V221h312V0H100z"/><glyph glyph-name="M" unicode="M" horiz-adv-x="1167" d="M25 0l67 1372h291l203-823 198 823h291L1143 0H862l-8 891-174-727H481L303 893 295 0H25z"/><glyph glyph-name="N" unicode="N" horiz-adv-x="999" d="M100 0v1372h222l333-807v807h244V0H678L342 801V0H100z"/><glyph glyph-name="O" unicode="O" horiz-adv-x="985" d="M45 686q0 367 109.5 537T492 1393q229 0 338.5-170T940 686q0-367-109.5-536.5T492-20q-227 0-337 169.5T45 686zm307 0q0-190 15.5-296.5T414 240q31-43 78-43 49 0 79.5 43t46 149.5Q633 496 633 686t-15.5 297q-15.5 107-46 150t-79.5 43q-47 0-78-43t-46.5-149.5Q352 877 352 686z"/><glyph glyph-name="P" unicode="P" horiz-adv-x="880" d="M100 0v1372h349q211 0 310-110.5T858 920q0-233-99-344T449 465h-54V0H100zm295 662h43q66 0 94.5 60T561 920q0 133-28.5 193.5T438 1174h-43V662z"/><glyph glyph-name="Q" unicode="Q" horiz-adv-x="985" d="M45 686q0 367 109.5 537T492 1393q229 0 338.5-170T940 686q0-283-64.5-446.5T678 14q33-31 90-41t145-10v-262q-190 2-295.5 70.5T469-20q-215 8-319.5 178T45 686zm307 0q0-190 15.5-296.5T414 240q31-43 78-43 49 0 79.5 43t46 149.5Q633 496 633 686t-15.5 297q-15.5 107-46 150t-79.5 43q-47 0-78-43t-46.5-149.5Q352 877 352 686z"/><glyph glyph-name="R" unicode="R" horiz-adv-x="927" d="M100 0v1372h353q409 0 409-393 0-268-223-342 127-66 188.5-217.5T901 0H598q-6 254-55 399.5T414 545h-19V0H100zm295 741h43q66 0 96.5 51.5T565 958q0 115-29.5 165.5T438 1174h-43V741z"/><glyph glyph-name="S" unicode="S" horiz-adv-x="878" d="M53 442h295q4-143 26.5-201.5T449 182q79 0 79 112 0 85-30.5 143.5T395 549L262 649q-106 78-151 167t-45 216q0 111 47 195t131 131q84 47 192 47 178 0 273.5-112.5T809 961H522q0 123-20.5 176t-67.5 53q-37 0-57.5-32t-20.5-89q0-68 29-118t92-99l148-111q194-146 194-392 0-177-102.5-279.5T444-33Q247-33 151 84T53 442z"/><glyph glyph-name="T" unicode="T" horiz-adv-x="813" d="M16 1155v217h781v-217H555V0H258v1155H16z"/><glyph glyph-name="U" unicode="U" horiz-adv-x="966" d="M80 418v954h297V418q0-123 23.5-178.5T483 184q59 0 83 55.5T590 418v954h297V418q0-217-104.5-334T483-33Q288-33 184 84T80 418z"/><glyph glyph-name="V" unicode="V" horiz-adv-x="899" d="M6 1372h297l154-985 149 985h287L612 0H285L6 1372z"/><glyph glyph-name="W" unicode="W" horiz-adv-x="1251" d="M6 1372h293l86-907 154 907h188l156-917 88 917h274L1047 0H774L629 858 477 0H205L6 1372z"/><glyph glyph-name="X" unicode="X" horiz-adv-x="901" d="M2 0l305 700-295 672h299l142-399 135 399h295L586 694 897 0H600L440 430 297 0H2z"/><glyph glyph-name="Y" unicode="Y" horiz-adv-x="882" d="M-4 1372h303l147-512 150 512h291L590 545V0H293v545L-4 1372z"/><glyph glyph-name="Z" unicode="Z" horiz-adv-x="819" d="M39 0v168l418 987H57v217h711v-168L350 217h424V0H39z"/><glyph glyph-name="bracketleft" unicode="[" horiz-adv-x="536" d="M90-205v1680h416v-189H348V-16h158v-189H90z"/><glyph glyph-name="backslash" unicode="\" horiz-adv-x="509" d="M-4 1403h237L512-213H274L-4 1403z"/><glyph glyph-name="bracketright" unicode="]" horiz-adv-x="536" d="M31-16h157v1302H31v189h415V-205H31v189z"/><glyph glyph-name="asciicircum" unicode="^" horiz-adv-x="808" d="M92 721l221 631h185l221-631H528l-127 407-127-407H92z"/><glyph glyph-name="underscore" unicode="_" horiz-adv-x="665" d="M0-174h666v-82H0v82z"/><glyph glyph-name="grave" unicode="`" horiz-adv-x="665" d="M135 1395l174 161 207-323-117-107-264 269z"/><glyph glyph-name="a" unicode="a" horiz-adv-x="784" d="M43 256q0 164 107.5 263T444 629v63q0 98-12 137t-45 39q-55 0-63-145H61q14 162 100.5 249t233.5 87q156 0 240-96.5T719 690V0H483l-14 123Q410-27 264-27q-100 0-160.5 76T43 256zm270 37q1-111 58-111 73 0 73 184v121q-63-6-97-57t-34-137z"/><glyph glyph-name="b" unicode="b" horiz-adv-x="837" d="M76 0v1434h282V948q55 111 162 111 131 0 201-139.5T791 516q0-266-70-404.5T520-27q-59 0-110.5 37T328 111L319 0H76zm280 498q0-162 16.5-233.5T426 193q37 0 53.5 76.5T496 516q0 170-16.5 247T426 840q-37 0-53.5-72T356 535v-37z"/><glyph glyph-name="c" unicode="c" horiz-adv-x="759" d="M47 514q0 285 95.5 415T406 1059q143 0 226-93.5T727 668H461q-4 100-15.5 146T403 860q-23 0-37-29.5T347 726q-5-75-5-212 0-143 6-217t19.5-99.5Q381 172 408 172q33 0 44 39t15 154h264q-10-203-93-297.5T403-27q-170 0-263 129T47 514z"/><glyph glyph-name="d" unicode="d" horiz-adv-x="837" d="M47 516q0 264 68.5 403.5T317 1059q106 0 162-111v486h283V0H518l-8 111q-31-63-82.5-100.5T317-27q-133 0-201.5 138.5T47 516zm295 0q0-170 16.5-246.5T412 193q37 0 53 71.5T481 498v37q0 162-16 233.5T412 840q-37 0-53.5-77T342 516z"/><glyph glyph-name="e" unicode="e" horiz-adv-x="770" d="M47 520q0 281 94.5 410T399 1059q152 0 244-119t92-397v-88H328q2-164 20.5-222.5T401 174q31 0 46.5 32T465 317h262q-8-162-91-253T412-27q-180 0-272.5 132.5T47 520zm281 88h131q-4 152-19.5 204T393 864q-31 0-47-50t-18-206z"/><glyph glyph-name="f" unicode="f" horiz-adv-x="532" d="M27 827v205h92v101q0 158 76.5 242.5T416 1460q84 0 151-30l-35-193q-18 8-47 8-84 0-84-110v-103h131V827H401V0H119v827H27z"/><glyph glyph-name="g" unicode="g" horiz-adv-x="837" d="M47 526q0 195 35 311.5t96.5 169Q240 1059 317 1059q59 0 110.5-37T510 922l8 110h244V37q0-266-92.5-380T403-457q-141 0-231 84T70-109h262q0-172 74-172 29 0 44 18.5t22 73q7 54.5 7 156.5v144Q424 0 317 0 196 0 121.5 139.5T47 526zm295-4q0-143 17.5-223t52.5-80q69 0 69 281v39q0 164-16 232.5T412 840q-35 0-52.5-75T342 522z"/><glyph glyph-name="h" unicode="h" horiz-adv-x="825" d="M76 0v1434h282V948q27 51 73 81t106 30q113 0 168-81t55-233V0H477v709q0 122-48 122h-1q-33 0-51.5-38.5T358 659V0H76z"/><glyph glyph-name="i" unicode="i" horiz-adv-x="434" d="M55 1296q0 72 47.5 119t114.5 47q68 0 115-47t47-119q0-72-47-119t-115-47q-68 0-115 47.5T55 1296zM76 0v1032h282V0H76z"/><glyph glyph-name="j" unicode="j" horiz-adv-x="434" d="M-94-428l37 195q25-8 59-9 39 0 56.5 26T76-121v1153h282V-121q0-164-73.5-250T72-457q-49 0-90 7.5T-94-428zM55 1296q0 72 47.5 119t114.5 47q68 0 115-47t47-119q0-72-47-119t-115-47q-68 0-115 47.5T55 1296z"/><glyph glyph-name="k" unicode="k" horiz-adv-x="813" d="M76 0v1434h282V584l140 448h293L578 537q92-66 152.5-200T803 0H500q-6 145-43 260t-99 156V0H76z"/><glyph glyph-name="l" unicode="l" horiz-adv-x="434" d="M76 0v1434h282V0H76z"/><glyph glyph-name="m" unicode="m" horiz-adv-x="1210" d="M76 0v1032h243l9-108q33 63 86 99t118 36q68 0 115-36t72-99q33 63 85 99t118 36q115 0 169-81t54-230V0H862v705q0 66-9 96t-38 30q-29 0-48-38.5T748 659V0H473v705q0 63-9 94.5T426 831q-29 0-48.5-38.5T358 659V0H76z"/><glyph glyph-name="n" unicode="n" horiz-adv-x="825" d="M76 0v1032h243l9-108q29 61 85 98t124 37q113 0 168-81t55-233V0H477v705q0 126-48 126h-1q-33 0-51.5-38.5T358 659V0H76z"/><glyph glyph-name="o" unicode="o" horiz-adv-x="819" d="M47 516q0 274 91 408.5T410 1059q180 0 271-134.5T772 516q0-274-91-408.5T410-27q-180 0-271.5 134.5T47 516zm295 0q0-199 14.5-271.5T410 172q39 0 53 72.5T477 516q0 199-14 271.5T410 860q-39 0-53.5-72.5T342 516z"/><glyph glyph-name="p" unicode="p" horiz-adv-x="837" d="M76-430v1462h243l9-110q31 63 82 100t110 37q131 0 201-138.5T791 516q0-264-70-403.5T520-27Q414-27 358 84v-514H76zm280 928q0-162 16.5-233.5T426 193q37 0 53.5 76.5T496 516q0 170-16.5 247T426 840q-37 0-53.5-72T356 535v-37z"/><glyph glyph-name="q" unicode="q" horiz-adv-x="837" d="M47 516q0 266 68.5 404.5T317 1059q59 0 110.5-37T510 922l8 110h244V-430H479V84Q424-27 317-27q-133 0-201.5 139.5T47 516zm295 0q0-170 16.5-246.5T412 193q37 0 53 71.5T481 498v37q0 162-16 233.5T412 840q-37 0-53.5-77T342 516z"/><glyph glyph-name="r" unicode="r" horiz-adv-x="579" d="M76 0v1032h243l11-143q57 160 178 160 25 0 39-7V711q-10 2-21.5 3t-29.5 1q-66 0-102-43t-36-121V0H76z"/><glyph glyph-name="s" unicode="s" horiz-adv-x="710" d="M33 336h248q2-78 17-124t54-46q29 0 42.5 24.5T408 252q0 41-17.5 72.5T332 383l-121 82Q45 576 45 756q0 133 88 218t227 85q147 0 228.5-93.5T670 705H424q-2 80-16.5 119.5T360 864q-25 0-38-22.5T309 784q0-43 19.5-73.5T389 651l119-82q82-57 124-128.5T674 279q0-139-86.5-222.5T354-27q-154 0-235.5 92.5T33 336z"/><glyph glyph-name="t" unicode="t" horiz-adv-x="548" d="M10 827v205h90v291h283v-291h139V827H383V283q0-94 72-95 29 0 55 11L541 4q-29-12-76-21.5T375-27q-274 0-275 299v555H10z"/><glyph glyph-name="u" unicode="u" horiz-adv-x="817" d="M66 289v743h282V330q0-127 49-127 33 0 47.5 39T459 375v657h282V0H498l-9 109q-29-61-81-97.5T289-25q-113 0-168 81T66 289z"/><glyph glyph-name="v" unicode="v" horiz-adv-x="761" d="M6 1032h291l96-710 90 710h273L532 0H231L6 1032z"/><glyph glyph-name="w" unicode="w" horiz-adv-x="1116" d="M6 1032h283l69-735 111 735h203l114-743 66 743h258L922 0H653l-88 621L473 0H193L6 1032z"/><glyph glyph-name="x" unicode="x" horiz-adv-x="759" d="M6 0l242 522-236 510h285l92-289 96 289h263L504 524 756 0H471L369 287 268 0H6z"/><glyph glyph-name="y" unicode="y" horiz-adv-x="768" d="M-12-424l43 197q23-6 44-10.5t40-4.5q53 0 85.5 30T254-106l22 83L0 1032h291l100-713 92 713h287L475-127q-43-168-126-249t-204-81q-82 0-157 33z"/><glyph glyph-name="z" unicode="z" horiz-adv-x="645" d="M25 0v141l301 682H45v209h569V891L313 209h318V0H25z"/><glyph glyph-name="braceleft" unicode="{" horiz-adv-x="604" d="M61 541v188h41q55 0 81 34t26 109q0 84-12.5 157T184 1192q0 283 316 283h73v-189h-38q-102 0-103-141 0-59 7-104.5t13.5-92.5q6.5-47 6.5-112 0-172-154-201 154-29 154-201 0-66-6.5-113T439 229q-7-45-7-104 0-141 103-141h38v-189h-73q-315 0-316 283 0 90 12.5 162.5T209 397q0 76-25.5 110T102 541H61z"/><glyph glyph-name="bar" unicode="|" horiz-adv-x="432" d="M104-205v1680h224V-205H104z"/><glyph glyph-name="braceright" unicode="}" horiz-adv-x="604" d="M31-16h39q102 0 102 141 0 59-6 104t-13.5 92.5Q145 369 145 434q0 172 154 201-154 29-154 201 0 66 7.5 112.5T166 1040q6 45 6 105 0 141-102 141H31v189h73q315 0 316-283 0-90-12.5-163T395 872q0-76 25.5-109.5T502 729h41V541h-41q-55 0-81-34t-26-110q0-84 12.5-156.5T420 78q-1-283-316-283H31v189z"/><glyph glyph-name="asciitilde" unicode="~" horiz-adv-x="808" d="M74 512q0 150 53 245t158 95q47 0 84-22.5t73-75.5q20-29 30.5-45.5T498 692q16 0 27.5 36T537 848h196q0-150-53-245t-158-95q-47 0-83.5 22.5T365 606q-20 29-30.5 45.5T309 668q-16 0-27.5-36T270 512H74z"/><glyph glyph-name="uni00A0" horiz-adv-x="315"/><glyph glyph-name="exclamdown" unicode="¡" horiz-adv-x="411" d="M57-338l52 950h192l53-950H57zm2 1237q2 66 43.5 110t100.5 44q59 0 99-44t40-110q0-63-40-105t-99-42q-61 0-102.5 41T59 899z"/><glyph glyph-name="cent" unicode="¢" horiz-adv-x="768" d="M55 668q0 238 70 363.5T315 1190v162h168v-156q106-23 173-113t73-264H477q-2 98-20.5 143.5T403 1008q-27 0-45-25t-27-97.5q-9-72.5-9-217.5 0-152 8-222.5t27.5-92Q377 332 406 332q35 0 56 39t21 151h250q-6-172-71.5-264T483 143V0H315v147q-123 33-191.5 159T55 668z"/><glyph glyph-name="sterling" unicode="£" horiz-adv-x="784" d="M25 0v213q66 0 105.5 63.5T170 446q0 49-6 105H27v213h102q-8 55-15.5 110.5T106 989q0 174 88.5 278.5T440 1372q150 0 222.5-94t91.5-262H496q-6 139-52 139-27 0-39-29.5T393 1014q0-51 10.5-115.5T424 764h190V551H453q2-35 2-66 0-94-29-153.5T356 240h398V0H25z"/><glyph glyph-name="currency" unicode="¤" horiz-adv-x="786" d="M37 197l106 184Q80 498 80 680q0 178 63 295L37 1159l115 68 84-146q70 49 157 49 88 0 156-47l84 144 115-68-107-184q63-117 64-295 0-180-64-299l107-184-117-66-82 143q-68-47-156-47-90 0-157 47l-82-143-117 66zm256 483q0-127 25.5-184.5T393 438q45 0 72 57.5T492 680q0 240-99 240-100 0-100-240z"/><glyph glyph-name="yen" unicode="¥" horiz-adv-x="784" d="M6 1339h287l106-450 103 450h276L563 664h133V508H530V399h166V244H530V0H256v244H92v155h164v109H92v156h129L6 1339z"/><glyph glyph-name="section" unicode="§" horiz-adv-x="710" d="M31 113h254q0-90 14-124t47-34q29 0 45.5 31.5T408 98q0 68-11.5 113T338 279L90 399v236l295-125q115-47 176.5-103.5t83-127Q666 209 666 115q0-156-89.5-252T340-233q-147 0-228 92T31 113zm0 929q0 156 89 252.5t236 96.5q147 0 228.5-91.5T666 1044H412q0 90-14.5 124t-47.5 34q-29 0-45-31.5T289 1059q0-68 11-113t58-67l248-121V522L311 647q-115 49-176 104.5t-82.5 127Q31 950 31 1042z"/><glyph glyph-name="dieresis" unicode="¨" horiz-adv-x="665" d="M62 1290q0 57 35.5 93t86.5 36q53 0 90-35.5t37-93.5q-2-57-39-96t-88-39q-51 0-86.5 39T62 1290zm295 0q0 57 35.5 93t86.5 36q53 0 90-35.5t37-93.5q0-57-38-96t-89-39q-51 0-86.5 39t-35.5 96z"/><glyph glyph-name="copyright" unicode="©" horiz-adv-x="1107" d="M57 686q0 221 62.5 373.5T294 1292q112 80 261 80 147 0 259-80t175.5-232.5Q1053 907 1053 686q0-225-63.5-377.5T814 78Q702 0 555 0 332 0 194.5 174T57 686zm148 0q0-293 96-424t254-131q158 0 254 131t96 424q0 293-96 424t-254 131q-158 0-254-131t-96-424zm110 0q0 219 72 308t178 89q94 0 162-72.5T799 786H590q0 82-9.5 107T557 918q-12 0-21.5-15.5t-14.5-65q-5-49.5-5-151.5 0-100 4-148.5t13.5-64.5q9.5-16 23.5-16t24.5 22.5Q592 502 592 582h207q-8-154-74-222.5T565 291q-111 0-180.5 88T315 686z"/><glyph glyph-name="ordfeminine" unicode="ª" horiz-adv-x="589" d="M16 776q0 92 42 153.5t111 93.5q69 32 146 32v43q0 61-7 86.5t-27 25.5q-35 0-35-96H41q4 119 72.5 188.5T285 1372q133 0 190-88t57-258V584H338l-12 90q-42-105-146-105-66 0-115 51.5T16 776zm215 47q0-43 12.5-59t26.5-16q18 0 30.5 25.5T313 870v78q-41-4-61.5-32.5T231 823z"/><glyph glyph-name="guillemotleft" unicode="«" horiz-adv-x="888" d="M27 516l180 412h262L301 520l172-414H207L27 516zm369 0l180 412h262L670 520l172-414H576L396 516z"/><glyph glyph-name="logicalnot" unicode="¬" horiz-adv-x="808" d="M113 694v191h583V416H510v278H113z"/><glyph glyph-name="uni00AD" unicode="­" horiz-adv-x="559" d="M53 391v219h453V391H53z"/><glyph glyph-name="registered" unicode="®" horiz-adv-x="729" d="M16 889q0 248 96.5 376T365 1393q156 0 252-128t96-376q0-248-96-376T365 385q-156 0-252.5 128T16 889zm113 0q0-154 29.5-242T241 522q53-37 121-37t121.5 38q53.5 38 85 126T600 889q0 152-31.5 241t-85 125.5Q430 1292 362 1292t-121-36.5q-53-36.5-82.5-125T129 889zm100-246v506h146q63 0 98-40t35-110q0-100-70-127 72-49 84-229H410q-8 104-28 147.5T332 834V643H229zm103 281h22q47 0 47 67 0 70-47 70h-22V924z"/><glyph glyph-name="overscore" unicode="¯" horiz-adv-x="665" d="M101 1188v194h462v-194H101z"/><glyph glyph-name="degree" unicode="°" horiz-adv-x="438" d="M10 1153q0 139 57.5 210t151.5 71q94 0 151.5-71t57.5-210q0-139-57.5-210T219 872q-94 0-151.5 71T10 1153zm140 0q0-86 19-116.5t50-30.5q31 0 50.5 30.5T289 1153q0 86-19.5 116.5T219 1300q-31 0-50-30.5T150 1153z"/><glyph glyph-name="uni00B2" unicode="²" horiz-adv-x="544" d="M25 1296q0 143 64.5 222t180.5 79q106 0 170-67.5t64-180.5q0-78-33-134t-96-124l-68-71q-37-39-47-66h254V774H33v29q0 98 34.5 176T176 1136l60 66q43 47 56 82t13 76q0 82-41 82-27 0-36-31t-9-115H25z"/><glyph glyph-name="uni00B3" unicode="³" horiz-adv-x="559" d="M31 1034h192q2-72 14.5-99.5T276 907q27 0 38.5 23.5T326 1012q0 123-82 122h-45v127h34q78 0 78 95 0 88-43 88-47 0-49-86H45q4 111 67.5 175t170.5 64q111 0 174-61.5t63-173.5q0-109-94-162 113-53 113-195 0-117-71-184t-192-67q-246 0-245 280z"/><glyph glyph-name="acute" unicode="´" horiz-adv-x="665" d="M141 1231l207 323 174-161-264-269-117 107z"/><glyph glyph-name="paragraph" unicode="¶" horiz-adv-x="864" d="M16 911q0 229 96.5 345T352 1372h412V-215H610v1448H506V-215H352v666q-90 0-165.5 50t-123 152.5Q16 756 16 911z"/><glyph glyph-name="middot" unicode="·" horiz-adv-x="368" d="M41 477q0 63 41 106.5T182 627q61 0 103.5-42T328 477q-2-66-44.5-108.5T182 326q-59 0-100 43T41 477z"/><glyph glyph-name="cedilla" unicode="¸" horiz-adv-x="665" d="M174-537l11 138q45-10 75-11 84 0 84 91 0 80-63 79-23 0-45-16h-37L219 0h111l-12-119q8 2 18 2 80 0 126-54t46-148q0-117-59.5-174.5T289-551q-27 0-57.5 3T174-537z"/><glyph glyph-name="uni00B9" unicode="¹" horiz-adv-x="419" d="M23 1274v174q133 20 178 129h155V774H150v526q-61-27-127-26z"/><glyph glyph-name="ordmasculine" unicode="º" horiz-adv-x="602" d="M25 971q0 205 72.5 303t203.5 98q131 0 204-98t73-303q0-205-73-303.5T301 569q-131 0-203.5 98.5T25 971zm233 0q0-98 4-148.5t13.5-68Q285 737 301 737t25.5 17.5Q336 772 340 822t4 149q0 98-4 148t-13.5 67.5Q317 1204 301 1204t-25.5-17.5Q266 1169 262 1119t-4-148z"/><glyph glyph-name="guillemotright" unicode="»" horiz-adv-x="888" d="M47 106l172 414L51 928h262l181-412-181-410H47zm369 0l172 414-168 408h262l181-412-181-410H416z"/><glyph glyph-name="onequarter" unicode="¼" horiz-adv-x="1222" d="M23 1049v174q133 20 178 129h155V549H150v526q-61-27-127-26zM209 0l500 1352h219L430 0H209zm442 162v131l308 510h174V303h69V162h-69V0H946v162H651zm154 141h141v227L805 303z"/><glyph glyph-name="onehalf" unicode="½" horiz-adv-x="1247" d="M23 1049v174q133 20 178 129h155V549H150v526q-61-27-127-26zM201 0l500 1352h219L422 0H201zm526 522q0 143 64.5 222T972 823q106 0 170-67.5t64-180.5q0-78-33-134t-96-124l-68-71q-37-39-47-66h254V0H735v29q0 98 34.5 176T878 362l60 66q43 47 56 82t13 76q0 82-41 82-27 0-36-31t-9-115H727z"/><glyph glyph-name="threequarters" unicode="¾" horiz-adv-x="1333" d="M31 809h192q2-72 14.5-99.5T276 682q27 0 38.5 23.5T326 787q0 123-82 122h-45v127h34q78 0 78 95 0 88-43 88-47 0-49-86H45q4 111 67.5 175t170.5 64q111 0 174-61.5t63-173.5q0-109-94-162 113-53 113-195 0-117-71-184t-192-67Q30 529 31 809zM332 0l500 1352h219L553 0H332zm429 162v131l308 510h174V303h69V162h-69V0h-187v162H761zm154 141h141v227L915 303z"/><glyph glyph-name="questiondown" unicode="¿" horiz-adv-x="739" d="M35-59q0 59 9 105t35.5 96.5Q106 193 160 270l26 39q37 55 55.5 90t24.5 68q6 33 6 80v53h254v-41q0-100-20.5-171T436 244l-26-39q-37-53-57.5-91t-28-73Q317 6 317-39q0-70 13.5-98.5T373-166q35 0 48 42t13 157h271q0-199-88.5-301.5T352-371q-141 0-229 86T35-59zm215 960q2 66 44 109t101 43q59 0 100.5-43T537 901q0-66-41-107.5T395 752q-61 0-103 42t-42 107z"/><glyph glyph-name="Agrave" unicode="À" horiz-adv-x="942" d="M6 0l295 1372h340L936 0H639l-45 276H338L293 0H6zm217 1638l133 238 308-281-91-151-350 194zM373 498h184l-92 565-92-565z"/><glyph glyph-name="Aacute" unicode="Á" horiz-adv-x="942" d="M6 0l295 1372h340L936 0H639l-45 276H338L293 0H6zm268 1595l308 281 133-238-350-194-91 151zm99-1097h184l-92 565-92-565z"/><glyph glyph-name="Acircumflex" unicode="Â" horiz-adv-x="942" d="M6 0l295 1372h340L936 0H639l-45 276H338L293 0H6zm156 1548l239 297h140l239-297-110-106-199 207-199-207-110 106zM373 498h184l-92 565-92-565z"/><glyph glyph-name="Atilde" unicode="Ã" horiz-adv-x="942" d="M6 0l295 1372h340L936 0H639l-45 276H338L293 0H6zm170 1495q2 174 42 256t118 82q33 0 59.5-14.5T465 1763q39-39 60.5-54t41.5-15q43 0 43 127h158q-2-182-43-260t-123-78q-29 0-59.5 12t-65.5 47q-51 51-67.5 65.5T377 1622q-43 0-43-127H176zm197-997h184l-92 565-92-565z"/><glyph glyph-name="Adieresis" unicode="Ä" horiz-adv-x="942" d="M6 0l295 1372h340L936 0H639l-45 276H338L293 0H6zm156 1618q0 63 40 102t95 39q59 0 99-38t40-103q-2-66-41-107t-98-41q-55 0-95 41t-40 107zM373 498h184l-92 565-92-565zm131 1120q0 63 39 102t96 39q57 0 98-38t41-103q0-66-41-107t-98-41q-57 0-96 41t-39 107z"/><glyph glyph-name="Aring" unicode="Å" horiz-adv-x="942" d="M6 0l295 1372h340L936 0H639l-45 276H338L293 0H6zm258 1696q0 106 56.5 167.5T471 1925q96 0 153.5-62.5T682 1696q0-106-56.5-168T471 1466q-96 0-151.5 61.5T264 1696zM373 498h184l-92 565-92-565zm12 1198q0-51 22.5-81t63.5-30q88 0 88 111 0 49-23.5 78.5T471 1804q-41 0-63.5-28.5T385 1696z"/><glyph glyph-name="AE" unicode="Æ" horiz-adv-x="1335" d="M6 0l516 1372h733v-221H928V801h286V582H928V221h334V0H633v258H379L293 0H6zm449 479h178v533L455 479z"/><glyph glyph-name="Ccedilla" unicode="Ç" horiz-adv-x="917" d="M45 686q0 377 106.5 548T477 1405q199 0 299.5-129T893 887H590q-8 162-34 231.5t-79 69.5q-43 0-70.5-42t-41-150.5Q352 887 352 686q0-203 14.5-311.5t42-149.5q27.5-41 68.5-41 59 0 84 67.5T588 471h305Q877 203 772.5 85T479-33q-219 0-326.5 169T45 686zM356-551l10 143q47-10 80-10 88 0 88 94 0 84-65 84-23 0-49-16h-39L401 0h115l-12-111h16q84 0 135-57t51-156q0-127-61.5-184T477-565q-29 0-60.5 3T356-551z"/><glyph glyph-name="Egrave" unicode="È" horiz-adv-x="792" d="M100 0v1372h623v-221H395V801h287V582H395V221h334V0H100zm66 1638l133 238 308-281-91-151-350 194z"/><glyph glyph-name="Eacute" unicode="É" horiz-adv-x="792" d="M100 0v1372h623v-221H395V801h287V582H395V221h334V0H100zm117 1595l308 281 133-238-350-194-91 151z"/><glyph glyph-name="Ecircumflex" unicode="Ê" horiz-adv-x="792" d="M100 0v1372h623v-221H395V801h287V582H395V221h334V0H100zm5 1548l239 297h140l239-297-110-106-199 207-199-207-110 106z"/><glyph glyph-name="Edieresis" unicode="Ë" horiz-adv-x="792" d="M100 0v1372h623v-221H395V801h287V582H395V221h334V0H100zm5 1618q0 63 40 102t95 39q59 0 99-38t40-103q-2-66-41-107t-98-41q-55 0-95 41t-40 107zm342 0q0 63 39 102t96 39q57 0 98-38t41-103q0-66-41-107t-98-41q-57 0-96 41t-39 107z"/><glyph glyph-name="Igrave" unicode="Ì" horiz-adv-x="495" d="M0 1638l133 238 308-281-91-151L0 1638zM100 0v1372h295V0H100z"/><glyph glyph-name="Iacute" unicode="Í" horiz-adv-x="495" d="M51 1595l308 281 133-238-350-194-91 151zM100 0v1372h295V0H100z"/><glyph glyph-name="Icircumflex" unicode="Î" horiz-adv-x="495" d="M-61 1548l239 297h140l239-297-110-106-199 207-199-207-110 106zM100 0v1372h295V0H100z"/><glyph glyph-name="Idieresis" unicode="Ï" horiz-adv-x="495" d="M-61 1618q0 63 40 102t95 39q59 0 99-38t40-103q-2-66-41-107t-98-41q-55 0-95 41t-40 107zM100 0v1372h295V0H100zm181 1618q0 63 39 102t96 39q57 0 98-38t41-103q0-66-41-107t-98-41q-57 0-96 41t-39 107z"/><glyph glyph-name="Eth" unicode="Ð" horiz-adv-x="978" d="M10 584v219h115v569h346q254 0 366.5-179T950 686q0-328-112.5-507T471 0H125v584H10zm393-375h52q70 0 110.5 43t59 146.5Q643 502 643 686q0 182-18.5 286.5T565 1120q-41 43-110 43h-52V803h129V584H403V209z"/><glyph glyph-name="Ntilde" unicode="Ñ" horiz-adv-x="999" d="M100 0v1372h222l333-807v807h244V0H678L342 801V0H100zm103 1495q2 174 42 256t118 82q33 0 59.5-14.5T492 1763q39-39 60.5-54t41.5-15q43 0 43 127h158q-2-182-43-260t-123-78q-29 0-59.5 12t-65.5 47q-51 51-67.5 65.5T404 1622q-43 0-43-127H203z"/><glyph glyph-name="Ograve" unicode="Ò" horiz-adv-x="985" d="M45 686q0 367 109.5 537T492 1393q229 0 338.5-170T940 686q0-367-109.5-536.5T492-20q-227 0-337 169.5T45 686zm199 952l133 238 308-281-91-151-350 194zm108-952q0-190 15.5-296.5T414 240q31-43 78-43 49 0 79.5 43t46 149.5Q633 496 633 686t-15.5 297q-15.5 107-46 150t-79.5 43q-47 0-78-43t-46.5-149.5Q352 877 352 686z"/><glyph glyph-name="Oacute" unicode="Ó" horiz-adv-x="985" d="M45 686q0 367 109.5 537T492 1393q229 0 338.5-170T940 686q0-367-109.5-536.5T492-20q-227 0-337 169.5T45 686zm250 909l308 281 133-238-350-194-91 151zm57-909q0-190 15.5-296.5T414 240q31-43 78-43 49 0 79.5 43t46 149.5Q633 496 633 686t-15.5 297q-15.5 107-46 150t-79.5 43q-47 0-78-43t-46.5-149.5Q352 877 352 686z"/><glyph glyph-name="Ocircumflex" unicode="Ô" horiz-adv-x="985" d="M45 686q0 367 109.5 537T492 1393q229 0 338.5-170T940 686q0-367-109.5-536.5T492-20q-227 0-337 169.5T45 686zm138 862l239 297h140l239-297-110-106-199 207-199-207-110 106zm169-862q0-190 15.5-296.5T414 240q31-43 78-43 49 0 79.5 43t46 149.5Q633 496 633 686t-15.5 297q-15.5 107-46 150t-79.5 43q-47 0-78-43t-46.5-149.5Q352 877 352 686z"/><glyph glyph-name="Otilde" unicode="Õ" horiz-adv-x="985" d="M45 686q0 367 109.5 537T492 1393q229 0 338.5-170T940 686q0-367-109.5-536.5T492-20q-227 0-337 169.5T45 686zm152 809q2 174 42 256t118 82q33 0 59.5-14.5T486 1763q39-39 60.5-54t41.5-15q43 0 43 127h158q-2-182-43-260t-123-78q-29 0-59.5 12t-65.5 47q-51 51-67.5 65.5T398 1622q-43 0-43-127H197zm155-809q0-190 15.5-296.5T414 240q31-43 78-43 49 0 79.5 43t46 149.5Q633 496 633 686t-15.5 297q-15.5 107-46 150t-79.5 43q-47 0-78-43t-46.5-149.5Q352 877 352 686z"/><glyph glyph-name="Odieresis" unicode="Ö" horiz-adv-x="985" d="M45 686q0 367 109.5 537T492 1393q229 0 338.5-170T940 686q0-367-109.5-536.5T492-20q-227 0-337 169.5T45 686zm138 932q0 63 40 102t95 39q59 0 99-38t40-103q-2-66-41-107t-98-41q-55 0-95 41t-40 107zm169-932q0-190 15.5-296.5T414 240q31-43 78-43 49 0 79.5 43t46 149.5Q633 496 633 686t-15.5 297q-15.5 107-46 150t-79.5 43q-47 0-78-43t-46.5-149.5Q352 877 352 686zm173 932q0 63 39 102t96 39q57 0 98-38t41-103q0-66-41-107t-98-41q-57 0-96 41t-39 107z"/><glyph glyph-name="multiply" unicode="×" horiz-adv-x="808" d="M76 457l209 221L76 899l129 127 205-217 204 217 129-127-208-221 208-221-129-127-204 217-205-217L76 457z"/><glyph glyph-name="Oslash" unicode="Ø" horiz-adv-x="985" d="M45 686q0 367 109.5 537T492 1393q100 0 176-31l53 127 190-74-80-192q109-172 109-537 0-367-109.5-536.5T492-20q-100 0-177 30l-53-127L72-43l82 195Q45 324 45 686zm307 0q0-80 2-143l230 569q-16 35-40 49.5t-52 14.5q-47 0-78-43t-46.5-150Q352 876 352 686zm47-424q18-35 41-50t52-15q49 0 79.5 43t46 149.5Q633 496 633 686q0 82-2 148L399 262z"/><glyph glyph-name="Ugrave" unicode="Ù" horiz-adv-x="966" d="M80 418v954h297V418q0-123 23.5-178.5T483 184q59 0 83 55.5T590 418v954h297V418q0-217-104.5-334T483-33Q288-33 184 84T80 418zm155 1220l133 238 308-281-91-151-350 194z"/><glyph glyph-name="Uacute" unicode="Ú" horiz-adv-x="966" d="M80 418v954h297V418q0-123 23.5-178.5T483 184q59 0 83 55.5T590 418v954h297V418q0-217-104.5-334T483-33Q288-33 184 84T80 418zm206 1177l308 281 133-238-350-194-91 151z"/><glyph glyph-name="Ucircumflex" unicode="Û" horiz-adv-x="966" d="M80 418v954h297V418q0-123 23.5-178.5T483 184q59 0 83 55.5T590 418v954h297V418q0-217-104.5-334T483-33Q288-33 184 84T80 418zm94 1130l239 297h140l239-297-110-106-199 207-199-207-110 106z"/><glyph glyph-name="Udieresis" unicode="Ü" horiz-adv-x="966" d="M80 418v954h297V418q0-123 23.5-178.5T483 184q59 0 83 55.5T590 418v954h297V418q0-217-104.5-334T483-33Q288-33 184 84T80 418zm94 1200q0 63 40 102t95 39q59 0 99-38t40-103q-2-66-41-107t-98-41q-55 0-95 41t-40 107zm342 0q0 63 39 102t96 39q57 0 98-38t41-103q0-66-41-107t-98-41q-57 0-96 41t-39 107z"/><glyph glyph-name="Yacute" unicode="Ý" horiz-adv-x="882" d="M-4 1372h303l147-512 150 512h291L590 545V0H293v545L-4 1372zm256 223l308 281 133-238-350-194-91 151z"/><glyph glyph-name="Thorn" unicode="Þ" horiz-adv-x="899" d="M100 0v1372h295v-213h54q211 0 310-110.5T858 707q0-233-99.5-344T449 252h-54V0H100zm295 449h43q66 0 94.5 60T561 707q0 133-28.5 193.5T438 961h-43V449z"/><glyph glyph-name="germandbls" unicode="ß" horiz-adv-x="862" d="M76 0v1100q0 168 89 264t251 96q162 0 252-103.5t90-287.5q0-109-32-186.5T616 768q82-29 126-87t60.5-132Q819 475 819 395q0-229-84-325.5T508-27q-62 1-107 13l15 188q6-2 22-2 29 0 49.5 20.5t30.5 76Q528 324 528 428q0 100-24.5 168T432 664h-22v202h20q14 0 24.5 11.5T470 930q5 41 5 125 0 125-15.5 167t-47.5 42q-27 0-40.5-28T358 1126V0H76z"/><glyph glyph-name="agrave" unicode="à" horiz-adv-x="784" d="M43 256q0 164 107.5 263T444 629v63q0 98-12 137t-45 39q-55 0-63-145H61q14 162 100.5 249t233.5 87q156 0 240-96.5T719 690V0H483l-14 123Q410-27 264-27q-100 0-160.5 76T43 256zm125 1139l174 161 207-323-117-107-264 269zM313 293q1-111 58-111 74 0 73 189v116q-63-6-97-57t-34-137z"/><glyph glyph-name="aacute" unicode="á" horiz-adv-x="784" d="M43 256q0 164 107.5 263T444 629v63q0 98-12 137t-45 39q-55 0-63-145H61q14 162 100.5 249t233.5 87q156 0 240-96.5T719 690V0H483l-14 123Q410-27 264-27q-100 0-160.5 76T43 256zm188 975l207 323 174-161-264-269-117 107zm82-938q1-111 58-111 74 0 73 189v116q-63-6-97-57t-34-137z"/><glyph glyph-name="acircumflex" unicode="â" horiz-adv-x="784" d="M43 256q0 164 107.5 263T444 629v63q0 98-12 137t-45 39q-55 0-63-145H61q14 162 100.5 249t233.5 87q156 0 240-96.5T719 690V0H483l-14 123Q410-27 264-27q-100 0-160.5 76T43 256zm65 944l197 322h172l197-322-115-84-168 219-168-219-115 84zm205-907q1-111 58-111 74 0 73 189v116q-63-6-97-57t-34-137z"/><glyph glyph-name="atilde" unicode="ã" horiz-adv-x="784" d="M43 256q0 164 107.5 263T444 629v63q0 98-12 137t-45 39q-55 0-63-145H61q14 162 100.5 249t233.5 87q156 0 240-96.5T719 690V0H483l-14 123Q410-27 264-27q-100 0-160.5 76T43 256zm80 901q4 147 43 232.5t121 85.5q29 0 51-12.5t51-41.5q29-29 50.5-52t37.5-23q16 0 25.5 27.5T514 1464h147q-2-150-43.5-233.5T502 1147q-39 0-68 20.5t-66 59.5q-23 23-37 36t-24 13q-16 0-24.5-27.5T272 1157H123zm190-864q1-111 58-111 74 0 73 189v116q-63-6-97-57t-34-137z"/><glyph glyph-name="adieresis" unicode="ä" horiz-adv-x="784" d="M43 256q0 164 107.5 263T444 629v63q0 98-12 137t-45 39q-55 0-63-145H61q14 162 100.5 249t233.5 87q156 0 240-96.5T719 690V0H483l-14 123Q410-27 264-27q-100 0-160.5 76T43 256zm78 1034q0 57 35.5 93t86.5 36q53 0 90-35.5t37-93.5q-2-57-39-96t-88-39q-51 0-86.5 39t-35.5 96zm192-997q1-111 58-111 74 0 73 189v116q-63-6-97-57t-34-137zm103 997q0 57 35.5 93t86.5 36q53 0 90-35.5t37-93.5q0-57-38-96t-89-39q-51 0-86.5 39t-35.5 96z"/><glyph glyph-name="aring" unicode="å" horiz-adv-x="784" d="M43 256q0 164 107.5 263T444 629v63q0 98-12 137t-45 39q-55 0-63-145H61q14 162 100.5 249t233.5 87q156 0 240-96.5T719 690V0H483l-14 123Q410-27 264-27q-100 0-160.5 76T43 256zm147 1110q0 104 55.5 167.5T393 1597q92 0 148.5-64.5T598 1366q0-104-55.5-167.5T393 1135q-94 0-148.5 62.5T190 1366zm119 0q0-115 84-115t84 115q0 51-23.5 83t-60.5 32q-84 0-84-115zm4-1073q1-111 58-111 74 0 73 189v116q-63-6-97-57t-34-137z"/><glyph glyph-name="ae" unicode="æ" horiz-adv-x="1161" d="M43 256q0 164 107.5 263T444 629v63q0 98-12 137t-45 39q-55 0-63-145H61q14 162 100.5 249t233.5 87q131 0 201-101 35 51 89 76t118 25q152 0 237.5-119t85.5-397v-88H719q0-113 8-173.5t24.5-84Q768 174 793 174q31 0 46 32t17 111h262q-8-162-91-253T803-27q-86 0-152.5 50.5T559 176Q534 74 462.5 23.5T299-27q-125 0-190.5 76T43 256zm270 33q0-66 17.5-93.5T377 168q33 0 50 44t17 140v135q-63-6-97-58t-34-140zm406 319h131q-2 154-18.5 205T784 864q-31 0-47-50t-18-206z"/><glyph glyph-name="ccedilla" unicode="ç" horiz-adv-x="759" d="M47 514q0 285 95.5 415T406 1059q143 0 226-93.5T727 668H461q-4 100-15.5 146T403 860q-23 0-37-29.5T347 726q-5-75-5-212 0-143 6-217t19.5-99.5Q381 172 408 172q33 0 44 39t15 154h264q-10-203-93-297.5T403-27q-170 0-263 129T47 514zM291-537l11 138q45-10 75-11 84 0 84 91 0 80-63 79-23 0-45-16h-37L336 0h111l-12-119q8 2 18 2 80 0 126-54t46-148q0-117-59.5-174.5T406-551q-27 0-57.5 3T291-537z"/><glyph glyph-name="egrave" unicode="è" horiz-adv-x="770" d="M47 520q0 281 94.5 410T399 1059q152 0 244-119t92-397v-88H328q2-164 20.5-222.5T401 174q31 0 46.5 32T465 317h262q-8-162-91-253T412-27q-180 0-272.5 132.5T47 520zm121 875l174 161 207-323-117-107-264 269zm160-787h131q-4 152-19.5 204T393 864q-31 0-47-50t-18-206z"/><glyph glyph-name="eacute" unicode="é" horiz-adv-x="770" d="M47 520q0 281 94.5 410T399 1059q152 0 244-119t92-397v-88H328q2-164 20.5-222.5T401 174q31 0 46.5 32T465 317h262q-8-162-91-253T412-27q-180 0-272.5 132.5T47 520zm184 711l207 323 174-161-264-269-117 107zm97-623h131q-4 152-19.5 204T393 864q-31 0-47-50t-18-206z"/><glyph glyph-name="ecircumflex" unicode="ê" horiz-adv-x="770" d="M47 520q0 281 94.5 410T399 1059q152 0 244-119t92-397v-88H328q2-164 20.5-222.5T401 174q31 0 46.5 32T465 317h262q-8-162-91-253T412-27q-180 0-272.5 132.5T47 520zm61 680l197 322h172l197-322-115-84-168 219-168-219-115 84zm220-592h131q-4 152-19.5 204T393 864q-31 0-47-50t-18-206z"/><glyph glyph-name="edieresis" unicode="ë" horiz-adv-x="770" d="M47 520q0 281 94.5 410T399 1059q152 0 244-119t92-397v-88H328q2-164 20.5-222.5T401 174q31 0 46.5 32T465 317h262q-8-162-91-253T412-27q-180 0-272.5 132.5T47 520zm74 770q0 57 35.5 93t86.5 36q53 0 90-35.5t37-93.5q-2-57-39-96t-88-39q-51 0-86.5 39t-35.5 96zm207-682h131q-4 152-19.5 204T393 864q-31 0-47-50t-18-206zm88 682q0 57 35.5 93t86.5 36q53 0 90-35.5t37-93.5q0-57-38-96t-89-39q-51 0-86.5 39t-35.5 96z"/><glyph glyph-name="igrave" unicode="ì" horiz-adv-x="434" d="M20 1430l195 133 143-349-129-88-209 304zM76 0v1032h282V0H76z"/><glyph glyph-name="iacute" unicode="í" horiz-adv-x="434" d="M76 0v1032h282V0H76zm6 1210l143 349 195-134-209-303-129 88z"/><glyph glyph-name="icircumflex" unicode="î" horiz-adv-x="434" d="M-29 1194l178 332h136l180-332-119-74-129 213-127-213-119 74zM76 0v1032h282V0H76z"/><glyph glyph-name="idieresis" unicode="ï" horiz-adv-x="434" d="M-47 1290q0 57 35.5 93t87.5 36q53 0 90-35.5t37-93.5q-2-57-39-96t-88-39q-51 0-87 39t-36 96zM76 0v1032h282V0H76zm155 1290q0 57 36 93t87 36q53 0 90-35.5t37-93.5q0-57-38-96t-89-39q-51 0-87 39t-36 96z"/><glyph glyph-name="eth" unicode="ð" horiz-adv-x="806" d="M47 502q0 233 71.5 368.5T309 1006q90 0 146-78-12 121-58 198l-82-94-122 113 83 98q-33 16-71 25l45 231q104-20 186-69l117 135 127-111-117-135q100-117 147.5-299T758 600q0-236-38-372T603 32.5Q524-27 401-27q-172 0-263 133.5T47 502zm293-21q0-174 14-241.5t47-67.5q35 0 49.5 68.5T465 483q0 156-12.5 225.5T401 778q-33 0-47-69.5T340 481z"/><glyph glyph-name="ntilde" unicode="ñ" horiz-adv-x="825" d="M76 0v1032h243l9-108q29 61 85 98t124 37q113 0 168-81t55-233V0H477v705q0 127-49 126-33 0-51.5-38.5T358 659V0H76zm72 1157q4 147 43 232.5t121 85.5q29 0 51-12.5t51-41.5q29-29 50.5-52t37.5-23q16 0 25.5 27.5T539 1464h147q-2-150-43.5-233.5T527 1147q-39 0-68 20.5t-66 59.5q-23 23-37 36t-24 13q-16 0-24.5-27.5T297 1157H148z"/><glyph glyph-name="ograve" unicode="ò" horiz-adv-x="819" d="M47 516q0 274 91 408.5T410 1059q180 0 271-134.5T772 516q0-274-91-408.5T410-27q-180 0-271.5 134.5T47 516zm138 879l174 161 207-323-117-107-264 269zm157-879q0-199 14.5-271.5T410 172q39 0 53 72.5T477 516q0 199-14 271.5T410 860q-39 0-53.5-72.5T342 516z"/><glyph glyph-name="oacute" unicode="ó" horiz-adv-x="819" d="M47 516q0 274 91 408.5T410 1059q180 0 271-134.5T772 516q0-274-91-408.5T410-27q-180 0-271.5 134.5T47 516zm201 715l207 323 174-161-264-269-117 107zm94-715q0-199 14.5-271.5T410 172q39 0 53 72.5T477 516q0 199-14 271.5T410 860q-39 0-53.5-72.5T342 516z"/><glyph glyph-name="ocircumflex" unicode="ô" horiz-adv-x="819" d="M47 516q0 274 91 408.5T410 1059q180 0 271-134.5T772 516q0-274-91-408.5T410-27q-180 0-271.5 134.5T47 516zm78 684l197 322h172l197-322-115-84-168 219-168-219-115 84zm217-684q0-199 14.5-271.5T410 172q39 0 53 72.5T477 516q0 199-14 271.5T410 860q-39 0-53.5-72.5T342 516z"/><glyph glyph-name="otilde" unicode="õ" horiz-adv-x="819" d="M47 516q0 274 91 408.5T410 1059q180 0 271-134.5T772 516q0-274-91-408.5T410-27q-180 0-271.5 134.5T47 516zm93 641q4 147 43 232.5t121 85.5q29 0 51-12.5t51-41.5q29-29 50.5-52t37.5-23q16 0 25.5 27.5T531 1464h147q-2-150-43.5-233.5T519 1147q-39 0-68 20.5t-66 59.5q-23 23-37 36t-24 13q-16 0-24.5-27.5T289 1157H140zm202-641q0-199 14.5-271.5T410 172q39 0 53 72.5T477 516q0 199-14 271.5T410 860q-39 0-53.5-72.5T342 516z"/><glyph glyph-name="odieresis" unicode="ö" horiz-adv-x="819" d="M47 516q0 274 91 408.5T410 1059q180 0 271-134.5T772 516q0-274-91-408.5T410-27q-180 0-271.5 134.5T47 516zm91 774q0 57 35.5 93t86.5 36q53 0 90-35.5t37-93.5q-2-57-39-96t-88-39q-51 0-86.5 39t-35.5 96zm204-774q0-199 14.5-271.5T410 172q39 0 53 72.5T477 516q0 199-14 271.5T410 860q-39 0-53.5-72.5T342 516zm91 774q0 57 35.5 93t86.5 36q53 0 90-35.5t37-93.5q0-57-38-96t-89-39q-51 0-86.5 39t-35.5 96z"/><glyph glyph-name="divide" unicode="÷" horiz-adv-x="808" d="M51 582v188h707V582H51zm211-226q0 66 41 107t98 41q61 0 102.5-41T545 356q-2-66-44.5-109.5T401 203q-57 0-98 44t-41 109zm0 645q0 63 41 105.5t98 42.5q61 0 102.5-41t41.5-107q-2-66-44.5-109.5T401 848q-57 0-98 44t-41 109z"/><glyph glyph-name="oslash" unicode="ø" horiz-adv-x="817" d="M47 516q0 274 91 408.5T410 1059q72 0 129-21l41 107 159-68-59-153q92-135 92-408 0-274-91-408.5T410-27q-72 0-129 21l-41-107L80-45l59 154Q47 244 47 516zm275 0q0-57 2-102l147 391q-20 57-61 57-43 0-65.5-72.5T322 516zm26-289q21-57 62-57 43 0 65.5 72.5T498 516q0 57-2 102L348 227z"/><glyph glyph-name="ugrave" unicode="ù" horiz-adv-x="817" d="M66 289v743h282V330q0-127 49-127 33 0 47.5 39T459 375v657h282V0H498l-9 109q-29-61-81-97.5T289-25q-113 0-168 81T66 289zm117 1106l174 161 207-323-117-107-264 269z"/><glyph glyph-name="uacute" unicode="ú" horiz-adv-x="817" d="M66 289v743h282V330q0-127 49-127 33 0 47.5 39T459 375v657h282V0H498l-9 109q-29-61-81-97.5T289-25q-113 0-168 81T66 289zm180 942l207 323 174-161-264-269-117 107z"/><glyph glyph-name="ucircumflex" unicode="û" horiz-adv-x="817" d="M66 289v743h282V330q0-127 49-127 33 0 47.5 39T459 375v657h282V0H498l-9 109q-29-61-81-97.5T289-25q-113 0-168 81T66 289zm57 911l197 322h172l197-322-115-84-168 219-168-219-115 84z"/><glyph glyph-name="udieresis" unicode="ü" horiz-adv-x="817" d="M66 289v743h282V330q0-127 49-127 33 0 47.5 39T459 375v657h282V0H498l-9 109q-29-61-81-97.5T289-25q-113 0-168 81T66 289zm70 1001q0 57 35.5 93t86.5 36q53 0 90-35.5t37-93.5q-2-57-39-96t-88-39q-51 0-86.5 39t-35.5 96zm295 0q0 57 35.5 93t86.5 36q53 0 90-35.5t37-93.5q0-57-38-96t-89-39q-51 0-86.5 39t-35.5 96z"/><glyph glyph-name="yacute" unicode="ý" horiz-adv-x="768" d="M-12-424l43 197q23-6 44-10.5t40-4.5q53 0 85.5 30T254-106l22 83L0 1032h291l100-713 92 713h287L475-127q-43-168-126-249t-204-81q-82 0-157 33zm241 1655l207 323 174-161-264-269-117 107z"/><glyph glyph-name="thorn" unicode="þ" horiz-adv-x="837" d="M76-430v1864h282V948q55 111 162 111 131 0 201-139.5T791 516q0-264-70-403.5T520-27Q414-27 358 84v-514H76zm280 928q0-168 17.5-236.5T426 193q35 0 52.5 73.5T496 516q0 178-17.5 251T426 840q-35 0-52.5-69T356 535v-37z"/><glyph glyph-name="ydieresis" unicode="ÿ" horiz-adv-x="768" d="M-12-424l43 197q23-6 44-10.5t40-4.5q53 0 85.5 30T254-106l22 83L0 1032h291l100-713 92 713h287L475-127q-43-168-126-249t-204-81q-82 0-157 33zm131 1714q0 57 35.5 93t86.5 36q53 0 90-35.5t37-93.5q-2-57-39-96t-88-39q-51 0-86.5 39t-35.5 96zm295 0q0 57 35.5 93t86.5 36q53 0 90-35.5t37-93.5q0-57-38-96t-89-39q-51 0-86.5 39t-35.5 96z"/><glyph glyph-name="OE" unicode="Œ" horiz-adv-x="1339" d="M66 686q0 330 128 508t365 178h703v-221H934V801h287V582H934V221h334V0H559Q321 0 193.5 180T66 686zm307 0q0-254 46-364.5T559 211h80v950h-80q-96 0-141-110.5T373 686z"/><glyph glyph-name="oe" unicode="œ" horiz-adv-x="1189" d="M49 514q0 276 84 410.5T397 1059q90 0 149.5-39T629 915q33 66 85 105t138 39q154 0 239-128t85-388v-88H768q2-162 20.5-221.5T842 174q31 0 46 32t17 111h262q-8-162-91-253T852-27q-72 0-140.5 39T623 117q-31-63-88.5-103.5T389-27q-180 0-260 132.5T49 514zm293 0q0-199 14.5-270.5T410 172q39 0 53 71.5T477 514q0 199-14 272.5T410 860q-39 0-53.5-73.5T342 514zm426 94h131q-2 154-18 205t-47 51q-31 0-47.5-50T768 608z"/><glyph glyph-name="Ydieresis" unicode="Ÿ" horiz-adv-x="882" d="M-4 1372h303l147-512 150 512h291L590 545V0H293v545L-4 1372zm144 246q0 63 40 102t95 39q59 0 99-38t40-103q-2-66-41-107t-98-41q-55 0-95 41t-40 107zm342 0q0 63 39 102t96 39q57 0 98-38t41-103q0-66-41-107t-98-41q-57 0-96 41t-39 107z"/><glyph glyph-name="circumflex" unicode="ˆ" horiz-adv-x="665" d="M49 1200l197 322h172l197-322-115-84-168 219-168-219-115 84z"/><glyph glyph-name="tilde" unicode="˜" horiz-adv-x="665" d="M64 1157q4 147 43 232.5t121 85.5q29 0 51-12.5t51-41.5q29-29 50.5-52t37.5-23q16 0 25.5 27.5T455 1464h147q-2-150-43.5-233.5T443 1147q-39 0-68 20.5t-66 59.5q-23 23-37 36t-24 13q-16 0-24.5-27.5T213 1157H64z"/><glyph glyph-name="uni2000" horiz-adv-x="962"/><glyph glyph-name="uni2001" horiz-adv-x="1925"/><glyph glyph-name="uni2002" horiz-adv-x="962"/><glyph glyph-name="uni2003" horiz-adv-x="1925"/><glyph glyph-name="uni2004" horiz-adv-x="641"/><glyph glyph-name="uni2005" horiz-adv-x="481"/><glyph glyph-name="uni2006" horiz-adv-x="320"/><glyph glyph-name="uni2007" horiz-adv-x="320"/><glyph glyph-name="uni2008" horiz-adv-x="240"/><glyph glyph-name="uni2009" horiz-adv-x="385"/><glyph glyph-name="uni200A" horiz-adv-x="106"/><glyph glyph-name="uni2010" unicode="‐" horiz-adv-x="559" d="M53 391v219h453V391H53z"/><glyph glyph-name="uni2011" unicode="‑" horiz-adv-x="559" d="M53 391v219h453V391H53z"/><glyph glyph-name="figuredash" unicode="‒" horiz-adv-x="559" d="M53 391v219h453V391H53z"/><glyph glyph-name="endash" unicode="–" horiz-adv-x="665" d="M0 379v250h666V379H0z"/><glyph glyph-name="emdash" unicode="—" horiz-adv-x="1331" d="M0 379v250h1331V379H0z"/><glyph glyph-name="quoteleft" unicode="‘" horiz-adv-x="360" d="M41 1114q0 127 70.5 222T313 1454v-115q-43-14-74.5-45.5T193 1210h4q49 0 85.5-37.5T319 1071q0-68-36.5-108.5T186 922q-68 0-106.5 49T41 1114z"/><glyph glyph-name="quoteright" unicode="’" horiz-adv-x="360" d="M41 1305q0 68 37 108.5t96 40.5q68 0 106.5-49t38.5-143q0-127-70.5-222T47 922v114q43 14 75 46t46 83h-4q-49 0-86 38t-37 102z"/><glyph glyph-name="quotesinglbase" unicode="‚" horiz-adv-x="360" d="M41 134q0 68 37 108.5t96 40.5q68 0 106.5-49T319 91q0-127-70.5-222T47-249v114q43 14 75 46t46 83h-4q-49 0-86 38T41 134z"/><glyph glyph-name="quotedblleft" unicode="“" horiz-adv-x="688" d="M41 1114q0 127 70.5 222T313 1454v-115q-43-14-74.5-45.5T193 1210h4q49 0 85.5-37.5T319 1071q0-68-36.5-108.5T186 922q-68 0-106.5 49T41 1114zm328 0q0 127 70.5 222T641 1454v-115q-43-14-74.5-45.5T521 1210h4q49 0 85.5-37.5T647 1071q0-68-36.5-108.5T514 922q-68 0-106.5 49T369 1114z"/><glyph glyph-name="quotedblright" unicode="”" horiz-adv-x="688" d="M41 1305q0 68 37 108.5t96 40.5q68 0 106.5-49t38.5-143q0-127-70.5-222T47 922v114q43 14 75 46t46 83h-4q-49 0-86 38t-37 102zm328 0q0 68 37 108.5t96 40.5q68 0 106.5-49t38.5-143q0-127-70.5-222T375 922v114q43 14 75 46t46 83h-4q-49 0-86 38t-37 102z"/><glyph glyph-name="quotedblbase" unicode="„" horiz-adv-x="667" d="M41 140q0 68 37 108.5t96 40.5q68 0 106.5-49T319 97q0-127-70.5-222T47-243v114q43 14 75 46t46 83h-4q-49 0-86 38T41 140zm307 0q0 68 37 108.5t96 40.5q68 0 106.5-49T626 97q0-127-70.5-222T354-243v114q43 14 75 46t46 83h-4q-49 0-86 38t-37 102z"/><glyph glyph-name="bullet" unicode="•" horiz-adv-x="604" d="M43 508q0 123 72.5 204T301 793q113 0 186.5-81T561 508q0-123-73.5-204T301 223q-113 0-185.5 81T43 508z"/><glyph glyph-name="ellipsis" unicode="…" horiz-adv-x="1105" d="M41 133q0 63 41 106.5T182 283q61 0 103.5-42T328 133q-2-66-44.5-108.5T182-18q-59 0-100 43T41 133zm369 0q0 63 41 106.5T551 283q61 0 103.5-42T697 133q-2-66-44.5-108.5T551-18q-59 0-100 43t-41 108zm368 0q0 63 41 106.5T919 283q61 0 103.5-42t42.5-108q-2-66-44.5-108.5T919-18q-59 0-100 43t-41 108z"/><glyph glyph-name="uni202F" horiz-adv-x="385"/><glyph glyph-name="guilsinglleft" unicode="‹" horiz-adv-x="520" d="M27 516l180 412h262L301 520l172-414H207L27 516z"/><glyph glyph-name="guilsinglright" unicode="›" horiz-adv-x="520" d="M47 106l172 414L51 928h262l181-412-181-410H47z"/><glyph glyph-name="uni205F" horiz-adv-x="481"/><glyph glyph-name="Euro" unicode="€" horiz-adv-x="784" d="M-10 465v156h90v96h-90v155h98q16 184 64.5 294t122 158q73.5 48 163.5 48 145 0 228.5-114.5T766 961H494q-4 88-17.5 135t-40.5 47q-18 0-31.5-19.5t-22.5-78Q373 987 369 872h194l-18-155H367v-96h168l-21-156H369q6-152 21.5-204t45.5-52q27 0 41.5 41T492 393h278Q752 180 667 78.5T432-23q-94 0-165.5 45.5t-117 152Q104 281 88 465h-98z"/><glyph glyph-name="trademark" unicode="™" horiz-adv-x="1312" d="M39 1180v192h508v-192H399V512H188v668H39zm524-668l49 860h211l90-526 97 526h209l47-860h-185l-14 428-80-340H842l-80 342-17-430H563z"/><glyph glyph-name="uni25FC" unicode="◼" horiz-adv-x="1034" d="M0 0v1034h1034V0H0z"/><glyph glyph-name="uniFB01" unicode="ﬁ" horiz-adv-x="921" d="M25 827v205h92v127q0 111 40 176.5t105.5 95Q328 1460 408 1460q27 0 48-2t46-8v-207q-14 2-29 2-33 0-53.5-21.5T399 1149v-117h103V827H399V0H117v827H25zm520 469q0 72 47 119t115 47q68 0 114.5-47t46.5-119q0-72-46.5-119T707 1130q-68 0-115 47.5T545 1296zM565 0v1032h283V0H565z"/><glyph glyph-name="uniFB02" unicode="ﬂ" horiz-adv-x="921" d="M27 827v205h92v127q0 111 39 176.5t105.5 95Q330 1460 410 1460q27 0 48-2t46-8v-207q-14 2-29 2-33 0-53.5-21.5T401 1149v-117h103V827H401V0H119v827H27zM563 0v1434h283V0H563z"/><glyph glyph-name="uniFB03" unicode="ﬃ" horiz-adv-x="1353" d="M27 827v205h92v115q0 147 75.5 230t204.5 83q41 0 79-7t71-19l-35-195q-14 6-35 6-35 0-56.5-25.5T401 1149v-117h162v127q0 111 40 176.5t105.5 95Q774 1460 854 1460q27 0 48.5-2t45.5-8v-207q-14 2-28 2-33 0-53.5-21.5T846 1149v-117h104V827H846V0H563v827H401V0H119v827H27zm968 469q0 72 47.5 119t114.5 47q68 0 115-47t47-119q0-72-47-119t-115-47q-68 0-115 47.5T995 1296zM1014 0v1032h282V0h-282z"/><glyph glyph-name="uniFB04" unicode="ﬄ" horiz-adv-x="1366" d="M27 827v205h92v115q0 147 75.5 230t204.5 83q41 0 79-7t71-19l-35-195q-14 6-35 6-35 0-56.5-25.5T401 1149v-117h162v127q0 111 40 176.5t105.5 95Q774 1460 854 1460q27 0 48.5-2t45.5-8v-207q-14 2-28 2-33 0-53.5-21.5T846 1149v-117h102V827H846V0H563v827H401V0H119v827H27zM1008 0v1434h282V0h-282z"/></font>
</svg>
