<svg xmlns="http://www.w3.org/2000/svg" version="1.2"><font><font-face font-family="Speedee" ascent="700" descent="-300" font-style="italic" font-weight="700" slope="-12" cap-height="670" x-height="504" underline-position="-125" underline-thickness="40"/><glyph glyph-name="uni0000"/><glyph glyph-name="uni000D" horiz-adv-x="190"/><glyph glyph-name="space" horiz-adv-x="190"/><glyph glyph-name="exclam" unicode="!" horiz-adv-x="273" d="M69 212l71 458h175L183 212H69zM92-10q-40 0-61.5 21.5T9 70q0 42 29.5 71t73.5 29q38 0 59-22t21-58q0-43-29.5-71.5T92-10z"/><glyph glyph-name="quotedbl" unicode="&quot;" horiz-adv-x="470" d="M134 440q-3 36-3 67 0 68 16 138l12 55h148l-12-55q-6-27-14.5-55T256 526q-16-36-43-86h-79zm202 0q-3 36-3 67 0 68 16 138l12 55h148l-12-55q-6-27-14.5-55T458 526q-16-36-43-86h-79z"/><glyph glyph-name="numbersign" unicode="#" horiz-adv-x="590" d="M-7 0l63 158h-67l26 110h84l55 137H74l26 110h97l62 155h130l-62-155h103l62 155h130l-62-155h64l-26-110h-81l-55-137h78l-26-110h-95L356 0H226l63 158H186L123 0H-7zm236 268h103l55 137H284l-55-137z"/><glyph glyph-name="dollar" unicode="$" horiz-adv-x="590" d="M180-110L206 4Q118 17 69 67.5T20 197q0 17 2 31h168q-1-9-1-12.5V210q0-74 50-92l36 160-54 20Q99 343 99 452q0 61 32.5 109t90 76.5Q279 666 353 670l22 100h66l-23-103q85-11 131-63t46-139v-8q0-4-1-9H427q1 7 1.5 15.5t.5 14.5q0 55-44 74l-34-148 60-21q135-47 135-166 0-64-35.5-113T413 27.5Q351 0 270 0l-24-110h-66zm81 593q0-22 10.5-36t36.5-26l31 136q-34-3-56-23.5T261 483zm119-292q0 25-13.5 41T319 262l-35-150q43 2 69.5 23.5T380 191z"/><glyph glyph-name="percent" unicode="%" horiz-adv-x="902" d="M167 0l456 660h137L304 0H167zm499-10q-130 0-130 148 0 46 13 92.5t39.5 85.5q26.5 39 65.5 62.5t90 23.5q130 0 130-148 0-46-13-92.5T821.5 76Q795 37 756 13.5T666-10zm12 79q16 0 30 23t24 57q10 34 16 68.5t6 56.5q0 28-5 38.5T732 323q-16 0-30-23t-24-57q-10-34-16-68.5t-6-56.5q0-28 5-38.5T678 69zM185 258Q55 258 55 406q0 46 13 92.5t39.5 85.5q26.5 39 65.5 62.5t90 23.5q130 0 130-148 0-46-13-92.5T340.5 344Q314 305 275 281.5T185 258zm12 79q16 0 30 23t24 57q10 34 16 68.5t6 56.5q0 28-5 38.5T251 591q-16 0-30-23t-24-57q-10-34-16-68.5t-6-56.5q0-28 5-38.5t17-10.5z"/><glyph glyph-name="ampersand" unicode="&amp;" horiz-adv-x="702" d="M240-10q-63 0-111.5 21.5T52 73q-28 40-28 96 0 69 45 121.5T186 371q-22 42-28.5 67.5T151 495q0 45 27 85t74.5 65Q300 670 364 670q72 0 121-33.5T534 534q0-69-50-116t-123-74l66-111q12-19 21-33 16 25 30 57t25 72h144q-15-58-42.5-110.5T539 123q17-5 38-5 15 0 36 3L605 7q-17-6-34-8.5T535-4q-37 0-66 8.5T416 30Q377 11 333 .5T240-10zm55 508q0-17 3.5-33.5T315 422q36 22 55.5 50.5T390 527q0 42-38 42-21 0-39-18t-18-53zm-96-314q0-40 24.5-63.5T289 97q28 0 55 10-8 11-16 24l-16 26-71 120q-22-21-32-45.5T199 184z"/><glyph glyph-name="quotesingle" unicode="'" horiz-adv-x="268" d="M134 440q-3 36-3 67 0 68 16 138l12 55h148l-12-55q-6-27-14.5-55T256 526q-16-36-43-86h-79z"/><glyph glyph-name="parenleft" unicode="(" horiz-adv-x="357" d="M137-100Q100-23 81 47T62 194q0 108 34 204.5t92 178Q246 658 318 720h118q-64-70-113-162t-77.5-193Q217 264 217 165q0-55 3.5-97T232-13q8-39 22-87H137z"/><glyph glyph-name="parenright" unicode=")" horiz-adv-x="357" d="M-53-100Q10-30 59.5 62t78 193Q166 356 166 455q0 55-3.5 97t-12 81q-8.5 39-21.5 87h117q38-77 56.5-147T321 426q0-108-34-204.5t-92-178Q137-38 65-100H-53z"/><glyph glyph-name="asterisk" unicode="*" horiz-adv-x="364" d="M158 360l-80 67q53 47 113 87-32 2-62 5t-62 7l58 109q26-16 50-32t48-34q-1 32-1.5 63t.5 64h114q-13-33-26-64t-28-62q31 17 62 33t63 32l12-109q-34-4-67-7t-67-5q21-21 42-42.5t41-44.5l-99-67q-11 30-20 59t-15 59q-18-30-36.5-58.5T158 360z"/><glyph glyph-name="plus" unicode="+" horiz-adv-x="590" d="M200 107l37 165H85l25 113h152l37 167h115l-37-167h152l-25-113H352l-37-165H200z"/><glyph glyph-name="comma" unicode="," horiz-adv-x="220" d="M-69-149l14 65Q23-72 48-9 16-5-1.5 16T-19 70q0 42 30 71t72 29q42 0 63.5-25.5T168 73q0-53-31.5-102t-85-82Q-2-144-69-149z"/><glyph glyph-name="hyphen" unicode="-" horiz-adv-x="414" d="M35 184l28 126h314l-28-126H35z"/><glyph glyph-name="period" unicode="." horiz-adv-x="220" d="M66-10Q26-10 4.5 11.5T-17 70q0 42 29.5 71T86 170q38 0 59-22t21-58q0-43-29.5-71.5T66-10z"/><glyph glyph-name="slash" unicode="/" horiz-adv-x="370" d="M-66-104l373 789h147L81-104H-66z"/><glyph glyph-name="zero" unicode="0" horiz-adv-x="565" d="M244-16Q135-16 83.5 44T32 208q0 85 22 167t63.5 148.5Q159 590 219.5 630T356 670q109 0 160.5-60T568 446q0-85-22-167t-63.5-148.5Q441 64 380.5 24T244-16zm10 119q24 0 45.5 27t39 70q17.5 43 30 93t19 97q6.5 47 6.5 80 0 81-48 81-24 0-45.5-27t-39-70q-17.5-43-30-93t-19-97q-6.5-47-6.5-80 0-81 48-81z"/><glyph glyph-name="one" unicode="1" horiz-adv-x="415" d="M112 0l103 468q-40-14-80.5-24.5T55 428l32 135q55 11 108 31.5T297 654h131L283 0H112z"/><glyph glyph-name="two" unicode="2" horiz-adv-x="545" d="M-22 0l8 36q12 56 36.5 100t66 81.5Q130 255 192 293l86 52q54 33 81.5 66t27.5 80q0 59-54 59-35 0-61-28.5T233 429H72q25 121 99.5 181T346 670q106 0 161-46.5T562 498q0-75-47-133.5T391 259l-97-59q-36-22-57-38t-31-36h282L459 0H-22z"/><glyph glyph-name="three" unicode="3" horiz-adv-x="548" d="M243-16q-67 0-120 21T40 69.5Q10 113 10 181v12q0 5 2 15h159q-1-11-1.5-16t-.5-10q0-40 21.5-59.5T246 103q50 0 74.5 33.5T345 210q0 44-26 66t-70 22h-33l22 102h51q44 0 69 24.5t25 63.5q0 28-15 45.5T323 551q-29 0-51.5-17.5T241 482H84q25 91 91 139.5T341 670q97 0 155.5-45.5T555 499q0-57-30-97t-86-65q42-23 59.5-59.5T516 200q0-62-33.5-111t-95-77Q326-16 243-16z"/><glyph glyph-name="four" unicode="4" horiz-adv-x="556" d="M263 0l28 128H-3l26 113 395 413h148l-90-404h70l-27-122h-70L420 0H263zm-87 250h142l42 192-184-192z"/><glyph glyph-name="five" unicode="5" horiz-adv-x="548" d="M238-16Q138-16 78.5 32.5T19 177h163q0-35 15-54.5t49-19.5q40 0 64 24t35 58q11 34 11 65 0 44-19 64t-50 20q-30 0-54.5-16T192 275H61l111 379h401l-28-126H275l-34-118q22 14 49 21.5t59 7.5q77 0 129-47t52-139q0-73-34.5-134t-100-98Q330-16 238-16z"/><glyph glyph-name="six" unicode="6" horiz-adv-x="549" d="M260-16q-65 0-116.5 26.5T62 93.5Q32 150 32 240q0 55 12 115t37 116q25 56 64.5 101t94.5 71.5Q295 670 367 670q96 0 149.5-48T570 497H401q-1 32-15 46.5T349 558q-37 0-66.5-40.5T227 387q54 43 127 43 78 0 125.5-48.5T527 244q0-75-33.5-133.5T400 18q-60-34-140-34zm-6 112q34 0 56.5 19.5t34 51Q356 198 356 234q0 90-69 90-34 0-56.5-21t-34-53Q185 218 185 184q0-88 69-88z"/><glyph glyph-name="seven" unicode="7" horiz-adv-x="491" d="M21 0q32 103 79.5 191.5t115 170.5Q283 444 377 528H67l28 126h466l-29-129q-92-87-159-171T261 183Q216 96 189 0H21z"/><glyph glyph-name="eight" unicode="8" horiz-adv-x="566" d="M251-16q-63 0-118.5 19t-90 59Q8 102 8 165q0 71 46 121.5T177 359q-34 19-55 49.5T101 483q0 55 34 97.5t92 66Q285 670 358 670q58 0 110-16.5t85-52q33-35.5 33-90.5 0-60-39.5-104T442 342q42-20 67.5-55t25.5-86q0-61-36.5-110T398 13q-64-29-147-29zm74 415q31 0 50 17t28 41q9 24 9 44 0 37-15.5 54.5T353 573q-29 0-48-18t-28-43q-9-25-9-47 0-35 14.5-50.5T325 399zM258 84q33 0 55.5 21.5t34.5 53q12 31.5 12 60.5 0 43-19 62t-51 19q-33 0-55.5-20T200 230q-12-30-12-60 0-45 19-65.5T258 84z"/><glyph glyph-name="nine" unicode="9" horiz-adv-x="549" d="M323 670q66 0 117.5-26.5t81.5-83Q552 504 552 414q0-55-12-115t-37-116q-25-56-64.5-101T344 10.5Q289-16 217-16q-96 0-149.5 48T14 157h169q1-32 15-46.5T235 96q37 0 66.5 40.5T357 267q-54-43-127-43-78 0-125.5 48.5T57 410q0 75 33.5 133.5T184 636q60 34 139 34zm7-112q-34 0-56.5-19.5t-34-51Q228 456 228 420q0-90 69-90 34 0 56.5 21t34 53q11.5 32 11.5 65 0 89-69 89z"/><glyph glyph-name="colon" unicode=":" horiz-adv-x="220" d="M66-10Q26-10 4.5 11.5T-17 70q0 42 29.5 71T86 170q38 0 59-22t21-58q0-43-29.5-71.5T66-10zm71 334q-40 0-61.5 21.5T54 404q0 42 29.5 71t73.5 29q38 0 59-22t21-58q0-43-29.5-71.5T137 324z"/><glyph glyph-name="semicolon" unicode=";" horiz-adv-x="220" d="M-69-149l14 65Q23-72 48-9 16-5-1.5 16T-19 70q0 42 30 71t72 29q42 0 63.5-25.5T168 73q0-53-31.5-102t-85-82Q-2-144-69-149zm204 473q-40 0-61.5 21.5T52 404q0 42 29.5 71t73.5 29q38 0 59-22t21-58q0-43-29.5-71.5T135 324z"/><glyph glyph-name="less" unicode="&lt;" horiz-adv-x="590" d="M460 89L79 272l27 116 461 182-29-129-320-117 268-119-26-116z"/><glyph glyph-name="equal" unicode="=" horiz-adv-x="590" d="M63 156l25 113h420l-25-113H63zm47 213l25 113h420l-25-113H110z"/><glyph glyph-name="greater" unicode="&gt;" horiz-adv-x="590" d="M154 570l381-183-27-116L47 89l29 129 320 117-268 119 26 116z"/><glyph glyph-name="question" unicode="?" horiz-adv-x="462" d="M116 212l7 37q8 45 32 75t73 62l42 28q33 22 51 41t18 51q0 28-14 44t-39 16q-27 0-49-22t-32-67H44q23 99 91.5 154T308 686q59 0 105.5-20t73-57.5Q513 571 513 517q0-67-38-108t-101-80l-50-31q-28-17-39.5-36T269 219l-1-7H116zm47-222q-41 0-62 21.5T80 70q0 42 30 71t73 29q38 0 59-22t21-58q0-43-29.5-71.5T163-10z"/><glyph glyph-name="at" unicode="@" horiz-adv-x="919" d="M421-184q-119 0-209.5 44T70-9.5Q19 77 19 205q0 106 36 197.5t102 160q66 68.5 157.5 107T518 708q118 0 207.5-44T865 538q50-82 50-194 0-90-32.5-163T791 65q-59-43-138-43-48 0-88 20t-47 68q-29-38-68.5-55.5T369 37q-71 0-109 46.5T222 205q0 49 16 96t45 84.5q29 37.5 68 59.5t85 22q44 0 77-21.5t47-61.5l25 70h133l-62-276q-2-10-3-18t-1-15q0-25 9.5-34.5T688 101q36 0 67 32.5t50 87.5q19 55 19 121 0 86-35.5 150.5T685 593q-68 36-165 36-94 0-169.5-33T222 504.5q-53-58.5-81.5-135T112 206q0-152 85.5-231.5T432-105q53 0 98.5 9.5T617-69l21-75q-52-21-108-30.5T421-184zm7 328q29 0 54.5 24t35.5 67l4 18q2 7 3 15.5t1 17.5q0 30-15 48.5T470 353q-30 0-50.5-24t-31-57.5Q378 238 378 209t12-47q12-18 38-18z"/><glyph glyph-name="A" unicode="A" horiz-adv-x="641" d="M-46 0l365 670h181L581 0H408l-9 127H187L125 0H-46zm292 245h145l-18 260-127-260z"/><glyph glyph-name="B" unicode="B" horiz-adv-x="638" d="M21 0l143 670h252q113 0 163-40t50-111q0-61-34-101t-94-62q52-18 75.5-53t23.5-84q0-65-36.5-114t-104-77Q392 0 299 0H21zm345 556h-60l-34-159h60q64 0 94.5 26.5T457 489q0 33-22 50t-69 17zm-37-265h-79l-38-177h74q72 0 105 29.5t33 72.5q0 75-95 75z"/><glyph glyph-name="C" unicode="C" horiz-adv-x="660" d="M309-16q-133 0-200 73T42 262q0 82 26 158t75 136q49 60 119 95t158 35q76 0 132.5-28t88-88Q672 510 672 414H494q0 83-24 116.5T403 564q-42 0-76-27.5t-57.5-73Q246 418 233 363.5T220 256q0-150 101-150 48 0 79.5 30.5T457 224h177Q595 106 511.5 45T309-16z"/><glyph glyph-name="D" unicode="D" horiz-adv-x="694" d="M21 0l142 670h214q154 0 232-72.5T687 392q0-81-29-152t-86-125q-57-54-141-84.5T236 0H21zm315 546h-33l-88-421h40q81 0 136.5 34.5t84 92.5Q504 310 504 383q0 85-41 124t-127 39z"/><glyph glyph-name="E" unicode="E" horiz-adv-x="561" d="M21 0l142 670h438l-27-123H311l-31-148h236l-25-118H255l-34-158h269L463 0H21z"/><glyph glyph-name="F" unicode="F" horiz-adv-x="560" d="M21 0l143 670h450l-28-131H314l-34-160h225l-27-127H253L199 0H21z"/><glyph glyph-name="G" unicode="G" horiz-adv-x="696" d="M325-16q-133 0-208 72.5T42 271q0 84 27 159t77 132.5Q196 620 266 653t156 33q78 0 138-28t95-80.5Q690 525 691 451H510q-3 57-29 85t-70 28q-47 0-83-27.5t-60-72q-24-44.5-36-97T220 264q0-86 33-122t91-36q56 0 96 31.5t61 95.5H377l27 120h284l-6-36q-17-102-62.5-176.5T500 25q-74-41-175-41z"/><glyph glyph-name="H" unicode="H" horiz-adv-x="703" d="M21 0l142 670h174l-58-272h207l58 272h174L576 0H402l58 275H253L195 0H21z"/><glyph glyph-name="I" unicode="I" horiz-adv-x="322" d="M21 0l142 670h174L195 0H21z"/><glyph glyph-name="J" unicode="J" horiz-adv-x="585" d="M231-16Q119-16 61.5 35.5T4 180q0 15 1.5 31T9 248h171q-2-16-3-30t-1-26q0-37 16-58t50-21q38 0 63.5 30.5T347 247l91 423h174l-88-406Q492 116 421 50T231-16z"/><glyph glyph-name="K" unicode="K" horiz-adv-x="667" d="M21 0l142 670h174l-60-283 254 283h207L408 340q52-30 90-85t60-122q22-67 28-133H394q-1 45-11 93.5T355 185q-18 43-43 71.5T256 289L195 0H21z"/><glyph glyph-name="L" unicode="L" horiz-adv-x="542" d="M21 0l143 670h174L224 131h262L457 0H21z"/><glyph glyph-name="M" unicode="M" horiz-adv-x="841" d="M-18 0l226 670h175l33-426 234 426h170L736 0H561l57 398L424 49H317l-30 369L151 0H-18z"/><glyph glyph-name="N" unicode="N" horiz-adv-x="716" d="M21 0l142 670h162l148-442 93 442h165L588 0H427L279 439 186 0H21z"/><glyph glyph-name="O" unicode="O" horiz-adv-x="706" d="M323-16q-133 0-207 76.5T42 279q0 81 25 154.5T140.5 564Q189 621 259 653.5T418 686q133 0 207-76.5T699 391q0-81-25-154.5T600.5 106Q552 49 482 16.5T323-16zm9 122q46 0 81.5 28t59.5 73q24 45 36 97.5T521 405q0 80-30.5 119.5T409 564q-47 0-82-28t-59-73q-24-45-36-97.5T220 265q0-80 30.5-119.5T332 106z"/><glyph glyph-name="P" unicode="P" horiz-adv-x="613" d="M21 0l142 670h232q125 0 181.5-50.5T633 483q0-73-37.5-129.5t-109.5-88Q414 234 313 234h-68L195 0H21zm340 555h-48l-44-206h54q67 0 100 35.5t33 85.5q0 45-25 65t-70 20z"/><glyph glyph-name="Q" unicode="Q" horiz-adv-x="706" d="M580-5l-32-149q-107 6-168 40.5T295-15Q175-7 108.5 69T42 279q0 81 25 154.5T140.5 564Q189 621 259 653.5T418 686q133 0 207-76.5T699 391q0-90-30.5-170T579 83Q520 25 437 0q23-3 57.5-4T580-5zM332 106q46 0 81.5 28t59.5 73q24 45 36 97.5T521 405q0 80-30.5 119.5T409 564q-47 0-82-28t-59-73q-24-45-36-97.5T220 265q0-80 30.5-119.5T332 106z"/><glyph glyph-name="R" unicode="R" horiz-adv-x="645" d="M21 0l143 670h242q122 0 178.5-48T641 495q0-79-53.5-134.5T426 291q66-35 103.5-113T577 0H394q-9 110-45 181.5T251 261L195 0H21zm345 555h-53l-40-186h58q65 0 99 30t34 76q0 38-24.5 59T366 555z"/><glyph glyph-name="S" unicode="S" horiz-adv-x="602" d="M271-16q-71 0-128 21.5t-90.5 66Q19 116 19 185q0 19 2 31h168q-1-10-1-15v-10q0-53 27.5-74T281 96q49 0 73 27.5t24 60.5q0 38-23.5 53.5T305 263l-80 31q-23 9-53 27.5t-52 52Q98 407 98 462q0 62 34 113t96 81q62 30 146 30 66 0 118-21.5t82-67.5q30-46 30-119v-8q0-4-1-11H436q1 6 1.5 14.5t.5 15.5q0 38-22.5 61.5T357 574q-40 0-63-24t-23-60q0-35 23-51.5t45-24.5l76-29q19-7 43-19t46-32q22-20 36.5-51t14.5-75q0-60-32.5-111t-96-82Q363-16 271-16z"/><glyph glyph-name="T" unicode="T" horiz-adv-x="576" d="M146 0l116 543H74l28 127h550l-28-127H436L320 0H146z"/><glyph glyph-name="U" unicode="U" horiz-adv-x="685" d="M297-16q-119 0-179.5 55T57 189q0 18 2.5 40t7.5 45l85 396h174l-88-411q-4-18-5.5-34.5T231 197q0-41 22.5-62.5T314 113q53 0 87.5 42T453 277l85 393h174l-87-405Q596 133 516 58.5T297-16z"/><glyph glyph-name="V" unicode="V" horiz-adv-x="627" d="M163 0L97 670h174l24-478 243 478h170L331 0H163z"/><glyph glyph-name="W" unicode="W" horiz-adv-x="890" d="M102 0l10 670h173l-15-440 210 440h120l14-438 185 438h167L666 0H490l-7 429L278 0H102z"/><glyph glyph-name="X" unicode="X" horiz-adv-x="647" d="M-48 0l303 347-139 323h180l74-199 164 199h187L431 341 576 0H397l-80 220L139 0H-48z"/><glyph glyph-name="Y" unicode="Y" horiz-adv-x="611" d="M155 0l59 272L90 670h178l61-270 188 270h182L387 267 329 0H155z"/><glyph glyph-name="Z" unicode="Z" horiz-adv-x="600" d="M120 547l27 123h503l-22-99-399-448h303L505 0H-13L9 99l398 448H120z"/><glyph glyph-name="bracketleft" unicode="[" horiz-adv-x="359" d="M-4-100l182 820h264l-23-107H307L173 7h111l-24-107H-4z"/><glyph glyph-name="backslash" unicode="\" horiz-adv-x="370" d="M158-104L87 685h143l71-789H158z"/><glyph glyph-name="bracketright" unicode="]" horiz-adv-x="359" d="M389 720L207-100H-57L-34 7H78l134 606H101l24 107h264z"/><glyph glyph-name="asciicircum" unicode="^" horiz-adv-x="590" d="M89 322l234 338h122l80-338H409l-44 231-150-231H89z"/><glyph glyph-name="underscore" unicode="_" horiz-adv-x="475" d="M-84-125l9 40h475l-9-40H-84z"/><glyph glyph-name="grave" unicode="`" horiz-adv-x="500" d="M285 781l129-165-67-60-157 137 95 88z"/><glyph glyph-name="a" unicode="a" horiz-adv-x="533" d="M134-13q-58 0-96.5 34.5T-1 115q0 86 81 138.5T334 311l3 13q3 12 4.5 24t1.5 20q0 23-14.5 37T288 419q-32 0-51-21t-30-50H52q25 75 85.5 122T302 517q98 0 146-43.5T496 349q0-37-9-81L429 0H285l6 66q-27-37-66.5-58T134-13zm28 159q0-24 14-39t40-15q30 0 55 24.5t38 82.5l9 39q-89-2-122.5-28.5T162 146z"/><glyph glyph-name="b" unicode="b" horiz-adv-x="583" d="M308-13q-52 0-87 24.5T175 79L152 0H8l151 700h166l-52-242q54 59 133 59 69 0 110-50.5T557 319q0-60-17-119T491 93q-32-48-78.5-77T308-13zM266 99q27 0 49 20.5t37.5 53q15.5 32.5 24 70T385 315q0 37-11.5 60.5T333 399q-27 0-50-19.5t-39-51Q228 297 221 261l-3-15q-2-7-5-25t-3-39q0-43 15-63t41-20z"/><glyph glyph-name="c" unicode="c" horiz-adv-x="536" d="M524 323H366q-2 35-13 62t-42 27q-26 0-47-20.5T228 338q-15-33-23-72t-8-76q0-42 12.5-70T256 92q28 0 49.5 23t33.5 73h161q-24-95-90-148T244-13Q141-13 83.5 43.5T26 205q0 59 19.5 114.5t57 100q37.5 44.5 92 71T319 517q71 0 115.5-27t66-71q21.5-44 23.5-96z"/><glyph glyph-name="d" unicode="d" horiz-adv-x="583" d="M178-13q-70 0-111 51T26 185q0 60 17 119t49 107q32 48 78 77t105 29q89 0 123-65l52 248h166L467 0H323l11 78q-29-45-69.5-68T178-13zm74 118q24 0 46.5 18.5t39 49.5q16.5 31 24.5 70l3 15q1 7 4.5 25t3.5 39q0 43-15.5 63T317 405q-27 0-49-20.5t-37.5-53q-15.5-32.5-24-71T198 186q0-35 11.5-58t42.5-23z"/><glyph glyph-name="e" unicode="e" horiz-adv-x="552" d="M247-13Q142-13 84 44T26 206q0 57 18.5 112.5T100 419q37 45 91 71.5T317 517q73 0 119-28.5t68-77.5q22-49 22-109 0-20-3-41.5t-7-43.5H189q-1-10-1-20 0-55 18-80t53-25q32 0 50.5 18t27.5 47h162q-31-90-97.5-130T247-13zm61 425q-40 0-66.5-34.5T201 296h167q1 10 1 21 0 41-13.5 68T308 412z"/><glyph glyph-name="f" unicode="f" horiz-adv-x="366" d="M19 0l84 397H43l23 107h60l3 15q20 95 72 144.5T345 713q61 0 107-26l-34-96q-27 14-51 14-25 0-43-16.5T297 530l-5-26h102l-23-107H269L185 0H19z"/><glyph glyph-name="g" unicode="g" horiz-adv-x="575" d="M208-123q37 0 59 30.5T299-16l18 86Q259 0 173 0 102 0 60 49T18 192q0 58 17 116t49 105q32 47 78 75.5T266 517q51 0 86.5-24t46.5-68l23 79h144L461 10q-24-113-88-173t-172-60q-96 0-149 45.5T-8-50h155q0-35 17-54t44-19zm33 241q27 0 50 18t39 48q16 30 24 65l3 14q1 7 4 21.5t3 35.5q0 44-15 64.5T308 405q-27 0-49-19.5T221.5 334q-15.5-32-24-68t-8.5-69q0-36 11.5-57.5T241 118z"/><glyph glyph-name="h" unicode="h" horiz-adv-x="587" d="M10 0l149 700h166l-52-239q56 56 137 56 74 0 107-42t33-101q0-19-2.5-35.5T541 305L476 0H310l67 312q2 11 3.5 20t1.5 18q0 55-50 55-35 0-58.5-29.5T239 297L176 0H10z"/><glyph glyph-name="i" unicode="i" horiz-adv-x="292" d="M220 563q-38 0-60 22.5T138 641q0 41 30 70.5t75 29.5q37 0 59.5-22.5T325 663q0-41-30.5-70.5T220 563zM10 0l107 504h166L176 0H10z"/><glyph glyph-name="j" unicode="j" horiz-adv-x="286" d="M220 563q-38 0-60.5 22.5T137 642q0 40 30 69.5t74 29.5q38 0 60.5-22.5T324 662q0-40-30-69.5T220 563zM-52-223q-28 0-53 4.5t-42 14.5l36 104q22-7 39-7 27 0 46.5 20.5T4-21l112 525h166L172-16q-23-111-79-159t-145-48z"/><glyph glyph-name="k" unicode="k" horiz-adv-x="548" d="M6 0l153 700h166l-87-396 177 200h179L358 265q53-39 89-111T490 0H318q-9 71-31.5 127.5T222 227L172 0H6z"/><glyph glyph-name="l" unicode="l" horiz-adv-x="292" d="M10 0l149 700h166L176 0H10z"/><glyph glyph-name="m" unicode="m" horiz-adv-x="853" d="M10 0l110 504h144l-10-67q27 39 63.5 59.5T401 517q52 0 82.5-24t42.5-64q27 43 67 65.5t91 22.5q68 0 100-41t32-103q0-16-2-33t-6-35L741 0H575l68 312q2 11 3.5 21.5T648 352q0 53-42 53-29 0-48.5-23T528 320q-1-7-3-15L457 0H291l69 312q2 11 3.5 21t1.5 19q0 53-42 53-59 0-83-107L176 0H10z"/><glyph glyph-name="n" unicode="n" horiz-adv-x="586" d="M10 0l106 504h144l-11-71q61 84 159 84 70 0 105.5-41.5T549 371q0-16-2-32.5t-6-33.5L476 0H310l67 312q2 11 3.5 20t1.5 18q0 55-50 55-35 0-58.5-29.5T239 297L176 0H10z"/><glyph glyph-name="o" unicode="o" horiz-adv-x="570" d="M250-13q-72 0-122 28T52 92.5Q26 142 26 207q0 55 19 110t56.5 100q37.5 45 92.5 72.5T320 517q72 0 122-28.5t76-78.5q26-50 26-114 0-55-19-110T468.5 86Q431 41 376 14T250-13zm5 105q30 0 52 21.5t36.5 56q14.5 34.5 22 73.5t7.5 74q0 44-13 69.5T316 412q-30 0-52.5-22t-37-56.5Q212 299 204.5 260t-7.5-73q0-43 13-69t45-26z"/><glyph glyph-name="p" unicode="p" horiz-adv-x="577" d="M-36-210l152 714h144l-11-78q29 45 69.5 68t86.5 23q71 0 111.5-51T557 319q0-60-17-119T491 93q-32-48-78.5-77T308-13q-89 0-123 65l-55-262H-36zM266 99q27 0 49 20.5t37.5 53q15.5 32.5 24 71T385 318q0 35-11.5 58T331 399q-24 0-46.5-18.5T245 331q-17-31-24-70l-3-15q-2-7-5-25t-3-39q0-43 15-63t41-20z"/><glyph glyph-name="q" unicode="q" horiz-adv-x="583" d="M177-13q-69 0-110 50.5T26 185q0 60 17 119t49 107q32 48 78 77t105 29q52 0 87-24.5t46-67.5l23 79h144L421-210H255l55 256q-54-59-133-59zm73 118q27 0 50 19.5t39 51q16 31.5 23 67.5l3 15q1 7 4.5 25t3.5 39q0 43-15.5 63T317 405q-27 0-49-20.5t-37.5-53q-15.5-32.5-24-70T198 189q0-37 11.5-60.5T250 105z"/><glyph glyph-name="r" unicode="r" horiz-adv-x="397" d="M9 0l107 504h144l-15-103q20 43 56 77t90 34q17 0 30-3l-34-155q-17 5-36 5-51 0-85.5-42.5T215 199L173 0H9z"/><glyph glyph-name="s" unicode="s" horiz-adv-x="500" d="M221-13q-85 0-133 26T20 78.5Q0 118-2 159h158q2-33 19-53.5T227 85q26 0 45.5 12.5T292 136q0 25-17 36.5T227 195l-53 20q-27 10-54.5 26T74 283q-18 26-18 66 0 46 26.5 84t77 61Q210 517 280 517t114-22q44-22 66.5-59.5T487 354H333q-2 26-15.5 45.5T270 419q-26 0-42-13.5T212 370q0-24 18-35.5t44-21.5l54-20q24-9 52-24.5t48-43q20-27.5 20-72.5 0-73-58.5-119.5T221-13z"/><glyph glyph-name="t" unicode="t" horiz-adv-x="393" d="M205-13q-73 0-112.5 34T53 120q0 25 6 52l49 228H48l22 104h60l30 142h166l-30-142h113l-22-104H273l-49-230q-3-14-3-23 0-44 48-44 21 0 41 6L324 8q-26-9-56-15t-63-6z"/><glyph glyph-name="u" unicode="u" horiz-adv-x="575" d="M171-13q-69 0-101.5 41.5T37 131q0 17 2 34t6 34l65 305h166l-67-313q-2-11-3.5-20.5T204 152q0-53 45-53 32 0 55.5 29t33.5 78l63 298h166L459 0H314l10 70q-27-39-65.5-61T171-13z"/><glyph glyph-name="v" unicode="v" horiz-adv-x="510" d="M121 0L59 504h164l17-345 160 345h163L290 0H121z"/><glyph glyph-name="w" unicode="w" horiz-adv-x="749" d="M73 0L59 504h173l-25-345 158 345h145l-4-342 140 342h156L547 0H378l-2 277L241 0H73z"/><glyph glyph-name="x" unicode="x" horiz-adv-x="513" d="M-54 0l233 258L73 504h175l40-136 108 136h173L346 259 456 0H280l-43 146L120 0H-54z"/><glyph glyph-name="y" unicode="y" horiz-adv-x="507" d="M2-223q-33 0-58 6.5T-95-201l40 106q31-13 58-13 24 0 45.5 15.5T98-32l26 41-64 495h165l11-323 162 323h162L221-69q-45-77-94-115.5T2-223z"/><glyph glyph-name="z" unicode="z" horiz-adv-x="470" d="M-17 0L0 80l271 305H69l26 119h398l-17-80-279-305h226L397 0H-17z"/><glyph glyph-name="braceleft" unicode="{" horiz-adv-x="383" d="M232-100q-96 0-134.5 32T59 13q0 30 10.5 61T90 131q10 24 17.5 46.5T115 219q0 23-14 37.5T56 271H29l25 110h27q41 0 61.5 16.5t28 45.5q7.5 29 8.5 67 3 86 27.5 131.5t76 62Q334 720 420 720h50l-24-107h-33q-38 0-56.5-15.5t-25-44.5q-6.5-29-8.5-72-3-72-31-114t-93-52q26-8 45-28t19-54q0-23-8.5-48.5T235 134q-9-22-16.5-43.5T211 52q0-22 15-33.5T276 7h36l-24-107h-56z"/><glyph glyph-name="bar" unicode="|" horiz-adv-x="285" d="M-6-100l189 820h134L128-100H-6z"/><glyph glyph-name="braceright" unicode="}" horiz-adv-x="383" d="M177 720q96 0 134.5-32t38.5-81q0-30-10-61t-21-57q-10-24-17.5-46.5T294 401q0-23 14-37.5t45-14.5h27l-25-110h-27q-42 0-62-16.5T239 177q-7-29-9-67-4-86-28-131.5t-76-62Q74-100-11-100h-50L-37 7h33q38 0 56.5 15.5t25 44.5Q84 96 86 139q3 72 31 114t93 52q-26 8-45 28t-19 54q0 23 9 48.5t19 50.5q9 22 16.5 43.5T198 568q0 22-15 33.5T133 613H97l24 107h56z"/><glyph glyph-name="asciitilde" unicode="~" horiz-adv-x="590" d="M50 205q11 89 53 144.5T214 405q50 0 75-18.5t45-43.5q17-22 28-33t24-11q39 0 54 99h114q-11-89-53.5-144.5T391 198q-51 0-77 19.5T270 260q-18 23-28.5 33.5T218 304q-19 0-32.5-23.5T164 205H50z"/><glyph glyph-name="uni00A0" horiz-adv-x="190"/><glyph glyph-name="exclamdown" unicode="¡" horiz-adv-x="273" d="M186 514q40 0 61.5-21.5T269 434q0-42-29.5-71T166 334q-38 0-59 22t-21 58q0 43 29.5 71.5T186 514zm23-222l-71-458H-37L95 292h114z"/><glyph glyph-name="cent" unicode="¢" horiz-adv-x="590" d="M206 0l16 74q-74 14-117 66.5T62 283q0 81 35 149t95.5 110.5Q253 585 332 590l15 70h66l-16-74q70-11 110.5-58.5T548 394H402q0 26-7 53.5T366 486l-66-314q23 6 43.5 27t34.5 64h145q-21-67-58-108.5T381.5 93Q335 73 287 70L272 0h-66zm14 267q0-40 9-61.5t24-29.5l66 310q-27-10-46-35.5t-30.5-59Q231 358 225.5 325t-5.5-58z"/><glyph glyph-name="sterling" unicode="£" horiz-adv-x="590" d="M433 266H320q-8-51-33.5-89T215 120h296L485 0H-3l23 106q44 1 74 26t44.5 61.5Q153 230 153 266H54l23 110h71v27q0 88 32.5 147.5t89 89.5Q326 670 397 670q97 0 149.5-49.5T602 484H433q-1 46-14.5 62T385 562q-35 0-51-37t-16-87q0-17 .5-32.5T320 376h136l-23-110z"/><glyph glyph-name="currency" unicode="¤" horiz-adv-x="590" d="M100 301q0 40 14 78t38 70l-65 74 79 71 64-74q27 16 57 25t62 9q66 0 114-31l77 71 66-71-80-74q17-38 17-87 0-40-14-78t-38-70l65-74-79-71-64 74q-27-16-57-25t-62-9q-66 0-114 31l-77-71-66 71 80 74q-17 38-17 87zm125 1q0-41 19.5-64.5T299 214q35 0 62 21t42 54.5q15 33.5 15 71.5 0 41-19.5 64.5T344 449q-35 0-62-21t-42-54.5Q225 340 225 302z"/><glyph glyph-name="yen" unicode="¥" horiz-adv-x="590" d="M160 0l25 117H57l16 76h128l12 57H85l16 76h102l-91 328h162l51-260 160 260h165L419 326h98l-16-76H373l-12-57h128l-16-76H345L320 0H160z"/><glyph glyph-name="section" unicode="§" horiz-adv-x="504" d="M529 516H379q0 34-16 55.5T310 593q-34 0-53.5-21.5T237 514q0-54 51-74l167-65-25-117-194 68q-87 31-119.5 71.5T84 500q0 54 29 96t81.5 66Q247 686 316 686q38 0 76-8t69-27q31-19 49.5-52t18.5-83zM-11 61h150q0-34 16-55.5T208-16q34 0 53.5 21.5T281 63q0 26-12 44.5T230 137L63 202l25 117 194-68q87-31 119.5-71.5T434 77q0-55-29-96.5T323.5-85Q271-109 202-109q-38 0-76 8T57-74Q26-55 7.5-22T-11 61z"/><glyph glyph-name="dieresis" unicode="¨" horiz-adv-x="500" d="M210 563q-33 0-52 19.5T139 630q0 35 26 61t65 26q33 0 52-19.5t19-47.5q0-35-26.5-61T210 563zm200 0q-33 0-52 19.5T339 630q0 35 26 61t65 26q33 0 52-19.5t19-47.5q0-35-26.5-61T410 563z"/><glyph glyph-name="copyright" unicode="©" horiz-adv-x="833" d="M437 0q-97 0-173 43T145 162q-43 76-43 173t43 173q43 76 119 119t173 43q97 0 173-43t119-119q43-76 43-173t-43-173Q686 86 610 43T437 0zm0 73q76 0 133 33t88.5 91.5Q690 256 690 335t-31.5 137.5Q627 531 570 564t-133 33q-76 0-133-33t-88.5-91.5Q184 414 184 335t31.5-137.5Q247 139 304 106t133-33zm8 69q-53 0-95 23t-66 66.5Q260 275 260 335q0 59 25 102.5t67 67.5q42 24 93 24 62 0 110.5-36T615 382H489q-4 34-16 48t-28 14q-21 0-37-25t-16-84q0-58 16-83t37-25q17 0 29 13.5t17 44.5h125q-14-75-62.5-109T445 142z"/><glyph glyph-name="ordfeminine" unicode="ª" horiz-adv-x="437" d="M149 278q-45 0-69.5 23T55 367q0 66 66 104.5T302 513l2 11q3 14 3 29 0 37-30 37-36 0-50-47H106q20 60 69 93.5T292 670q68 0 108-30.5t40-81.5q0-30-6-58l-46-215H273l2 51q-22-27-55-42.5T149 278zm72 85q22 0 39 17t23 44l8 37q-98-6-98-67 0-31 28-31z"/><glyph glyph-name="guillemotleft" unicode="«" horiz-adv-x="621" d="M126 52L30 253l174 201h164L186 243l99-191H126zm280 0l-96 201 174 201h164L466 243l99-191H406z"/><glyph glyph-name="logicalnot" unicode="¬" horiz-adv-x="590" d="M372 181l31 140H98l25 113h420l-56-253H372z"/><glyph glyph-name="uni00AD" unicode="­" horiz-adv-x="414" d="M35 184l28 126h314l-28-126H35z"/><glyph glyph-name="registered" unicode="®" horiz-adv-x="550" d="M317 188q-73 0-128 31t-86 86q-31 55-31 129t31 129q31 55 86 86t128 31q73 0 128-31t86-86q31-55 31-129t-31-129q-31-55-86-86t-128-31zm0 59q82 0 129 49.5T493 434q0 88-47 138t-129 50q-85 0-130.5-50T141 434q0-88 45.5-137.5T317 247zm-98 67v247h105q47 0 72-19.5t25-53.5q0-26-16-41t-41-21q28-12 45-41.5t24-70.5h-69q-8 44-25 68.5T290 407h-5v-93h-66zm93 203h-27v-66h27q23 0 32.5 9t9.5 25q0 13-9.5 22.5T312 517z"/><glyph glyph-name="overscore" unicode="¯" horiz-adv-x="500" d="M151 594l22 101h325l-22-101H151z"/><glyph glyph-name="degree" unicode="°" horiz-adv-x="306" d="M198 424q-60 0-92 34t-32 87q0 40 20.5 75.5T151 678q36 22 82 22 60 0 92-34t32-87q0-40-20.5-75.5T280 446q-36-22-82-22zm7 70q31 0 49.5 25.5T273 573q0 57-47 57-31 0-49.5-25.5T158 551q0-57 47-57z"/><glyph glyph-name="uni00B2" unicode="²" horiz-adv-x="358" d="M48 378l5 22q8 34 21 59.5t38.5 49Q138 532 183 559l48 28q36 21 52 39t16 44q0 33-28 33-18 0-31.5-14T216 632H107q16 74 63.5 111T282 780q67 0 101.5-29.5T418 669q0-41-29-75.5T310 529l-55-33q-17-10-27.5-18T211 463h162l-20-85H48z"/><glyph glyph-name="uni00B3" unicode="³" horiz-adv-x="358" d="M215 369q-67 0-109.5 29T63 489v9q0 4 1 8h109q-1-5-1-9v-6q0-24 11.5-34.5T215 446q27 0 40 17.5t13 40.5q0 49-54 49h-17l15 67h27q26 0 39 13.5t13 36.5q0 14-8 23.5t-24 9.5q-13 0-25-9.5T217 662H109q32 118 163 118 61 0 98.5-28t37.5-79q0-33-18.5-56T337 579q26-13 36.5-34.5T384 497q0-55-46.5-91.5T215 369z"/><glyph glyph-name="acute" unicode="´" horiz-adv-x="500" d="M193 635l180 146 70-103-199-114-51 71z"/><glyph glyph-name="paragraph" unicode="¶" horiz-adv-x="600" d="M253 215l-13 1q-92 8-140 59T52 411q0 66 30.5 125t89.5 96.5Q231 670 318 670h294L447-105h-94l144 677h-74L279-105h-94l68 320z"/><glyph glyph-name="middot" unicode="·" horiz-adv-x="220" d="M99 158q-40 0-61.5 21.5T16 238q0 42 29.5 71t73.5 29q38 0 59-22t21-58q0-43-29.5-71.5T99 158z"/><glyph glyph-name="cedilla" unicode="¸" horiz-adv-x="500" d="M165 0h64l-19-57q7 1 14 1 37 0 63-24t26-71q0-53-37.5-87T168-272q-40 0-83 13l16 72q28-9 57-9 58 0 58 45 0 34-33 34-16 0-29-11h-28L165 0z"/><glyph glyph-name="uni00B9" unicode="¹" horiz-adv-x="278" d="M129 378l56 267q-48-14-95-20l22 93q35 6 67 17.5t62 34.5h90l-84-392H129z"/><glyph glyph-name="ordmasculine" unicode="º" horiz-adv-x="444" d="M244 278q-74 0-122.5 42.5T73 443q0 56 26.5 108t75.5 85.5Q224 670 293 670q74 0 122.5-42.5T464 505q0-56-26-108t-75.5-85.5Q313 278 244 278zm4 86q21 0 36 17t24.5 43q9.5 26 14 52t4.5 44q0 64-38 64-21 0-36-17t-24.5-43q-9.5-26-14-52t-4.5-44q0-64 38-64z"/><glyph glyph-name="guillemotright" unicode="»" horiz-adv-x="621" d="M215 454l96-201L137 52H-27l182 211-99 191h159zm280 0l96-201L417 52H253l182 211-99 191h159z"/><glyph glyph-name="onequarter" unicode="¼" horiz-adv-x="817" d="M110 0l456 660h137L247 0H110zm491 0l15 72H440l16 75 238 245h100l-52-238h42l-17-82h-42L709 0H601zm-46 154h79l21 101-100-101zM106 268l56 267q-48-14-95-20l22 93q35 6 67 17.5t62 34.5h90l-84-392H106z"/><glyph glyph-name="onehalf" unicode="½" horiz-adv-x="853" d="M110 0l456 660h137L247 0H110zm358 0l5 22q8 34 21 59.5t38.5 49Q558 154 603 181l48 28q36 21 52 39t16 44q0 33-28 33-18 0-31.5-14T636 254H527q16 74 63.5 111T702 402q67 0 101.5-29.5T838 291q0-41-29-75.5T730 151l-55-33q-17-10-27.5-18T631 85h162L773 0H468zM106 268l56 267q-48-14-95-20l22 93q35 6 67 17.5t62 34.5h90l-84-392H106z"/><glyph glyph-name="threequarters" unicode="¾" horiz-adv-x="887" d="M180 0l456 660h137L317 0H180zm491 0l15 72H510l16 75 238 245h100l-52-238h42l-17-82h-42L779 0H671zm-46 154h79l21 101-100-101zM193 259q-67 0-109.5 29T41 379v9q0 4 1 8h109q-1-5-1-9v-6q0-24 11.5-34.5T193 336q27 0 40 17.5t13 40.5q0 49-54 49h-17l15 67h27q26 0 39 13.5t13 36.5q0 14-8 23.5t-24 9.5q-13 0-25-9.5T195 552H87q32 118 163 118 61 0 98.5-28t37.5-79q0-33-18.5-56T315 469q26-13 36.5-34.5T362 387q0-55-46.5-91.5T193 259z"/><glyph glyph-name="questiondown" unicode="¿" horiz-adv-x="462" d="M310 514q40 0 61.5-21.5T393 434q0-42-29.5-71T290 334q-38 0-59 22t-21 58q0 43 29.5 71.5T310 514zm47-222l-7-37q-8-45-33-75t-72-60l-42-27q-31-20-50-41.5T134-2q0-28 14-44t39-16q27 0 49 22t32 67h161q-23-99-91-154t-169-55q-91 0-150 44T-40-13q0 67 39 110.5T99 178l50 30q26 16 38.5 34.5T204 285l1 7h152z"/><glyph glyph-name="Agrave" unicode="À" horiz-adv-x="641" d="M-46 0l365 670h181L581 0H408l-9 127H187L125 0H-46zm292 245h145l-18 260-127-260zm106 695l207-150-50-78-232 109 75 119z"/><glyph glyph-name="Aacute" unicode="Á" horiz-adv-x="641" d="M-46 0l365 670h181L581 0H408l-9 127H187L125 0H-46zm292 245h145l-18 260-127-260zm62 558l246 137 57-129-264-93-39 85z"/><glyph glyph-name="Acircumflex" unicode="Â" horiz-adv-x="641" d="M-46 0l365 670h181L581 0H408l-9 127H187L125 0H-46zm292 245h145l-18 260-127-260zm238 670l139-140-55-65-131 88-154-88-48 74 178 131h71z"/><glyph glyph-name="Atilde" unicode="Ã" horiz-adv-x="641" d="M-46 0l365 670h181L581 0H408l-9 127H187L125 0H-46zm292 245h145l-18 260-127-260zm163 533q-10 10-20 16.5t-24 6.5q-17 0-29.5-13.5T312 739h-94q8 47 28.5 85.5T299 886q32 23 73 23 34 0 55.5-14.5T467 864q10-9 20-16t24-7q16 0 30 13.5t24 48.5h93q-12-75-53.5-122.5T503 733q-33 0-53.5 13.5T409 778z"/><glyph glyph-name="Adieresis" unicode="Ä" horiz-adv-x="641" d="M-46 0l365 670h181L581 0H408l-9 127H187L125 0H-46zm292 245h145l-18 260-127-260zm68 493q-35 0-55.5 20.5T238 810q0 38 27.5 65t69.5 27q34 0 54.5-20.5T410 830q0-38-27.5-65T314 738zm230 0q-35 0-55.5 20.5T468 810q0 38 27.5 65t69.5 27q34 0 54.5-20.5T640 830q0-38-27.5-65T544 738z"/><glyph glyph-name="Aring" unicode="Å" horiz-adv-x="641" d="M-46 0l365 670h181L581 0H408l-9 127H187L125 0H-46zm292 245h145l-18 260-127-260zm185 474q-56 0-84.5 31T318 827q0 36 17.5 66.5t48 48.5q30.5 18 69.5 18 56 0 84.5-31t28.5-77q0-36-17.5-66t-48-48.5Q470 719 431 719zm3 68q24 0 39.5 18.5T489 851q0 19-10 30t-29 11q-24 0-39.5-18.5T395 828q0-19 10-30t29-11z"/><glyph glyph-name="AE" unicode="Æ" horiz-adv-x="930" d="M-49 0l508 670h511l-27-123H676l-31-148h241l-26-118H620l-34-158h273L832 0H392l27 127H214L124 0H-49zm346 245h147l63 296-210-296z"/><glyph glyph-name="Ccedilla" unicode="Ç" horiz-adv-x="660" d="M309-16q-133 0-200 73T42 262q0 82 26 158t75 136q49 60 119 95t158 35q76 0 132.5-28t88-88Q672 510 672 414H494q0 83-24 116.5T403 564q-42 0-76-27.5t-57.5-73Q246 418 233 363.5T220 256q0-150 101-150 48 0 79.5 30.5T457 224h177Q595 106 511.5 45T309-16zM242 0h73l-20-56h7q44 0 72.5-25t28.5-73q0-55-40-89.5T247-278q-19 0-43.5 3T154-263l18 76q16-5 35-8.5t36-3.5q31 0 46 12t15 32q0 19-10.5 27.5T268-119q-21 0-38-11h-29L242 0z"/><glyph glyph-name="Egrave" unicode="È" horiz-adv-x="561" d="M21 0l142 670h438l-27-123H311l-31-148h236l-25-118H255l-34-158h269L463 0H21zm312 940l207-150-50-78-232 109 75 119z"/><glyph glyph-name="Eacute" unicode="É" horiz-adv-x="561" d="M21 0l142 670h438l-27-123H311l-31-148h236l-25-118H255l-34-158h269L463 0H21zm268 803l246 137 57-129-264-93-39 85z"/><glyph glyph-name="Ecircumflex" unicode="Ê" horiz-adv-x="561" d="M21 0l142 670h438l-27-123H311l-31-148h236l-25-118H255l-34-158h269L463 0H21zm444 915l139-140-55-65-131 88-154-88-48 74 178 131h71z"/><glyph glyph-name="Edieresis" unicode="Ë" horiz-adv-x="561" d="M21 0l142 670h438l-27-123H311l-31-148h236l-25-118H255l-34-158h269L463 0H21zm274 738q-35 0-55.5 20.5T219 810q0 38 27.5 65t69.5 27q34 0 54.5-20.5T391 830q0-38-27.5-65T295 738zm230 0q-35 0-55.5 20.5T449 810q0 38 27.5 65t69.5 27q34 0 54.5-20.5T621 830q0-38-27.5-65T525 738z"/><glyph glyph-name="Igrave" unicode="Ì" horiz-adv-x="322" d="M21 0l142 670h174L195 0H21zm177 940l207-150-50-78-232 109 75 119z"/><glyph glyph-name="Iacute" unicode="Í" horiz-adv-x="322" d="M21 0l142 670h174L195 0H21zm133 803l246 137 57-129-264-93-39 85z"/><glyph glyph-name="Icircumflex" unicode="Î" horiz-adv-x="322" d="M21 0l142 670h174L195 0H21zm309 915l139-140-55-65-131 88-154-88-48 74 178 131h71z"/><glyph glyph-name="Idieresis" unicode="Ï" horiz-adv-x="322" d="M21 0l142 670h174L195 0H21zm139 738q-35 0-55.5 20.5T84 810q0 38 27.5 65t69.5 27q34 0 54.5-20.5T256 830q0-38-27.5-65T160 738zm230 0q-35 0-55.5 20.5T314 810q0 38 27.5 65t69.5 27q34 0 54.5-20.5T486 830q0-38-27.5-65T390 738z"/><glyph glyph-name="Eth" unicode="Ð" horiz-adv-x="707" d="M34 0l60 282H16l25 115h77l58 273h214q154 0 232-72.5T700 392q0-81-29-152t-86-125q-57-54-141-84.5T249 0H34zm363 282H261l-33-157h40q81 0 136.5 34.5t84 92.5Q517 310 517 383q0 85-41 124t-127 39h-33l-31-149h137l-25-115z"/><glyph glyph-name="Ntilde" unicode="Ñ" horiz-adv-x="716" d="M21 0l142 670h162l148-442 93 442h165L588 0H427L279 439 186 0H21zm429 778q-10 10-20 16.5t-24 6.5q-17 0-29.5-13.5T353 739h-94q8 47 28.5 85.5T340 886q32 23 73 23 34 0 55.5-14.5T508 864q10-9 20-16t24-7q16 0 30 13.5t24 48.5h93q-12-75-53.5-122.5T544 733q-33 0-53.5 13.5T450 778z"/><glyph glyph-name="Ograve" unicode="Ò" horiz-adv-x="706" d="M323-16q-133 0-207 76.5T42 279q0 81 25 154.5T140.5 564Q189 621 259 653.5T418 686q133 0 207-76.5T699 391q0-81-25-154.5T600.5 106Q552 49 482 16.5T323-16zm9 122q46 0 81.5 28t59.5 73q24 45 36 97.5T521 405q0 80-30.5 119.5T409 564q-47 0-82-28t-59-73q-24-45-36-97.5T220 265q0-80 30.5-119.5T332 106zm45 834l207-150-50-78-232 109 75 119z"/><glyph glyph-name="Oacute" unicode="Ó" horiz-adv-x="706" d="M323-16q-133 0-207 76.5T42 279q0 81 25 154.5T140.5 564Q189 621 259 653.5T418 686q133 0 207-76.5T699 391q0-81-25-154.5T600.5 106Q552 49 482 16.5T323-16zm9 122q46 0 81.5 28t59.5 73q24 45 36 97.5T521 405q0 80-30.5 119.5T409 564q-47 0-82-28t-59-73q-24-45-36-97.5T220 265q0-80 30.5-119.5T332 106zm1 697l246 137 57-129-264-93-39 85z"/><glyph glyph-name="Ocircumflex" unicode="Ô" horiz-adv-x="706" d="M323-16q-133 0-207 76.5T42 279q0 81 25 154.5T140.5 564Q189 621 259 653.5T418 686q133 0 207-76.5T699 391q0-81-25-154.5T600.5 106Q552 49 482 16.5T323-16zm9 122q46 0 81.5 28t59.5 73q24 45 36 97.5T521 405q0 80-30.5 119.5T409 564q-47 0-82-28t-59-73q-24-45-36-97.5T220 265q0-80 30.5-119.5T332 106zm177 809l139-140-55-65-131 88-154-88-48 74 178 131h71z"/><glyph glyph-name="Otilde" unicode="Õ" horiz-adv-x="706" d="M323-16q-133 0-207 76.5T42 279q0 81 25 154.5T140.5 564Q189 621 259 653.5T418 686q133 0 207-76.5T699 391q0-81-25-154.5T600.5 106Q552 49 482 16.5T323-16zm9 122q46 0 81.5 28t59.5 73q24 45 36 97.5T521 405q0 80-30.5 119.5T409 564q-47 0-82-28t-59-73q-24-45-36-97.5T220 265q0-80 30.5-119.5T332 106zm102 672q-10 10-20 16.5t-24 6.5q-17 0-29.5-13.5T337 739h-94q8 47 28.5 85.5T324 886q32 23 73 23 34 0 55.5-14.5T492 864q10-9 20-16t24-7q16 0 30 13.5t24 48.5h93q-12-75-53.5-122.5T528 733q-33 0-53.5 13.5T434 778z"/><glyph glyph-name="Odieresis" unicode="Ö" horiz-adv-x="706" d="M323-16q-133 0-207 76.5T42 279q0 81 25 154.5T140.5 564Q189 621 259 653.5T418 686q133 0 207-76.5T699 391q0-81-25-154.5T600.5 106Q552 49 482 16.5T323-16zm9 122q46 0 81.5 28t59.5 73q24 45 36 97.5T521 405q0 80-30.5 119.5T409 564q-47 0-82-28t-59-73q-24-45-36-97.5T220 265q0-80 30.5-119.5T332 106zm7 632q-35 0-55.5 20.5T263 810q0 38 27.5 65t69.5 27q34 0 54.5-20.5T435 830q0-38-27.5-65T339 738zm230 0q-35 0-55.5 20.5T493 810q0 38 27.5 65t69.5 27q34 0 54.5-20.5T665 830q0-38-27.5-65T569 738z"/><glyph glyph-name="multiply" unicode="×" horiz-adv-x="590" d="M133 115l-73 84 162 134-105 133 93 79 106-133 160 133 71-84-162-135 105-132-96-79-104 131-157-131z"/><glyph glyph-name="Oslash" unicode="Ø" horiz-adv-x="706" d="M18 8l73 84q-49 73-49 187 0 81 25 154.5T140.5 564Q189 621 259 653.5T418 686q89 0 153-35l67 78 81-67-70-82q50-73 50-189 0-81-25-154.5T600.5 106Q552 49 482 16.5T323-16q-91 0-156 37L99-59 18 8zm202 257q0-16 1-30l259 301q-27 28-71 28-47 0-82-28t-59-73q-24-45-36-97.5T220 265zm112-159q46 0 81.5 28t59.5 73q24 45 36 97.5T521 405q0 18-2 34L259 136q28-30 73-30z"/><glyph glyph-name="Ugrave" unicode="Ù" horiz-adv-x="685" d="M297-16q-119 0-179.5 55T57 189q0 18 2.5 40t7.5 45l85 396h174l-88-411q-4-18-5.5-34.5T231 197q0-41 22.5-62.5T314 113q53 0 87.5 42T453 277l85 393h174l-87-405Q596 133 516 58.5T297-16zm81 956l207-150-50-78-232 109 75 119z"/><glyph glyph-name="Uacute" unicode="Ú" horiz-adv-x="685" d="M297-16q-119 0-179.5 55T57 189q0 18 2.5 40t7.5 45l85 396h174l-88-411q-4-18-5.5-34.5T231 197q0-41 22.5-62.5T314 113q53 0 87.5 42T453 277l85 393h174l-87-405Q596 133 516 58.5T297-16zm37 819l246 137 57-129-264-93-39 85z"/><glyph glyph-name="Ucircumflex" unicode="Û" horiz-adv-x="685" d="M297-16q-119 0-179.5 55T57 189q0 18 2.5 40t7.5 45l85 396h174l-88-411q-4-18-5.5-34.5T231 197q0-41 22.5-62.5T314 113q53 0 87.5 42T453 277l85 393h174l-87-405Q596 133 516 58.5T297-16zm213 931l139-140-55-65-131 88-154-88-48 74 178 131h71z"/><glyph glyph-name="Udieresis" unicode="Ü" horiz-adv-x="685" d="M297-16q-119 0-179.5 55T57 189q0 18 2.5 40t7.5 45l85 396h174l-88-411q-4-18-5.5-34.5T231 197q0-41 22.5-62.5T314 113q53 0 87.5 42T453 277l85 393h174l-87-405Q596 133 516 58.5T297-16zm43 754q-35 0-55.5 20.5T264 810q0 38 27.5 65t69.5 27q34 0 54.5-20.5T436 830q0-38-27.5-65T340 738zm230 0q-35 0-55.5 20.5T494 810q0 38 27.5 65t69.5 27q34 0 54.5-20.5T666 830q0-38-27.5-65T570 738z"/><glyph glyph-name="Yacute" unicode="Ý" horiz-adv-x="611" d="M155 0l59 272L90 670h178l61-270 188 270h182L387 267 329 0H155zm133 803l246 137 57-129-264-93-39 85z"/><glyph glyph-name="Thorn" unicode="Þ" horiz-adv-x="609" d="M195 0H21l142 670h174l-25-117h58q124 0 181-50.5T608 366q0-74-37.5-130t-109-87.5Q390 117 288 117h-68L195 0zm103 232q68 0 100.5 35.5T431 353q0 45-25 65t-70 20h-48l-44-206h54z"/><glyph glyph-name="germandbls" unicode="ß" horiz-adv-x="602" d="M293 103q47 0 73.5 36.5T393 223q0 41-20 67t-59 26h-22l23 109h21q42 0 64.5 30.5T423 526q0 33-14.5 52.5T366 598q-32 0-53-27t-32-76L176 0H10l94 448q28 136 98.5 200.5T381 713q97 0 152.5-47T589 540q0-58-31-102.5T468 374q55-20 76-61.5t21-89.5q0-64-31-117.5t-87.5-86Q390-13 314-13q-27 0-53.5 4.5T215 4l31 107q13-5 25.5-6.5T293 103z"/><glyph glyph-name="agrave" unicode="à" horiz-adv-x="533" d="M134-13q-58 0-96.5 34.5T-1 115q0 86 81 138.5T334 311l3 13q3 12 4.5 24t1.5 20q0 23-14.5 37T288 419q-32 0-51-21t-30-50H52q25 75 85.5 122T302 517q98 0 146-43.5T496 349q0-37-9-81L429 0H285l6 66q-27-37-66.5-58T134-13zm28 159q0-24 14-39t40-15q30 0 55 24.5t38 82.5l9 39q-89-2-122.5-28.5T162 146zm161 635l129-165-67-60-157 137 95 88z"/><glyph glyph-name="aacute" unicode="á" horiz-adv-x="533" d="M134-13q-58 0-96.5 34.5T-1 115q0 86 81 138.5T334 311l3 13q3 12 4.5 24t1.5 20q0 23-14.5 37T288 419q-32 0-51-21t-30-50H52q25 75 85.5 122T302 517q98 0 146-43.5T496 349q0-37-9-81L429 0H285l6 66q-27-37-66.5-58T134-13zm28 159q0-24 14-39t40-15q30 0 55 24.5t38 82.5l9 39q-89-2-122.5-28.5T162 146zm86 489l180 146 70-103-199-114-51 71z"/><glyph glyph-name="acircumflex" unicode="â" horiz-adv-x="533" d="M134-13q-58 0-96.5 34.5T-1 115q0 86 81 138.5T334 311l3 13q3 12 4.5 24t1.5 20q0 23-14.5 37T288 419q-32 0-51-21t-30-50H52q25 75 85.5 122T302 517q98 0 146-43.5T496 349q0-37-9-81L429 0H285l6 66q-27-37-66.5-58T134-13zm28 159q0-24 14-39t40-15q30 0 55 24.5t38 82.5l9 39q-89-2-122.5-28.5T162 146zm244 624l109-158-63-55-100 103-140-103-51 64 162 149h83z"/><glyph glyph-name="atilde" unicode="ã" horiz-adv-x="533" d="M134-13q-58 0-96.5 34.5T-1 115q0 86 81 138.5T334 311l3 13q3 12 4.5 24t1.5 20q0 23-14.5 37T288 419q-32 0-51-21t-30-50H52q25 75 85.5 122T302 517q98 0 146-43.5T496 349q0-37-9-81L429 0H285l6 66q-27-37-66.5-58T134-13zm28 159q0-24 14-39t40-15q30 0 55 24.5t38 82.5l9 39q-89-2-122.5-28.5T162 146zm160 465q-14 13-22 18t-16 5q-26 0-39-57h-94q12 71 51 115.5t92 44.5q31 0 50.5-12t35.5-28q14-13 22-18t16-5q26 0 39 57h93q-11-71-50-115.5T408 571q-31 0-50.5 12T322 611z"/><glyph glyph-name="adieresis" unicode="ä" horiz-adv-x="533" d="M134-13q-58 0-96.5 34.5T-1 115q0 86 81 138.5T334 311l3 13q3 12 4.5 24t1.5 20q0 23-14.5 37T288 419q-32 0-51-21t-30-50H52q25 75 85.5 122T302 517q98 0 146-43.5T496 349q0-37-9-81L429 0H285l6 66q-27-37-66.5-58T134-13zm28 159q0-24 14-39t40-15q30 0 55 24.5t38 82.5l9 39q-89-2-122.5-28.5T162 146zm76 417q-33 0-52 19.5T167 630q0 35 26 61t65 26q33 0 52-19.5t19-47.5q0-35-26.5-61T238 563zm200 0q-33 0-52 19.5T367 630q0 35 26 61t65 26q33 0 52-19.5t19-47.5q0-35-26.5-61T438 563z"/><glyph glyph-name="aring" unicode="å" horiz-adv-x="533" d="M134-13q-58 0-96.5 34.5T-1 115q0 86 81 138.5T334 311l3 13q3 12 4.5 24t1.5 20q0 23-14.5 37T288 419q-32 0-51-21t-30-50H52q25 75 85.5 122T302 517q98 0 146-43.5T496 349q0-37-9-81L429 0H285l6 66q-27-37-66.5-58T134-13zm28 159q0-24 14-39t40-15q30 0 55 24.5t38 82.5l9 39q-89-2-122.5-28.5T162 146zm181 406q-56 0-83.5 29.5T232 658q0 36 17 65.5t47 47.5q30 18 69 18 56 0 83.5-29.5T476 683q0-35-17-65t-47-48q-30-18-69-18zm1 64q26 0 42.5 19t16.5 48q0 19-10 30.5T364 725q-26 0-42.5-19.5T305 658q0-19 10-30.5t29-11.5z"/><glyph glyph-name="ae" unicode="æ" horiz-adv-x="798" d="M149-13Q78-13 38.5 23T-1 119q0 66 44.5 107t118 61Q235 307 324 310l2 10q6 27 6 48 0 51-45 51-29 0-49-19.5T207 348H52q27 81 89.5 125T293 517q100 0 136-61 25 29 63 45t85 16q64 0 107.5-27.5T750 414q22-48 22-110 0-20-2.5-42t-7.5-45H444q-3-22-3-41 0-45 17-64.5T506 92q57 0 77 65h162q-27-83-93-126.5T500-13q-60 0-103 24t-60 78q-29-53-80.5-77.5T149-13zm410 425q-33 0-59-32t-39-84h153q1 7 1 18 0 53-15.5 75.5T559 412zM214 92q28 0 50 22t32 67l12 57q-34-2-68-10.5T184 200q-22-19-22-52 0-27 15-41.5T214 92z"/><glyph glyph-name="ccedilla" unicode="ç" horiz-adv-x="536" d="M524 323H366q-2 35-13 62t-42 27q-26 0-47-20.5T228 338q-15-33-23-72t-8-76q0-42 12.5-70T256 92q28 0 49.5 23t33.5 73h161q-24-95-90-148T244-13Q141-13 83.5 43.5T26 205q0 59 19.5 114.5t57 100q37.5 44.5 92 71T319 517q71 0 115.5-27t66-71q21.5-44 23.5-96zM181 0h64l-19-57q7 1 14 1 37 0 63-24t26-71q0-53-37.5-87T184-272q-40 0-83 13l16 72q28-9 57-9 58 0 58 45 0 34-33 34-16 0-29-11h-28L181 0z"/><glyph glyph-name="egrave" unicode="è" horiz-adv-x="552" d="M247-13Q142-13 84 44T26 206q0 57 18.5 112.5T100 419q37 45 91 71.5T317 517q73 0 119-28.5t68-77.5q22-49 22-109 0-20-3-41.5t-7-43.5H189q-1-10-1-20 0-55 18-80t53-25q32 0 50.5 18t27.5 47h162q-31-90-97.5-130T247-13zm61 425q-40 0-66.5-34.5T201 296h167q1 10 1 21 0 41-13.5 68T308 412zm24 369l129-165-67-60-157 137 95 88z"/><glyph glyph-name="eacute" unicode="é" horiz-adv-x="552" d="M247-13Q142-13 84 44T26 206q0 57 18.5 112.5T100 419q37 45 91 71.5T317 517q73 0 119-28.5t68-77.5q22-49 22-109 0-20-3-41.5t-7-43.5H189q-1-10-1-20 0-55 18-80t53-25q32 0 50.5 18t27.5 47h162q-31-90-97.5-130T247-13zm61 425q-40 0-66.5-34.5T201 296h167q1 10 1 21 0 41-13.5 68T308 412zm-51 223l180 146 70-103-199-114-51 71z"/><glyph glyph-name="ecircumflex" unicode="ê" horiz-adv-x="552" d="M247-13Q142-13 84 44T26 206q0 57 18.5 112.5T100 419q37 45 91 71.5T317 517q73 0 119-28.5t68-77.5q22-49 22-109 0-20-3-41.5t-7-43.5H189q-1-10-1-20 0-55 18-80t53-25q32 0 50.5 18t27.5 47h162q-31-90-97.5-130T247-13zm61 425q-40 0-66.5-34.5T201 296h167q1 10 1 21 0 41-13.5 68T308 412zm107 358l109-158-63-55-100 103-140-103-51 64 162 149h83z"/><glyph glyph-name="edieresis" unicode="ë" horiz-adv-x="552" d="M247-13Q142-13 84 44T26 206q0 57 18.5 112.5T100 419q37 45 91 71.5T317 517q73 0 119-28.5t68-77.5q22-49 22-109 0-20-3-41.5t-7-43.5H189q-1-10-1-20 0-55 18-80t53-25q32 0 50.5 18t27.5 47h162q-31-90-97.5-130T247-13zm61 425q-40 0-66.5-34.5T201 296h167q1 10 1 21 0 41-13.5 68T308 412zm-61 151q-33 0-52 19.5T176 630q0 35 26 61t65 26q33 0 52-19.5t19-47.5q0-35-26.5-61T247 563zm200 0q-33 0-52 19.5T376 630q0 35 26 61t65 26q33 0 52-19.5t19-47.5q0-35-26.5-61T447 563z"/><glyph glyph-name="igrave" unicode="ì" horiz-adv-x="295" d="M6 0l110 504h170L176 0H6zm219 781l81-181-76-40-114 160 109 61z"/><glyph glyph-name="iacute" unicode="í" horiz-adv-x="295" d="M6 0l110 504h170L176 0H6zm139 623l143 158 83-88-165-133-61 63z"/><glyph glyph-name="icircumflex" unicode="î" horiz-adv-x="295" d="M6 0l110 504h170L176 0H6zm282 755l88-169-67-44-77 98-122-98-55 60 150 153h83z"/><glyph glyph-name="idieresis" unicode="ï" horiz-adv-x="295" d="M6 0l110 504h170L176 0H6zm124 563q-33 0-52 19.5T59 630q0 35 26 61t65 26q33 0 52-19.5t19-47.5q0-35-26.5-61T130 563zm180 0q-33 0-52 19.5T239 630q0 35 26 61t65 26q33 0 52-19.5t19-47.5q0-35-26.5-61T310 563z"/><glyph glyph-name="eth" unicode="ð" horiz-adv-x="573" d="M238-13Q138-13 82 40.5T26 198q0 55 16 107.5T88.5 401q30.5 43 74 68.5T260 495q47 0 80.5-20.5T388 415q1 7 1 16 0 34-12 67t-37 59l-65-44-39 61 39 27q-29 12-63 17l40 119q90-12 152-48l90 62 40-61-70-48q43-45 63-109t20-146q0-75-17.5-146.5t-54.5-129q-37-57.5-96-91T238-13zm15 107q32 0 54 21.5t36 54q14 32.5 20 66t6 57.5q0 41-16.5 64T305 380q-32 0-53.5-22T217 303q-13-33-18.5-66.5T193 179q0-39 14.5-62T253 94z"/><glyph glyph-name="ntilde" unicode="ñ" horiz-adv-x="586" d="M10 0l106 504h144l-11-71q61 84 159 84 70 0 105.5-41.5T549 371q0-16-2-32.5t-6-33.5L476 0H310l67 312q2 11 3.5 20t1.5 18q0 55-50 55-35 0-58.5-29.5T239 297L176 0H10zm336 611q-14 13-22 18t-16 5q-26 0-39-57h-94q12 71 51 115.5t92 44.5q31 0 50.5-12t35.5-28q14-13 22-18t16-5q26 0 39 57h93q-11-71-50-115.5T432 571q-31 0-50.5 12T346 611z"/><glyph glyph-name="ograve" unicode="ò" horiz-adv-x="570" d="M250-13q-72 0-122 28T52 92.5Q26 142 26 207q0 55 19 110t56.5 100q37.5 45 92.5 72.5T320 517q72 0 122-28.5t76-78.5q26-50 26-114 0-55-19-110T468.5 86Q431 41 376 14T250-13zm5 105q30 0 52 21.5t36.5 56q14.5 34.5 22 73.5t7.5 74q0 44-13 69.5T316 412q-30 0-52.5-22t-37-56.5Q212 299 204.5 260t-7.5-73q0-43 13-69t45-26zm83 689l129-165-67-60-157 137 95 88z"/><glyph glyph-name="oacute" unicode="ó" horiz-adv-x="570" d="M250-13q-72 0-122 28T52 92.5Q26 142 26 207q0 55 19 110t56.5 100q37.5 45 92.5 72.5T320 517q72 0 122-28.5t76-78.5q26-50 26-114 0-55-19-110T468.5 86Q431 41 376 14T250-13zm5 105q30 0 52 21.5t36.5 56q14.5 34.5 22 73.5t7.5 74q0 44-13 69.5T316 412q-30 0-52.5-22t-37-56.5Q212 299 204.5 260t-7.5-73q0-43 13-69t45-26zm8 543l180 146 70-103-199-114-51 71z"/><glyph glyph-name="ocircumflex" unicode="ô" horiz-adv-x="570" d="M250-13q-72 0-122 28T52 92.5Q26 142 26 207q0 55 19 110t56.5 100q37.5 45 92.5 72.5T320 517q72 0 122-28.5t76-78.5q26-50 26-114 0-55-19-110T468.5 86Q431 41 376 14T250-13zm5 105q30 0 52 21.5t36.5 56q14.5 34.5 22 73.5t7.5 74q0 44-13 69.5T316 412q-30 0-52.5-22t-37-56.5Q212 299 204.5 260t-7.5-73q0-43 13-69t45-26zm166 678l109-158-63-55-100 103-140-103-51 64 162 149h83z"/><glyph glyph-name="otilde" unicode="õ" horiz-adv-x="570" d="M250-13q-72 0-122 28T52 92.5Q26 142 26 207q0 55 19 110t56.5 100q37.5 45 92.5 72.5T320 517q72 0 122-28.5t76-78.5q26-50 26-114 0-55-19-110T468.5 86Q431 41 376 14T250-13zm5 105q30 0 52 21.5t36.5 56q14.5 34.5 22 73.5t7.5 74q0 44-13 69.5T316 412q-30 0-52.5-22t-37-56.5Q212 299 204.5 260t-7.5-73q0-43 13-69t45-26zm82 519q-14 13-22 18t-16 5q-26 0-39-57h-94q12 71 51 115.5t92 44.5q31 0 50.5-12t35.5-28q14-13 22-18t16-5q26 0 39 57h93q-11-71-50-115.5T423 571q-31 0-50.5 12T337 611z"/><glyph glyph-name="odieresis" unicode="ö" horiz-adv-x="570" d="M250-13q-72 0-122 28T52 92.5Q26 142 26 207q0 55 19 110t56.5 100q37.5 45 92.5 72.5T320 517q72 0 122-28.5t76-78.5q26-50 26-114 0-55-19-110T468.5 86Q431 41 376 14T250-13zm5 105q30 0 52 21.5t36.5 56q14.5 34.5 22 73.5t7.5 74q0 44-13 69.5T316 412q-30 0-52.5-22t-37-56.5Q212 299 204.5 260t-7.5-73q0-43 13-69t45-26zm-2 471q-33 0-52 19.5T182 630q0 35 26 61t65 26q33 0 52-19.5t19-47.5q0-35-26.5-61T253 563zm200 0q-33 0-52 19.5T382 630q0 35 26 61t65 26q33 0 52-19.5t19-47.5q0-35-26.5-61T453 563z"/><glyph glyph-name="divide" unicode="÷" horiz-adv-x="590" d="M338 454q-33 0-50.5 18T270 520q0 34 24.5 58t60.5 24q33 0 50.5-18t17.5-48q0-34-24.5-58T338 454zM82 273l25 113h420l-25-113H82zM254 57q-33 0-50.5 18T186 123q0 34 24.5 58t60.5 24q33 0 50.5-18t17.5-48q0-34-24.5-58T254 57z"/><glyph glyph-name="oslash" unicode="ø" horiz-adv-x="570" d="M7-3l61 70q-42 57-42 140 0 55 19 110t56.5 100q37.5 45 92.5 72.5T320 517q63 0 112-23l62 72 68-59-61-71q43-56 43-140 0-55-19-110T468.5 86Q431 41 376 14T250-13q-63 0-112 23L75-62 7-3zm309 415q-28 0-49.5-19t-36-50q-14.5-31-23-67t-9.5-70l158 187q-14 19-40 19zM255 92q28 0 49 19.5t36 50.5q15 31 23 67.5t10 70.5L214 112q14-20 41-20z"/><glyph glyph-name="ugrave" unicode="ù" horiz-adv-x="575" d="M171-13q-69 0-101.5 41.5T37 131q0 17 2 34t6 34l65 305h166l-67-313q-2-11-3.5-20.5T204 152q0-53 45-53 32 0 55.5 29t33.5 78l63 298h166L459 0H314l10 70q-27-39-65.5-61T171-13zm172 794l129-165-67-60-157 137 95 88z"/><glyph glyph-name="uacute" unicode="ú" horiz-adv-x="575" d="M171-13q-69 0-101.5 41.5T37 131q0 17 2 34t6 34l65 305h166l-67-313q-2-11-3.5-20.5T204 152q0-53 45-53 32 0 55.5 29t33.5 78l63 298h166L459 0H314l10 70q-27-39-65.5-61T171-13zm97 648l180 146 70-103-199-114-51 71z"/><glyph glyph-name="ucircumflex" unicode="û" horiz-adv-x="575" d="M171-13q-69 0-101.5 41.5T37 131q0 17 2 34t6 34l65 305h166l-67-313q-2-11-3.5-20.5T204 152q0-53 45-53 32 0 55.5 29t33.5 78l63 298h166L459 0H314l10 70q-27-39-65.5-61T171-13zm255 783l109-158-63-55-100 103-140-103-51 64 162 149h83z"/><glyph glyph-name="udieresis" unicode="ü" horiz-adv-x="575" d="M171-13q-69 0-101.5 41.5T37 131q0 17 2 34t6 34l65 305h166l-67-313q-2-11-3.5-20.5T204 152q0-53 45-53 32 0 55.5 29t33.5 78l63 298h166L459 0H314l10 70q-27-39-65.5-61T171-13zm87 576q-33 0-52 19.5T187 630q0 35 26 61t65 26q33 0 52-19.5t19-47.5q0-35-26.5-61T258 563zm200 0q-33 0-52 19.5T387 630q0 35 26 61t65 26q33 0 52-19.5t19-47.5q0-35-26.5-61T458 563z"/><glyph glyph-name="yacute" unicode="ý" horiz-adv-x="507" d="M2-223q-33 0-58 6.5T-95-201l40 106q31-13 58-13 24 0 45.5 15.5T98-32l26 41-64 495h165l11-323 162 323h162L221-69q-45-77-94-115.5T2-223zm234 858l180 146 70-103-199-114-51 71z"/><glyph glyph-name="thorn" unicode="þ" horiz-adv-x="583" d="M-36-210l194 910h166l-52-244q54 61 133 61 71 0 111.5-51T557 319q0-60-17-119T491 93q-32-48-78.5-77T308-13q-89 0-123 65l-55-262H-36zM266 99q27 0 49 20.5t37.5 53q15.5 32.5 24 71T385 318q0 35-11.5 58T331 399q-24 0-46.5-18.5T245 331q-17-31-24-70l-3-15q-2-7-5-25t-3-39q0-43 15-63t41-20z"/><glyph glyph-name="ydieresis" unicode="ÿ" horiz-adv-x="507" d="M2-223q-33 0-58 6.5T-95-201l40 106q31-13 58-13 24 0 45.5 15.5T98-32l26 41-64 495h165l11-323 162 323h162L221-69q-45-77-94-115.5T2-223zm224 786q-33 0-52 19.5T155 630q0 35 26 61t65 26q33 0 52-19.5t19-47.5q0-35-26.5-61T226 563zm200 0q-33 0-52 19.5T355 630q0 35 26 61t65 26q33 0 52-19.5t19-47.5q0-35-26.5-61T426 563z"/><glyph glyph-name="Amacron" unicode="Ā" horiz-adv-x="641" d="M-46 0l365 670h181L581 0H408l-9 127H187L125 0H-46zm292 245h145l-18 260-127-260zm-8 512l24 113h375l-24-113H238z"/><glyph glyph-name="amacron" unicode="ā" horiz-adv-x="533" d="M134-13q-58 0-96.5 34.5T-1 115q0 86 81 138.5T334 311l3 13q3 12 4.5 24t1.5 20q0 23-14.5 37T288 419q-32 0-51-21t-30-50H52q25 75 85.5 122T302 517q98 0 146-43.5T496 349q0-37-9-81L429 0H285l6 66q-27-37-66.5-58T134-13zm28 159q0-24 14-39t40-15q30 0 55 24.5t38 82.5l9 39q-89-2-122.5-28.5T162 146zm14 448l22 101h325l-22-101H176z"/><glyph glyph-name="Abreve" unicode="Ă" horiz-adv-x="641" d="M-46 0l365 670h181L581 0H408l-9 127H187L125 0H-46zm292 245h145l-18 260-127-260zm188 493q-44 0-81 15.5t-59.5 46Q271 830 271 874q0 8 .5 13.5T273 900h104q0-24 15.5-41.5T445 841q36 0 56 17t26 42h102q-6-46-32-82.5t-68-58Q487 738 434 738z"/><glyph glyph-name="abreve" unicode="ă" horiz-adv-x="533" d="M134-13q-58 0-96.5 34.5T-1 115q0 86 81 138.5T334 311l3 13q3 12 4.5 24t1.5 20q0 23-14.5 37T288 419q-32 0-51-21t-30-50H52q25 75 85.5 122T302 517q98 0 146-43.5T496 349q0-37-9-81L429 0H285l6 66q-27-37-66.5-58T134-13zm28 159q0-24 14-39t40-15q30 0 55 24.5t38 82.5l9 39q-89-2-122.5-28.5T162 146zm180 423q-70 0-104.5 38T203 701q0 18 3 36h97q-1-5-1-8v-8q0-25 13-40.5t41-15.5q32 0 51.5 19.5T435 737h95q-15-75-63-121.5T342 569z"/><glyph glyph-name="Aogonek" unicode="Ą" horiz-adv-x="641" d="M-46 0l365 670h181L581 0H408l-9 127H187L125 0H-46zm292 245h145l-18 260-127-260zm178-512q-76 0-109 31.5T282-157q0 55 37 96t89 61h140q-62-8-98-38t-36-73q0-57 62-57 23 0 47 10l-21-97q-22-7-40-9.5t-38-2.5z"/><glyph glyph-name="aogonek" unicode="ą" horiz-adv-x="533" d="M134-13q-58 0-96.5 34.5T-1 115q0 86 81 138.5T334 311l3 13q3 12 4.5 24t1.5 20q0 23-14.5 37T288 419q-32 0-51-21t-30-50H52q25 75 85.5 122T302 517q98 0 146-43.5T496 349q0-37-9-81L429 0H285l6 66q-27-37-66.5-58T134-13zm28 159q0-24 14-39t40-15q30 0 55 24.5t38 82.5l9 39q-89-2-122.5-28.5T162 146zm134-408q-67 0-98.5 30.5T166-156q0 53 36 94.5T285 0h143q-63-8-99-38t-36-73q0-55 56-55 22 0 46 10l-20-94q-42-12-79-12z"/><glyph glyph-name="Cacute" unicode="Ć" horiz-adv-x="660" d="M309-16q-133 0-200 73T42 262q0 82 26 158t75 136q49 60 119 95t158 35q76 0 132.5-28t88-88Q672 510 672 414H494q0 83-24 116.5T403 564q-42 0-76-27.5t-57.5-73Q246 418 233 363.5T220 256q0-150 101-150 48 0 79.5 30.5T457 224h177Q595 106 511.5 45T309-16zm17 819l246 137 57-129-264-93-39 85z"/><glyph glyph-name="cacute" unicode="ć" horiz-adv-x="536" d="M524 323H366q-2 35-13 62t-42 27q-26 0-47-20.5T228 338q-15-33-23-72t-8-76q0-42 12.5-70T256 92q28 0 49.5 23t33.5 73h161q-24-95-90-148T244-13Q141-13 83.5 43.5T26 205q0 59 19.5 114.5t57 100q37.5 44.5 92 71T319 517q71 0 115.5-27t66-71q21.5-44 23.5-96zM262 635l180 146 70-103-199-114-51 71z"/><glyph glyph-name="Cdotaccent" unicode="Ċ" horiz-adv-x="660" d="M309-16q-133 0-200 73T42 262q0 82 26 158t75 136q49 60 119 95t158 35q76 0 132.5-28t88-88Q672 510 672 414H494q0 83-24 116.5T403 564q-42 0-76-27.5t-57.5-73Q246 418 233 363.5T220 256q0-150 101-150 48 0 79.5 30.5T457 224h177Q595 106 511.5 45T309-16zm136 745q-38 0-61 23t-23 57q0 41 30.5 71.5T468 911q38 0 61-23t23-57q0-41-31-71.5T445 729z"/><glyph glyph-name="cdotaccent" unicode="ċ" horiz-adv-x="536" d="M524 323H366q-2 35-13 62t-42 27q-26 0-47-20.5T228 338q-15-33-23-72t-8-76q0-42 12.5-70T256 92q28 0 49.5 23t33.5 73h161q-24-95-90-148T244-13Q141-13 83.5 43.5T26 205q0 59 19.5 114.5t57 100q37.5 44.5 92 71T319 517q71 0 115.5-27t66-71q21.5-44 23.5-96zM354 563q-38 0-60 22.5T272 641q0 41 30 70.5t75 29.5q37 0 59.5-22.5T459 663q0-41-30.5-70.5T354 563z"/><glyph glyph-name="Ccaron" unicode="Č" horiz-adv-x="660" d="M309-16q-133 0-200 73T42 262q0 82 26 158t75 136q49 60 119 95t158 35q76 0 132.5-28t88-88Q672 510 672 414H494q0 83-24 116.5T403 564q-42 0-76-27.5t-57.5-73Q246 418 233 363.5T220 256q0-150 101-150 48 0 79.5 30.5T457 224h177Q595 106 511.5 45T309-16zm95 741L265 865l55 65 131-88 154 88 48-74-178-131h-71z"/><glyph glyph-name="ccaron" unicode="č" horiz-adv-x="536" d="M524 323H366q-2 35-13 62t-42 27q-26 0-47-20.5T228 338q-15-33-23-72t-8-76q0-42 12.5-70T256 92q28 0 49.5 23t33.5 73h161q-24-95-90-148T244-13Q141-13 83.5 43.5T26 205q0 59 19.5 114.5t57 100q37.5 44.5 92 71T319 517q71 0 115.5-27t66-71q21.5-44 23.5-96zM300 567L191 725l63 55 100-103 140 103 51-64-162-149h-83z"/><glyph glyph-name="Dcaron" unicode="Ď" horiz-adv-x="694" d="M21 0l142 670h214q154 0 232-72.5T687 392q0-81-29-152t-86-125q-57-54-141-84.5T236 0H21zm315 546h-33l-88-421h40q81 0 136.5 34.5t84 92.5Q504 310 504 383q0 85-41 124t-127 39zm80 179L277 865l55 65 131-88 154 88 48-74-178-131h-71z"/><glyph glyph-name="dcaron" unicode="ď" horiz-adv-x="688" d="M178-13q-70 0-111 51T26 185q0 60 17 119t49 107q32 48 78 77t105 29q89 0 123-65l52 248h166L467 0H323l11 78q-29-45-69.5-68T178-13zm74 118q24 0 46.5 18.5t39 49.5q16.5 31 24.5 70l3 15q1 7 4.5 25t3.5 39q0 43-15.5 63T317 405q-27 0-49-20.5t-37.5-53q-15.5-32.5-24-71T198 186q0-35 11.5-58t42.5-23zm475 411h-76l39 184h125l-2-8q-29-119-86-176z"/><glyph glyph-name="Dcroat" unicode="Đ" horiz-adv-x="707" d="M34 0l60 282H16l25 115h77l58 273h214q154 0 232-72.5T700 392q0-81-29-152t-86-125q-57-54-141-84.5T249 0H34zm363 282H261l-33-157h40q81 0 136.5 34.5t84 92.5Q517 310 517 383q0 85-41 124t-127 39h-33l-31-149h137l-25-115z"/><glyph glyph-name="dslash" unicode="đ" horiz-adv-x="593" d="M177-13q-70 0-110.5 49.5T26 177q0 58 17 114.5t49 103q32 46.5 78 74.5t104 28q45 0 76-17t47-44l23 108H297l19 90h123l14 66h163l-14-66h72l-20-90h-71L467 0H323l11 78q-60-91-157-91zm73 118q38 0 65.5 35.5T358 224l4 16q9 34 9 68 0 32-11 54.5T318 385q-28 0-50.5-19.5t-38-50.5Q214 284 206 249t-8-67q0-34 11.5-55.5T250 105z"/><glyph glyph-name="Emacron" unicode="Ē" horiz-adv-x="561" d="M21 0l142 670h438l-27-123H311l-31-148h236l-25-118H255l-34-158h269L463 0H21zm198 757l24 113h375l-24-113H219z"/><glyph glyph-name="emacron" unicode="ē" horiz-adv-x="552" d="M247-13Q142-13 84 44T26 206q0 57 18.5 112.5T100 419q37 45 91 71.5T317 517q73 0 119-28.5t68-77.5q22-49 22-109 0-20-3-41.5t-7-43.5H189q-1-10-1-20 0-55 18-80t53-25q32 0 50.5 18t27.5 47h162q-31-90-97.5-130T247-13zm61 425q-40 0-66.5-34.5T201 296h167q1 10 1 21 0 41-13.5 68T308 412zM185 594l22 101h325l-22-101H185z"/><glyph glyph-name="Edotaccent" unicode="Ė" horiz-adv-x="561" d="M21 0l142 670h438l-27-123H311l-31-148h236l-25-118H255l-34-158h269L463 0H21zm387 729q-38 0-61 23t-23 57q0 41 30.5 71.5T431 911q38 0 61-23t23-57q0-41-31-71.5T408 729z"/><glyph glyph-name="edotaccent" unicode="ė" horiz-adv-x="552" d="M247-13Q142-13 84 44T26 206q0 57 18.5 112.5T100 419q37 45 91 71.5T317 517q73 0 119-28.5t68-77.5q22-49 22-109 0-20-3-41.5t-7-43.5H189q-1-10-1-20 0-55 18-80t53-25q32 0 50.5 18t27.5 47h162q-31-90-97.5-130T247-13zm61 425q-40 0-66.5-34.5T201 296h167q1 10 1 21 0 41-13.5 68T308 412zm41 151q-38 0-60 22.5T267 641q0 41 30 70.5t75 29.5q37 0 59.5-22.5T454 663q0-41-30.5-70.5T349 563z"/><glyph glyph-name="Eogonek" unicode="Ę" horiz-adv-x="561" d="M21 0l142 670h438l-27-123H311l-31-148h236l-25-118H255l-34-158h269L463 0H21zm318-267q-76 0-109 31.5T197-157q0 55 37 96t89 61h140q-62-8-98-38t-36-73q0-57 62-57 23 0 47 10l-21-97q-22-7-40-9.5t-38-2.5z"/><glyph glyph-name="eogonek" unicode="ę" horiz-adv-x="552" d="M247-13Q142-13 84 44T26 206q0 57 18.5 112.5T100 419q37 45 91 71.5T317 517q73 0 119-28.5t68-77.5q22-49 22-109 0-20-3-41.5t-7-43.5H189q-1-10-1-20 0-55 18-80t53-25q32 0 50.5 18t27.5 47h162q-31-90-97.5-130T247-13zm61 425q-40 0-66.5-34.5T201 296h167q1 10 1 21 0 41-13.5 68T308 412zm-15-674q-67 0-98.5 30.5T163-157q0 37 18.5 69.5t47 56Q257-8 287 5l119 25q-48-24-82-56.5T290-108q0-58 56-58 22 0 46 10l-19-92q-42-14-80-14z"/><glyph glyph-name="Ecaron" unicode="Ě" horiz-adv-x="561" d="M21 0l142 670h438l-27-123H311l-31-148h236l-25-118H255l-34-158h269L463 0H21zm346 725L228 865l55 65 131-88 154 88 48-74-178-131h-71z"/><glyph glyph-name="ecaron" unicode="ě" horiz-adv-x="552" d="M247-13Q142-13 84 44T26 206q0 57 18.5 112.5T100 419q37 45 91 71.5T317 517q73 0 119-28.5t68-77.5q22-49 22-109 0-20-3-41.5t-7-43.5H189q-1-10-1-20 0-55 18-80t53-25q32 0 50.5 18t27.5 47h162q-31-90-97.5-130T247-13zm61 425q-40 0-66.5-34.5T201 296h167q1 10 1 21 0 41-13.5 68T308 412zm-13 155L186 725l63 55 100-103 140 103 51-64-162-149h-83z"/><glyph glyph-name="Gbreve" unicode="Ğ" horiz-adv-x="696" d="M325-16q-133 0-208 72.5T42 271q0 84 27 159t77 132.5Q196 620 266 653t156 33q78 0 138-28t95-80.5Q690 525 691 451H510q-3 57-29 85t-70 28q-47 0-83-27.5t-60-72q-24-44.5-36-97T220 264q0-86 33-122t91-36q56 0 96 31.5t61 95.5H377l27 120h284l-6-36q-17-102-62.5-176.5T500 25q-74-41-175-41zm135 754q-44 0-81 15.5t-59.5 46Q297 830 297 874q0 8 .5 13.5T299 900h104q0-24 15.5-41.5T471 841q36 0 56 17t26 42h102q-6-46-32-82.5t-68-58Q513 738 460 738z"/><glyph glyph-name="gbreve" unicode="ğ" horiz-adv-x="575" d="M208-123q37 0 59 30.5T299-16l18 86Q259 0 173 0 102 0 60 49T18 192q0 58 17 116t49 105q32 47 78 75.5T266 517q51 0 86.5-24t46.5-68l23 79h144L461 10q-24-113-88-173t-172-60q-96 0-149 45.5T-8-50h155q0-35 17-54t44-19zm33 241q27 0 50 18t39 48q16 30 24 65l3 14q1 7 4 21.5t3 35.5q0 44-15 64.5T308 405q-27 0-49-19.5T221.5 334q-15.5-32-24-68t-8.5-69q0-36 11.5-57.5T241 118zm110 451q-70 0-104.5 38T212 701q0 18 3 36h97q-1-5-1-8v-8q0-25 13-40.5t41-15.5q32 0 51.5 19.5T444 737h95q-15-75-63-121.5T351 569z"/><glyph glyph-name="Gdotaccent" unicode="Ġ" horiz-adv-x="696" d="M325-16q-133 0-208 72.5T42 271q0 84 27 159t77 132.5Q196 620 266 653t156 33q78 0 138-28t95-80.5Q690 525 691 451H510q-3 57-29 85t-70 28q-47 0-83-27.5t-60-72q-24-44.5-36-97T220 264q0-86 33-122t91-36q56 0 96 31.5t61 95.5H377l27 120h284l-6-36q-17-102-62.5-176.5T500 25q-74-41-175-41zm128 745q-38 0-61 23t-23 57q0 41 30.5 71.5T476 911q38 0 61-23t23-57q0-41-31-71.5T453 729z"/><glyph glyph-name="gdotaccent" unicode="ġ" horiz-adv-x="575" d="M208-123q37 0 59 30.5T299-16l18 86Q259 0 173 0 102 0 60 49T18 192q0 58 17 116t49 105q32 47 78 75.5T266 517q51 0 86.5-24t46.5-68l23 79h144L461 10q-24-113-88-173t-172-60q-96 0-149 45.5T-8-50h155q0-35 17-54t44-19zm33 241q27 0 50 18t39 48q16 30 24 65l3 14q1 7 4 21.5t3 35.5q0 44-15 64.5T308 405q-27 0-49-19.5T221.5 334q-15.5-32-24-68t-8.5-69q0-36 11.5-57.5T241 118zm108 445q-38 0-60 22.5T267 641q0 41 30 70.5t75 29.5q37 0 59.5-22.5T454 663q0-41-30.5-70.5T349 563z"/><glyph glyph-name="uni0122" unicode="Ģ" horiz-adv-x="696" d="M325-16q-133 0-208 72.5T42 271q0 84 27 159t77 132.5Q196 620 266 653t156 33q78 0 138-28t95-80.5Q690 525 691 451H510q-3 57-29 85t-70 28q-47 0-83-27.5t-60-72q-24-44.5-36-97T220 264q0-86 33-122t91-36q56 0 96 31.5t61 95.5H377l27 120h284l-6-36q-17-102-62.5-176.5T500 25q-74-41-175-41zM175-361l15 68q31 8 52.5 24.5T280-220q-31 3-46.5 22T218-150q0 41 27 66.5T310-58q37 0 56-23t19-61q0-48-27-96t-74.5-82Q236-354 175-361z"/><glyph glyph-name="uni0123" unicode="ģ" horiz-adv-x="575" d="M208-123q37 0 59 30.5T299-16l18 86Q259 0 173 0 102 0 60 49T18 192q0 58 17 116t49 105q32 47 78 75.5T266 517q51 0 86.5-24t46.5-68l23 79h144L461 10q-24-113-88-173t-172-60q-96 0-149 45.5T-8-50h155q0-35 17-54t44-19zm33 241q27 0 50 18t39 48q16 30 24 65l3 14q1 7 4 21.5t3 35.5q0 44-15 64.5T308 405q-27 0-49-19.5T221.5 334q-15.5-32-24-68t-8.5-69q0-36 11.5-57.5T241 118zm229 730l-12-59q-34-8-56-25t-38-48q31-2 47.5-20.5T428 648q0-39-25.5-63T340 561q-35 0-53 21.5T269 642q0 46 26 91t71 77q45 32 104 38z"/><glyph glyph-name="Hbar" unicode="Ħ" horiz-adv-x="733" d="M36 0l102 481H61l22 102h77l18 87h174l-18-87h207l18 87h174l-18-87h78l-22-102h-78L591 0H417l56 265H266L210 0H36zm256 386h207l20 95H312l-20-95z"/><glyph glyph-name="hbar" unicode="ħ" horiz-adv-x="598" d="M20 0l116 544H71l19 90h65l14 66h166l-14-66h125l-20-90H302l-23-108q28 29 64 45t79 16q72 0 105.5-41.5T561 352q0-16-2-33t-6-34L492 0H326l62 292q1 4 3 18t2 24q0 23-13 37t-37 14q-35 0-61-28.5T246 281L186 0H20z"/><glyph glyph-name="Itilde" unicode="Ĩ" horiz-adv-x="322" d="M21 0l142 670h174L195 0H21zm234 778q-10 10-20 16.5t-24 6.5q-17 0-29.5-13.5T158 739H64q8 47 28.5 85.5T145 886q32 23 73 23 34 0 55.5-14.5T313 864q10-9 20-16t24-7q16 0 30 13.5t24 48.5h93q-12-75-53.5-122.5T349 733q-33 0-53.5 13.5T255 778z"/><glyph glyph-name="itilde" unicode="ĩ" horiz-adv-x="295" d="M6 0l110 504h170L176 0H6zm201 611q-22 23-33 23-26 0-36-57H44q11 71 49.5 115.5T183 737q27 0 44-11.5t34-28.5q13-13 20.5-18t13.5-5q25 0 35 57h93q-11-71-48.5-115.5T285 571q-27 0-44 11.5T207 611z"/><glyph glyph-name="Imacron" unicode="Ī" horiz-adv-x="322" d="M21 0l142 670h174L195 0H21zm63 757l24 113h375l-24-113H84z"/><glyph glyph-name="imacron" unicode="ī" horiz-adv-x="295" d="M6 0l110 504h170L176 0H6zm58 594l22 101h313l-22-101H64z"/><glyph glyph-name="Iogonek" unicode="Į" horiz-adv-x="322" d="M21 0l142 670h174L195 0H21zm33-267q-76 0-109 31.5T-88-157q0 55 37 96T38 0h140q-62-8-98-38t-36-73q0-57 62-57 23 0 47 10l-21-97q-22-7-40-9.5T54-267z"/><glyph glyph-name="iogonek" unicode="į" horiz-adv-x="292" d="M220 563q-38 0-60 22.5T138 641q0 41 30 70.5t75 29.5q37 0 59.5-22.5T325 663q0-41-30.5-70.5T220 563zM10 0l107 504h166L176 0H10zm31-262q-67 0-98.5 30.5T-89-156q0 53 36 94.5T30 0h143q-63-8-99-38t-36-73q0-55 56-55 22 0 46 10l-20-94q-42-12-79-12z"/><glyph glyph-name="Idot" unicode="İ" horiz-adv-x="322" d="M21 0l142 670h174L195 0H21zm252 729q-38 0-61 23t-23 57q0 41 30.5 71.5T296 911q38 0 61-23t23-57q0-41-31-71.5T273 729z"/><glyph glyph-name="dotlessi" unicode="ı" horiz-adv-x="295" d="M6 0l110 504h170L176 0H6z"/><glyph glyph-name="IJ" unicode="Ĳ" horiz-adv-x="650" d="M292-16q-105 0-167 50T63 192q0 13 1 27t3 28h174q-3-25-3-46 0-91 68-91 44 0 70 37t40 103l91 420h171l-93-428q-16-74-49.5-132T443 18q-59-34-151-34zm-46 328H75l78 358h171l-78-358z"/><glyph glyph-name="ij" unicode="ĳ" horiz-adv-x="579" d="M250 112q34 0 58 28.5t32 65.5l64 298h166L465 10q-23-106-86-169.5T201-223q-96 0-149 45.5T-8-50h155q0-35 17-54t44-19q37 0 57.5 30.5T297-16l18 82q-27-31-63.5-48.5T171 0Q102 0 70 40.5T38 137q0 29 8 66l64 301h166l-65-307q-2-11-3.5-20.5T206 159q0-22 11.5-34.5T250 112zm-40 451q-38 0-60 22.5T128 641q0 41 30 70.5t75 29.5q37 0 59.5-22.5T315 663q0-41-30.5-70.5T210 563zm297 0q-38 0-60 22.5T425 641q0 41 30 70.5t75 29.5q37 0 59.5-22.5T612 663q0-41-30.5-70.5T507 563z"/><glyph glyph-name="uni0136" unicode="Ķ" horiz-adv-x="667" d="M21 0l142 670h174l-60-283 254 283h207L408 340q52-30 90-85t60-122q22-67 28-133H394q-1 45-11 93.5T355 185q-18 43-43 71.5T256 289L195 0H21zm127-361l15 68q31 8 52.5 24.5T253-220q-31 3-46.5 22T191-150q0 41 27 66.5T283-58q37 0 56-23t19-61q0-48-27-96t-74.5-82Q209-354 148-361z"/><glyph glyph-name="uni0137" unicode="ķ" horiz-adv-x="548" d="M6 0l153 700h166l-87-396 177 200h179L358 265q53-39 89-111T490 0H318q-9 71-31.5 127.5T222 227L172 0H6zm94-346l12 59q34 8 56 25t38 48q-31 2-47.5 20.5T142-146q0 39 25.5 63T230-59q35 0 53-21.5t18-59.5q0-46-26-91t-71-77q-45-32-104-38z"/><glyph glyph-name="Lacute" unicode="Ĺ" horiz-adv-x="542" d="M21 0l143 670h174L224 131h262L457 0H21zm137 803l246 137 57-129-264-93-39 85z"/><glyph glyph-name="lacute" unicode="ĺ" horiz-adv-x="292" d="M10 0l149 700h166L176 0H10zm158 826l206 124 54-115-219-88-41 79z"/><glyph glyph-name="uni013B" unicode="Ļ" horiz-adv-x="542" d="M21 0l143 670h174L224 131h262L457 0H21zm76-361l15 68q31 8 52.5 24.5T202-220q-31 3-46.5 22T140-150q0 41 27 66.5T232-58q37 0 56-23t19-61q0-48-27-96t-74.5-82Q158-354 97-361z"/><glyph glyph-name="uni013C" unicode="ļ" horiz-adv-x="292" d="M10 0l149 700h166L176 0H10zm-58-346l12 59q34 8 56 25t38 48q-31 2-47.5 20.5T-6-146q0 39 25.5 63T82-59q35 0 53-21.5t18-59.5q0-46-26-91t-71-77q-45-32-104-38z"/><glyph glyph-name="Lcaron" unicode="Ľ" horiz-adv-x="542" d="M21 0l143 670h174L224 131h262L457 0H21zm456 464h-80l44 206h131l-3-14q-7-33-22-69.5T513.5 517Q495 484 477 464z"/><glyph glyph-name="lcaron" unicode="ľ" horiz-adv-x="397" d="M10 0l149 700h166L176 0H10zm426 516h-76l39 184h125l-2-8q-29-119-86-176z"/><glyph glyph-name="Lslash" unicode="Ł" horiz-adv-x="562" d="M41 0l46 215-77-39 26 129 79 39 69 326h174l-48-227 142 71-27-129-143-72-38-182h262L477 0H41z"/><glyph glyph-name="lslash" unicode="ł" horiz-adv-x="342" d="M35 0l59 279-85-45 21 104 87 45 67 317h166l-49-231 95 50-22-104-95-50L201 0H35z"/><glyph glyph-name="Nacute" unicode="Ń" horiz-adv-x="716" d="M21 0l142 670h162l148-442 93 442h165L588 0H427L279 439 186 0H21zm328 803l246 137 57-129-264-93-39 85z"/><glyph glyph-name="nacute" unicode="ń" horiz-adv-x="586" d="M10 0l106 504h144l-11-71q61 84 159 84 70 0 105.5-41.5T549 371q0-16-2-32.5t-6-33.5L476 0H310l67 312q2 11 3.5 20t1.5 18q0 55-50 55-35 0-58.5-29.5T239 297L176 0H10zm262 635l180 146 70-103-199-114-51 71z"/><glyph glyph-name="uni0145" unicode="Ņ" horiz-adv-x="716" d="M21 0l142 670h162l148-442 93 442h165L588 0H427L279 439 186 0H21zm137-361l15 68q31 8 52.5 24.5T263-220q-31 3-46.5 22T201-150q0 41 27 66.5T293-58q37 0 56-23t19-61q0-48-27-96t-74.5-82Q219-354 158-361z"/><glyph glyph-name="uni0146" unicode="ņ" horiz-adv-x="586" d="M10 0l106 504h144l-11-71q61 84 159 84 70 0 105.5-41.5T549 371q0-16-2-32.5t-6-33.5L476 0H310l67 312q2 11 3.5 20t1.5 18q0 55-50 55-35 0-58.5-29.5T239 297L176 0H10zm91-346l12 59q34 8 56 25t38 48q-31 2-47.5 20.5T143-146q0 39 25.5 63T231-59q35 0 53-21.5t18-59.5q0-46-26-91t-71-77q-45-32-104-38z"/><glyph glyph-name="Ncaron" unicode="Ň" horiz-adv-x="716" d="M21 0l142 670h162l148-442 93 442h165L588 0H427L279 439 186 0H21zm406 725L288 865l55 65 131-88 154 88 48-74-178-131h-71z"/><glyph glyph-name="ncaron" unicode="ň" horiz-adv-x="586" d="M10 0l106 504h144l-11-71q61 84 159 84 70 0 105.5-41.5T549 371q0-16-2-32.5t-6-33.5L476 0H310l67 312q2 11 3.5 20t1.5 18q0 55-50 55-35 0-58.5-29.5T239 297L176 0H10zm300 567L201 725l63 55 100-103 140 103 51-64-162-149h-83z"/><glyph glyph-name="Eng" unicode="Ŋ" horiz-adv-x="716" d="M329-95q35 0 60 24.5T424 0l15 73-156 382L186 0H21l142 670h162l159-390 82 390h165L597 39q-29-134-90-198t-170-64q-36 0-67 6.5T217-200l41 121q16-7 36-11.5t35-4.5z"/><glyph glyph-name="eng" unicode="ŋ" horiz-adv-x="587" d="M229-107q27 0 46.5 20.5T305-21l72 332q1 8 3 20.5t2 22.5q0 23-13 37t-37 14q-34 0-58-28.5T239 298L176 0H10l106 504h144l-11-71q29 39 69.5 61.5T410 517q73 0 106.5-41.5T550 374q0-18-2.5-35t-6.5-34L471-21q-23-103-75-152.5T250-223q-28 0-54 4.5T154-204l36 104q22-7 39-7z"/><glyph glyph-name="Ohungarumlaut" unicode="Ő" horiz-adv-x="706" d="M323-16q-133 0-207 76.5T42 279q0 81 25 154.5T140.5 564Q189 621 259 653.5T418 686q133 0 207-76.5T699 391q0-81-25-154.5T600.5 106Q552 49 482 16.5T323-16zm9 122q46 0 81.5 28t59.5 73q24 45 36 97.5T521 405q0 80-30.5 119.5T409 564q-47 0-82-28t-59-73q-24-45-36-97.5T220 265q0-80 30.5-119.5T332 106zm-60 677l187 172 74-96-214-139-47 63zm210 6l207 131 59-107-229-93-37 69z"/><glyph glyph-name="ohungarumlaut" unicode="ő" horiz-adv-x="570" d="M250-13q-72 0-122 28T52 92.5Q26 142 26 207q0 55 19 110t56.5 100q37.5 45 92.5 72.5T320 517q72 0 122-28.5t76-78.5q26-50 26-114 0-55-19-110T468.5 86Q431 41 376 14T250-13zm5 105q30 0 52 21.5t36.5 56q14.5 34.5 22 73.5t7.5 74q0 44-13 69.5T316 412q-30 0-52.5-22t-37-56.5Q212 299 204.5 260t-7.5-73q0-43 13-69t45-26zm-51 514l170 183 76-78-196-157-50 52zm171 6l198 154 60-91-216-121-42 58z"/><glyph glyph-name="OE" unicode="Œ" horiz-adv-x="933" d="M835 0H352Q198 0 120 72.5T42 278q0 81 29 152t86 125q57 54 141 84.5T493 670h480l-27-123H675l-32-148h246l-26-118H618l-34-158h278L835 0zM393 124h27l90 421h-36q-81 0-136.5-34.5t-84-92.5Q225 360 225 287q0-85 41-124t127-39z"/><glyph glyph-name="oe" unicode="œ" horiz-adv-x="871" d="M246-13q-70 0-119 28T52 92.5Q26 142 26 207q0 55 19.5 110T102 417q37 45 91 72.5T316 517q55 0 93-19t65-56q30 36 71.5 55.5T643 517q67 0 112-27.5t67.5-75.5Q845 366 845 304q0-20-2.5-42t-7.5-45H517q-3-22-3-41 0-45 17-64.5T579 92q57 0 77 65h162q-27-83-93.5-126.5T573-13q-53 0-92.5 18T420 64q-69-77-174-77zm9 105q32 0 54.5 23.5t36.5 59q14 35.5 20.5 74.5t6.5 69q0 49-15 71.5T315 412q-30 0-52-22t-36.5-57q-14.5-35-22-74t-7.5-73q0-42 13-68t45-26zm376 320q-33 0-58-31t-39-85h153q1 7 1 18 0 52-15.5 75T631 412z"/><glyph glyph-name="Racute" unicode="Ŕ" horiz-adv-x="645" d="M21 0l143 670h242q122 0 178.5-48T641 495q0-79-53.5-134.5T426 291q66-35 103.5-113T577 0H394q-9 110-45 181.5T251 261L195 0H21zm345 555h-53l-40-186h58q65 0 99 30t34 76q0 38-24.5 59T366 555zm-66 248l246 137 57-129-264-93-39 85z"/><glyph glyph-name="racute" unicode="ŕ" horiz-adv-x="387" d="M9 0l107 504h144l-15-103q20 43 56 77t90 34q17 0 30-3l-34-155q-17 5-36 5-51 0-85.5-42.5T215 199L173 0H9zm182 635l180 146 70-103-199-114-51 71z"/><glyph glyph-name="Rcaron" unicode="Ř" horiz-adv-x="645" d="M21 0l143 670h242q122 0 178.5-48T641 495q0-79-53.5-134.5T426 291q66-35 103.5-113T577 0H394q-9 110-45 181.5T251 261L195 0H21zm345 555h-53l-40-186h58q65 0 99 30t34 76q0 38-24.5 59T366 555zm12 170L239 865l55 65 131-88 154 88 48-74-178-131h-71z"/><glyph glyph-name="rcaron" unicode="ř" horiz-adv-x="387" d="M9 0l107 504h144l-15-103q20 43 56 77t90 34q17 0 30-3l-34-155q-17 5-36 5-51 0-85.5-42.5T215 199L173 0H9zm220 567L120 725l63 55 100-103 140 103 51-64-162-149h-83z"/><glyph glyph-name="Sacute" unicode="Ś" horiz-adv-x="602" d="M271-16q-71 0-128 21.5t-90.5 66Q19 116 19 185q0 19 2 31h168q-1-10-1-15v-10q0-53 27.5-74T281 96q49 0 73 27.5t24 60.5q0 38-23.5 53.5T305 263l-80 31q-23 9-53 27.5t-52 52Q98 407 98 462q0 62 34 113t96 81q62 30 146 30 66 0 118-21.5t82-67.5q30-46 30-119v-8q0-4-1-11H436q1 6 1.5 14.5t.5 15.5q0 38-22.5 61.5T357 574q-40 0-63-24t-23-60q0-35 23-51.5t45-24.5l76-29q19-7 43-19t46-32q22-20 36.5-51t14.5-75q0-60-32.5-111t-96-82Q363-16 271-16zm8 819l246 137 57-129-264-93-39 85z"/><glyph glyph-name="sacute" unicode="ś" horiz-adv-x="500" d="M221-13q-85 0-133 26T20 78.5Q0 118-2 159h158q2-33 19-53.5T227 85q26 0 45.5 12.5T292 136q0 25-17 36.5T227 195l-53 20q-27 10-54.5 26T74 283q-18 26-18 66 0 46 26.5 84t77 61Q210 517 280 517t114-22q44-22 66.5-59.5T487 354H333q-2 26-15.5 45.5T270 419q-26 0-42-13.5T212 370q0-24 18-35.5t44-21.5l54-20q24-9 52-24.5t48-43q20-27.5 20-72.5 0-73-58.5-119.5T221-13zm-7 648l180 146 70-103-199-114-51 71z"/><glyph glyph-name="Scedilla" unicode="Ş" horiz-adv-x="602" d="M271-16q-71 0-128 21.5t-90.5 66Q19 116 19 185q0 19 2 31h168q-1-10-1-15v-10q0-53 27.5-74T281 96q49 0 73 27.5t24 60.5q0 38-23.5 53.5T305 263l-80 31q-23 9-53 27.5t-52 52Q98 407 98 462q0 62 34 113t96 81q62 30 146 30 66 0 118-21.5t82-67.5q30-46 30-119v-8q0-4-1-11H436q1 6 1.5 14.5t.5 15.5q0 38-22.5 61.5T357 574q-40 0-63-24t-23-60q0-35 23-51.5t45-24.5l76-29q19-7 43-19t46-32q22-20 36.5-51t14.5-75q0-60-32.5-111t-96-82Q363-16 271-16zM204 0h73l-20-56h7q44 0 72.5-25t28.5-73q0-55-40-89.5T209-278q-19 0-43.5 3T116-263l18 76q16-5 35-8.5t36-3.5q31 0 46 12t15 32q0 19-10.5 27.5T230-119q-21 0-38-11h-29L204 0z"/><glyph glyph-name="scedilla" unicode="ş" horiz-adv-x="500" d="M221-13q-85 0-133 26T20 78.5Q0 118-2 159h158q2-33 19-53.5T227 85q26 0 45.5 12.5T292 136q0 25-17 36.5T227 195l-53 20q-27 10-54.5 26T74 283q-18 26-18 66 0 46 26.5 84t77 61Q210 517 280 517t114-22q44-22 66.5-59.5T487 354H333q-2 26-15.5 45.5T270 419q-26 0-42-13.5T212 370q0-24 18-35.5t44-21.5l54-20q24-9 52-24.5t48-43q20-27.5 20-72.5 0-73-58.5-119.5T221-13zM144 0h64l-19-57q7 1 14 1 37 0 63-24t26-71q0-53-37.5-87T147-272q-40 0-83 13l16 72q28-9 57-9 58 0 58 45 0 34-33 34-16 0-29-11h-28L144 0z"/><glyph glyph-name="Scaron" unicode="Š" horiz-adv-x="602" d="M271-16q-71 0-128 21.5t-90.5 66Q19 116 19 185q0 19 2 31h168q-1-10-1-15v-10q0-53 27.5-74T281 96q49 0 73 27.5t24 60.5q0 38-23.5 53.5T305 263l-80 31q-23 9-53 27.5t-52 52Q98 407 98 462q0 62 34 113t96 81q62 30 146 30 66 0 118-21.5t82-67.5q30-46 30-119v-8q0-4-1-11H436q1 6 1.5 14.5t.5 15.5q0 38-22.5 61.5T357 574q-40 0-63-24t-23-60q0-35 23-51.5t45-24.5l76-29q19-7 43-19t46-32q22-20 36.5-51t14.5-75q0-60-32.5-111t-96-82Q363-16 271-16zm86 741L218 865l55 65 131-88 154 88 48-74-178-131h-71z"/><glyph glyph-name="scaron" unicode="š" horiz-adv-x="500" d="M221-13q-85 0-133 26T20 78.5Q0 118-2 159h158q2-33 19-53.5T227 85q26 0 45.5 12.5T292 136q0 25-17 36.5T227 195l-53 20q-27 10-54.5 26T74 283q-18 26-18 66 0 46 26.5 84t77 61Q210 517 280 517t114-22q44-22 66.5-59.5T487 354H333q-2 26-15.5 45.5T270 419q-26 0-42-13.5T212 370q0-24 18-35.5t44-21.5l54-20q24-9 52-24.5t48-43q20-27.5 20-72.5 0-73-58.5-119.5T221-13zm31 580L143 725l63 55 100-103 140 103 51-64-162-149h-83z"/><glyph glyph-name="uni0162" unicode="Ţ" horiz-adv-x="576" d="M146 0l116 543H74l28 127h550l-28-127H436L320 0H146zm28 0h73l-20-56h7q44 0 72.5-25t28.5-73q0-55-40-89.5T179-278q-19 0-43.5 3T86-263l18 76q16-5 35-8.5t36-3.5q31 0 46 12t15 32q0 19-10.5 27.5T200-119q-21 0-38-11h-29L174 0z"/><glyph glyph-name="uni0163" unicode="ţ" horiz-adv-x="393" d="M205-13q-73 0-112.5 34T53 120q0 25 6 52l49 228H48l22 104h60l30 142h166l-30-142h113l-22-104H273l-49-230q-3-14-3-23 0-44 48-44 21 0 41 6L324 8q-26-9-56-15t-63-6zM121 0h64l-19-57q7 1 14 1 37 0 63-24t26-71q0-53-37.5-87T124-272q-40 0-83 13l16 72q28-9 57-9 58 0 58 45 0 34-33 34-16 0-29-11H82L121 0z"/><glyph glyph-name="Tcaron" unicode="Ť" horiz-adv-x="576" d="M146 0l116 543H74l28 127h550l-28-127H436L320 0H146zm207 725L214 865l55 65 131-88 154 88 48-74-178-131h-71z"/><glyph glyph-name="tcaron" unicode="ť" horiz-adv-x="393" d="M205-13q-73 0-112.5 34T53 120q0 25 6 52l49 228H48l22 104h60l30 142h166l-30-142h113l-22-104H273l-49-230q-3-14-3-23 0-44 48-44 21 0 41 6L324 8q-26-9-56-15t-63-6zm226 557h-80l33 151h119l-3-13q-10-43-25.5-75T431 544z"/><glyph glyph-name="Tbar" unicode="Ŧ" horiz-adv-x="576" d="M146 0l57 269H85l24 112h118l35 162H74l28 127h550l-28-127H436l-35-162h120l-24-112H377L320 0H146z"/><glyph glyph-name="tbar" unicode="ŧ" horiz-adv-x="388" d="M7 205l22 104h59l20 91H48l22 104h60l30 142h166l-30-142h113l-22-104H273l-19-91h114l-22-104H232l-8-35q-3-14-3-23 0-44 48-44 21 0 41 6L324 8q-26-9-56-15t-63-6q-73 0-112.5 34T53 120q0 25 6 52l7 33H7z"/><glyph glyph-name="Utilde" unicode="Ũ" horiz-adv-x="685" d="M297-16q-119 0-179.5 55T57 189q0 18 2.5 40t7.5 45l85 396h174l-88-411q-4-18-5.5-34.5T231 197q0-41 22.5-62.5T314 113q53 0 87.5 42T453 277l85 393h174l-87-405Q596 133 516 58.5T297-16zm138 794q-10 10-20 16.5t-24 6.5q-17 0-29.5-13.5T338 739h-94q8 47 28.5 85.5T325 886q32 23 73 23 34 0 55.5-14.5T493 864q10-9 20-16t24-7q16 0 30 13.5t24 48.5h93q-12-75-53.5-122.5T529 733q-33 0-53.5 13.5T435 778z"/><glyph glyph-name="utilde" unicode="ũ" horiz-adv-x="575" d="M171-13q-69 0-101.5 41.5T37 131q0 17 2 34t6 34l65 305h166l-67-313q-2-11-3.5-20.5T204 152q0-53 45-53 32 0 55.5 29t33.5 78l63 298h166L459 0H314l10 70q-27-39-65.5-61T171-13zm171 624q-14 13-22 18t-16 5q-26 0-39-57h-94q12 71 51 115.5t92 44.5q31 0 50.5-12t35.5-28q14-13 22-18t16-5q26 0 39 57h93q-11-71-50-115.5T428 571q-31 0-50.5 12T342 611z"/><glyph glyph-name="Umacron" unicode="Ū" horiz-adv-x="685" d="M297-16q-119 0-179.5 55T57 189q0 18 2.5 40t7.5 45l85 396h174l-88-411q-4-18-5.5-34.5T231 197q0-41 22.5-62.5T314 113q53 0 87.5 42T453 277l85 393h174l-87-405Q596 133 516 58.5T297-16zm-33 773l24 113h375l-24-113H264z"/><glyph glyph-name="umacron" unicode="ū" horiz-adv-x="575" d="M171-13q-69 0-101.5 41.5T37 131q0 17 2 34t6 34l65 305h166l-67-313q-2-11-3.5-20.5T204 152q0-53 45-53 32 0 55.5 29t33.5 78l63 298h166L459 0H314l10 70q-27-39-65.5-61T171-13zm25 607l22 101h325l-22-101H196z"/><glyph glyph-name="Uring" unicode="Ů" horiz-adv-x="685" d="M297-16q-119 0-179.5 55T57 189q0 18 2.5 40t7.5 45l85 396h174l-88-411q-4-18-5.5-34.5T231 197q0-41 22.5-62.5T314 113q53 0 87.5 42T453 277l85 393h174l-87-405Q596 133 516 58.5T297-16zm160 735q-56 0-84.5 31T344 827q0 36 17.5 66.5t48 48.5q30.5 18 69.5 18 56 0 84.5-31t28.5-77q0-36-17.5-66t-48-48.5Q496 719 457 719zm3 68q24 0 39.5 18.5T515 851q0 19-10 30t-29 11q-24 0-39.5-18.5T421 828q0-19 10-30t29-11z"/><glyph glyph-name="uring" unicode="ů" horiz-adv-x="575" d="M171-13q-69 0-101.5 41.5T37 131q0 17 2 34t6 34l65 305h166l-67-313q-2-11-3.5-20.5T204 152q0-53 45-53 32 0 55.5 29t33.5 78l63 298h166L459 0H314l10 70q-27-39-65.5-61T171-13zm192 565q-56 0-83.5 29.5T252 658q0 36 17 65.5t47 47.5q30 18 69 18 56 0 83.5-29.5T496 683q0-35-17-65t-47-48q-30-18-69-18zm1 64q26 0 42.5 19t16.5 48q0 19-10 30.5T384 725q-26 0-42.5-19.5T325 658q0-19 10-30.5t29-11.5z"/><glyph glyph-name="Uhungarumlaut" unicode="Ű" horiz-adv-x="685" d="M297-16q-119 0-179.5 55T57 189q0 18 2.5 40t7.5 45l85 396h174l-88-411q-4-18-5.5-34.5T231 197q0-41 22.5-62.5T314 113q53 0 87.5 42T453 277l85 393h174l-87-405Q596 133 516 58.5T297-16zm-24 799l187 172 74-96-214-139-47 63zm210 6l207 131 59-107-229-93-37 69z"/><glyph glyph-name="uhungarumlaut" unicode="ű" horiz-adv-x="575" d="M171-13q-69 0-101.5 41.5T37 131q0 17 2 34t6 34l65 305h166l-67-313q-2-11-3.5-20.5T204 152q0-53 45-53 32 0 55.5 29t33.5 78l63 298h166L459 0H314l10 70q-27-39-65.5-61T171-13zm38 619l170 183 76-78-196-157-50 52zm171 6l198 154 60-91-216-121-42 58z"/><glyph glyph-name="Uogonek" unicode="Ų" horiz-adv-x="685" d="M297-16q-119 0-179.5 55T57 189q0 18 2.5 40t7.5 45l85 396h174l-88-411q-4-18-5.5-34.5T231 197q0-41 22.5-62.5T314 113q53 0 87.5 42T453 277l85 393h174l-87-405Q596 133 516 58.5T297-16zm59-251q-74 0-107 31.5T216-157q0 55 36.5 96T340 0l133 28q-55-29-90-60.5T348-110q0-58 62-58 23 0 47 10l-19-95q-42-14-82-14z"/><glyph glyph-name="uogonek" unicode="ų" horiz-adv-x="575" d="M171-13q-69 0-101.5 41.5T37 131q0 17 2 34t6 34l65 305h166l-67-313q-2-11-3.5-20.5T204 152q0-53 45-53 32 0 55.5 29t33.5 78l63 298h166L459 0H314l10 70q-27-39-65.5-61T171-13zm154-249q-67 0-98.5 30.5T195-156q0 53 36 94.5T314 0h143q-63-8-99-38t-36-73q0-55 56-55 22 0 46 10l-20-94q-42-12-79-12z"/><glyph glyph-name="Wcircumflex" unicode="Ŵ" horiz-adv-x="890" d="M102 0l10 670h173l-15-440 210 440h120l14-438 185 438h167L666 0H490l-7 429L278 0H102zm509 915l139-140-55-65-131 88-154-88-48 74 178 131h71z"/><glyph glyph-name="wcircumflex" unicode="ŵ" horiz-adv-x="749" d="M73 0L59 504h173l-25-345 158 345h145l-4-342 140 342h156L547 0H378l-2 277L241 0H73zm452 770l109-158-63-55-100 103-140-103-51 64 162 149h83z"/><glyph glyph-name="Ycircumflex" unicode="Ŷ" horiz-adv-x="611" d="M155 0l59 272L90 670h178l61-270 188 270h182L387 267 329 0H155zm309 915l139-140-55-65-131 88-154-88-48 74 178 131h71z"/><glyph glyph-name="ycircumflex" unicode="ŷ" horiz-adv-x="507" d="M2-223q-33 0-58 6.5T-95-201l40 106q31-13 58-13 24 0 45.5 15.5T98-32l26 41-64 495h165l11-323 162 323h162L221-69q-45-77-94-115.5T2-223zm392 993l109-158-63-55-100 103-140-103-51 64 162 149h83z"/><glyph glyph-name="Ydieresis" unicode="Ÿ" horiz-adv-x="611" d="M155 0l59 272L90 670h178l61-270 188 270h182L387 267 329 0H155zm139 738q-35 0-55.5 20.5T218 810q0 38 27.5 65t69.5 27q34 0 54.5-20.5T390 830q0-38-27.5-65T294 738zm230 0q-35 0-55.5 20.5T448 810q0 38 27.5 65t69.5 27q34 0 54.5-20.5T620 830q0-38-27.5-65T524 738z"/><glyph glyph-name="Zacute" unicode="Ź" horiz-adv-x="600" d="M120 547l27 123h503l-22-99-399-448h303L505 0H-13L9 99l398 448H120zm181 256l246 137 57-129-264-93-39 85z"/><glyph glyph-name="zacute" unicode="ź" horiz-adv-x="470" d="M-17 0L0 80l271 305H69l26 119h398l-17-80-279-305h226L397 0H-17zm244 635l180 146 70-103-199-114-51 71z"/><glyph glyph-name="Zdotaccent" unicode="Ż" horiz-adv-x="600" d="M120 547l27 123h503l-22-99-399-448h303L505 0H-13L9 99l398 448H120zm300 182q-38 0-61 23t-23 57q0 41 30.5 71.5T443 911q38 0 61-23t23-57q0-41-31-71.5T420 729z"/><glyph glyph-name="zdotaccent" unicode="ż" horiz-adv-x="470" d="M-17 0L0 80l271 305H69l26 119h398l-17-80-279-305h226L397 0H-17zm336 563q-38 0-60 22.5T237 641q0 41 30 70.5t75 29.5q37 0 59.5-22.5T424 663q0-41-30.5-70.5T319 563z"/><glyph glyph-name="Zcaron" unicode="Ž" horiz-adv-x="600" d="M120 547l27 123h503l-22-99-399-448h303L505 0H-13L9 99l398 448H120zm259 178L240 865l55 65 131-88 154 88 48-74-178-131h-71z"/><glyph glyph-name="zcaron" unicode="ž" horiz-adv-x="470" d="M-17 0L0 80l271 305H69l26 119h398l-17-80-279-305h226L397 0H-17zm282 567L156 725l63 55 100-103 140 103 51-64-162-149h-83z"/><glyph glyph-name="uni0218" unicode="Ș" horiz-adv-x="602" d="M271-16q-71 0-128 21.5t-90.5 66Q19 116 19 185q0 19 2 31h168q-1-10-1-15v-10q0-53 27.5-74T281 96q49 0 73 27.5t24 60.5q0 38-23.5 53.5T305 263l-80 31q-23 9-53 27.5t-52 52Q98 407 98 462q0 62 34 113t96 81q62 30 146 30 66 0 118-21.5t82-67.5q30-46 30-119v-8q0-4-1-11H436q1 6 1.5 14.5t.5 15.5q0 38-22.5 61.5T357 574q-40 0-63-24t-23-60q0-35 23-51.5t45-24.5l76-29q19-7 43-19t46-32q22-20 36.5-51t14.5-75q0-60-32.5-111t-96-82Q363-16 271-16zM114-361l15 68q31 8 52.5 24.5T219-220q-31 3-46.5 22T157-150q0 41 27 66.5T249-58q37 0 56-23t19-61q0-48-27-96t-74.5-82Q175-354 114-361z"/><glyph glyph-name="uni0219" unicode="ș" horiz-adv-x="500" d="M221-13q-85 0-133 26T20 78.5Q0 118-2 159h158q2-33 19-53.5T227 85q26 0 45.5 12.5T292 136q0 25-17 36.5T227 195l-53 20q-27 10-54.5 26T74 283q-18 26-18 66 0 46 26.5 84t77 61Q210 517 280 517t114-22q44-22 66.5-59.5T487 354H333q-2 26-15.5 45.5T270 419q-26 0-42-13.5T212 370q0-24 18-35.5t44-21.5l54-20q24-9 52-24.5t48-43q20-27.5 20-72.5 0-73-58.5-119.5T221-13zM63-346l12 59q34 8 56 25t38 48q-31 2-47.5 20.5T105-146q0 39 25.5 63T193-59q35 0 53-21.5t18-59.5q0-46-26-91t-71-77q-45-32-104-38z"/><glyph glyph-name="uni021A" unicode="Ț" horiz-adv-x="576" d="M146 0l116 543H74l28 127h550l-28-127H436L320 0H146zM84-361l15 68q31 8 52.5 24.5T189-220q-31 3-46.5 22T127-150q0 41 27 66.5T219-58q37 0 56-23t19-61q0-48-27-96t-74.5-82Q145-354 84-361z"/><glyph glyph-name="uni021B" unicode="ț" horiz-adv-x="393" d="M205-13q-73 0-112.5 34T53 120q0 25 6 52l49 228H48l22 104h60l30 142h166l-30-142h113l-22-104H273l-49-230q-3-14-3-23 0-44 48-44 21 0 41 6L324 8q-26-9-56-15t-63-6zM40-346l12 59q34 8 56 25t38 48q-31 2-47.5 20.5T82-146q0 39 25.5 63T170-59q35 0 53-21.5t18-59.5q0-46-26-91t-71-77q-45-32-104-38z"/><glyph glyph-name="circumflex" unicode="ˆ" horiz-adv-x="500" d="M381 770l109-158-63-55-100 103-140-103-51 64 162 149h83z"/><glyph glyph-name="caron" unicode="ˇ" horiz-adv-x="500" d="M262 567L153 725l63 55 100-103 140 103 51-64-162-149h-83z"/><glyph glyph-name="breve" unicode="˘" horiz-adv-x="500" d="M318 569q-70 0-104.5 38T179 701q0 18 3 36h97q-1-5-1-8v-8q0-25 13-40.5t41-15.5q32 0 51.5 19.5T411 737h95q-15-75-63-121.5T318 569z"/><glyph glyph-name="dotaccent" unicode="˙" horiz-adv-x="500" d="M320 563q-38 0-60 22.5T238 641q0 41 30 70.5t75 29.5q37 0 59.5-22.5T425 663q0-41-30.5-70.5T320 563z"/><glyph glyph-name="ring" unicode="˚" horiz-adv-x="500" d="M331 552q-56 0-83.5 29.5T220 658q0 36 17 65.5t47 47.5q30 18 69 18 56 0 83.5-29.5T464 683q0-35-17-65t-47-48q-30-18-69-18zm1 64q26 0 42.5 19t16.5 48q0 19-10 30.5T352 725q-26 0-42.5-19.5T293 658q0-19 10-30.5t29-11.5z"/><glyph glyph-name="ogonek" unicode="˛" horiz-adv-x="500" d="M192-262q-67 0-98.5 30.5T62-156q0 53 36 94.5T181 0h143q-63-8-99-38t-36-73q0-55 56-55 22 0 46 10l-20-94q-42-12-79-12z"/><glyph glyph-name="tilde" unicode="˜" horiz-adv-x="500" d="M290 611q-14 13-22 18t-16 5q-26 0-39-57h-94q12 71 51 115.5t92 44.5q31 0 50.5-12t35.5-28q14-13 22-18t16-5q26 0 39 57h93q-11-71-50-115.5T376 571q-31 0-50.5 12T290 611z"/><glyph glyph-name="hungarumlaut" unicode="˝" horiz-adv-x="500" d="M100 606l170 183 76-78-196-157-50 52zm171 6l198 154 60-91-216-121-42 58z"/><glyph glyph-name="gravecomb" unicode="̀" d="M-7 781l129-165-67-60-157 137 95 88z"/><glyph glyph-name="acutecomb" unicode="́" d="M-82 635L98 781l70-103-199-114-51 71z"/><glyph glyph-name="uni0302" unicode="̂" d="M76 770l109-158-63-55L22 660l-140-103-51 64L-7 770h83z"/><glyph glyph-name="tildecomb" unicode="̃" d="M-8 611q-14 13-22 18t-16 5q-26 0-39-57h-94q12 71 51 115.5t92 44.5q31 0 50.5-12T50 697q14-13 22-18t16-5q26 0 39 57h93q-11-71-50-115.5T78 571q-31 0-50.5 12T-8 611z"/><glyph glyph-name="uni0304" unicode="̄" d="M-154 594l22 101h325l-22-101h-325z"/><glyph glyph-name="uni0306" unicode="̆" d="M12 569q-70 0-104.5 38t-34.5 94q0 18 3 36h97q-1-5-1-8v-8q0-25 13-40.5T26 665q32 0 51.5 19.5T105 737h95q-15-75-63-121.5T12 569z"/><glyph glyph-name="uni0307" unicode="̇" d="M10 563q-38 0-60 22.5T-72 641q0 41 30 70.5T33 741q37 0 59.5-22.5T115 663q0-41-30.5-70.5T10 563z"/><glyph glyph-name="uni0308" unicode="̈" d="M-92 563q-33 0-52 19.5t-19 47.5q0 35 26 61t65 26q33 0 52-19.5T-1 650q0-35-26.5-61T-92 563zm200 0q-33 0-52 19.5T37 630q0 35 26 61t65 26q33 0 52-19.5t19-47.5q0-35-26.5-61T108 563z"/><glyph glyph-name="uni030A" unicode="̊" d="M13 552q-56 0-83.5 29.5T-98 658q0 36 17 65.5t47 47.5q30 18 69 18 56 0 83.5-29.5T146 683q0-35-17-65t-47-48q-30-18-69-18zm1 64q26 0 42.5 19T73 683q0 19-10 30.5T34 725q-26 0-42.5-19.5T-25 658q0-19 10-30.5T14 616z"/><glyph glyph-name="uni030B" unicode="̋" d="M-141 606L29 789l76-78-196-157-50 52zm171 6l198 154 60-91L72 554l-42 58z"/><glyph glyph-name="uni030C" unicode="̌" d="M-44 567l-109 158 63 55L10 677l140 103 51-64L39 567h-83z"/><glyph glyph-name="uni0312" unicode="̒" d="M131 848l-12-59q-34-8-56-25t-38-48q31-2 47.5-20.5T89 648q0-39-25.5-63T1 561q-35 0-53 21.5T-70 642q0 46 26 91t71 77q45 32 104 38z"/><glyph glyph-name="uni0315" unicode="̕" d="M20 516h-76l39 184h125l-2-8Q77 573 20 516z"/><glyph glyph-name="dotbelowcomb" unicode="̣" d="M-33-237q-37 0-59.5 22.5T-115-159q0 41 30 70.5T-10-59q38 0 60-22.5T72-137q0-41-30.5-70.5T-33-237z"/><glyph glyph-name="uni0326" unicode="̦" d="M-131-346l12 59q34 8 56 25t38 48q-31 2-47.5 20.5T-89-146q0 39 25.5 63T-1-59q35 0 53-21.5T70-140q0-46-26-91t-71-77q-45-32-104-38z"/><glyph glyph-name="uni0327" unicode="̧" d="M-50 0h64L-5-57q7 1 14 1 37 0 63-24t26-71q0-53-37.5-87T-47-272q-40 0-83 13l16 72q28-9 57-9 58 0 58 45 0 34-33 34-16 0-29-11h-28L-50 0z"/><glyph glyph-name="uni0328" unicode="̨" d="M-57-262q-67 0-98.5 30.5T-187-156q0 53 36 94.5T-68 0H75Q12-8-24-38t-36-73q0-55 56-55 22 0 46 10l-20-94q-42-12-79-12z"/><glyph glyph-name="uni1E24" unicode="Ḥ" horiz-adv-x="703" d="M21 0l142 670h174l-58-272h207l58 272h174L576 0H402l58 275H253L195 0H21zm232-244q-38 0-61 23t-23 57q0 41 30.5 71.5T276-62q38 0 61-23t23-57q0-41-31-71.5T253-244z"/><glyph glyph-name="uni1E25" unicode="ḥ" horiz-adv-x="587" d="M10 0l149 700h166l-52-239q56 56 137 56 74 0 107-42t33-101q0-19-2.5-35.5T541 305L476 0H310l67 312q2 11 3.5 20t1.5 18q0 55-50 55-35 0-58.5-29.5T239 297L176 0H10zm188-237q-37 0-59.5 22.5T116-159q0 41 30 70.5T221-59q38 0 60-22.5t22-55.5q0-41-30.5-70.5T198-237z"/><glyph glyph-name="uni1E36" unicode="Ḷ" horiz-adv-x="542" d="M21 0l143 670h174L224 131h262L457 0H21zm178-244q-38 0-61 23t-23 57q0 41 30.5 71.5T222-62q38 0 61-23t23-57q0-41-31-71.5T199-244z"/><glyph glyph-name="uni1E37" unicode="ḷ" horiz-adv-x="292" d="M10 0l149 700h166L176 0H10zm40-237q-37 0-59.5 22.5T-32-159q0 41 30 70.5T73-59q38 0 60-22.5t22-55.5q0-41-30.5-70.5T50-237z"/><glyph glyph-name="Wgrave" unicode="Ẁ" horiz-adv-x="890" d="M102 0l10 670h173l-15-440 210 440h120l14-438 185 438h167L666 0H490l-7 429L278 0H102zm377 940l207-150-50-78-232 109 75 119z"/><glyph glyph-name="wgrave" unicode="ẁ" horiz-adv-x="749" d="M73 0L59 504h173l-25-345 158 345h145l-4-342 140 342h156L547 0H378l-2 277L241 0H73zm369 781l129-165-67-60-157 137 95 88z"/><glyph glyph-name="Wacute" unicode="Ẃ" horiz-adv-x="890" d="M102 0l10 670h173l-15-440 210 440h120l14-438 185 438h167L666 0H490l-7 429L278 0H102zm333 803l246 137 57-129-264-93-39 85z"/><glyph glyph-name="wacute" unicode="ẃ" horiz-adv-x="749" d="M73 0L59 504h173l-25-345 158 345h145l-4-342 140 342h156L547 0H378l-2 277L241 0H73zm294 635l180 146 70-103-199-114-51 71z"/><glyph glyph-name="Wdieresis" unicode="Ẅ" horiz-adv-x="890" d="M102 0l10 670h173l-15-440 210 440h120l14-438 185 438h167L666 0H490l-7 429L278 0H102zm339 738q-35 0-55.5 20.5T365 810q0 38 27.5 65t69.5 27q34 0 54.5-20.5T537 830q0-38-27.5-65T441 738zm230 0q-35 0-55.5 20.5T595 810q0 38 27.5 65t69.5 27q34 0 54.5-20.5T767 830q0-38-27.5-65T671 738z"/><glyph glyph-name="wdieresis" unicode="ẅ" horiz-adv-x="749" d="M73 0L59 504h173l-25-345 158 345h145l-4-342 140 342h156L547 0H378l-2 277L241 0H73zm284 563q-33 0-52 19.5T286 630q0 35 26 61t65 26q33 0 52-19.5t19-47.5q0-35-26.5-61T357 563zm200 0q-33 0-52 19.5T486 630q0 35 26 61t65 26q33 0 52-19.5t19-47.5q0-35-26.5-61T557 563z"/><glyph glyph-name="uni1E9E" unicode="ẞ" horiz-adv-x="652" d="M4 0l87 409q28 131 102.5 204T398 686q109 0 167.5-50.5T644 501L498 381q63-17 90.5-61T616 217q0-67-31.5-119.5t-90-83Q436-16 353-16q-31 0-66.5 5T229 6l37 106q18-7 37-9.5t30-2.5q47 0 74 32.5t27 82.5q0 43-19.5 67T363 306h-13l21 95 124 102q-8 28-32 48t-65 20q-48 0-80-31.5T272 441L178 0H4z"/><glyph glyph-name="Ygrave" unicode="Ỳ" horiz-adv-x="611" d="M155 0l59 272L90 670h178l61-270 188 270h182L387 267 329 0H155zm177 940l207-150-50-78-232 109 75 119z"/><glyph glyph-name="ygrave" unicode="ỳ" horiz-adv-x="507" d="M2-223q-33 0-58 6.5T-95-201l40 106q31-13 58-13 24 0 45.5 15.5T98-32l26 41-64 495h165l11-323 162 323h162L221-69q-45-77-94-115.5T2-223zM311 781l129-165-67-60-157 137 95 88z"/><glyph glyph-name="uni2000"/><glyph glyph-name="uni2001"/><glyph glyph-name="uni2002"/><glyph glyph-name="uni2003"/><glyph glyph-name="uni2004"/><glyph glyph-name="uni2005"/><glyph glyph-name="uni2006"/><glyph glyph-name="uni2007"/><glyph glyph-name="uni2008"/><glyph glyph-name="uni2009"/><glyph glyph-name="uni200A"/><glyph glyph-name="uni200B" unicode="​"/><glyph glyph-name="uni2010" unicode="‐" horiz-adv-x="414" d="M35 184l28 126h314l-28-126H35z"/><glyph glyph-name="uni2011" unicode="‑" horiz-adv-x="414" d="M35 184l28 126h314l-28-126H35z"/><glyph glyph-name="figuredash" unicode="‒" horiz-adv-x="590" d="M31 184l28 126h500l-28-126H31z"/><glyph glyph-name="endash" unicode="–" horiz-adv-x="500" d="M-14 184l28 126h500l-28-126H-14z"/><glyph glyph-name="emdash" unicode="—" horiz-adv-x="1000" d="M-14 184l28 126h1000l-28-126H-14z"/><glyph glyph-name="uni2015" unicode="―" horiz-adv-x="1000" d="M-14 184l28 126h1000l-28-126H-14z"/><glyph glyph-name="quoteleft" unicode="‘" horiz-adv-x="207" d="M284 710l-12-59q-69-13-92-63 30-4 45.5-23t15.5-49q0-38-27.5-64.5T148 425q-38 0-57.5 23.5T71 513q0 47 28 90.5t76.5 72.5Q224 705 284 710z"/><glyph glyph-name="quoteright" unicode="’" horiz-adv-x="207" d="M59 425l12 59q69 13 92 63-30 4-45.5 23T102 619q0 38 27.5 64.5T195 710q38 0 57.5-23.5T272 622q0-48-28-91t-76-72q-48-29-109-34z"/><glyph glyph-name="quotesinglbase" unicode="‚" horiz-adv-x="207" d="M-60-131l12 59Q21-59 44-9 14-5-1.5 14T-17 63q0 38 27.5 64.5T76 154q38 0 57.5-23.5T153 66q0-48-28-91T49-97Q1-126-60-131z"/><glyph glyph-name="quotedblleft" unicode="“" horiz-adv-x="430" d="M284 710l-12-59q-69-13-92-63 30-4 45.5-23t15.5-49q0-38-27.5-64.5T148 425q-38 0-57.5 23.5T71 513q0 47 28 90.5t76.5 72.5Q224 705 284 710zm223 0l-12-59q-69-13-92-63 30-4 45.5-23t15.5-49q0-38-27.5-64.5T371 425q-38 0-57.5 23.5T294 513q0 47 28 90.5t76.5 72.5Q447 705 507 710z"/><glyph glyph-name="quotedblright" unicode="”" horiz-adv-x="430" d="M59 425l12 59q69 13 92 63-30 4-45.5 23T102 619q0 38 27.5 64.5T195 710q38 0 57.5-23.5T272 622q0-48-28-91t-76-72q-48-29-109-34zm223 0l12 59q69 13 92 63-30 4-45.5 23T325 619q0 38 27.5 64.5T418 710q38 0 57.5-23.5T495 622q0-48-28-91t-76-72q-48-29-109-34z"/><glyph glyph-name="quotedblbase" unicode="„" horiz-adv-x="430" d="M-60-131l12 59Q21-59 44-9 14-5-1.5 14T-17 63q0 38 27.5 64.5T76 154q38 0 57.5-23.5T153 66q0-48-28-91T49-97Q1-126-60-131zm223 0l12 59q69 13 92 63-30 4-45.5 23T206 63q0 38 27.5 64.5T299 154q38 0 57.5-23.5T376 66q0-48-28-91t-76-72q-48-29-109-34z"/><glyph glyph-name="dagger" unicode="†" horiz-adv-x="400" d="M56-105l114 506-117-6 25 119 114-6 29 162h131l-41-162 120 6-25-119-119 6-100-506H56z"/><glyph glyph-name="daggerdbl" unicode="‡" horiz-adv-x="400" d="M56-105L97 57l-118-6L4 170l116-6 51 237-119-6 25 119 115-6 29 162h131l-41-162 119 6-25-119-117 6-51-237 120 6-25-119-116 6-29-162H56z"/><glyph glyph-name="bullet" unicode="•" horiz-adv-x="391" d="M181 102q-66 0-100.5 35T46 232q0 46 22 82.5t60 58q38 21.5 85 21.5 62 0 96-36t34-94q0-46-22-82.5t-58.5-58Q226 102 181 102z"/><glyph glyph-name="ellipsis" unicode="…" horiz-adv-x="1000" d="M123-10q-40 0-61.5 21.5T40 70q0 42 29.5 71t73.5 29q38 0 59-22t21-58q0-43-29.5-71.5T123-10zm333 0q-40 0-61.5 21.5T373 70q0 42 29.5 71t73.5 29q38 0 59-22t21-58q0-43-29.5-71.5T456-10zm333 0q-40 0-61.5 21.5T706 70q0 42 29.5 71t73.5 29q38 0 59-22t21-58q0-43-29.5-71.5T789-10z"/><glyph glyph-name="perthousand" unicode="‰" horiz-adv-x="1268" d="M167 0l456 660h137L304 0H167zm499-10q-130 0-130 148 0 46 13 92.5t39.5 85.5q26.5 39 65.5 62.5t90 23.5q130 0 130-148 0-46-13-92.5T821.5 76Q795 37 756 13.5T666-10zm12 79q16 0 30 23t24 57q10 34 16 68.5t6 56.5q0 28-5 38.5T732 323q-16 0-30-23t-24-57q-10-34-16-68.5t-6-56.5q0-28 5-38.5T678 69zm354-79q-130 0-130 148 0 46 13 92.5t39.5 85.5q26.5 39 65.5 62.5t90 23.5q130 0 130-148 0-46-13-92.5T1187.5 76Q1161 37 1122 13.5T1032-10zm12 79q16 0 30 23t24 57q10 34 16 68.5t6 56.5q0 28-5 38.5t-17 10.5q-16 0-30-23t-24-57q-10-34-16-68.5t-6-56.5q0-28 5-38.5t17-10.5zM185 258Q55 258 55 406q0 46 13 92.5t39.5 85.5q26.5 39 65.5 62.5t90 23.5q130 0 130-148 0-46-13-92.5T340.5 344Q314 305 275 281.5T185 258zm12 79q16 0 30 23t24 57q10 34 16 68.5t6 56.5q0 28-5 38.5T251 591q-16 0-30-23t-24-57q-10-34-16-68.5t-6-56.5q0-28 5-38.5t17-10.5z"/><glyph glyph-name="guilsinglleft" unicode="‹" horiz-adv-x="341" d="M126 52L30 253l174 201h164L186 243l99-191H126z"/><glyph glyph-name="guilsinglright" unicode="›" horiz-adv-x="341" d="M215 454l96-201L137 52H-27l182 211-99 191h159z"/><glyph glyph-name="fraction" unicode="⁄" horiz-adv-x="131" d="M-214 0l456 660h137L-77 0h-137z"/><glyph glyph-name="uni2070" unicode="⁰" horiz-adv-x="366" d="M204 368Q74 368 74 516q0 46 13 92.5t39.5 85.5q26.5 39 65.5 62.5t90 23.5q130 0 130-148 0-46-13-92.5T359.5 454Q333 415 294 391.5T204 368zm12 79q16 0 30 23t24 57q10 34 16 68.5t6 56.5q0 28-5 38.5T270 701q-16 0-30-23t-24-57q-10-34-16-68.5t-6-56.5q0-28 5-38.5t17-10.5z"/><glyph glyph-name="uni2074" unicode="⁴" horiz-adv-x="348" d="M206 374l15 72H45l16 75 238 245h100l-52-238h42l-17-82h-42l-16-72H206zm-46 154h79l21 101-100-101z"/><glyph glyph-name="uni2075" unicode="⁵" horiz-adv-x="358" d="M205 365q-64 0-101.5 30T66 482h110q0-19 7.5-29.5T210 442q24 0 37.5 14t19 33q5.5 19 5.5 34 0 24-10.5 34T233 567q-16 0-30-9t-22-20H92l69 228h254l-18-84H229l-18-62q28 18 68 18 46 0 78.5-28t32.5-84q0-43-22-79.5t-63.5-59Q263 365 205 365z"/><glyph glyph-name="uni2076" unicode="⁶" horiz-adv-x="358" d="M217 368q-61 0-103 38T72 529q0 39 12 83t37 82q25 38 65 62t97 24q59 0 93-29t34-77H296q0 19-7.5 26t-19.5 7q-18 0-35-21.5T201 612q32 28 79 28 46 0 75.5-29.5T385 523q0-45-21-80t-59-55q-38-20-88-20zm-5 74q27 0 42 23t15 50q0 51-37 51-28 0-42.5-25.5T175 489q0-47 37-47z"/><glyph glyph-name="uni2077" unicode="⁷" horiz-adv-x="312" d="M59 384q27 93 77.5 164.5T274 692H88l18 84h294l-19-85q-82-75-130.5-148.5T180 384H59z"/><glyph glyph-name="uni2078" unicode="⁸" horiz-adv-x="364" d="M210 368q-39 0-74 11.5t-57.5 36Q56 440 56 480q0 41 28 71t75 43q-20 12-32.5 31T114 670q0 32 21.5 57t58 39q36.5 14 82.5 14 36 0 69-9.5t54.5-31Q421 718 421 682q0-34-24-59.5T334 584q25-12 40.5-33.5T390 498q0-36-23-65.5t-63.5-47Q263 368 210 368zm50 252q22 0 33.5 20t11.5 39q0 35-30 35-23 0-34-20t-11-39q0-35 30-35zm-47-183q28 0 42 25t14 50q0 45-37 45-27 0-41-25t-14-50q0-45 36-45z"/><glyph glyph-name="uni2079" unicode="⁹" horiz-adv-x="358" d="M261 780q60 0 102-39t42-124q0-39-12-82.5T356 453q-25-38-65-61.5T194 368q-59 0-93 29t-34 77h114q0-18 7.5-25t19.5-7q18 0 36 21t33 74q-33-28-80-28-46 0-75.5 29.5T92 625q0 45 21 80t59.5 55q38.5 20 88.5 20zm4-74q-27 0-42-24t-15-51q0-49 37-49 28 0 42.5 24.5T302 657q0 49-37 49z"/><glyph glyph-name="uni2080" unicode="₀" horiz-adv-x="366" d="M110-110Q-20-110-20 38q0 46 13 92.5T32.5 216Q59 255 98 278.5t90 23.5q130 0 130-148 0-46-13-92.5T265.5-24Q239-63 200-86.5T110-110zm12 79q16 0 30 23t24 57q10 34 16 68.5t6 56.5q0 28-5 38.5T176 223q-16 0-30-23t-24-57q-10-34-16-68.5T100 18q0-28 5-38.5T122-31z"/><glyph glyph-name="uni2081" unicode="₁" horiz-adv-x="278" d="M35-100l56 267q-48-14-95-20l22 93q35 6 67 17.5t62 34.5h90l-84-392H35z"/><glyph glyph-name="uni2082" unicode="₂" horiz-adv-x="358" d="M-42-100l5 22q8 34 21 59.5t38.5 49Q48 54 93 81l48 28q36 21 52 39t16 44q0 33-28 33-18 0-31.5-14T126 154H17q16 74 63.5 111T192 302q67 0 101.5-29.5T328 191q0-41-29-75.5T220 51l-55-33Q148 8 137.5 0T121-15h162l-20-85H-42z"/><glyph glyph-name="uni2083" unicode="₃" horiz-adv-x="358" d="M124-109q-67 0-109.5 29T-28 11v9q0 4 1 8H82q-1-5-1-9v-6q0-24 11.5-34.5T124-32q27 0 40 17.5T177 26q0 49-54 49h-17l15 67h27q26 0 39 13.5t13 36.5q0 14-8 23.5t-24 9.5q-13 0-25-9.5T126 184H18q32 118 163 118 61 0 98.5-28t37.5-79q0-33-18.5-56T246 101q26-13 36.5-34.5T293 19q0-55-46.5-91.5T124-109z"/><glyph glyph-name="uni2084" unicode="₄" horiz-adv-x="348" d="M119-100l15 72H-42l16 75 238 245h100L260 54h42l-17-82h-42l-16-72H119zM73 54h79l21 101L73 54z"/><glyph glyph-name="uni2085" unicode="₅" horiz-adv-x="358" d="M113-110q-64 0-101.5 30T-26 7H84q0-19 7.5-29.5T118-33q24 0 37.5 14t19 33q5.5 19 5.5 34 0 24-10.5 34T141 92q-16 0-30-9T89 63H0l69 228h254l-18-84H137l-18-62q28 18 68 18 46 0 78.5-28T298 51q0-43-22-79.5t-63.5-59Q171-110 113-110z"/><glyph glyph-name="uni2086" unicode="₆" horiz-adv-x="358" d="M131-110q-61 0-103 38T-14 51q0 39 12 83t37 82q25 38 65 62t97 24q59 0 93-29t34-77H210q0 19-7.5 26t-19.5 7q-18 0-35-21.5T115 134q32 28 79 28 46 0 75.5-29.5T299 45q0-45-21-80t-59-55q-38-20-88-20zm-5 74q27 0 42 23t15 50q0 51-37 51-28 0-42.5-25.5T89 11q0-47 37-47z"/><glyph glyph-name="uni2087" unicode="₇" horiz-adv-x="312" d="M-17-100Q10-7 60.5 64.5T198 208H12l18 84h294l-19-85q-82-75-130.5-148.5T104-100H-17z"/><glyph glyph-name="uni2088" unicode="₈" horiz-adv-x="364" d="M120-110q-39 0-74 11.5t-57.5 36Q-34-38-34 2q0 41 28 71t75 43q-20 12-32.5 31T24 192q0 32 21.5 57t58 39q36.5 14 82.5 14 36 0 69-9.5t54.5-31Q331 240 331 204q0-34-24-59.5T244 106q25-12 40.5-33.5T300 20q0-36-23-65.5t-63.5-47Q173-110 120-110zm50 252q22 0 33.5 20t11.5 39q0 35-30 35-23 0-34-20t-11-39q0-35 30-35zM123-41q28 0 42 25t14 50q0 45-37 45-27 0-41-25T87 4q0-45 36-45z"/><glyph glyph-name="uni2089" unicode="₉" horiz-adv-x="358" d="M165 302q60 0 102-39t42-124q0-39-12-82.5T260-25q-25-38-65-61.5T98-110q-59 0-93 29T-29-4H85q0-18 7.5-25t19.5-7q18 0 36 21t33 74q-33-28-80-28-46 0-75.5 29.5T-4 147q0 45 21 80t59.5 55q38.5 20 88.5 20zm4-74q-27 0-42-24t-15-51q0-49 37-49 28 0 42.5 24.5T206 179q0 49-37 49z"/><glyph glyph-name="Euro" unicode="€" horiz-adv-x="590" d="M298-16q-115 0-170.5 64.5T72 229H15l16 76h46q3 22 7 43H40l16 76h49q23 66 63.5 122t98.5 90q58 34 134 34 95 0 153-54.5T612 469H445q0 82-51 82-36 0-65-36.5T280 424h175l-30-76H258q-5-21-9-43h158l-29-76H242v-12q0-62 16.5-88t47.5-26q55 0 82 84h167q-20-61-58.5-106.5T407 9.5Q356-16 298-16z"/><glyph glyph-name="uni20B9" unicode="₹" horiz-adv-x="590" d="M123 495h222q-3 40-29.5 61.5T237 578h-96l16 76h479l-28-76H466q29-35 34-83h94l-29-76h-70q-14-47-50-80t-87.5-52Q306 268 247 262L455 0H287L73 260l17 76h101q47 0 86 20t57 63H107l16 76z"/><glyph glyph-name="uni20BA" unicode="₺" horiz-adv-x="590" d="M55 293l61 21 13 63-60-21 17 82 61 21 41 195h156l-29-137 118 41-18-82-117-41-14-63 118 41-18-82-117-41-36-169h25q42 0 73 17.5t54 59Q406 239 424 311h139q-28-120-71-188T384.5 27.5Q320 0 228 0H49l49 232-60-21 17 82z"/><glyph glyph-name="trademark" unicode="™" horiz-adv-x="934" d="M181 250v322H57v98h371v-98H305V250H181zm265 0l41 420h132l80-244 84 244h131l41-420H828l-19 248-72-205h-74l-73 208-20-251H446z"/><glyph glyph-name="minus" unicode="−" horiz-adv-x="590" d="M83 272l25 113h420l-25-113H83z"/><glyph glyph-name="uniFB00" unicode="ﬀ" horiz-adv-x="686" d="M19 0l84 397H43l23 107h60l3 15q20 95 72 144.5T345 713q61 0 107-26l-34-96q-27 14-51 14-25 0-43-16.5T297 530l-5-26h154l3 15q20 95 72 144.5T665 713q61 0 107-26l-34-96q-27 14-51 14-25 0-43-16.5T617 530l-5-26h102l-23-107H589L505 0H339l84 397H269L185 0H19z"/><glyph glyph-name="uniFB01" unicode="ﬁ" horiz-adv-x="621" d="M549 563q-37 0-59.5 22.5T467 641q0 41 30 70.5t75 29.5q38 0 60-22.5t22-55.5q0-41-30.5-70.5T549 563zM19 0l84 397H43l23 107h60l3 15q20 95 72 144.5T345 713q27 0 50-4.5t43-12.5l-42-96q-12 5-29 5-25 0-43-16.5T297 530l-5-26h83l-23-107h-83L185 0H19zm320 0l107 504h166L505 0H339z"/><glyph glyph-name="uniFB02" unicode="ﬂ" horiz-adv-x="617" d="M19 0l84 397H43l23 107h60l3 15q20 95 72 144.5T345 713q27 0 50-4.5t43-12.5l-42-96q-12 5-29 5-25 0-43-16.5T297 530l-5-26h83l-23-107h-83L185 0H19zm316 0l149 700h166L501 0H335z"/><glyph glyph-name="uniFB03" unicode="ﬃ" horiz-adv-x="941" d="M869 563q-37 0-59.5 22.5T787 641q0 41 30 70.5t75 29.5q38 0 60-22.5t22-55.5q0-41-30.5-70.5T869 563zM19 0l84 397H43l23 107h60l3 15q20 95 72 144.5T345 713q61 0 107-26l-34-96q-27 14-51 14-25 0-43-16.5T297 530l-5-26h154l3 15q20 95 72 144.5T665 713q27 0 50-4.5t43-12.5l-42-96q-12 5-29 5-25 0-43-16.5T617 530l-5-26h84l-23-107h-84L505 0H339l84 397H269L185 0H19zm640 0l107 504h166L825 0H659z"/><glyph glyph-name="uniFB04" unicode="ﬄ" horiz-adv-x="938" d="M19 0l84 397H43l23 107h60l3 15q20 95 72 144.5T345 713q61 0 107-26l-34-96q-27 14-51 14-25 0-43-16.5T297 530l-5-26h154l3 15q20 95 72 144.5T665 713q27 0 50-4.5t43-12.5l-42-96q-12 5-29 5-25 0-43-16.5T617 530l-5-26h84l-23-107h-84L505 0H339l84 397H269L185 0H19zm637 0l149 700h166L822 0H656z"/></font>
</svg>
