<svg xmlns="http://www.w3.org/2000/svg" version="1.2"><font><font-face font-family="Speedee" ascent="967" descent="-359" font-style="normal" font-weight="700" cap-height="670" x-height="504" underline-position="-165" underline-thickness="40"/><glyph glyph-name="uni0000"/><glyph glyph-name="uni000D" horiz-adv-x="200"/><glyph glyph-name="space" horiz-adv-x="200"/><glyph glyph-name="exclam" unicode="!" horiz-adv-x="275" d="M48 670h179l-30-458H79L48 670zm89-500q39 0 65-25t26-65q0-37-27-63.5T137-10q-38 0-64 26.5T47 80q0 40 26 65t64 25z"/><glyph glyph-name="quotedbl" unicode="&quot;" horiz-adv-x="469" d="M174 440H95q-19 61-27 107.5T60 645v55h149v-55q0-51-7.5-97.5T174 440zm200 0h-79q-19 61-27 107.5t-8 97.5v55h149v-55q0-51-7.5-97.5T374 440z"/><glyph glyph-name="numbersign" unicode="#" horiz-adv-x="590" d="M49 0l27 155H10v113h85l23 134H39v113h99l24 139h134l-24-139h111l24 139h134l-24-139h66V402h-86l-23-134h80V155h-99L428 0H294l27 155H210L183 0H49zm180 268h111l23 134H252l-23-134z"/><glyph glyph-name="dollar" unicode="$" horiz-adv-x="590" d="M263-110V-3Q157 6 96 60T25 202h174q6-42 25-64.5t49-29.5v154l-53 12q-86 20-132 69T42 461q0 63 28.5 106.5T149 635q50 24 114 29v106h69V663q96-8 151-63t68-150H380q-5 39-19 64.5T322 550V395l48-12q74-18 116-43.5t59-60.5q17-35 17-79 0-90-60.5-143T332-3v-107h-69zm-55 590q0-27 15.5-45t49.5-28v148q-32-4-48.5-24T208 480zm185-296q0 23-16.5 40T322 251V106q37 4 54 25.5t17 52.5z"/><glyph glyph-name="percent" unicode="%" horiz-adv-x="908" d="M226 0l318 660h138L364 0H226zm-36 258q-84 0-125 55.5T24 464q0 95 41 150.5T190 670q84 0 125-55.5T356 464q0-95-41-150.5T190 258zm0 84q23 0 32 29t9 93q0 64-9 93t-32 29q-23 0-32-29t-9-93q0-64 9-93t32-29zM716-10q-84 0-125 55.5T550 196q0 95 41 150.5T716 402q84 0 125-55.5T882 196q0-95-41-150.5T716-10zm0 84q23 0 32 29t9 93q0 64-9 93t-32 29q-23 0-32-29t-9-93q0-64 9-93t32-29z"/><glyph glyph-name="ampersand" unicode="&amp;" horiz-adv-x="720" d="M499 344h147q-6-127-74-219 19-6 39-6 13 0 24 1t24 5l18-113Q656 3 635-.5T589-4q-35 0-65.5 9.5T465 32q-37-20-82-31t-96-11q-73 0-129 23.5t-88 66Q38 122 38 181q0 58 31 103.5t95 75.5q-33 44-44.5 77.5T108 503q0 77 55 122t143 45q54 0 96.5-19t67-53q24.5-34 24.5-79 0-63-34.5-102T351 349l114-141 2-2q26 57 32 138zM255 517q0-23 7.5-43.5T292 424q33 21 44 42t11 50q0 25-12.5 39T301 569q-19 0-32.5-13.5T255 517zm-39-327q0-40 28.5-65.5T315 99q32 0 60 12-9 10-19 21L240 268q-24-30-24-78z"/><glyph glyph-name="quotesingle" unicode="'" horiz-adv-x="269" d="M174 440H95q-19 61-27 107.5T60 645v55h149v-55q0-51-7.5-97.5T174 440z"/><glyph glyph-name="parenleft" unicode="(" horiz-adv-x="353" d="M328-100H210Q60 89 60 310q0 111 37.5 214.5T210 720h118q-56-94-80.5-200.5T223 310q0-103 24.5-208T328-100z"/><glyph glyph-name="parenright" unicode=")" horiz-adv-x="353" d="M143-100H25q56 94 80.5 200.5T130 310q0 103-24.5 208T25 720h118q150-189 150-410 0-111-37.5-214.5T143-100z"/><glyph glyph-name="asterisk" unicode="*" horiz-adv-x="364" d="M125 696h114q-10-63-28-126 56 36 112 65l35-109q-33-5-64.5-8.5T230 513q25-20 49-41.5t47-44.5l-92-67q-15 29-27.5 58.5T182 478q-12-30-25-59.5T130 360l-92 67q23 23 46.5 44.5T134 513q-33 1-64.5 4.5T6 526l35 109q57-30 111-65-8 32-15 62.5T125 696z"/><glyph glyph-name="plus" unicode="+" horiz-adv-x="590" d="M77 388h159v164h118V388h159V272H354V107H236v165H77v116z"/><glyph glyph-name="comma" unicode="," horiz-adv-x="220" d="M17-147v66q36 8 58.5 26.5T107-10Q69-9 44 15T19 79q0 41 26.5 66t68.5 25q41 0 68.5-29T210 52q0-80-51-133.5T17-147z"/><glyph glyph-name="hyphen" unicode="-" horiz-adv-x="374" d="M25 182v130h324V182H25z"/><glyph glyph-name="period" unicode="." horiz-adv-x="220" d="M109-10q-38 0-64 26.5T19 80q0 40 26 65t64 25q39 0 65-25t26-65q0-37-27-63.5T109-10z"/><glyph glyph-name="slash" unicode="/" horiz-adv-x="366" d="M1-104l218 789h145L146-104H1z"/><glyph glyph-name="zero" unicode="0" horiz-adv-x="586" d="M293-16q-89 0-147.5 42t-87 119Q30 222 30 327t28.5 182q28.5 77 87 119T293 670q89 0 147.5-42t87-119Q556 432 556 327t-28.5-182q-28.5-77-87-119T293-16zm0 122q44 0 63.5 54T376 327q0 113-19.5 167T293 548q-44 0-63.5-54T210 327q0-113 19.5-167t63.5-54z"/><glyph glyph-name="one" unicode="1" horiz-adv-x="432" d="M22 425v138q55 10 105.5 31t91.5 60h131V0H176v464q-38-14-77-24t-77-15z"/><glyph glyph-name="two" unicode="2" horiz-adv-x="564" d="M35 0v22q0 84 37.5 145.5T192 288l81 58q43 31 61 57.5t18 61.5q0 41-18 63t-52 22q-38 0-58-29.5T199 429H33q6 114 76 177.5T293 670q71 0 124-24.5t82.5-69Q529 532 529 472q0-62-29.5-111T405 266l-92-65q-32-23-49.5-39T241 129h291V0H35z"/><glyph glyph-name="three" unicode="3" horiz-adv-x="570" d="M290-16Q161-16 95 45.5T20 208h164q4-56 30.5-81t68.5-25q42 0 65.5 23.5T372 195q0 43-28.5 71T235 294h-23v105h22q63 0 88.5 21t25.5 56q0 34-18.5 55T277 552q-66 0-75-70H39q11 87 72.5 137.5T282 670q72 0 126-22t84.5-62.5Q523 545 523 487q0-42-20-80t-72-62q46-18 71.5-44t35-56q9.5-30 9.5-59 0-64-32-109T425.5 8Q368-16 290-16z"/><glyph glyph-name="four" unicode="4" horiz-adv-x="572" d="M21 125v114l308 414h147V250h78V125h-78V0H316v125H21zm148 125h147v200L169 250z"/><glyph glyph-name="five" unicode="5" horiz-adv-x="567" d="M54 275l26 379h421V525H214l-9-125q24 18 53.5 28.5T324 439q66 0 115-27.5t76-76.5q27-49 27-114 0-73-33-126.5t-93-82Q356-16 275-16q-106 0-171.5 51.5T28 177h167q7-37 26.5-55t56.5-18q39 0 61 28.5t22 81.5q0 58-24 86.5T277 329q-58 0-87-54H54z"/><glyph glyph-name="six" unicode="6" horiz-adv-x="573" d="M298-16Q169-16 99.5 72.5T30 335q0 99 29 174.5t90 118Q210 670 307 670q89 0 151.5-44T536 497H361q-5 29-22 45t-42 16q-45 0-68.5-43.5T201 377q52 56 140 56 61 0 108-26.5t74-75Q550 283 550 217q0-71-32-123.5t-89-81Q372-16 298-16zm-7 113q41 0 64 29.5t23 82.5q0 53-23 82.5T291 321q-41 0-64-29.5T204 209q0-53 23-82.5T291 97z"/><glyph glyph-name="seven" unicode="7" horiz-adv-x="512" d="M13 525v129h483V525Q389 390 331.5 265T263 0H92q12 101 42.5 188.5T216 358q51 82 125 167H13z"/><glyph glyph-name="eight" unicode="8" horiz-adv-x="588" d="M294-16q-80 0-141.5 24.5T57 78q-34 45-34 107 0 59 35 101.5t96 63.5q-51 21-80 59t-29 89q0 53 31 91.5t87 59.5q56 21 131 21t131-21q56-21 87-59.5t31-91.5q0-51-29-89t-80-59q61-21 96-63.5T565 185q0-62-34-107T435.5 8.5Q374-16 294-16zm0 416q34 0 54 21.5t20 62.5q0 41-20 62.5T294 568q-34 0-54-21.5T220 484q0-41 20-62.5t54-21.5zm0-311q38 0 63.5 26.5T383 194q0 52-25.5 78.5T294 299q-38 0-63.5-26.5T205 194q0-52 25.5-78.5T294 89z"/><glyph glyph-name="nine" unicode="9" horiz-adv-x="573" d="M282 670q73 0 132-34.5t94-108Q543 454 543 338q0-105-29.5-184.5T423 29q-61-45-157-45-89 0-151.5 44T37 157h175q5-29 22-45t42-16q44 0 67.5 42.5T371 275q-50-54-133-54-64 0-112 26.5T50.5 322Q23 370 23 435q0 72 32.5 124.5T146 641q58 29 136 29zm3-113q-42 0-64.5-29.5T198 445q0-53 22.5-82.5T285 333q39 0 61.5 29.5T369 445q0 53-22.5 82.5T285 557z"/><glyph glyph-name="colon" unicode=":" horiz-adv-x="220" d="M109-10q-38 0-64 26.5T19 80q0 40 26 65t64 25q39 0 65-25t26-65q0-37-27-63.5T109-10zm0 334q-38 0-64 26.5T19 414q0 40 26 65t64 25q39 0 65-25t26-65q0-37-27-63.5T109 324z"/><glyph glyph-name="semicolon" unicode=";" horiz-adv-x="220" d="M17-147v66q36 8 58.5 26.5T107-10Q69-9 44 15T19 79q0 41 26.5 66t68.5 25q41 0 68.5-29T210 52q0-80-51-133.5T17-147zm92 471q-38 0-64 26.5T19 414q0 40 26 65t64 25q39 0 65-25t26-65q0-37-27-63.5T109 324z"/><glyph glyph-name="less" unicode="&lt;" horiz-adv-x="590" d="M510 90L74 272v116l436 182V446L206 330l304-117V90z"/><glyph glyph-name="equal" unicode="=" horiz-adv-x="590" d="M77 368v116h436V368H77zm0-212v116h436V156H77z"/><glyph glyph-name="greater" unicode="&gt;" horiz-adv-x="590" d="M80 90v124l304 116L80 447v123l436-182V272L80 90z"/><glyph glyph-name="question" unicode="?" horiz-adv-x="475" d="M157 477H-7q5 96 67.5 152.5T234 686q70 0 124-22.5t84-64q30-41.5 30-98.5 0-59-27-95.5T371 335l-45-33q-25-18-32.5-37t-7.5-43v-10H133v30q0 45 17 74.5t60 63.5l38 30q28 22 37.5 40t9.5 48q0 28-16.5 48T231 566q-32 0-51.5-21.5T157 477zm52-307q39 0 65-25t26-65q0-37-27-63.5T209-10q-38 0-64 26.5T119 80q0 40 26 65t64 25z"/><glyph glyph-name="at" unicode="@" horiz-adv-x="955" d="M477-184q-135 0-235.5 54T85.5 24Q30 124 30 261q0 97 32 178.5t92 142Q214 642 296.5 675T480 708q110 0 194.5-31T817 591q58-55 88-128.5T935 304q0-136-63.5-209.5T705 21q-27 0-54.5 8T601 57q-22 20-32 57-19-35-58.5-56T418 37q-56 0-96 28t-62 76.5Q238 190 238 252q0 63 23 111.5t64 76q41 27.5 96 27.5 40 0 76-19t58-55l9 71h135V176q0-40 12.5-55.5T746 105q21 0 43.5 18.5T827 185q15 43 15 119 0 87-41 160.5T679.5 582Q599 626 480 626q-78 0-143-28t-112.5-77.5Q177 471 151 404.5T125 261q0-84 28-151T230-4.5Q279-52 343-77t136-25q67 0 120 11.5T713-49l20-78q-61-30-122-43.5T477-184zm-11 331q34 0 56 25.5t22 70.5v18q0 44-22 69.5T466 356q-34 0-51.5-30T397 252q0-44 17.5-74.5T466 147z"/><glyph glyph-name="A" unicode="A" horiz-adv-x="666" d="M480 0l-39 124H219L180 0H7l240 670h173L659 0H480zM258 251h143l-71 229-72-229z"/><glyph glyph-name="B" unicode="B" horiz-adv-x="648" d="M74 0v670h267q85 0 138-23t78-62q25-39 25-87 0-41-22-79t-83-62q71-21 105-64.5t34-98.5q0-87-64.5-140.5T362 0H74zm243 554h-75V397h75q37 0 56 12t26 30q7 18 7 37 0 78-89 78zm4-263h-79V116h79q62 0 87.5 24t25.5 64q0 38-24.5 62.5T321 291z"/><glyph glyph-name="C" unicode="C" horiz-adv-x="692" d="M360-16q-105 0-177.5 44.5T73 152q-37 79-37 183 0 103 37 182t109.5 124Q255 686 360 686q128 0 206.5-70T666 427H479q-11 61-42 95.5T360 557q-67 0-102.5-59T222 335q0-104 35.5-163T360 113q45 0 75.5 32.5T477 237h187q-12-76-51.5-133T509 15.5Q445-16 360-16z"/><glyph glyph-name="D" unicode="D" horiz-adv-x="712" d="M74 0v670h235q119 0 201-43.5t124-117Q676 436 676 345q0-102-42-179.5T510 44Q428 0 309 0H74zm235 546h-67V125h67q93 0 137 55t44 155q0 101-44 156t-137 55z"/><glyph glyph-name="E" unicode="E" horiz-adv-x="577" d="M74 0v670h454V539H252V400h245V275H252V131h280V0H74z"/><glyph glyph-name="F" unicode="F" horiz-adv-x="563" d="M74 0v670h454V539H252V379h235V252H252V0H74z"/><glyph glyph-name="G" unicode="G" horiz-adv-x="718" d="M36 335q0 103 39 182t114 124q75 45 184 45 119 0 195.5-62T671 450H484q-27 110-114 110-75 0-113-60.5T219 335q0-104 38-164.5T370 110q53 0 88.5 28.5T506 227H383v125h298v-42q0-65-19-123.5t-57.5-104q-38.5-45.5-98-72T367-16q-105 0-179 44.5T75 152q-39 79-39 183z"/><glyph glyph-name="H" unicode="H" horiz-adv-x="728" d="M74 0v670h178V405h224v265h178V0H476v274H252V0H74z"/><glyph glyph-name="I" unicode="I" horiz-adv-x="326" d="M74 0v670h178V0H74z"/><glyph glyph-name="J" unicode="J" horiz-adv-x="599" d="M272-16Q156-16 86.5 54.5T10 248h177q2-62 22.5-98.5T272 113q45 0 66 34t21 95v428h178V264q0-138-73-209T272-16z"/><glyph glyph-name="K" unicode="K" horiz-adv-x="671" d="M74 0v670h178V384l196 286h205L396 339q67-29 124-89 46-49 82-113T661 0H458q-11 45-30.5 89.5T382 172q-28 41-61.5 69T252 274V0H74z"/><glyph glyph-name="L" unicode="L" horiz-adv-x="542" d="M74 0v670h178V131h260V0H74z"/><glyph glyph-name="M" unicode="M" horiz-adv-x="851" d="M35 0l75 670h175l140-421 141 421h175L816 0H637l-39 409L479 49H368L248 413 208 0H35z"/><glyph glyph-name="N" unicode="N" horiz-adv-x="725" d="M74 0v670h167l237-408v408h173V0H487L247 415V0H74z"/><glyph glyph-name="O" unicode="O" horiz-adv-x="735" d="M367-16q-106 0-180 44.5t-112.5 124Q36 232 36 335q0 102 38.5 181.5T187 641q74 45 180 45 107 0 181-45t112.5-124.5Q699 437 699 335q0-103-38.5-182T548 29q-74-45-181-45zm0 129q71 0 108.5 60T513 335q0 102-37.5 162T367 557q-71 0-108-60t-37-162q0-102 37-162t108-60z"/><glyph glyph-name="P" unicode="P" horiz-adv-x="611" d="M314 234h-62V0H74v670h260q129 0 198-58t69-153q0-103-70.5-164T314 234zm-6 320h-56V350h56q113 0 113 102T308 554z"/><glyph glyph-name="Q" unicode="Q" horiz-adv-x="735" d="M367-16q-106 0-180 44.5t-112.5 124Q36 232 36 335q0 102 38.5 181.5T187 641q74 45 180 45 107 0 181-45t112.5-124.5Q699 437 699 335q0-113-46.5-197.5T518 14q29-8 67.5-11T673 0v-154q-121 7-188 39.5T380-16h-13zm0 129q71 0 108.5 60T513 335q0 102-37.5 162T367 557q-71 0-108-60t-37-162q0-102 37-162t108-60z"/><glyph glyph-name="R" unicode="R" horiz-adv-x="666" d="M74 0v670h270q128 0 196.5-54.5T609 478q0-51-23.5-88t-62-59.5Q485 308 440 299q80-34 129-113T641 0H455q-22 117-75 187t-128 74V0H74zm234 554h-56V370h56q59 0 90 24t31 68q0 44-31 68t-90 24z"/><glyph glyph-name="S" unicode="S" horiz-adv-x="621" d="M317-16q-127 0-200.5 56.5T31 203h175q8-58 40-80.5t73-22.5q47 0 69 23t22 48q0 31-16.5 53T335 257l-111 29q-86 22-129 68.5T52 486q0 65 34.5 109.5T179 663q58 23 130 23 119 0 185.5-56T575 471H403q-6 46-31 72.5T304 570q-37 0-58-20t-21-51q0-59 67-76l105-27q75-19 116-49.5t57-69.5q16-39 16-86 0-97-70.5-152T317-16z"/><glyph glyph-name="T" unicode="T" horiz-adv-x="596" d="M209 0v539H13v131h570V539H387V0H209z"/><glyph glyph-name="U" unicode="U" horiz-adv-x="704" d="M351-16q-139 0-214 78T62 274v396h178V259q0-65 28.5-105.5T351 113q55 0 84 40.5T464 259v411h178V274q0-134-76-212T351-16z"/><glyph glyph-name="V" unicode="V" horiz-adv-x="652" d="M187 670l142-477 142 477h173L410 0H241L8 670h179z"/><glyph glyph-name="W" unicode="W" horiz-adv-x="913" d="M166 0L13 670h179l92-439 115 439h125l114-439 93 439h169L747 0H566L458 430 347 0H166z"/><glyph glyph-name="X" unicode="X" horiz-adv-x="654" d="M204 670l123-199 125 199h187L419 344 649 0H460L326 219 192 0H5l230 343L15 670h189z"/><glyph glyph-name="Y" unicode="Y" horiz-adv-x="634" d="M188 670l132-274 135 274h178L406 270V0H228v268L1 670h187z"/><glyph glyph-name="Z" unicode="Z" horiz-adv-x="606" d="M40 0v99l306 442H47v129h520v-99L260 129h314V0H40z"/><glyph glyph-name="bracketleft" unicode="[" horiz-adv-x="355" d="M70-100v820h268V610H226V10h112v-110H70z"/><glyph glyph-name="backslash" unicode="\" horiz-adv-x="366" d="M147 685l218-789H220L2 685h145z"/><glyph glyph-name="bracketright" unicode="]" horiz-adv-x="355" d="M285 720v-820H17V10h112v600H17v110h268z"/><glyph glyph-name="asciicircum" unicode="^" horiz-adv-x="590" d="M71 322l163 338h122l163-338H396L293 554 189 322H71z"/><glyph glyph-name="underscore" unicode="_" horiz-adv-x="500" d="M0-125v40h500v-40H0z"/><glyph glyph-name="grave" unicode="`" horiz-adv-x="500" d="M213 781l150-156-59-69-179 120 88 105z"/><glyph glyph-name="a" unicode="a" horiz-adv-x="554" d="M184-13q-70 0-114.5 37T25 129q0 54 28.5 89t75 55q46.5 20 101 28.5T335 311v11q0 43-16.5 66.5T271 412q-26 0-44-16.5T204 348H44q13 80 74 124.5T277 517q114 0 168.5-56.5T500 291V0H348l-4 66q-26-37-69.5-58T184-13zm67 105q35 0 59.5 27.5T335 199v39q-75-2-107.5-26.5T195 151q0-30 15.5-44.5T251 92z"/><glyph glyph-name="b" unicode="b" horiz-adv-x="599" d="M364-13q-46 0-86.5 24.5T218 84l-6-84H60v700h170V444q49 73 140 73 62 0 107-34.5t69.5-94.5Q571 328 571 252q0-78-26-138t-72.5-93.5Q426-13 364-13zm-52 118q41 0 62 41.5T395 252q0 64-21 106t-62 42q-38 0-61-36.5T228 261v-18q0-65 23-101.5t61-36.5z"/><glyph glyph-name="c" unicode="c" horiz-adv-x="543" d="M284-13q-72 0-130 30t-92 89.5Q28 166 28 252q0 83 34 142.5t92 91Q212 517 284 517q58 0 108.5-21.5t84-64.5Q510 388 518 323H350q-8 45-25 64.5T284 407q-32 0-56-35t-24-120q0-84 24-119.5T284 97q26 0 43.5 20t25.5 71h167q-11-70-46-114.5T389.5 8Q340-13 284-13z"/><glyph glyph-name="d" unicode="d" horiz-adv-x="599" d="M235 517q40 0 76-18.5t58-54.5v256h170V0H387l-6 82q-47-95-152-95-61 0-106.5 34.5t-70 94.5Q28 176 28 252q0 78 26 138t72.5 93.5Q173 517 235 517zm52-118q-41 0-62-41.5T204 252q0-64 21-106t62-42q37 0 60.5 36.5T371 243v18q0 65-23.5 101.5T287 399z"/><glyph glyph-name="e" unicode="e" horiz-adv-x="553" d="M283-13q-71 0-129 29t-92 87.5Q28 162 28 252q0 81 31.5 140.5t88 92Q204 517 279 517q79 0 134.5-33.5T498 390q29-60 29-140v-33H196q6-68 29.5-96.5T284 92q32 0 50 17t25 48h162q-20-85-84.5-127.5T283-13zm-4 425q-34 0-56.5-29.5T196 298h163q-4 54-24 84t-56 30z"/><glyph glyph-name="f" unicode="f" horiz-adv-x="376" d="M10 504h71q1 95 48 152t146 57q29 0 59-7t57-21l-24-100q-29 13-57 13-59 0-59-75v-19h108V394H251V0H81v394H10v110z"/><glyph glyph-name="g" unicode="g" horiz-adv-x="599" d="M283-223q-94 0-159.5 42.5T43-53h160q7-32 28-50t52-18q86 0 86 112v76q-23-33-58-51.5T232-3q-63 0-108.5 34T53 123.5Q28 182 28 258t26.5 134.5Q81 451 129.5 484T244 517q39 0 78-22t60-67l5 76h152V42q0-265-256-265zm4 337q37 0 60.5 35T371 249v18q0 63-23.5 98T287 400q-41 0-62-40t-21-102q0-63 21-103.5t62-40.5z"/><glyph glyph-name="h" unicode="h" horiz-adv-x="601" d="M60 0v700h170V437q21 37 57.5 58.5T373 517q81 0 127.5-49.5T547 334V0H377v308q0 40-17 63.5T309 395q-31 0-55-26.5T230 285V0H60z"/><glyph glyph-name="i" unicode="i" horiz-adv-x="290" d="M145 561q-40 0-67.5 26.5T50 652q0 38 27.5 64.5T145 743q40 0 67.5-26.5T240 652q0-38-27.5-64.5T145 561zM60 0v504h170V0H60z"/><glyph glyph-name="j" unicode="j" horiz-adv-x="296" d="M148 561q-40 0-67.5 26.5T53 652q0 38 27.5 64.5T148 743q40 0 67.5-26.5T243 652q0-38-27.5-64.5T148 561zM-58-204l21 104q21-7 42-7 58 0 58 74v537h170V-10q0-98-46.5-155.5T39-223q-23 0-48.5 4.5T-58-204z"/><glyph glyph-name="k" unicode="k" horiz-adv-x="570" d="M60 0v700h170V303l140 201h180L361 274q56-38 100-89 32-37 58.5-83T568 0H384q-20 70-55 119-21 29-45 54.5T230 220V0H60z"/><glyph glyph-name="l" unicode="l" horiz-adv-x="290" d="M60 0v700h170V0H60z"/><glyph glyph-name="m" unicode="m" horiz-adv-x="894" d="M60 504h152l5-77q18 41 56.5 65.5T367 517q53 0 91.5-24t58.5-66q18 41 57.5 65.5T672 517q78 0 123-49.5T840 334V0H670v308q0 40-15.5 63.5T608 395q-29 0-51-26.5T535 285V0H365v308q0 40-15.5 63.5T303 395q-29 0-51-26.5T230 285V0H60v504z"/><glyph glyph-name="n" unicode="n" horiz-adv-x="601" d="M60 0v504h152l5-77q19 41 59.5 65.5T373 517q81 0 127.5-49.5T547 334V0H377v308q0 40-17 63.5T309 395q-31 0-55-26.5T230 285V0H60z"/><glyph glyph-name="o" unicode="o" horiz-adv-x="578" d="M289-13q-81 0-139.5 35t-90 94.5Q28 176 28 252t31.5 135.5Q91 447 149.5 482T289 517q81 0 139.5-35t90-94.5Q550 328 550 252t-31.5-135.5Q487 57 428.5 22T289-13zm0 110q40 0 62.5 41.5T374 252q0 72-22.5 113.5T289 407q-40 0-62.5-41.5T204 252q0-72 22.5-113.5T289 97z"/><glyph glyph-name="p" unicode="p" horiz-adv-x="599" d="M60-210v714h152l6-82q47 95 152 95 62 0 107-34.5t69.5-94.5Q571 328 571 252q0-78-26-138t-72.5-93.5Q426-13 364-13q-40 0-76 18.5T230 60v-270H60zm252 315q41 0 62 41.5T395 252q0 64-21 106t-62 42q-38 0-61-36.5T228 261v-18q0-65 23-101.5t61-36.5z"/><glyph glyph-name="q" unicode="q" horiz-adv-x="599" d="M235 517q46 0 86.5-24.5T381 420l6 84h152v-714H369V60q-49-73-140-73-61 0-106.5 34.5t-70 94.5Q28 176 28 252q0 78 26 138t72.5 93.5Q173 517 235 517zm52-118q-41 0-62-41.5T204 252q0-64 21-106t62-42q37 0 60.5 36.5T371 243v18q0 65-23.5 101.5T287 399z"/><glyph glyph-name="r" unicode="r" horiz-adv-x="390" d="M60 0v504h149l8-88q13 36 45 66t85 30q10 0 17-1t13-2V352q-6 2-18 3.5t-23 1.5q-46 0-76-28.5T230 241V0H60z"/><glyph glyph-name="s" unicode="s" horiz-adv-x="528" d="M267-13Q160-13 99.5 31.5T30 159h165q5-41 27-56.5T269 87q29 0 45 12.5t16 31.5q0 17-13.5 32T266 188l-84 22q-65 17-101.5 52T44 359q0 53 30 88t81 52.5Q206 517 270 517q94 0 149-42t69-121H324q-4 29-19 46t-43 17q-26 0-40-13.5T208 371q0-18 12-31.5t44-21.5l72-18q86-22 122-56.5t36-93.5q0-78-60-120.5T267-13z"/><glyph glyph-name="t" unicode="t" horiz-adv-x="399" d="M260-13q-92 0-136.5 51.5T79 169v225H14v110h65v142h170V504h119V394H249V171q0-33 15-49t40-16q14 0 29 3t29 9l26-104Q365 1 329.5-6T260-13z"/><glyph glyph-name="u" unicode="u" horiz-adv-x="591" d="M531 504V0H379l-6 82q-18-42-57.5-68.5T219-13q-74 0-118.5 49.5T56 170v334h170V196q0-40 15.5-63.5T288 109q29 0 51 26.5t22 83.5v285h170z"/><glyph glyph-name="v" unicode="v" horiz-adv-x="539" d="M181 0L3 504h176l97-344 95 344h165L358 0H181z"/><glyph glyph-name="w" unicode="w" horiz-adv-x="800" d="M150 0L3 504h176l70-345 85 345h146l89-346 68 346h160L650 0H478l-78 275L322 0H150z"/><glyph glyph-name="x" unicode="x" horiz-adv-x="541" d="M2 0l185 258L12 504h185l79-137 88 137h171L358 259 541 0H356l-86 148L173 0H2z"/><glyph glyph-name="y" unicode="y" horiz-adv-x="536" d="M4-198L39-94q31-13 61-13 23 0 41.5 14T179-36l19 44L3 504h176l96-318 93 318h165L319-43q-36-92-84-136t-116-44q-35 0-64 6.5T4-198z"/><glyph glyph-name="z" unicode="z" horiz-adv-x="503" d="M39 0v80l221 305H45v119h417v-78L235 119h239V0H39z"/><glyph glyph-name="braceleft" unicode="{" horiz-adv-x="389" d="M25 255v110h29q44 0 59.5 20.5T129 437q0 35-8.5 66.5T112 577q0 68 43 105.5T311 720h63V610h-45q-35 0-51-15t-16-50q0-24 4.5-43t9-38.5Q280 444 280 417q0-52-31-76.5T180 310q38-6 69-30.5t31-76.5q0-27-4.5-47t-9-38.5Q262 99 262 75q0-35 16-50t51-15h45v-110h-63q-113 0-156 37.5T112 43q0 42 8.5 73.5T129 183q0 31-15.5 51.5T54 255H25z"/><glyph glyph-name="bar" unicode="|" horiz-adv-x="281" d="M72-100v820h137v-820H72z"/><glyph glyph-name="braceright" unicode="}" horiz-adv-x="389" d="M15-100V10h45q34 0 50.5 15T127 75q0 24-4.5 42.5t-9 38.5q-4.5 20-4.5 47 0 52 31 76.5t69 30.5q-38 6-69 30.5T109 417q0 27 4.5 46.5t9 38.5q4.5 19 4.5 43 0 35-16.5 50T60 610H15v110h63q112 0 155.5-37.5T277 577q0-42-8.5-73.5T260 437q0-31 16-51.5t59-20.5h29V255h-29q-43 0-59-20.5T260 183q0-35 8.5-66.5T277 43q0-68-43.5-105.5T78-100H15z"/><glyph glyph-name="asciitilde" unicode="~" horiz-adv-x="590" d="M273 258q-19 21-32.5 32T214 301q-18 0-29.5-21T173 205H56q0 55 17.5 100.5t51 72.5q33.5 27 79.5 27 39 0 68.5-18.5T321 346q19-21 32.5-32t26.5-11q18 0 29.5 21t11.5 75h117q0-55-17.5-100.5t-51-72.5Q436 199 390 199q-39 0-68.5 18.5T273 258z"/><glyph glyph-name="uni00A0" horiz-adv-x="200"/><glyph glyph-name="exclamdown" unicode="¡" horiz-adv-x="275" d="M138 334q-39 0-65 25t-26 65q0 37 27 63.5t64 26.5q38 0 64-26.5t26-63.5q0-40-26-65t-64-25zm89-500H48l30 458h118l31-458z"/><glyph glyph-name="cent" unicode="¢" horiz-adv-x="590" d="M270 0v72q-62 7-111 39t-77.5 87Q53 253 53 330q0 73 28.5 128.5T159 547q49 33 111 41v72h69v-72q76-8 132.5-56T539 394H388q-6 39-22.5 60T329 481V178q20 7 37.5 27t24.5 58h150q-15-89-72-136T339 72V0h-69zm-51 330q0-68 17-104t44-46v300q-27-10-44-45.5T219 330z"/><glyph glyph-name="sterling" unicode="£" horiz-adv-x="590" d="M426 266H310q1-11 1-22 0-46-17.5-74.5T250 125h290V0H30v110q35 0 59.5 17t37 42.5Q139 195 139 222q0 22-4 44H32v110h74q-6 22-10 46.5T92 476q0 88 64 141t171 53q91 0 153-49.5T559 484H383q-8 40-23 57t-39 17q-23 0-39.5-18.5T265 485q0-29 6-56t14-53h141V266z"/><glyph glyph-name="currency" unicode="¤" horiz-adv-x="590" d="M67 332q0 34 9.5 64.5T102 453l-69 69 72 72 71-71q54 31 119 31 64 0 118-32l72 71 72-72-70-70q16-26 25-56t9-63q0-34-9-64t-25-56l70-70-72-72-72 71q-54-32-118-32-65 0-119 31l-71-71-72 72 69 69q-16 26-25.5 57T67 332zm130 0q0-49 27.5-81t70.5-32q41 0 68.5 32t27.5 81q0 48-27.5 80T295 444q-43 0-70.5-32T197 332z"/><glyph glyph-name="yen" unicode="¥" horiz-adv-x="590" d="M212 0v117H78v80h134v49H78v80h103L15 654h173l111-263 109 263h167L409 326h103v-80H378v-49h134v-80H378V0H212z"/><glyph glyph-name="section" unicode="§" horiz-adv-x="524" d="M446 376V258l-217 63q-79 23-122 50t-60 62.5Q30 469 30 515q0 79 60 125t166 46q106 0 167-44t70-126H334q-4 41-29 56.5T254 588q-33 0-50-17.5T187 523q0-29 14.5-50t55.5-35l189-62zM77 201v118l217-63q78-23 121.5-50.5T476 143q17-35 17-81 0-80-60-125.5T267-109q-107 0-167.5 44T30 61h159q4-41 29.5-56.5T269-11q33 0 50 17.5T336 53q0 29-15 51t-55 35L77 201z"/><glyph glyph-name="dieresis" unicode="¨" horiz-adv-x="500" d="M350 561q-33 0-56.5 23T270 641q0 32 23.5 55t56.5 23q32 0 56-23t24-55q0-34-24-57t-56-23zm-200 0q-33 0-56.5 23T70 641q0 32 23.5 55t56.5 23q32 0 56-23t24-55q0-34-24-57t-56-23z"/><glyph glyph-name="copyright" unicode="©" horiz-adv-x="833" d="M417 0q-97 0-173 43T125 162q-43 76-43 173t43 173q43 76 119 119t173 43q97 0 173-43t119-119q43-76 43-173t-43-173Q666 86 590 43T417 0zm0 75q75 0 131 32.5t87.5 91.5Q667 258 667 335t-31.5 136Q604 530 548 562.5T417 595q-75 0-131-32.5T198.5 471Q167 412 167 335t31.5-136q31.5-59 87.5-91.5T417 75zm8 67q-53 0-95 23t-66 66.5Q240 275 240 335q0 59 25 102.5t67 67.5q42 24 93 24 62 0 110.5-36T595 382H467q-4 33-15 47t-27 14q-19 0-35-25t-16-83q0-57 16-82t35-25q17 0 28 13t16 44h127q-14-75-62.5-109T425 142z"/><glyph glyph-name="ordfeminine" unicode="ª" horiz-adv-x="437" d="M137 278q-54 0-85.5 27.5T20 378q0 39 21 65.5t55 42q34 15.5 73.5 22.5t77.5 8v8q0 28-9.5 45T206 586q-19 0-29-12t-14-31H37q10 60 56 93.5T213 670q91 0 132.5-42.5T387 500V285H268l-10 54q-18-29-50-45t-71-16zm55 85q24 0 39.5 17.5T247 426v33q-46-2-66.5-19.5T160 398q0-16 9-25.5t23-9.5z"/><glyph glyph-name="guillemotleft" unicode="«" horiz-adv-x="623" d="M168 52L30 253l138 201h159L196 255 330 52H168zm280 0L310 253l138 201h159L476 255 610 52H448z"/><glyph glyph-name="logicalnot" unicode="¬" horiz-adv-x="590" d="M395 181v137H77v116h436V181H395z"/><glyph glyph-name="uni00AD" unicode="­" horiz-adv-x="374" d="M25 182v130h324V182H25z"/><glyph glyph-name="registered" unicode="®" horiz-adv-x="550" d="M275 188q-73 0-128 31t-86 86q-31 55-31 129t31 129q31 55 86 86t128 31q73 0 128-31t86-86q31-55 31-129t-31-129q-31-55-86-86t-128-31zm0 61q80 0 127 49.5T449 434q0 87-47 136.5T275 620q-83 0-128.5-49.5T101 434q0-86 45.5-135.5T275 249zm-98 65v247h105q98 0 98-75 0-24-16-39t-41-21q28-12 45-41.5t24-70.5h-72q-8 43-24.5 67.5T248 406h-2v-92h-69zm93 202h-24v-64h24q22 0 31.5 9t9.5 22q0 14-9.5 23.5T270 516z"/><glyph glyph-name="overscore" unicode="¯" horiz-adv-x="500" d="M87 589v106h326V589H87z"/><glyph glyph-name="degree" unicode="°" horiz-adv-x="319" d="M159 424q-63 0-104 38T14 562q0 62 41 100t104 38q63 0 104-38t41-100q0-62-41-100t-104-38zm0 72q25 0 41.5 17.5T217 562q0 31-16.5 48.5T159 628q-25 0-41.5-17.5T101 562q0-31 16.5-48.5T159 496z"/><glyph glyph-name="uni00B2" unicode="²" horiz-adv-x="373" d="M29 378v14q0 51 23.5 89t75.5 75l45 32q25 18 36 32t11 33q0 45-35 45-19 0-29.5-16T143 631H28q4 71 48 110t117 39q67 0 108.5-33.5T343 658q0-37-18-67.5T266 533l-53-35q-30-19-37-31h170v-89H29z"/><glyph glyph-name="uni00B3" unicode="³" horiz-adv-x="367" d="M186 368q-76 0-120 35T15 506h113q4-57 52-57 47 0 47 46 0 29-18.5 42.5T150 551h-11v70h11q38 0 53.5 9.5T219 661q0 40-39 40-32 0-37-39H30q9 58 49.5 88T187 780q67 0 108.5-30.5T337 669q0-60-67-85 79-26 79-94 0-56-44-89t-119-33z"/><glyph glyph-name="acute" unicode="´" horiz-adv-x="500" d="M149 625l150 156 88-105-179-120-59 69z"/><glyph glyph-name="paragraph" unicode="¶" horiz-adv-x="624" d="M270-105v321h-12q-118 0-177.5 63T21 443q0 103 59.5 165T258 670h286v-775h-98v677h-78v-677h-98z"/><glyph glyph-name="middot" unicode="·" horiz-adv-x="220" d="M109 158q-38 0-64 26.5T19 248q0 40 26 65t64 25q39 0 65-25t26-65q0-37-27-63.5T109 158z"/><glyph glyph-name="cedilla" unicode="¸" horiz-adv-x="500" d="M180 0h70l-9-59q10 3 23 3 45 0 73.5-27t28.5-71q0-55-37-86.5T223-272q-40 0-79 11l7 74q35-9 64-9 54 0 54 40 0 17-10.5 28T231-117q-20 0-38-11h-28L180 0z"/><glyph glyph-name="uni00B9" unicode="¹" horiz-adv-x="290" d="M17 622v95q35 6 65.5 18t55.5 35h91V378H108v264q-47-16-91-20z"/><glyph glyph-name="ordmasculine" unicode="º" horiz-adv-x="444" d="M221 278q-61 0-106 26.5t-69.5 71Q21 420 21 473q0 55 24.5 99.5t69.5 71Q160 670 221 670q62 0 107-26.5t69.5-71Q422 528 422 473q0-53-24.5-97.5t-69.5-71Q283 278 221 278zm0 89q27 0 41.5 27.5T277 473q0 108-56 108-25 0-39.5-27.5T167 473q0-51 14.5-78.5T221 367z"/><glyph glyph-name="guillemotright" unicode="»" horiz-adv-x="623" d="M175 454l138-201L175 52H16l131 199L13 454h162zm280 0l138-201L455 52H296l131 199-134 203h162z"/><glyph glyph-name="onequarter" unicode="¼" horiz-adv-x="812" d="M177 0l318 660h138L315 0H177zm288 72v75l189 245h101V156h44V72h-44V0H644v72H465zm99 84h80v106l-80-106zM17 512v95q35 6 65.5 18t55.5 35h91V268H108v264q-47-16-91-20z"/><glyph glyph-name="onehalf" unicode="½" horiz-adv-x="872" d="M177 0l318 660h138L315 0H177zm351 0v14q0 51 23.5 89t75.5 75l45 32q25 18 36 32t11 33q0 45-35 45-19 0-29.5-16T642 253H527q4 71 48 110t117 39q67 0 108.5-33.5T842 280q0-37-18-67.5T765 155l-53-35q-30-19-37-31h170V0H528zM17 512v95q35 6 65.5 18t55.5 35h91V268H108v264q-47-16-91-20z"/><glyph glyph-name="threequarters" unicode="¾" horiz-adv-x="870" d="M235 0l318 660h138L373 0H235zm288 72v75l189 245h101V156h44V72h-44V0H702v72H523zm99 84h80v106l-80-106zM186 258q-76 0-120 35T15 396h113q4-57 52-57 47 0 47 46 0 29-18.5 42.5T150 441h-11v70h11q38 0 53.5 9.5T219 551q0 40-39 40-32 0-37-39H30q9 58 49.5 88T187 670q67 0 108.5-30.5T337 559q0-60-67-85 79-26 79-94 0-56-44-89t-119-33z"/><glyph glyph-name="questiondown" unicode="¿" horiz-adv-x="475" d="M266 334q-39 0-65 25t-26 65q0 37 27 63.5t64 26.5q38 0 64-26.5t26-63.5q0-40-26-65t-64-25zm52-307h164q-5-96-67.5-152.5T241-182q-71 0-124.5 22.5T33-95.5Q3-54 3 3q0 59 27 95.5t74 70.5l45 33q25 18 32.5 37t7.5 43v10h153v-30q0-45-17-74.5T265 124l-38-30q-28-22-37.5-40T180 6q0-28 16.5-48T244-62q32 0 51.5 21.5T318 27z"/><glyph glyph-name="Agrave" unicode="À" horiz-adv-x="666" d="M480 0l-39 124H219L180 0H7l240 670h173L659 0H480zM258 251h143l-71 229-72-229zm-27 689l225-145-42-83-252 97 69 131z"/><glyph glyph-name="Aacute" unicode="Á" horiz-adv-x="666" d="M480 0l-39 124H219L180 0H7l240 670h173L659 0H480zM258 251h143l-71 229-72-229zm-48 544l225 145 69-131-252-97-42 83z"/><glyph glyph-name="Acircumflex" unicode="Â" horiz-adv-x="666" d="M480 0l-39 124H219L180 0H7l240 670h173L659 0H480zM258 251h143l-71 229-72-229zm111 664l162-125-53-80-145 90-145-90-53 80 162 125h72z"/><glyph glyph-name="Atilde" unicode="Ã" horiz-adv-x="666" d="M480 0l-39 124H219L180 0H7l240 670h173L659 0H480zM258 251h143l-71 229-72-229zm52 526q-15 11-26 17t-21 6q-12 0-21.5-13.5T225 739h-99q5 47 22 85.5t44 61.5q27 23 61 23 29 0 53-12t50-32q15-11 26-17t21-6q12 0 21.5 13.5T441 903h99q-5-47-22-85.5T474 756q-27-23-61-23-29 0-53 12t-50 32z"/><glyph glyph-name="Adieresis" unicode="Ä" horiz-adv-x="666" d="M480 0l-39 124H219L180 0H7l240 670h173L659 0H480zM258 251h143l-71 229-72-229zm190 485q-35 0-59 24t-24 60q0 36 24 60t59 24q35 0 59-24t24-60q0-36-24-60t-59-24zm-230 0q-35 0-59 24t-24 60q0 36 24 60t59 24q35 0 59-24t24-60q0-36-24-60t-59-24z"/><glyph glyph-name="Aring" unicode="Å" horiz-adv-x="666" d="M480 0l-39 124H219L180 0H7l240 670h173L659 0H480zM258 251h143l-71 229-72-229zm75 467q-55 0-90 34.5T208 840q0 56 35 89t90 33q56 0 91.5-33t35.5-89q0-53-35.5-87.5T333 718zm0 70q21 0 35 14.5t14 37.5q0 22-13.5 37T333 892q-22 0-35.5-15T284 840q0-23 13.5-37.5T333 788z"/><glyph glyph-name="AE" unicode="Æ" horiz-adv-x="970" d="M7 0l391 670h523V539H645V400h245V275H645V131h280V0H467v122H246L180 0H7zm309 253h151v281L316 253z"/><glyph glyph-name="Ccedilla" unicode="Ç" horiz-adv-x="692" d="M360-16q-105 0-177.5 44.5T73 152q-37 79-37 183 0 103 37 182t109.5 124Q255 686 360 686q128 0 206.5-70T666 427H479q-11 61-42 95.5T360 557q-67 0-102.5-59T222 335q0-104 35.5-163T360 113q45 0 75.5 32.5T477 237h187q-12-76-51.5-133T509 15.5Q445-16 360-16zM309 0h76l-6-58q7 2 18 2 46 0 75.5-27.5T502-157q0-56-37.5-88.5T359-278q-18 0-42 3t-43 10l7 79q19-6 37.5-8t32.5-2q48 0 48 37 0 16-9.5 26T364-123q-20 0-37-11h-32L309 0z"/><glyph glyph-name="Egrave" unicode="È" horiz-adv-x="577" d="M74 0v670h454V539H252V400h245V275H252V131h280V0H74zm125 940l225-145-42-83-252 97 69 131z"/><glyph glyph-name="Eacute" unicode="É" horiz-adv-x="577" d="M74 0v670h454V539H252V400h245V275H252V131h280V0H74zm104 795l225 145 69-131-252-97-42 83z"/><glyph glyph-name="Ecircumflex" unicode="Ê" horiz-adv-x="577" d="M74 0v670h454V539H252V400h245V275H252V131h280V0H74zm263 915l162-125-53-80-145 90-145-90-53 80 162 125h72z"/><glyph glyph-name="Edieresis" unicode="Ë" horiz-adv-x="577" d="M74 0v670h454V539H252V400h245V275H252V131h280V0H74zm342 736q-35 0-59 24t-24 60q0 36 24 60t59 24q35 0 59-24t24-60q0-36-24-60t-59-24zm-230 0q-35 0-59 24t-24 60q0 36 24 60t59 24q35 0 59-24t24-60q0-36-24-60t-59-24z"/><glyph glyph-name="Igrave" unicode="Ì" horiz-adv-x="326" d="M74 0v670h178V0H74zM61 940l225-145-42-83-252 97 69 131z"/><glyph glyph-name="Iacute" unicode="Í" horiz-adv-x="326" d="M74 0v670h178V0H74zM40 795l225 145 69-131-252-97-42 83z"/><glyph glyph-name="Icircumflex" unicode="Î" horiz-adv-x="326" d="M74 0v670h178V0H74zm125 915l162-125-53-80-145 90-145-90-53 80 162 125h72z"/><glyph glyph-name="Idieresis" unicode="Ï" horiz-adv-x="326" d="M74 0v670h178V0H74zm204 736q-35 0-59 24t-24 60q0 36 24 60t59 24q35 0 59-24t24-60q0-36-24-60t-59-24zm-230 0q-35 0-59 24t-24 60q0 36 24 60t59 24q35 0 59-24t24-60q0-36-24-60t-59-24z"/><glyph glyph-name="Eth" unicode="Ð" horiz-adv-x="732" d="M94 0v282H14v115h80v273h235q119 0 201-44t124-119.5Q696 431 696 335q0-97-42-172.5t-124-119Q448 0 329 0H94zm314 282H262V125h67q93 0 137 55t44 155q0 101-44 156t-137 55h-67V397h146V282z"/><glyph glyph-name="Ntilde" unicode="Ñ" horiz-adv-x="725" d="M74 0v670h167l237-408v408h173V0H487L247 415V0H74zm265 777q-15 11-26 17t-21 6q-12 0-21.5-13.5T254 739h-99q5 47 22 85.5t44 61.5q27 23 61 23 29 0 53-12t50-32q15-11 26-17t21-6q12 0 21.5 13.5T470 903h99q-5-47-22-85.5T503 756q-27-23-61-23-29 0-53 12t-50 32z"/><glyph glyph-name="Ograve" unicode="Ò" horiz-adv-x="735" d="M367-16q-106 0-180 44.5t-112.5 124Q36 232 36 335q0 102 38.5 181.5T187 641q74 45 180 45 107 0 181-45t112.5-124.5Q699 437 699 335q0-103-38.5-182T548 29q-74-45-181-45zm0 129q71 0 108.5 60T513 335q0 102-37.5 162T367 557q-71 0-108-60t-37-162q0-102 37-162t108-60zM265 940l225-145-42-83-252 97 69 131z"/><glyph glyph-name="Oacute" unicode="Ó" horiz-adv-x="735" d="M367-16q-106 0-180 44.5t-112.5 124Q36 232 36 335q0 102 38.5 181.5T187 641q74 45 180 45 107 0 181-45t112.5-124.5Q699 437 699 335q0-103-38.5-182T548 29q-74-45-181-45zm0 129q71 0 108.5 60T513 335q0 102-37.5 162T367 557q-71 0-108-60t-37-162q0-102 37-162t108-60zM244 795l225 145 69-131-252-97-42 83z"/><glyph glyph-name="Ocircumflex" unicode="Ô" horiz-adv-x="735" d="M367-16q-106 0-180 44.5t-112.5 124Q36 232 36 335q0 102 38.5 181.5T187 641q74 45 180 45 107 0 181-45t112.5-124.5Q699 437 699 335q0-103-38.5-182T548 29q-74-45-181-45zm0 129q71 0 108.5 60T513 335q0 102-37.5 162T367 557q-71 0-108-60t-37-162q0-102 37-162t108-60zm36 802l162-125-53-80-145 90-145-90-53 80 162 125h72z"/><glyph glyph-name="Otilde" unicode="Õ" horiz-adv-x="735" d="M367-16q-106 0-180 44.5t-112.5 124Q36 232 36 335q0 102 38.5 181.5T187 641q74 45 180 45 107 0 181-45t112.5-124.5Q699 437 699 335q0-103-38.5-182T548 29q-74-45-181-45zm0 129q71 0 108.5 60T513 335q0 102-37.5 162T367 557q-71 0-108-60t-37-162q0-102 37-162t108-60zm-23 664q-15 11-26 17t-21 6q-12 0-21.5-13.5T259 739h-99q5 47 22 85.5t44 61.5q27 23 61 23 29 0 53-12t50-32q15-11 26-17t21-6q12 0 21.5 13.5T475 903h99q-5-47-22-85.5T508 756q-27-23-61-23-29 0-53 12t-50 32z"/><glyph glyph-name="Odieresis" unicode="Ö" horiz-adv-x="735" d="M367-16q-106 0-180 44.5t-112.5 124Q36 232 36 335q0 102 38.5 181.5T187 641q74 45 180 45 107 0 181-45t112.5-124.5Q699 437 699 335q0-103-38.5-182T548 29q-74-45-181-45zm0 129q71 0 108.5 60T513 335q0 102-37.5 162T367 557q-71 0-108-60t-37-162q0-102 37-162t108-60zm115 623q-35 0-59 24t-24 60q0 36 24 60t59 24q35 0 59-24t24-60q0-36-24-60t-59-24zm-230 0q-35 0-59 24t-24 60q0 36 24 60t59 24q35 0 59-24t24-60q0-36-24-60t-59-24z"/><glyph glyph-name="multiply" unicode="×" horiz-adv-x="590" d="M159 115l-79 79 136 136L80 466l79 79 136-136 136 136 79-79-136-136 136-136-79-79-136 136-136-136z"/><glyph glyph-name="Oslash" unicode="Ø" horiz-adv-x="735" d="M74 8l49 73q-87 94-87 254 0 102 38.5 181.5T187 641q74 45 180 45 81 0 146-28l48 71 99-67-49-73q43-47 65.5-112T699 335q0-103-38.5-182T548 29q-74-45-181-45-81 0-146 28l-48-71L74 8zm148 327q0-58 12-103l204 304q-30 21-71 21-71 0-108-60t-37-162zm145-222q71 0 108.5 60T513 335q0 59-12 104L296 134q30-21 71-21z"/><glyph glyph-name="Ugrave" unicode="Ù" horiz-adv-x="704" d="M351-16q-139 0-214 78T62 274v396h178V259q0-65 28.5-105.5T351 113q55 0 84 40.5T464 259v411h178V274q0-134-76-212T351-16zM250 940l225-145-42-83-252 97 69 131z"/><glyph glyph-name="Uacute" unicode="Ú" horiz-adv-x="704" d="M351-16q-139 0-214 78T62 274v396h178V259q0-65 28.5-105.5T351 113q55 0 84 40.5T464 259v411h178V274q0-134-76-212T351-16zM229 795l225 145 69-131-252-97-42 83z"/><glyph glyph-name="Ucircumflex" unicode="Û" horiz-adv-x="704" d="M351-16q-139 0-214 78T62 274v396h178V259q0-65 28.5-105.5T351 113q55 0 84 40.5T464 259v411h178V274q0-134-76-212T351-16zm37 931l162-125-53-80-145 90-145-90-53 80 162 125h72z"/><glyph glyph-name="Udieresis" unicode="Ü" horiz-adv-x="704" d="M351-16q-139 0-214 78T62 274v396h178V259q0-65 28.5-105.5T351 113q55 0 84 40.5T464 259v411h178V274q0-134-76-212T351-16zm116 752q-35 0-59 24t-24 60q0 36 24 60t59 24q35 0 59-24t24-60q0-36-24-60t-59-24zm-230 0q-35 0-59 24t-24 60q0 36 24 60t59 24q35 0 59-24t24-60q0-36-24-60t-59-24z"/><glyph glyph-name="Yacute" unicode="Ý" horiz-adv-x="634" d="M188 670l132-274 135 274h178L406 270V0H228v268L1 670h187zm9 125l225 145 69-131-252-97-42 83z"/><glyph glyph-name="Thorn" unicode="Þ" horiz-adv-x="624" d="M74 670h178V563h82q129 0 198-58.5T601 352q0-104-70.5-164.5T314 127h-62V0H74v670zm234-223h-56V243h56q113 0 113 102T308 447z"/><glyph glyph-name="germandbls" unicode="ß" horiz-adv-x="616" d="M331 103q37 0 61 27.5t24 80.5q0 47-27 76t-81 29h-23v109h22q30 0 48.5 23.5T374 513q0 85-70 85-34 0-54-25.5T230 495V0H60v448q0 130 64.5 197.5T311 713q70 0 122.5-24.5T515 621q29-43 29-100 0-48-19.5-86.5T453 375q55-15 85-44t41.5-64.5Q591 231 591 194q0-99-62.5-153T363-13q-23 0-48.5 4.5T266 6l21 104q21-7 44-7z"/><glyph glyph-name="agrave" unicode="à" horiz-adv-x="554" d="M184-13q-70 0-114.5 37T25 129q0 54 28.5 89t75 55q46.5 20 101 28.5T335 311v11q0 43-16.5 66.5T271 412q-26 0-44-16.5T204 348H44q13 80 74 124.5T277 517q114 0 168.5-56.5T500 291V0H348l-4 66q-26-37-69.5-58T184-13zm67 105q35 0 59.5 27.5T335 199v39q-75-2-107.5-26.5T195 151q0-30 15.5-44.5T251 92zm-21 689l150-156-59-69-179 120 88 105z"/><glyph glyph-name="aacute" unicode="á" horiz-adv-x="554" d="M184-13q-70 0-114.5 37T25 129q0 54 28.5 89t75 55q46.5 20 101 28.5T335 311v11q0 43-16.5 66.5T271 412q-26 0-44-16.5T204 348H44q13 80 74 124.5T277 517q114 0 168.5-56.5T500 291V0H348l-4 66q-26-37-69.5-58T184-13zm67 105q35 0 59.5 27.5T335 199v39q-75-2-107.5-26.5T195 151q0-30 15.5-44.5T251 92zm-71 533l150 156 88-105-179-120-59 69z"/><glyph glyph-name="acircumflex" unicode="â" horiz-adv-x="554" d="M184-13q-70 0-114.5 37T25 129q0 54 28.5 89t75 55q46.5 20 101 28.5T335 311v11q0 43-16.5 66.5T271 412q-26 0-44-16.5T204 348H44q13 80 74 124.5T277 517q114 0 168.5-56.5T500 291V0H348l-4 66q-26-37-69.5-58T184-13zm67 105q35 0 59.5 27.5T335 199v39q-75-2-107.5-26.5T195 151q0-30 15.5-44.5T251 92zm70 678l137-146-57-67-121 100-121-100-57 67 137 146h82z"/><glyph glyph-name="atilde" unicode="ã" horiz-adv-x="554" d="M184-13q-70 0-114.5 37T25 129q0 54 28.5 89t75 55q46.5 20 101 28.5T335 311v11q0 43-16.5 66.5T271 412q-26 0-44-16.5T204 348H44q13 80 74 124.5T277 517q114 0 168.5-56.5T500 291V0H348l-4 66q-26-37-69.5-58T184-13zm67 105q35 0 59.5 27.5T335 199v39q-75-2-107.5-26.5T195 151q0-30 15.5-44.5T251 92zm9 519q-17 13-26 18t-17 5q-22 0-32-57H92q4 67 35 113.5t83 46.5q27 0 48.5-12t41.5-28q17-13 26-18t17-5q22 0 32 57h93q-4-67-35-113.5T350 571q-27 0-48.5 12T260 611z"/><glyph glyph-name="adieresis" unicode="ä" horiz-adv-x="554" d="M184-13q-70 0-114.5 37T25 129q0 54 28.5 89t75 55q46.5 20 101 28.5T335 311v11q0 43-16.5 66.5T271 412q-26 0-44-16.5T204 348H44q13 80 74 124.5T277 517q114 0 168.5-56.5T500 291V0H348l-4 66q-26-37-69.5-58T184-13zm67 105q35 0 59.5 27.5T335 199v39q-75-2-107.5-26.5T195 151q0-30 15.5-44.5T251 92zm129 469q-33 0-56.5 23T300 641q0 32 23.5 55t56.5 23q32 0 56-23t24-55q0-34-24-57t-56-23zm-200 0q-33 0-56.5 23T100 641q0 32 23.5 55t56.5 23q32 0 56-23t24-55q0-34-24-57t-56-23z"/><glyph glyph-name="aring" unicode="å" horiz-adv-x="554" d="M184-13q-70 0-114.5 37T25 129q0 54 28.5 89t75 55q46.5 20 101 28.5T335 311v11q0 43-16.5 66.5T271 412q-26 0-44-16.5T204 348H44q13 80 74 124.5T277 517q114 0 168.5-56.5T500 291V0H348l-4 66q-26-37-69.5-58T184-13zm67 105q35 0 59.5 27.5T335 199v39q-75-2-107.5-26.5T195 151q0-30 15.5-44.5T251 92zm29 459q-54 0-88.5 33.5T157 671q0 55 34.5 87.5T280 791q56 0 90.5-32.5T405 671q0-53-35-86.5T280 551zm0 66q22 0 36.5 15t14.5 39q0 23-14.5 38.5T280 725q-22 0-36.5-15.5T229 671q0-24 14.5-39t36.5-15z"/><glyph glyph-name="ae" unicode="æ" horiz-adv-x="840" d="M808 157q-20-85-84-127.5T575-13q-63 0-110.5 24.5T390 83q-25-44-78.5-70T195-13q-75 0-122.5 37T25 129q0 54 29 89t75.5 55Q176 293 230 301.5T335 312v10q0 43-16.5 66.5T271 412q-26 0-44-16.5T204 348H44q13 80 73.5 124.5T275 517q46 0 81.5-16t61.5-49q28 31 66.5 48t86.5 17q75 0 129.5-33.5t84-93.5Q814 330 814 250v-33H483q5-68 29.5-96.5T571 92q32 0 50 17t25 48h162zM566 412q-34 0-56.5-29.5T483 298h163q-4 54-24 84t-56 30zM251 92q35 0 59.5 27t24.5 77v42q-75-2-107.5-26.5T195 151q0-30 15.5-44.5T251 92z"/><glyph glyph-name="ccedilla" unicode="ç" horiz-adv-x="543" d="M284-13q-72 0-130 30t-92 89.5Q28 166 28 252q0 83 34 142.5t92 91Q212 517 284 517q58 0 108.5-21.5t84-64.5Q510 388 518 323H350q-8 45-25 64.5T284 407q-32 0-56-35t-24-120q0-84 24-119.5T284 97q26 0 43.5 20t25.5 71h167q-11-70-46-114.5T389.5 8Q340-13 284-13zM236 0h70l-9-59q10 3 23 3 45 0 73.5-27t28.5-71q0-55-37-86.5T279-272q-40 0-79 11l7 74q35-9 64-9 54 0 54 40 0 17-10.5 28T287-117q-20 0-38-11h-28L236 0z"/><glyph glyph-name="egrave" unicode="è" horiz-adv-x="553" d="M283-13q-71 0-129 29t-92 87.5Q28 162 28 252q0 81 31.5 140.5t88 92Q204 517 279 517q79 0 134.5-33.5T498 390q29-60 29-140v-33H196q6-68 29.5-96.5T284 92q32 0 50 17t25 48h162q-20-85-84.5-127.5T283-13zm-4 425q-34 0-56.5-29.5T196 298h163q-4 54-24 84t-56 30zm-50 369l150-156-59-69-179 120 88 105z"/><glyph glyph-name="eacute" unicode="é" horiz-adv-x="553" d="M283-13q-71 0-129 29t-92 87.5Q28 162 28 252q0 81 31.5 140.5t88 92Q204 517 279 517q79 0 134.5-33.5T498 390q29-60 29-140v-33H196q6-68 29.5-96.5T284 92q32 0 50 17t25 48h162q-20-85-84.5-127.5T283-13zm-4 425q-34 0-56.5-29.5T196 298h163q-4 54-24 84t-56 30zM179 625l150 156 88-105-179-120-59 69z"/><glyph glyph-name="ecircumflex" unicode="ê" horiz-adv-x="553" d="M283-13q-71 0-129 29t-92 87.5Q28 162 28 252q0 81 31.5 140.5t88 92Q204 517 279 517q79 0 134.5-33.5T498 390q29-60 29-140v-33H196q6-68 29.5-96.5T284 92q32 0 50 17t25 48h162q-20-85-84.5-127.5T283-13zm-4 425q-34 0-56.5-29.5T196 298h163q-4 54-24 84t-56 30zm41 358l137-146-57-67-121 100-121-100-57 67 137 146h82z"/><glyph glyph-name="edieresis" unicode="ë" horiz-adv-x="553" d="M283-13q-71 0-129 29t-92 87.5Q28 162 28 252q0 81 31.5 140.5t88 92Q204 517 279 517q79 0 134.5-33.5T498 390q29-60 29-140v-33H196q6-68 29.5-96.5T284 92q32 0 50 17t25 48h162q-20-85-84.5-127.5T283-13zm-4 425q-34 0-56.5-29.5T196 298h163q-4 54-24 84t-56 30zm100 149q-33 0-56.5 23T299 641q0 32 23.5 55t56.5 23q32 0 56-23t24-55q0-34-24-57t-56-23zm-200 0q-33 0-56.5 23T99 641q0 32 23.5 55t56.5 23q32 0 56-23t24-55q0-34-24-57t-56-23z"/><glyph glyph-name="igrave" unicode="ì" horiz-adv-x="290" d="M60 0v504h170V0H60zm59 781l114-166-72-59L15 689l104 92z"/><glyph glyph-name="iacute" unicode="í" horiz-adv-x="290" d="M60 0v504h170V0H60zm-3 615l114 166 104-92-146-133-72 59z"/><glyph glyph-name="icircumflex" unicode="î" horiz-adv-x="290" d="M60 0v504h170V0H60zm126 755l122-151-62-62-101 98-101-98-62 62 122 151h82z"/><glyph glyph-name="idieresis" unicode="ï" horiz-adv-x="290" d="M60 0v504h170V0H60zm-4 561q-33 0-56.5 23T-24 641q0 32 23.5 55T56 719q32 0 56-23t24-55q0-34-24-57t-56-23zm178 0q-33 0-56.5 23T154 641q0 32 23.5 55t56.5 23q32 0 56-23t24-55q0-34-24-57t-56-23z"/><glyph glyph-name="eth" unicode="ð" horiz-adv-x="570" d="M285-13q-79 0-136.5 33t-89 91.5Q28 170 28 246q0 70 27 125.5t73 87.5q46 32 103 32 40 0 75.5-18t57.5-53q-4 40-25.5 76T279 559l-69-55-49 62 38 30q-32 10-68 13l27 118q90-6 160-35l86 68 48-63-60-47q77-57 113.5-149T542 294q0-94-32-163T420 24.5Q362-13 285-13zm0 110q40 0 60.5 37T366 235q0 64-20.5 101T285 373q-40 0-60.5-37T204 235q0-64 20.5-101T285 97z"/><glyph glyph-name="ntilde" unicode="ñ" horiz-adv-x="601" d="M60 0v504h152l5-77q19 41 59.5 65.5T373 517q81 0 127.5-49.5T547 334V0H377v308q0 40-17 63.5T309 395q-31 0-55-26.5T230 285V0H60zm223 611q-17 13-26 18t-17 5q-22 0-32-57h-93q4 67 35 113.5t83 46.5q27 0 48.5-12t41.5-28q17-13 26-18t17-5q22 0 32 57h93q-4-67-35-113.5T373 571q-27 0-48.5 12T283 611z"/><glyph glyph-name="ograve" unicode="ò" horiz-adv-x="578" d="M289-13q-81 0-139.5 35t-90 94.5Q28 176 28 252t31.5 135.5Q91 447 149.5 482T289 517q81 0 139.5-35t90-94.5Q550 328 550 252t-31.5-135.5Q487 57 428.5 22T289-13zm0 110q40 0 62.5 41.5T374 252q0 72-22.5 113.5T289 407q-40 0-62.5-41.5T204 252q0-72 22.5-113.5T289 97zm-50 684l150-156-59-69-179 120 88 105z"/><glyph glyph-name="oacute" unicode="ó" horiz-adv-x="578" d="M289-13q-81 0-139.5 35t-90 94.5Q28 176 28 252t31.5 135.5Q91 447 149.5 482T289 517q81 0 139.5-35t90-94.5Q550 328 550 252t-31.5-135.5Q487 57 428.5 22T289-13zm0 110q40 0 62.5 41.5T374 252q0 72-22.5 113.5T289 407q-40 0-62.5-41.5T204 252q0-72 22.5-113.5T289 97zM189 625l150 156 88-105-179-120-59 69z"/><glyph glyph-name="ocircumflex" unicode="ô" horiz-adv-x="578" d="M289-13q-81 0-139.5 35t-90 94.5Q28 176 28 252t31.5 135.5Q91 447 149.5 482T289 517q81 0 139.5-35t90-94.5Q550 328 550 252t-31.5-135.5Q487 57 428.5 22T289-13zm0 110q40 0 62.5 41.5T374 252q0 72-22.5 113.5T289 407q-40 0-62.5-41.5T204 252q0-72 22.5-113.5T289 97zm41 673l137-146-57-67-121 100-121-100-57 67 137 146h82z"/><glyph glyph-name="otilde" unicode="õ" horiz-adv-x="578" d="M289-13q-81 0-139.5 35t-90 94.5Q28 176 28 252t31.5 135.5Q91 447 149.5 482T289 517q81 0 139.5-35t90-94.5Q550 328 550 252t-31.5-135.5Q487 57 428.5 22T289-13zm0 110q40 0 62.5 41.5T374 252q0 72-22.5 113.5T289 407q-40 0-62.5-41.5T204 252q0-72 22.5-113.5T289 97zm-20 514q-17 13-26 18t-17 5q-22 0-32-57h-93q4 67 35 113.5t83 46.5q27 0 48.5-12t41.5-28q17-13 26-18t17-5q22 0 32 57h93q-4-67-35-113.5T359 571q-27 0-48.5 12T269 611z"/><glyph glyph-name="odieresis" unicode="ö" horiz-adv-x="578" d="M289-13q-81 0-139.5 35t-90 94.5Q28 176 28 252t31.5 135.5Q91 447 149.5 482T289 517q81 0 139.5-35t90-94.5Q550 328 550 252t-31.5-135.5Q487 57 428.5 22T289-13zm0 110q40 0 62.5 41.5T374 252q0 72-22.5 113.5T289 407q-40 0-62.5-41.5T204 252q0-72 22.5-113.5T289 97zm100 464q-33 0-56.5 23T309 641q0 32 23.5 55t56.5 23q32 0 56-23t24-55q0-34-24-57t-56-23zm-200 0q-33 0-56.5 23T109 641q0 32 23.5 55t56.5 23q32 0 56-23t24-55q0-34-24-57t-56-23z"/><glyph glyph-name="divide" unicode="÷" horiz-adv-x="590" d="M294 453q-32 0-53.5 22T219 528q0 33 21.5 54t53.5 21q32 0 54-21t22-54q0-31-22-53t-54-22zM76 272v116h437V272H76zM294 57q-32 0-53.5 22T219 132q0 33 21.5 54t53.5 21q32 0 54-21t22-54q0-31-22-53t-54-22z"/><glyph glyph-name="oslash" unicode="ø" horiz-adv-x="578" d="M54-1l44 64q-70 73-70 189 0 76 31.5 135.5t90 94.5Q208 517 289 517q56 0 103-18l44 65 88-59-43-64q69-74 69-189 0-76-31.5-135.5t-90-94.5Q370-13 289-13q-56 0-103 18l-44-65L54-1zm150 253q0-24 3-45l124 185q-18 15-42 15-40 0-62.5-41.5T204 252zm85-155q40 0 62.5 41.5T374 252q0 25-3 46L246 113q19-16 43-16z"/><glyph glyph-name="ugrave" unicode="ù" horiz-adv-x="594" d="M531 504V0H379l-6 82q-18-42-57.5-68.5T219-13q-74 0-118.5 49.5T56 170v334h170V196q0-40 15.5-63.5T288 109q29 0 51 26.5t22 83.5v285h170zM243 781l150-156-59-69-179 120 88 105z"/><glyph glyph-name="uacute" unicode="ú" horiz-adv-x="594" d="M531 504V0H379l-6 82q-18-42-57.5-68.5T219-13q-74 0-118.5 49.5T56 170v334h170V196q0-40 15.5-63.5T288 109q29 0 51 26.5t22 83.5v285h170zM193 625l150 156 88-105-179-120-59 69z"/><glyph glyph-name="ucircumflex" unicode="û" horiz-adv-x="594" d="M531 504V0H379l-6 82q-18-42-57.5-68.5T219-13q-74 0-118.5 49.5T56 170v334h170V196q0-40 15.5-63.5T288 109q29 0 51 26.5t22 83.5v285h170zM334 770l137-146-57-67-121 100-121-100-57 67 137 146h82z"/><glyph glyph-name="udieresis" unicode="ü" horiz-adv-x="594" d="M531 504V0H379l-6 82q-18-42-57.5-68.5T219-13q-74 0-118.5 49.5T56 170v334h170V196q0-40 15.5-63.5T288 109q29 0 51 26.5t22 83.5v285h170zm-138 57q-33 0-56.5 23T313 641q0 32 23.5 55t56.5 23q32 0 56-23t24-55q0-34-24-57t-56-23zm-200 0q-33 0-56.5 23T113 641q0 32 23.5 55t56.5 23q32 0 56-23t24-55q0-34-24-57t-56-23z"/><glyph glyph-name="yacute" unicode="ý" horiz-adv-x="536" d="M4-198L39-94q31-13 61-13 23 0 41.5 14T179-36l19 44L3 504h176l96-318 93 318h165L319-43q-36-92-84-136t-116-44q-35 0-64 6.5T4-198zm169 823l150 156 88-105-179-120-59 69z"/><glyph glyph-name="thorn" unicode="þ" horiz-adv-x="599" d="M364-13q-40 0-76 18.5T230 60v-270H60v910h170V444q49 73 140 73 62 0 107-34.5t69.5-94.5Q571 328 571 252q0-78-26-138t-72.5-93.5Q426-13 364-13zm-52 118q41 0 62 41.5T395 252q0 64-21 106t-62 42q-38 0-61-36.5T228 261v-18q0-65 23-101.5t61-36.5z"/><glyph glyph-name="ydieresis" unicode="ÿ" horiz-adv-x="536" d="M4-198L39-94q31-13 61-13 23 0 41.5 14T179-36l19 44L3 504h176l96-318 93 318h165L319-43q-36-92-84-136t-116-44q-35 0-64 6.5T4-198zm369 759q-33 0-56.5 23T293 641q0 32 23.5 55t56.5 23q32 0 56-23t24-55q0-34-24-57t-56-23zm-200 0q-33 0-56.5 23T93 641q0 32 23.5 55t56.5 23q32 0 56-23t24-55q0-34-24-57t-56-23z"/><glyph glyph-name="Amacron" unicode="Ā" horiz-adv-x="666" d="M480 0l-39 124H219L180 0H7l240 670h173L659 0H480zM258 251h143l-71 229-72-229zM145 752v118h376V752H145z"/><glyph glyph-name="amacron" unicode="ā" horiz-adv-x="554" d="M184-13q-70 0-114.5 37T25 129q0 54 28.5 89t75 55q46.5 20 101 28.5T335 311v11q0 43-16.5 66.5T271 412q-26 0-44-16.5T204 348H44q13 80 74 124.5T277 517q114 0 168.5-56.5T500 291V0H348l-4 66q-26-37-69.5-58T184-13zm67 105q35 0 59.5 27.5T335 199v39q-75-2-107.5-26.5T195 151q0-30 15.5-44.5T251 92zM117 589v106h326V589H117z"/><glyph glyph-name="Abreve" unicode="Ă" horiz-adv-x="666" d="M480 0l-39 124H219L180 0H7l240 670h173L659 0H480zM258 251h143l-71 229-72-229zm75 488q-55 0-94.5 21.5T177 819q-22 37-25 81h105q4-22 23-39.5t53-17.5q33 0 51.5 17.5T407 900h105q-3-44-24-81t-60-58.5Q389 739 333 739z"/><glyph glyph-name="abreve" unicode="ă" horiz-adv-x="554" d="M184-13q-70 0-114.5 37T25 129q0 54 28.5 89t75 55q46.5 20 101 28.5T335 311v11q0 43-16.5 66.5T271 412q-26 0-44-16.5T204 348H44q13 80 74 124.5T277 517q114 0 168.5-56.5T500 291V0H348l-4 66q-26-37-69.5-58T184-13zm67 105q35 0 59.5 27.5T335 199v39q-75-2-107.5-26.5T195 151q0-30 15.5-44.5T251 92zm29 477q-73 0-116.5 48T116 737h99q3-29 20-49.5t45-20.5q29 0 45.5 20.5T345 737h99q-4-72-46-120t-118-48z"/><glyph glyph-name="Aogonek" unicode="Ą" horiz-adv-x="666" d="M480 0l-39 124H219L180 0H7l240 670h173L659 0H480zM258 251h143l-71 229-72-229zm284-519q-73 0-113 37t-40 89q0 38 19.5 72.5T480 0h124q-49-8-68-37.5T517-96q0-34 17.5-52t45.5-18q27 0 56 12v-99q-23-8-45.5-11.5T542-268z"/><glyph glyph-name="aogonek" unicode="ą" horiz-adv-x="554" d="M184-13q-70 0-114.5 37T25 129q0 54 28.5 89t75 55q46.5 20 101 28.5T335 311v11q0 43-16.5 66.5T271 412q-26 0-44-16.5T204 348H44q13 80 74 124.5T277 517q114 0 168.5-56.5T500 291V0H348l-4 66q-26-37-69.5-58T184-13zm67 105q35 0 59.5 27.5T335 199v39q-75-2-107.5-26.5T195 151q0-30 15.5-44.5T251 92zm158-354q-71 0-110.5 36T259-141q0 38 19.5 72.5T348 0h123q-51-8-70.5-36T381-98q0-32 19.5-50t44.5-18q31 0 55 10v-92q-41-14-91-14z"/><glyph glyph-name="Cacute" unicode="Ć" horiz-adv-x="692" d="M360-16q-105 0-177.5 44.5T73 152q-37 79-37 183 0 103 37 182t109.5 124Q255 686 360 686q128 0 206.5-70T666 427H479q-11 61-42 95.5T360 557q-67 0-102.5-59T222 335q0-104 35.5-163T360 113q45 0 75.5 32.5T477 237h187q-12-76-51.5-133T509 15.5Q445-16 360-16zM228 795l225 145 69-131-252-97-42 83z"/><glyph glyph-name="cacute" unicode="ć" horiz-adv-x="543" d="M284-13q-72 0-130 30t-92 89.5Q28 166 28 252q0 83 34 142.5t92 91Q212 517 284 517q58 0 108.5-21.5t84-64.5Q510 388 518 323H350q-8 45-25 64.5T284 407q-32 0-56-35t-24-120q0-84 24-119.5T284 97q26 0 43.5 20t25.5 71h167q-11-70-46-114.5T389.5 8Q340-13 284-13zM184 625l150 156 88-105-179-120-59 69z"/><glyph glyph-name="Cdotaccent" unicode="Ċ" horiz-adv-x="692" d="M360-16q-105 0-177.5 44.5T73 152q-37 79-37 183 0 103 37 182t109.5 124Q255 686 360 686q128 0 206.5-70T666 427H479q-11 61-42 95.5T360 557q-67 0-102.5-59T222 335q0-104 35.5-163T360 113q45 0 75.5 32.5T477 237h187q-12-76-51.5-133T509 15.5Q445-16 360-16zm-9 743q-40 0-68.5 27.5T254 820q0 38 28.5 65.5T351 913q40 0 68.5-27.5T448 820q0-38-28.5-65.5T351 727z"/><glyph glyph-name="cdotaccent" unicode="ċ" horiz-adv-x="543" d="M284-13q-72 0-130 30t-92 89.5Q28 166 28 252q0 83 34 142.5t92 91Q212 517 284 517q58 0 108.5-21.5t84-64.5Q510 388 518 323H350q-8 45-25 64.5T284 407q-32 0-56-35t-24-120q0-84 24-119.5T284 97q26 0 43.5 20t25.5 71h167q-11-70-46-114.5T389.5 8Q340-13 284-13zm0 574q-40 0-67.5 26.5T189 652q0 38 27.5 64.5T284 743q40 0 67.5-26.5T379 652q0-38-27.5-64.5T284 561z"/><glyph glyph-name="Ccaron" unicode="Č" horiz-adv-x="692" d="M360-16q-105 0-177.5 44.5T73 152q-37 79-37 183 0 103 37 182t109.5 124Q255 686 360 686q128 0 206.5-70T666 427H479q-11 61-42 95.5T360 557q-67 0-102.5-59T222 335q0-104 35.5-163T360 113q45 0 75.5 32.5T477 237h187q-12-76-51.5-133T509 15.5Q445-16 360-16zm-45 741L153 850l53 80 145-90 145 90 53-80-162-125h-72z"/><glyph glyph-name="ccaron" unicode="č" horiz-adv-x="543" d="M284-13q-72 0-130 30t-92 89.5Q28 166 28 252q0 83 34 142.5t92 91Q212 517 284 517q58 0 108.5-21.5t84-64.5Q510 388 518 323H350q-8 45-25 64.5T284 407q-32 0-56-35t-24-120q0-84 24-119.5T284 97q26 0 43.5 20t25.5 71h167q-11-70-46-114.5T389.5 8Q340-13 284-13zm180 720L325 567h-82L104 707l59 73 121-99 121 99 59-73z"/><glyph glyph-name="Dcaron" unicode="Ď" horiz-adv-x="712" d="M74 0v670h235q119 0 201-43.5t124-117Q676 436 676 345q0-102-42-179.5T510 44Q428 0 309 0H74zm235 546h-67V125h67q93 0 137 55t44 155q0 101-44 156t-137 55zm-30 179L117 850l53 80 145-90 145 90 53-80-162-125h-72z"/><glyph glyph-name="dcaron" unicode="ď" horiz-adv-x="704" d="M235 517q40 0 76-18.5t58-54.5v256h170V0H387l-6 82q-47-95-152-95-61 0-106.5 34.5t-70 94.5Q28 176 28 252q0 78 26 138t72.5 93.5Q173 517 235 517zm52-118q-41 0-62-41.5T204 252q0-64 21-106t62-42q37 0 60.5 36.5T371 243v18q0 65-23.5 101.5T287 399zm403 117h-78v184h126v-8q0-26-6-60t-17-66q-11-32-25-50z"/><glyph glyph-name="Dcroat" unicode="Đ" horiz-adv-x="732" d="M94 0v282H14v115h80v273h235q119 0 201-44t124-119.5Q696 431 696 335q0-97-42-172.5t-124-119Q448 0 329 0H94zm314 282H262V125h67q93 0 137 55t44 155q0 101-44 156t-137 55h-67V397h146V282z"/><glyph glyph-name="dslash" unicode="đ" horiz-adv-x="614" d="M229-13q-61 0-106.5 33t-70 90.5Q28 168 28 242q0 76 26 133t72.5 89.5Q173 497 235 497q40 0 76-18.5t58-54.5v120H242v90h127v66h170v-66h65v-90h-65V0H387l-7 78q-24-45-62.5-68T229-13zm58 392q-41 0-62-39t-21-98q0-59 21-98.5t62-39.5q37 0 60.5 34t23.5 95v18q0 61-23.5 94.5T287 379z"/><glyph glyph-name="Emacron" unicode="Ē" horiz-adv-x="577" d="M74 0v670h454V539H252V400h245V275H252V131h280V0H74zm39 752v118h376V752H113z"/><glyph glyph-name="emacron" unicode="ē" horiz-adv-x="553" d="M283-13q-71 0-129 29t-92 87.5Q28 162 28 252q0 81 31.5 140.5t88 92Q204 517 279 517q79 0 134.5-33.5T498 390q29-60 29-140v-33H196q6-68 29.5-96.5T284 92q32 0 50 17t25 48h162q-20-85-84.5-127.5T283-13zm-4 425q-34 0-56.5-29.5T196 298h163q-4 54-24 84t-56 30zM116 589v106h326V589H116z"/><glyph glyph-name="Edotaccent" unicode="Ė" horiz-adv-x="577" d="M74 0v670h454V539H252V400h245V275H252V131h280V0H74zm227 727q-40 0-68.5 27.5T204 820q0 38 28.5 65.5T301 913q40 0 68.5-27.5T398 820q0-38-28.5-65.5T301 727z"/><glyph glyph-name="edotaccent" unicode="ė" horiz-adv-x="553" d="M283-13q-71 0-129 29t-92 87.5Q28 162 28 252q0 81 31.5 140.5t88 92Q204 517 279 517q79 0 134.5-33.5T498 390q29-60 29-140v-33H196q6-68 29.5-96.5T284 92q32 0 50 17t25 48h162q-20-85-84.5-127.5T283-13zm-4 425q-34 0-56.5-29.5T196 298h163q-4 54-24 84t-56 30zm0 149q-40 0-67.5 26.5T184 652q0 38 27.5 64.5T279 743q40 0 67.5-26.5T374 652q0-38-27.5-64.5T279 561z"/><glyph glyph-name="Eogonek" unicode="Ę" horiz-adv-x="577" d="M74 0v670h454V539H252V400h245V275H252V131h280V0H74zm364-268q-73 0-113 37t-40 89q0 38 19.5 72.5T376 0h124q-49-8-68-37.5T413-96q0-34 17.5-52t45.5-18q27 0 56 12v-99q-23-8-45.5-11.5T438-268z"/><glyph glyph-name="eogonek" unicode="ę" horiz-adv-x="553" d="M283-13q-71 0-129 29t-92 87.5Q28 162 28 252q0 81 31.5 140.5t88 92Q204 517 279 517q79 0 134.5-33.5T498 390q29-60 29-140v-33H196q6-68 29.5-96.5T284 92q32 0 50 17t25 48h162q-20-85-84.5-127.5T283-13zm-4 425q-34 0-56.5-29.5T196 298h163q-4 54-24 84t-56 30zm91-674q-71 0-110.5 36T220-141q0 38 19.5 72.5T309 0l122 29q-51-37-70-64.5T342-100q0-30 19-48t45-18q31 0 55 10v-92q-41-14-91-14z"/><glyph glyph-name="Ecaron" unicode="Ě" horiz-adv-x="577" d="M74 0v670h454V539H252V400h245V275H252V131h280V0H74zm191 725L103 850l53 80 145-90 145 90 53-80-162-125h-72z"/><glyph glyph-name="ecaron" unicode="ě" horiz-adv-x="553" d="M283-13q-71 0-129 29t-92 87.5Q28 162 28 252q0 81 31.5 140.5t88 92Q204 517 279 517q79 0 134.5-33.5T498 390q29-60 29-140v-33H196q6-68 29.5-96.5T284 92q32 0 50 17t25 48h162q-20-85-84.5-127.5T283-13zm-4 425q-34 0-56.5-29.5T196 298h163q-4 54-24 84t-56 30zm180 295L320 567h-82L99 707l59 73 121-99 121 99 59-73z"/><glyph glyph-name="Gbreve" unicode="Ğ" horiz-adv-x="718" d="M36 335q0 103 39 182t114 124q75 45 184 45 119 0 195.5-62T671 450H484q-27 110-114 110-75 0-113-60.5T219 335q0-104 38-164.5T370 110q53 0 88.5 28.5T506 227H383v125h298v-42q0-65-19-123.5t-57.5-104q-38.5-45.5-98-72T367-16q-105 0-179 44.5T75 152q-39 79-39 183zm334 404q-55 0-94.5 21.5T214 819q-22 37-25 81h105q4-22 23-39.5t53-17.5q33 0 51.5 17.5T444 900h105q-3-44-24-81t-60-58.5Q426 739 370 739z"/><glyph glyph-name="gbreve" unicode="ğ" horiz-adv-x="599" d="M283-223q-94 0-159.5 42.5T43-53h160q7-32 28-50t52-18q86 0 86 112v76q-23-33-58-51.5T232-3q-63 0-108.5 34T53 123.5Q28 182 28 258t26.5 134.5Q81 451 129.5 484T244 517q39 0 78-22t60-67l5 76h152V42q0-265-256-265zm4 337q37 0 60.5 35T371 249v18q0 63-23.5 98T287 400q-41 0-62-40t-21-102q0-63 21-103.5t62-40.5zm6 455q-73 0-116.5 48T129 737h99q3-29 20-49.5t45-20.5q29 0 45.5 20.5T358 737h99q-4-72-46-120t-118-48z"/><glyph glyph-name="Gdotaccent" unicode="Ġ" horiz-adv-x="718" d="M36 335q0 103 39 182t114 124q75 45 184 45 119 0 195.5-62T671 450H484q-27 110-114 110-75 0-113-60.5T219 335q0-104 38-164.5T370 110q53 0 88.5 28.5T506 227H383v125h298v-42q0-65-19-123.5t-57.5-104q-38.5-45.5-98-72T367-16q-105 0-179 44.5T75 152q-39 79-39 183zm334 392q-40 0-68.5 27.5T273 820q0 38 28.5 65.5T370 913q40 0 68.5-27.5T467 820q0-38-28.5-65.5T370 727z"/><glyph glyph-name="gdotaccent" unicode="ġ" horiz-adv-x="599" d="M283-223q-94 0-159.5 42.5T43-53h160q7-32 28-50t52-18q86 0 86 112v76q-23-33-58-51.5T232-3q-63 0-108.5 34T53 123.5Q28 182 28 258t26.5 134.5Q81 451 129.5 484T244 517q39 0 78-22t60-67l5 76h152V42q0-265-256-265zm4 337q37 0 60.5 35T371 249v18q0 63-23.5 98T287 400q-41 0-62-40t-21-102q0-63 21-103.5t62-40.5zm6 447q-40 0-67.5 26.5T198 652q0 38 27.5 64.5T293 743q40 0 67.5-26.5T388 652q0-38-27.5-64.5T293 561z"/><glyph glyph-name="uni0122" unicode="Ģ" horiz-adv-x="718" d="M36 335q0 103 39 182t114 124q75 45 184 45 119 0 195.5-62T671 450H484q-27 110-114 110-75 0-113-60.5T219 335q0-104 38-164.5T370 110q53 0 88.5 28.5T506 227H383v125h298v-42q0-65-19-123.5t-57.5-104q-38.5-45.5-98-72T367-16q-105 0-179 44.5T75 152q-39 79-39 183zm238-694v67q37 9 59 25.5t31 44.5q-28 1-53 23t-25 60q0 36 24 59t59 23q36 0 61.5-27.5T456-162q0-76-50-130t-132-67z"/><glyph glyph-name="uni0123" unicode="ģ" horiz-adv-x="599" d="M283-223q-94 0-159.5 42.5T43-53h160q7-32 28-50t52-18q86 0 86 112v76q-23-33-58-51.5T232-3q-63 0-108.5 34T53 123.5Q28 182 28 258t26.5 134.5Q81 451 129.5 484T244 517q39 0 78-22t60-67l5 76h152V42q0-265-256-265zm4 337q37 0 60.5 35T371 249v18q0 63-23.5 98T287 400q-41 0-62-40t-21-102q0-63 21-103.5t62-40.5zm95 737v-62q-73-19-87-70 27-1 50.5-22.5T369 639q0-34-23-56t-56-22q-34 0-58.5 26T207 662q0 46 22 86t61 67q39 27 92 36z"/><glyph glyph-name="Hbar" unicode="Ħ" horiz-adv-x="768" d="M94 0v478H14v105h80v87h178v-87h224v87h178v-87h80V478h-80V0H496v264H272V0H94zm178 393h224v85H272v-85z"/><glyph glyph-name="hbar" unicode="ħ" horiz-adv-x="621" d="M80 0v544H14v90h66v66h170v-66h126v-90H250V417q21 37 57.5 58.5T393 497q81 0 127.5-49.5T567 314V0H397v288q0 40-17 63.5T329 375q-31 0-55-26.5T250 265V0H80z"/><glyph glyph-name="Itilde" unicode="Ĩ" horiz-adv-x="326" d="M74 0v670h178V0H74zm66 777q-15 11-26 17t-21 6q-12 0-21.5-13.5T55 739h-99q5 47 22 85.5T22 886q27 23 61 23 29 0 53-12t50-32q15-11 26-17t21-6q12 0 21.5 13.5T271 903h99q-5-47-22-85.5T304 756q-27-23-61-23-29 0-53 12t-50 32z"/><glyph glyph-name="itilde" unicode="ĩ" horiz-adv-x="290" d="M60 0v504h170V0H60zm66 614q-14 14-23 18.5T86 637q-11 0-20-13.5T54 578h-84q5 66 32.5 112T79 736q26 0 45.5-11.5T164 694q14-14 23-18.5t17-4.5q11 0 20 13.5t12 45.5h84q-5-66-32.5-112T211 572q-26 0-45.5 11.5T126 614z"/><glyph glyph-name="Imacron" unicode="Ī" horiz-adv-x="326" d="M74 0v670h178V0H74zm-99 752v118h376V752H-25z"/><glyph glyph-name="imacron" unicode="ī" horiz-adv-x="290" d="M60 0v504h170V0H60zm-72 589v106h314V589H-12z"/><glyph glyph-name="Iogonek" unicode="Į" horiz-adv-x="326" d="M74 0v670h178V0H74zm84-268q-73 0-113 37T5-142q0 38 19.5 72.5T96 0h124q-49-8-68-37.5T133-96q0-34 17.5-52t45.5-18q27 0 56 12v-99q-23-8-45.5-11.5T158-268z"/><glyph glyph-name="iogonek" unicode="į" horiz-adv-x="290" d="M145 561q-40 0-67.5 26.5T50 652q0 38 27.5 64.5T145 743q40 0 67.5-26.5T240 652q0-38-27.5-64.5T145 561zM60 0v504h170V0H60zm79-262q-71 0-110.5 36T-11-141q0 38 19.5 72.5T78 0h123q-51-8-70.5-36T111-98q0-32 19.5-50t44.5-18q31 0 55 10v-92q-41-14-91-14z"/><glyph glyph-name="Idot" unicode="İ" horiz-adv-x="326" d="M74 0v670h178V0H74zm89 727q-40 0-68.5 27.5T66 820q0 38 28.5 65.5T163 913q40 0 68.5-27.5T260 820q0-38-28.5-65.5T163 727z"/><glyph glyph-name="dotlessi" unicode="ı" horiz-adv-x="290" d="M60 0v504h170V0H60z"/><glyph glyph-name="IJ" unicode="Ĳ" horiz-adv-x="671" d="M336-16q-122 0-193 64.5T62 225h177q5-49 30.5-80.5T336 113q45 0 70 35.5T431 249v421h178V264q0-132-72.5-206T336-16zm-96 328H62v358h178V312z"/><glyph glyph-name="ij" unicode="ĳ" horiz-adv-x="591" d="M45 652q0 38 27.5 64.5T140 743q40 0 67.5-26.5T235 652q0-38-27.5-64.5T140 561q-40 0-67.5 26.5T45 652zm306 0q0 38 27.5 64.5T446 743q40 0 67.5-26.5T541 652q0-38-27.5-64.5T446 561q-40 0-67.5 26.5T351 652zM51-53h160q6-32 24-50t48-18q36 0 57 27.5T361-9v81q-21-33-57.5-52.5T219 0q-74 0-118.5 49.5T56 183v321h170V209q0-41 15.5-64t46.5-23q29 0 51 26.5t22 83.5v272h170V42q0-131-63.5-198T283-223q-90 0-154.5 42.5T51-53z"/><glyph glyph-name="uni0136" unicode="Ķ" horiz-adv-x="671" d="M74 0v670h178V384l196 286h205L396 339q67-29 124-89 46-49 82-113T661 0H458q-11 45-30.5 89.5T382 172q-28 41-61.5 69T252 274V0H74zm185-359v67q37 9 59 25.5t31 44.5q-28 1-53 23t-25 60q0 36 24 59t59 23q36 0 61.5-27.5T441-162q0-76-50-130t-132-67z"/><glyph glyph-name="uni0137" unicode="ķ" horiz-adv-x="570" d="M60 0v700h170V303l140 201h180L361 274q56-38 100-89 32-37 58.5-83T568 0H384q-20 70-55 119-21 29-45 54.5T230 220V0H60zm154-347v62q73 19 87 70-27 1-50.5 22.5T227-135q0 34 23.5 56T306-57q33 0 58-26.5t25-74.5q0-46-22-86t-61-67q-39-27-92-36z"/><glyph glyph-name="Lacute" unicode="Ĺ" horiz-adv-x="542" d="M74 0v670h178V131h260V0H74zM40 795l225 145 69-131-252-97-42 83z"/><glyph glyph-name="lacute" unicode="ĺ" horiz-adv-x="290" d="M60 0v700h170V0H60zM48 826l178 128 66-121-201-88-43 81z"/><glyph glyph-name="uni013B" unicode="Ļ" horiz-adv-x="542" d="M74 0v670h178V131h260V0H74zm123-359v67q37 9 59 25.5t31 44.5q-28 1-53 23t-25 60q0 36 24 59t59 23q36 0 61.5-27.5T379-162q0-76-50-130t-132-67z"/><glyph glyph-name="uni013C" unicode="ļ" horiz-adv-x="290" d="M60 0v700h170V0H60zm-8-347v62q73 19 87 70-27 1-50.5 22.5T65-135q0 34 23.5 56T144-57q33 0 58-26.5t25-74.5q0-46-22-86t-61-67q-39-27-92-36z"/><glyph glyph-name="Lcaron" unicode="Ľ" horiz-adv-x="542" d="M74 0v670h178V131h260V0H74zm370 464h-82v206h132v-11q0-27-6.5-65T470 520q-11-36-26-56z"/><glyph glyph-name="lcaron" unicode="ľ" horiz-adv-x="395" d="M60 0v700h170V0H60zm321 516h-78v184h126v-8q0-26-6-60t-17-66q-11-32-25-50z"/><glyph glyph-name="Lslash" unicode="Ł" horiz-adv-x="573" d="M105 0v219l-80-43v129l80 43v322h178V444l130 70V385l-130-70V131h260V0H105z"/><glyph glyph-name="lslash" unicode="ł" horiz-adv-x="350" d="M90 0v274L5 226v107l85 48v319h170V476l85 48V417l-85-48V0H90z"/><glyph glyph-name="Nacute" unicode="Ń" horiz-adv-x="725" d="M74 0v670h167l237-408v408h173V0H487L247 415V0H74zm165 795l225 145 69-131-252-97-42 83z"/><glyph glyph-name="nacute" unicode="ń" horiz-adv-x="601" d="M60 0v504h152l5-77q19 41 59.5 65.5T373 517q81 0 127.5-49.5T547 334V0H377v308q0 40-17 63.5T309 395q-31 0-55-26.5T230 285V0H60zm143 625l150 156 88-105-179-120-59 69z"/><glyph glyph-name="uni0145" unicode="Ņ" horiz-adv-x="725" d="M74 0v670h167l237-408v408h173V0H487L247 415V0H74zm192-359v67q37 9 59 25.5t31 44.5q-28 1-53 23t-25 60q0 36 24 59t59 23q36 0 61.5-27.5T448-162q0-76-50-130t-132-67z"/><glyph glyph-name="uni0146" unicode="ņ" horiz-adv-x="601" d="M60 0v504h152l5-77q19 41 59.5 65.5T373 517q81 0 127.5-49.5T547 334V0H377v308q0 40-17 63.5T309 395q-31 0-55-26.5T230 285V0H60zm150-347v62q73 19 87 70-27 1-50.5 22.5T223-135q0 34 23.5 56T302-57q33 0 58-26.5t25-74.5q0-46-22-86t-61-67q-39-27-92-36z"/><glyph glyph-name="Ncaron" unicode="Ň" horiz-adv-x="725" d="M74 0v670h167l237-408v408h173V0H487L247 415V0H74zm252 725L164 850l53 80 145-90 145 90 53-80-162-125h-72z"/><glyph glyph-name="ncaron" unicode="ň" horiz-adv-x="601" d="M60 0v504h152l5-77q19 41 59.5 65.5T373 517q81 0 127.5-49.5T547 334V0H377v308q0 40-17 63.5T309 395q-31 0-55-26.5T230 285V0H60zm423 707L344 567h-82L123 707l59 73 121-99 121 99 59-73z"/><glyph glyph-name="Eng" unicode="Ŋ" horiz-adv-x="724" d="M74 0v670h167l236-386v386h174V42q0-134-57.5-199.5T429-223q-29 0-64.5 6.5T301-198l25 118q15-7 36.5-11t38.5-4q35 0 55.5 24.5T477 0v38L246 417V0H74z"/><glyph glyph-name="eng" unicode="ŋ" horiz-adv-x="601" d="M60 0v504h152l5-78q19 41 59.5 66t96.5 25q81 0 127.5-49.5T547 334V-10q0-98-46.5-155.5T354-223q-23 0-48.5 4.5T257-204l21 104q21-7 42-7 57 0 57 74v341q0 40-17 63.5T309 395q-31 0-55-26.5T230 285V0H60z"/><glyph glyph-name="Ohungarumlaut" unicode="Ő" horiz-adv-x="735" d="M367-16q-106 0-180 44.5t-112.5 124Q36 232 36 335q0 102 38.5 181.5T187 641q74 45 180 45 107 0 181-45t112.5-124.5Q699 437 699 335q0-103-38.5-182T548 29q-74-45-181-45zm0 129q71 0 108.5 60T513 335q0 102-37.5 162T367 557q-71 0-108-60t-37-162q0-102 37-162t108-60zM201 782l176 185 80-97-207-150-49 62zm196 8l207 148 60-111-231-107-36 70z"/><glyph glyph-name="ohungarumlaut" unicode="ő" horiz-adv-x="578" d="M289-13q-81 0-139.5 35t-90 94.5Q28 176 28 252t31.5 135.5Q91 447 149.5 482T289 517q81 0 139.5-35t90-94.5Q550 328 550 252t-31.5-135.5Q487 57 428.5 22T289-13zm0 110q40 0 62.5 41.5T374 252q0 72-22.5 113.5T289 407q-40 0-62.5-41.5T204 252q0-72 22.5-113.5T289 97zM142 599l143 192 86-78-177-160-52 46zm163 11l180 158 68-92-207-122-41 56z"/><glyph glyph-name="OE" unicode="Œ" horiz-adv-x="973" d="M36 335q0 97 42 172.5t124 119Q284 670 403 670h521V539H648V400h245V275H648V131h280V0H403Q284 0 202 44T78 163.5Q36 239 36 335zm367-204h67v408h-67q-93 0-137-54.5T222 335q0-95 44-149.5T403 131z"/><glyph glyph-name="oe" unicode="œ" horiz-adv-x="900" d="M868 157q-20-85-85-127.5T630-13q-51 0-94.5 18.5T459 65q-63-78-170-78-81 0-139.5 35t-90 94.5Q28 176 28 252t31.5 135.5Q91 447 149.5 482T289 517q109 0 171-79 30 40 72 59.5t94 19.5q79 0 134.5-33.5T845 389q29-61 29-142v-33H543q6-67 30-94.5T631 92q32 0 50 17t25 48h162zM626 412q-34 0-56.5-30T543 295h163q-4 56-24 86.5T626 412zM289 97q40 0 62.5 41.5T374 252q0 72-22.5 113.5T289 407q-40 0-62.5-41.5T204 252q0-72 22.5-113.5T289 97z"/><glyph glyph-name="Racute" unicode="Ŕ" horiz-adv-x="666" d="M74 0v670h270q128 0 196.5-54.5T609 478q0-51-23.5-88t-62-59.5Q485 308 440 299q80-34 129-113T641 0H455q-22 117-75 187t-128 74V0H74zm234 554h-56V370h56q59 0 90 24t31 68q0 44-31 68t-90 24zM185 795l225 145 69-131-252-97-42 83z"/><glyph glyph-name="racute" unicode="ŕ" horiz-adv-x="390" d="M60 0v504h149l8-88q13 36 45 66t85 30q10 0 17-1t13-2V352q-6 2-18 3.5t-23 1.5q-46 0-76-28.5T230 241V0H60zm57 625l150 156 88-105-179-120-59 69z"/><glyph glyph-name="Rcaron" unicode="Ř" horiz-adv-x="666" d="M74 0v670h270q128 0 196.5-54.5T609 478q0-51-23.5-88t-62-59.5Q485 308 440 299q80-34 129-113T641 0H455q-22 117-75 187t-128 74V0H74zm234 554h-56V370h56q59 0 90 24t31 68q0 44-31 68t-90 24zm-36 171L110 850l53 80 145-90 145 90 53-80-162-125h-72z"/><glyph glyph-name="rcaron" unicode="ř" horiz-adv-x="390" d="M60 0v504h149l8-88q13 36 45 66t85 30q10 0 17-1t13-2V352q-6 2-18 3.5t-23 1.5q-46 0-76-28.5T230 241V0H60zm337 707L258 567h-82L37 707l59 73 121-99 121 99 59-73z"/><glyph glyph-name="Sacute" unicode="Ś" horiz-adv-x="621" d="M317-16q-127 0-200.5 56.5T31 203h175q8-58 40-80.5t73-22.5q47 0 69 23t22 48q0 31-16.5 53T335 257l-111 29q-86 22-129 68.5T52 486q0 65 34.5 109.5T179 663q58 23 130 23 119 0 185.5-56T575 471H403q-6 46-31 72.5T304 570q-37 0-58-20t-21-51q0-59 67-76l105-27q75-19 116-49.5t57-69.5q16-39 16-86 0-97-70.5-152T317-16zM184 795l225 145 69-131-252-97-42 83z"/><glyph glyph-name="sacute" unicode="ś" horiz-adv-x="528" d="M267-13Q160-13 99.5 31.5T30 159h165q5-41 27-56.5T269 87q29 0 45 12.5t16 31.5q0 17-13.5 32T266 188l-84 22q-65 17-101.5 52T44 359q0 53 30 88t81 52.5Q206 517 270 517q94 0 149-42t69-121H324q-4 29-19 46t-43 17q-26 0-40-13.5T208 371q0-18 12-31.5t44-21.5l72-18q86-22 122-56.5t36-93.5q0-78-60-120.5T267-13zM161 625l150 156 88-105-179-120-59 69z"/><glyph glyph-name="Scedilla" unicode="Ş" horiz-adv-x="621" d="M317-16q-127 0-200.5 56.5T31 203h175q8-58 40-80.5t73-22.5q47 0 69 23t22 48q0 31-16.5 53T335 257l-111 29q-86 22-129 68.5T52 486q0 65 34.5 109.5T179 663q58 23 130 23 119 0 185.5-56T575 471H403q-6 46-31 72.5T304 570q-37 0-58-20t-21-51q0-59 67-76l105-27q75-19 116-49.5t57-69.5q16-39 16-86 0-97-70.5-152T317-16zM265 0h76l-6-58q7 2 18 2 46 0 75.5-27.5T458-157q0-56-37.5-88.5T315-278q-18 0-42 3t-43 10l7 79q19-6 37.5-8t32.5-2q48 0 48 37 0 16-9.5 26T320-123q-20 0-37-11h-32L265 0z"/><glyph glyph-name="scedilla" unicode="ş" horiz-adv-x="528" d="M267-13Q160-13 99.5 31.5T30 159h165q5-41 27-56.5T269 87q29 0 45 12.5t16 31.5q0 17-13.5 32T266 188l-84 22q-65 17-101.5 52T44 359q0 53 30 88t81 52.5Q206 517 270 517q94 0 149-42t69-121H324q-4 29-19 46t-43 17q-26 0-40-13.5T208 371q0-18 12-31.5t44-21.5l72-18q86-22 122-56.5t36-93.5q0-78-60-120.5T267-13zM213 0h70l-9-59q10 3 23 3 45 0 73.5-27t28.5-71q0-55-37-86.5T256-272q-40 0-79 11l7 74q35-9 64-9 54 0 54 40 0 17-10.5 28T264-117q-20 0-38-11h-28L213 0z"/><glyph glyph-name="Scaron" unicode="Š" horiz-adv-x="621" d="M317-16q-127 0-200.5 56.5T31 203h175q8-58 40-80.5t73-22.5q47 0 69 23t22 48q0 31-16.5 53T335 257l-111 29q-86 22-129 68.5T52 486q0 65 34.5 109.5T179 663q58 23 130 23 119 0 185.5-56T575 471H403q-6 46-31 72.5T304 570q-37 0-58-20t-21-51q0-59 67-76l105-27q75-19 116-49.5t57-69.5q16-39 16-86 0-97-70.5-152T317-16zm-46 741L109 850l53 80 145-90 145 90 53-80-162-125h-72z"/><glyph glyph-name="scaron" unicode="š" horiz-adv-x="528" d="M267-13Q160-13 99.5 31.5T30 159h165q5-41 27-56.5T269 87q29 0 45 12.5t16 31.5q0 17-13.5 32T266 188l-84 22q-65 17-101.5 52T44 359q0 53 30 88t81 52.5Q206 517 270 517q94 0 149-42t69-121H324q-4 29-19 46t-43 17q-26 0-40-13.5T208 371q0-18 12-31.5t44-21.5l72-18q86-22 122-56.5t36-93.5q0-78-60-120.5T267-13zm174 720L302 567h-82L81 707l59 73 121-99 121 99 59-73z"/><glyph glyph-name="uni0162" unicode="Ţ" horiz-adv-x="596" d="M209 0v539H13v131h570V539H387V0H209zm47 0h76l-6-58q7 2 18 2 46 0 75.5-27.5T449-157q0-56-37.5-88.5T306-278q-18 0-42 3t-43 10l7 79q19-6 37.5-8t32.5-2q48 0 48 37 0 16-9.5 26T311-123q-20 0-37-11h-32L256 0z"/><glyph glyph-name="uni0163" unicode="ţ" horiz-adv-x="399" d="M260-13q-92 0-136.5 51.5T79 169v225H14v110h65v142h170V504h119V394H249V171q0-33 15-49t40-16q14 0 29 3t29 9l26-104Q365 1 329.5-6T260-13zM182 0h70l-9-59q10 3 23 3 45 0 73.5-27t28.5-71q0-55-37-86.5T225-272q-40 0-79 11l7 74q35-9 64-9 54 0 54 40 0 17-10.5 28T233-117q-20 0-38-11h-28L182 0z"/><glyph glyph-name="Tcaron" unicode="Ť" horiz-adv-x="596" d="M209 0v539H13v131h570V539H387V0H209zm53 725L100 850l53 80 145-90 145 90 53-80-162-125h-72z"/><glyph glyph-name="tcaron" unicode="ť" horiz-adv-x="399" d="M260-13q-92 0-136.5 51.5T79 169v225H14v110h65v142h170V504h119V394H249V171q0-33 15-49t40-16q14 0 29 3t29 9l26-104Q365 1 329.5-6T260-13zm121 562h-82v151h120v-8q0-34-10-74t-28-69z"/><glyph glyph-name="Tbar" unicode="Ŧ" horiz-adv-x="596" d="M209 0v266H83v115h126v158H13v131h570V539H387V381h126V266H387V0H209z"/><glyph glyph-name="tbar" unicode="ŧ" horiz-adv-x="393" d="M14 205v110h65v79H14v110h65v142h170V504h119V394H249v-79h119V205H249v-38q0-33 15-49t40-16q26 0 52 10l26-100Q359 0 326.5-6.5T260-13q-92 0-136.5 51.5T79 169v36H14z"/><glyph glyph-name="Utilde" unicode="Ũ" horiz-adv-x="704" d="M351-16q-139 0-214 78T62 274v396h178V259q0-65 28.5-105.5T351 113q55 0 84 40.5T464 259v411h178V274q0-134-76-212T351-16zm-22 793q-15 11-26 17t-21 6q-12 0-21.5-13.5T244 739h-99q5 47 22 85.5t44 61.5q27 23 61 23 29 0 53-12t50-32q15-11 26-17t21-6q12 0 21.5 13.5T460 903h99q-5-47-22-85.5T493 756q-27-23-61-23-29 0-53 12t-50 32z"/><glyph glyph-name="utilde" unicode="ũ" horiz-adv-x="594" d="M531 504V0H379l-6 82q-18-42-57.5-68.5T219-13q-74 0-118.5 49.5T56 170v334h170V196q0-40 15.5-63.5T288 109q29 0 51 26.5t22 83.5v285h170zM273 611q-17 13-26 18t-17 5q-22 0-32-57h-93q4 67 35 113.5t83 46.5q27 0 48.5-12t41.5-28q17-13 26-18t17-5q22 0 32 57h93q-4-67-35-113.5T363 571q-27 0-48.5 12T273 611z"/><glyph glyph-name="Umacron" unicode="Ū" horiz-adv-x="704" d="M351-16q-139 0-214 78T62 274v396h178V259q0-65 28.5-105.5T351 113q55 0 84 40.5T464 259v411h178V274q0-134-76-212T351-16zM164 752v118h376V752H164z"/><glyph glyph-name="umacron" unicode="ū" horiz-adv-x="594" d="M531 504V0H379l-6 82q-18-42-57.5-68.5T219-13q-74 0-118.5 49.5T56 170v334h170V196q0-40 15.5-63.5T288 109q29 0 51 26.5t22 83.5v285h170zm-401 85v106h326V589H130z"/><glyph glyph-name="Uring" unicode="Ů" horiz-adv-x="704" d="M351-16q-139 0-214 78T62 274v396h178V259q0-65 28.5-105.5T351 113q55 0 84 40.5T464 259v411h178V274q0-134-76-212T351-16zm1 734q-55 0-90 34.5T227 840q0 56 35 89t90 33q56 0 91.5-33t35.5-89q0-53-35.5-87.5T352 718zm0 70q21 0 35 14.5t14 37.5q0 22-13.5 37T352 892q-22 0-35.5-15T303 840q0-23 13.5-37.5T352 788z"/><glyph glyph-name="uring" unicode="ů" horiz-adv-x="594" d="M531 504V0H379l-6 82q-18-42-57.5-68.5T219-13q-74 0-118.5 49.5T56 170v334h170V196q0-40 15.5-63.5T288 109q29 0 51 26.5t22 83.5v285h170zm-238 47q-54 0-88.5 33.5T170 671q0 55 34.5 87.5T293 791q56 0 90.5-32.5T418 671q0-53-35-86.5T293 551zm0 66q22 0 36.5 15t14.5 39q0 23-14.5 38.5T293 725q-22 0-36.5-15.5T242 671q0-24 14.5-39t36.5-15z"/><glyph glyph-name="Uhungarumlaut" unicode="Ű" horiz-adv-x="704" d="M351-16q-139 0-214 78T62 274v396h178V259q0-65 28.5-105.5T351 113q55 0 84 40.5T464 259v411h178V274q0-134-76-212T351-16zM186 782l176 185 80-97-207-150-49 62zm196 8l207 148 60-111-231-107-36 70z"/><glyph glyph-name="uhungarumlaut" unicode="ű" horiz-adv-x="594" d="M531 504V0H379l-6 82q-18-42-57.5-68.5T219-13q-74 0-118.5 49.5T56 170v334h170V196q0-40 15.5-63.5T288 109q29 0 51 26.5t22 83.5v285h170zm-385 95l143 192 86-78-177-160-52 46zm163 11l180 158 68-92-207-122-41 56z"/><glyph glyph-name="Uogonek" unicode="Ų" horiz-adv-x="704" d="M351-16q-139 0-214 78T62 274v396h178V259q0-65 28.5-105.5T351 113q55 0 84 40.5T464 259v411h178V274q0-134-76-212T351-16zm94-249q-73 0-113 36.5T292-141q0 39 20 74t72 70l131 20q-55-31-75-60.5T420-100q0-28 18.5-45.5T481-163q26 0 58 12v-99q-22-8-45-11.5t-49-3.5z"/><glyph glyph-name="uogonek" unicode="ų" horiz-adv-x="594" d="M531 504V0H379l-6 82q-18-42-57.5-68.5T219-13q-74 0-118.5 49.5T56 170v334h170V196q0-40 15.5-63.5T288 109q29 0 51 26.5t22 83.5v285h170zm-91-766q-71 0-110.5 36T290-141q0 38 19.5 72.5T379 0h123q-51-8-70.5-36T412-98q0-32 19.5-50t44.5-18q31 0 55 10v-92q-41-14-91-14z"/><glyph glyph-name="Wcircumflex" unicode="Ŵ" horiz-adv-x="913" d="M166 0L13 670h179l92-439 115 439h125l114-439 93 439h169L747 0H566L458 430 347 0H166zm331 915l162-125-53-80-145 90-145-90-53 80 162 125h72z"/><glyph glyph-name="wcircumflex" unicode="ŵ" horiz-adv-x="800" d="M150 0L3 504h176l70-345 85 345h146l89-346 68 346h160L650 0H478l-78 275L322 0H150zm298 770l137-146-57-67-121 100-121-100-57 67 137 146h82z"/><glyph glyph-name="Ycircumflex" unicode="Ŷ" horiz-adv-x="634" d="M188 670l132-274 135 274h178L406 270V0H228v268L1 670h187zm168 245l162-125-53-80-145 90-145-90-53 80 162 125h72z"/><glyph glyph-name="ycircumflex" unicode="ŷ" horiz-adv-x="536" d="M4-198L39-94q31-13 61-13 23 0 41.5 14T179-36l19 44L3 504h176l96-318 93 318h165L319-43q-36-92-84-136t-116-44q-35 0-64 6.5T4-198zm310 968l137-146-57-67-121 100-121-100-57 67 137 146h82z"/><glyph glyph-name="Ydieresis" unicode="Ÿ" horiz-adv-x="634" d="M188 670l132-274 135 274h178L406 270V0H228v268L1 670h187zm247 66q-35 0-59 24t-24 60q0 36 24 60t59 24q35 0 59-24t24-60q0-36-24-60t-59-24zm-230 0q-35 0-59 24t-24 60q0 36 24 60t59 24q35 0 59-24t24-60q0-36-24-60t-59-24z"/><glyph glyph-name="Zacute" unicode="Ź" horiz-adv-x="606" d="M40 0v99l306 442H47v129h520v-99L260 129h314V0H40zm144 795l225 145 69-131-252-97-42 83z"/><glyph glyph-name="zacute" unicode="ź" horiz-adv-x="503" d="M39 0v80l221 305H45v119h417v-78L235 119h239V0H39zm117 625l150 156 88-105-179-120-59 69z"/><glyph glyph-name="Zdotaccent" unicode="Ż" horiz-adv-x="606" d="M40 0v99l306 442H47v129h520v-99L260 129h314V0H40zm267 727q-40 0-68.5 27.5T210 820q0 38 28.5 65.5T307 913q40 0 68.5-27.5T404 820q0-38-28.5-65.5T307 727z"/><glyph glyph-name="zdotaccent" unicode="ż" horiz-adv-x="503" d="M39 0v80l221 305H45v119h417v-78L235 119h239V0H39zm217 561q-40 0-67.5 26.5T161 652q0 38 27.5 64.5T256 743q40 0 67.5-26.5T351 652q0-38-27.5-64.5T256 561z"/><glyph glyph-name="Zcaron" unicode="Ž" horiz-adv-x="606" d="M40 0v99l306 442H47v129h520v-99L260 129h314V0H40zm231 725L109 850l53 80 145-90 145 90 53-80-162-125h-72z"/><glyph glyph-name="zcaron" unicode="ž" horiz-adv-x="503" d="M39 0v80l221 305H45v119h417v-78L235 119h239V0H39zm397 707L297 567h-82L76 707l59 73 121-99 121 99 59-73z"/><glyph glyph-name="uni0218" unicode="Ș" horiz-adv-x="621" d="M317-16q-127 0-200.5 56.5T31 203h175q8-58 40-80.5t73-22.5q47 0 69 23t22 48q0 31-16.5 53T335 257l-111 29q-86 22-129 68.5T52 486q0 65 34.5 109.5T179 663q58 23 130 23 119 0 185.5-56T575 471H403q-6 46-31 72.5T304 570q-37 0-58-20t-21-51q0-59 67-76l105-27q75-19 116-49.5t57-69.5q16-39 16-86 0-97-70.5-152T317-16zM211-359v67q37 9 59 25.5t31 44.5q-28 1-53 23t-25 60q0 36 24 59t59 23q36 0 61.5-27.5T393-162q0-76-50-130t-132-67z"/><glyph glyph-name="uni0219" unicode="ș" horiz-adv-x="528" d="M267-13Q160-13 99.5 31.5T30 159h165q5-41 27-56.5T269 87q29 0 45 12.5t16 31.5q0 17-13.5 32T266 188l-84 22q-65 17-101.5 52T44 359q0 53 30 88t81 52.5Q206 517 270 517q94 0 149-42t69-121H324q-4 29-19 46t-43 17q-26 0-40-13.5T208 371q0-18 12-31.5t44-21.5l72-18q86-22 122-56.5t36-93.5q0-78-60-120.5T267-13zm-99-334v62q73 19 87 70-27 1-50.5 22.5T181-135q0 34 23.5 56T260-57q33 0 58-26.5t25-74.5q0-46-22-86t-61-67q-39-27-92-36z"/><glyph glyph-name="uni021A" unicode="Ț" horiz-adv-x="596" d="M209 0v539H13v131h570V539H387V0H209zm-7-359v67q37 9 59 25.5t31 44.5q-28 1-53 23t-25 60q0 36 24 59t59 23q36 0 61.5-27.5T384-162q0-76-50-130t-132-67z"/><glyph glyph-name="uni021B" unicode="ț" horiz-adv-x="399" d="M260-13q-92 0-136.5 51.5T79 169v225H14v110h65v142h170V504h119V394H249V171q0-33 15-49t40-16q14 0 29 3t29 9l26-104Q365 1 329.5-6T260-13zM137-347v62q73 19 87 70-27 1-50.5 22.5T150-135q0 34 23.5 56T229-57q33 0 58-26.5t25-74.5q0-46-22-86t-61-67q-39-27-92-36z"/><glyph glyph-name="circumflex" unicode="ˆ" horiz-adv-x="500" d="M291 770l137-146-57-67-121 100-121-100-57 67 137 146h82z"/><glyph glyph-name="caron" unicode="ˇ" horiz-adv-x="500" d="M430 707L291 567h-82L70 707l59 73 121-99 121 99 59-73z"/><glyph glyph-name="breve" unicode="˘" horiz-adv-x="500" d="M250 569q-73 0-116.5 48T86 737h99q3-29 20-49.5t45-20.5q29 0 45.5 20.5T315 737h99q-4-72-46-120t-118-48z"/><glyph glyph-name="dotaccent" unicode="˙" horiz-adv-x="500" d="M250 561q-40 0-67.5 26.5T155 652q0 38 27.5 64.5T250 743q40 0 67.5-26.5T345 652q0-38-27.5-64.5T250 561z"/><glyph glyph-name="ring" unicode="˚" horiz-adv-x="500" d="M249 551q-54 0-88.5 33.5T126 671q0 55 34.5 87.5T249 791q56 0 90.5-32.5T374 671q0-53-35-86.5T249 551zm0 66q22 0 36.5 15t14.5 39q0 23-14.5 38.5T249 725q-22 0-36.5-15.5T198 671q0-24 14.5-39t36.5-15z"/><glyph glyph-name="ogonek" unicode="˛" horiz-adv-x="500" d="M279-262q-71 0-110.5 36T129-141q0 38 19.5 72.5T218 0h123q-51-8-70.5-36T251-98q0-32 19.5-50t44.5-18q31 0 55 10v-92q-41-14-91-14z"/><glyph glyph-name="tilde" unicode="˜" horiz-adv-x="500" d="M230 611q-17 13-26 18t-17 5q-22 0-32-57H62q4 67 35 113.5t83 46.5q27 0 48.5-12t41.5-28q17-13 26-18t17-5q22 0 32 57h93q-4-67-35-113.5T320 571q-27 0-48.5 12T230 611z"/><glyph glyph-name="hungarumlaut" unicode="˝" horiz-adv-x="500" d="M47 599l143 192 86-78L99 553l-52 46zm163 11l180 158 68-92-207-122-41 56z"/><glyph glyph-name="gravecomb" unicode="̀" d="M-50 781l150-156-59-69-179 120 88 105z"/><glyph glyph-name="acutecomb" unicode="́" d="M-100 625L50 781l88-105-179-120-59 69z"/><glyph glyph-name="uni0302" unicode="̂" d="M41 770l137-146-57-67L0 657l-121-100-57 67 137 146h82z"/><glyph glyph-name="tildecomb" unicode="̃" d="M-20 611q-17 13-26 18t-17 5q-22 0-32-57h-93q4 67 35 113.5t83 46.5q27 0 48.5-12T20 697q17-13 26-18t17-5q22 0 32 57h93q-4-67-35-113.5T70 571q-27 0-48.5 12T-20 611z"/><glyph glyph-name="uni0304" unicode="̄" d="M-163 589v106h326V589h-326z"/><glyph glyph-name="uni0306" unicode="̆" d="M0 569q-73 0-116.5 48T-164 737h99q3-29 20-49.5T0 667q29 0 45.5 20.5T65 737h99q-4-72-46-120T0 569z"/><glyph glyph-name="uni0307" unicode="̇" d="M0 561q-40 0-67.5 26.5T-95 652q0 38 27.5 64.5T0 743q40 0 67.5-26.5T95 652q0-38-27.5-64.5T0 561z"/><glyph glyph-name="uni0308" unicode="̈" d="M100 561q-33 0-56.5 23T20 641q0 32 23.5 55t56.5 23q32 0 56-23t24-55q0-34-24-57t-56-23zm-200 0q-33 0-56.5 23t-23.5 57q0 32 23.5 55t56.5 23q32 0 56-23t24-55q0-34-24-57t-56-23z"/><glyph glyph-name="uni030A" unicode="̊" d="M0 551q-54 0-88.5 33.5T-123 671q0 55 34.5 87.5T0 791q56 0 90.5-32.5T125 671q0-53-35-86.5T0 551zm0 66q22 0 36.5 15T51 671q0 23-14.5 38.5T0 725q-22 0-36.5-15.5T-51 671q0-24 14.5-39T0 617z"/><glyph glyph-name="uni030B" unicode="̋" d="M-147 599L-4 791l86-78-177-160-52 46zm163 11l180 158 68-92L57 554l-41 56z"/><glyph glyph-name="uni030C" unicode="̌" d="M180 707L41 567h-82l-139 140 59 73L0 681l121 99 59-73z"/><glyph glyph-name="uni0312" unicode="̒" d="M89 851v-62q-73-19-87-70 27-1 50.5-22.5T76 639q0-34-23-56t-56-22q-34 0-58.5 26T-86 662q0 46 22 86t61 67q39 27 92 36z"/><glyph glyph-name="uni0315" unicode="̕" d="M30 516h-78v184H78v-8q0-26-6-60t-17-66q-11-32-25-50z"/><glyph glyph-name="dotbelowcomb" unicode="̣" d="M0-239q-40 0-67.5 26.5T-95-148q0 38 27.5 64.5T0-57q40 0 67.5-26.5T95-148q0-38-27.5-64.5T0-239z"/><glyph glyph-name="uni0326" unicode="̦" d="M-93-347v62q73 19 87 70-27 1-50.5 22.5T-80-135q0 34 23.5 56T-1-57q33 0 58-26.5T82-158q0-46-22-86t-61-67q-39-27-92-36z"/><glyph glyph-name="uni0327" unicode="̧" d="M-48 0h70l-9-59q10 3 23 3 45 0 73.5-27t28.5-71q0-55-37-86.5T-5-272q-40 0-79 11l7 74q35-9 64-9 54 0 54 40 0 17-10.5 28T3-117q-20 0-38-11h-28L-48 0z"/><glyph glyph-name="uni0328" unicode="̨" d="M5-262q-71 0-110.5 36t-39.5 85q0 38 19.5 72.5T-56 0H67Q16-8-3.5-36T-23-98q0-32 19.5-50T41-166q31 0 55 10v-92q-41-14-91-14z"/><glyph glyph-name="uni1E24" unicode="Ḥ" horiz-adv-x="728" d="M74 0v670h178V405h224v265h178V0H476v274H252V0H74zm290-242q-40 0-66.5 26T271-153q0 37 26.5 63T364-64q40 0 66.5-26t26.5-63q0-37-26.5-63T364-242z"/><glyph glyph-name="uni1E25" unicode="ḥ" horiz-adv-x="601" d="M60 0v700h170V437q21 37 57.5 58.5T373 517q81 0 127.5-49.5T547 334V0H377v308q0 40-17 63.5T309 395q-31 0-55-26.5T230 285V0H60zm243-239q-40 0-67.5 26.5T208-148q0 38 27.5 64.5T303-57q40 0 67.5-26.5T398-148q0-38-27.5-64.5T303-239z"/><glyph glyph-name="uni1E36" unicode="Ḷ" horiz-adv-x="542" d="M74 0v670h178V131h260V0H74zm219-242q-40 0-66.5 26T200-153q0 37 26.5 63T293-64q40 0 66.5-26t26.5-63q0-37-26.5-63T293-242z"/><glyph glyph-name="uni1E37" unicode="ḷ" horiz-adv-x="290" d="M60 0v700h170V0H60zm85-239q-40 0-67.5 26.5T50-148q0 38 27.5 64.5T145-57q40 0 67.5-26.5T240-148q0-38-27.5-64.5T145-239z"/><glyph glyph-name="Wgrave" unicode="Ẁ" horiz-adv-x="913" d="M166 0L13 670h179l92-439 115 439h125l114-439 93 439h169L747 0H566L458 430 347 0H166zm193 940l225-145-42-83-252 97 69 131z"/><glyph glyph-name="wgrave" unicode="ẁ" horiz-adv-x="800" d="M150 0L3 504h176l70-345 85 345h146l89-346 68 346h160L650 0H478l-78 275L322 0H150zm207 781l150-156-59-69-179 120 88 105z"/><glyph glyph-name="Wacute" unicode="Ẃ" horiz-adv-x="913" d="M166 0L13 670h179l92-439 115 439h125l114-439 93 439h169L747 0H566L458 430 347 0H166zm172 795l225 145 69-131-252-97-42 83z"/><glyph glyph-name="wacute" unicode="ẃ" horiz-adv-x="800" d="M150 0L3 504h176l70-345 85 345h146l89-346 68 346h160L650 0H478l-78 275L322 0H150zm157 625l150 156 88-105-179-120-59 69z"/><glyph glyph-name="Wdieresis" unicode="Ẅ" horiz-adv-x="913" d="M166 0L13 670h179l92-439 115 439h125l114-439 93 439h169L747 0H566L458 430 347 0H166zm410 736q-35 0-59 24t-24 60q0 36 24 60t59 24q35 0 59-24t24-60q0-36-24-60t-59-24zm-230 0q-35 0-59 24t-24 60q0 36 24 60t59 24q35 0 59-24t24-60q0-36-24-60t-59-24z"/><glyph glyph-name="wdieresis" unicode="ẅ" horiz-adv-x="800" d="M150 0L3 504h176l70-345 85 345h146l89-346 68 346h160L650 0H478l-78 275L322 0H150zm357 561q-33 0-56.5 23T427 641q0 32 23.5 55t56.5 23q32 0 56-23t24-55q0-34-24-57t-56-23zm-200 0q-33 0-56.5 23T227 641q0 32 23.5 55t56.5 23q32 0 56-23t24-55q0-34-24-57t-56-23z"/><glyph glyph-name="uni1E9E" unicode="ẞ" horiz-adv-x="684" d="M63 0v409q0 139 74.5 208T347 686q99 0 168-50t103-135L494 382q86-18 122-69.5T652 192q0-100-65.5-154T410-16q-22 0-57 5T293 7l21 104q16-6 31.5-8.5T374 100q39 0 66 24.5t27 77.5q0 52-26 78t-72 26h-13v89l106 112q-15 27-43.5 45.5T347 571q-48 0-77-31t-29-99V0H63z"/><glyph glyph-name="Ygrave" unicode="Ỳ" horiz-adv-x="634" d="M188 670l132-274 135 274h178L406 270V0H228v268L1 670h187zm30 270l225-145-42-83-252 97 69 131z"/><glyph glyph-name="ygrave" unicode="ỳ" horiz-adv-x="536" d="M4-198L39-94q31-13 61-13 23 0 41.5 14T179-36l19 44L3 504h176l96-318 93 318h165L319-43q-36-92-84-136t-116-44q-35 0-64 6.5T4-198zm219 979l150-156-59-69-179 120 88 105z"/><glyph glyph-name="uni2000" horiz-adv-x="500"/><glyph glyph-name="uni2001" horiz-adv-x="1000"/><glyph glyph-name="uni2002" horiz-adv-x="500"/><glyph glyph-name="uni2003" horiz-adv-x="1000"/><glyph glyph-name="uni2004" horiz-adv-x="333"/><glyph glyph-name="uni2005" horiz-adv-x="250"/><glyph glyph-name="uni2006" horiz-adv-x="166"/><glyph glyph-name="uni2007" horiz-adv-x="590"/><glyph glyph-name="uni2008" horiz-adv-x="220"/><glyph glyph-name="uni2009" horiz-adv-x="200"/><glyph glyph-name="uni200A" horiz-adv-x="62"/><glyph glyph-name="uni200B" unicode="​"/><glyph glyph-name="uni2010" unicode="‐" horiz-adv-x="374" d="M25 182v130h324V182H25z"/><glyph glyph-name="uni2011" unicode="‑" horiz-adv-x="374" d="M25 182v130h324V182H25z"/><glyph glyph-name="figuredash" unicode="‒" horiz-adv-x="590" d="M45 182v130h500V182H45z"/><glyph glyph-name="endash" unicode="–" horiz-adv-x="500" d="M0 182v130h500V182H0z"/><glyph glyph-name="emdash" unicode="—" horiz-adv-x="1000" d="M0 182v130h1000V182H0z"/><glyph glyph-name="uni2015" unicode="―" horiz-adv-x="1000" d="M0 182v130h1000V182H0z"/><glyph glyph-name="quoteleft" unicode="‘" horiz-adv-x="206" d="M186 710v-68q-54-11-71-53 32-2 52.5-23.5T188 510q0-40-24-62.5T102 425q-40 0-64.5 27.5T13 536q0 67 45.5 116.5T186 710z"/><glyph glyph-name="quoteright" unicode="’" horiz-adv-x="206" d="M20 425v68q54 11 71 53-32 2-52.5 23.5T18 625q0 40 24 62.5t62 22.5q40 0 64.5-28t24.5-83q0-67-45.5-116.5T20 425z"/><glyph glyph-name="quotesinglbase" unicode="‚" horiz-adv-x="206" d="M20-131v68q54 11 71 53-32 2-52.5 23.5T18 69q0 40 24 62.5t62 22.5q40 0 64.5-28T193 43q0-67-45.5-116.5T20-131z"/><glyph glyph-name="quotedblleft" unicode="“" horiz-adv-x="429" d="M186 710v-68q-54-11-71-53 32-2 52.5-23.5T188 510q0-40-24-62.5T102 425q-40 0-64.5 27.5T13 536q0 67 45.5 116.5T186 710zm223 0v-68q-54-11-71-53 32-2 52.5-23.5T411 510q0-40-24-62.5T325 425q-40 0-64.5 27.5T236 536q0 67 45.5 116.5T409 710z"/><glyph glyph-name="quotedblright" unicode="”" horiz-adv-x="429" d="M20 425v68q54 11 71 53-32 2-52.5 23.5T18 625q0 40 24 62.5t62 22.5q40 0 64.5-28t24.5-83q0-67-45.5-116.5T20 425zm223 0v68q54 11 71 53-32 2-52.5 23.5T241 625q0 40 24 62.5t62 22.5q40 0 64.5-28t24.5-83q0-67-45.5-116.5T243 425z"/><glyph glyph-name="quotedblbase" unicode="„" horiz-adv-x="429" d="M20-131v68q54 11 71 53-32 2-52.5 23.5T18 69q0 40 24 62.5t62 22.5q40 0 64.5-28T193 43q0-67-45.5-116.5T20-131zm223 0v68q54 11 71 53-32 2-52.5 23.5T241 69q0 40 24 62.5t62 22.5q40 0 64.5-28T416 43q0-67-45.5-116.5T243-131z"/><glyph glyph-name="dagger" unicode="†" horiz-adv-x="417" d="M138-105l8 498-121-6v127l120-6-7 162h137l-7-162 124 6V387l-125 6 8-498H138z"/><glyph glyph-name="daggerdbl" unicode="‡" horiz-adv-x="417" d="M25 51v127l121-6v221l-121-6v127l120-6-7 162h137l-7-162 124 6V387l-125 6V172l125 6V51l-124 6 7-162H138l7 162-120-6z"/><glyph glyph-name="bullet" unicode="•" horiz-adv-x="391" d="M195 102q-41 0-74.5 20T68 175q-19 33-19 73 0 42 19 75t52.5 52q33.5 19 74.5 19 42 0 75.5-19t52.5-52q19-33 19-75 0-40-20.5-73t-54-53Q234 102 195 102z"/><glyph glyph-name="ellipsis" unicode="…" horiz-adv-x="1000" d="M166-10q-38 0-64 26.5T76 80q0 40 26 65t64 25q39 0 65-25t26-65q0-37-27-63.5T166-10zm333 0q-38 0-64 26.5T409 80q0 40 26 65t64 25q39 0 65-25t26-65q0-37-27-63.5T499-10zm333 0q-38 0-64 26.5T742 80q0 40 26 65t64 25q39 0 65-25t26-65q0-37-27-63.5T832-10z"/><glyph glyph-name="perthousand" unicode="‰" horiz-adv-x="1276" d="M226 0l318 660h138L364 0H226zm490-10q-84 0-125 55.5T550 196q0 95 41 150.5T716 402q84 0 125-55.5T882 196q0-95-41-150.5T716-10zm0 84q23 0 32 29t9 93q0 64-9 93t-32 29q-23 0-32-29t-9-93q0-64 9-93t32-29zm367-84q-84 0-125 55.5T917 196q0 95 41 150.5t125 55.5q84 0 125-55.5t41-150.5q0-95-41-150.5T1083-10zm0 84q23 0 32 29t9 93q0 64-9 93t-32 29q-23 0-32-29t-9-93q0-64 9-93t32-29zM190 258q-84 0-125 55.5T24 464q0 95 41 150.5T190 670q84 0 125-55.5T356 464q0-95-41-150.5T190 258zm0 84q23 0 32 29t9 93q0 64-9 93t-32 29q-23 0-32-29t-9-93q0-64 9-93t32-29z"/><glyph glyph-name="guilsinglleft" unicode="‹" horiz-adv-x="343" d="M168 52L30 253l138 201h159L196 255 330 52H168z"/><glyph glyph-name="guilsinglright" unicode="›" horiz-adv-x="343" d="M175 454l138-201L175 52H16l131 199L13 454h162z"/><glyph glyph-name="fraction" unicode="⁄" horiz-adv-x="140" d="M-158 0l318 660h138L-20 0h-138z"/><glyph glyph-name="uni2070" unicode="⁰" horiz-adv-x="382" d="M191 368q-84 0-125 55.5T25 574q0 95 41 150.5T191 780q84 0 125-55.5T357 574q0-95-41-150.5T191 368zm0 84q23 0 32 29t9 93q0 64-9 93t-32 29q-23 0-32-29t-9-93q0-64 9-93t32-29z"/><glyph glyph-name="uni2074" unicode="⁴" horiz-adv-x="363" d="M16 446v75l189 245h101V530h44v-84h-44v-72H195v72H16zm99 84h80v106l-80-106z"/><glyph glyph-name="uni2075" unicode="⁵" horiz-adv-x="369" d="M39 538l16 228h267v-88H147l-4-63q30 23 72 23 60 0 97-36t37-94q0-66-45.5-105T182 364q-69 0-111 31t-48 87h116q7-35 41-35 43 0 43 57 0 28-11.5 44T181 564q-30 0-47-26H39z"/><glyph glyph-name="uni2076" unicode="⁶" horiz-adv-x="373" d="M197 368q-83 0-127.5 54T25 581q0 88 43 143.5T202 780q56 0 95-27t49-79H225q-6 30-31 30-44 0-49-95 31 31 81 31 56 0 92.5-35t36.5-94q0-65-44.5-104T197 368zm-7 77q45 0 45 59t-45 59q-45 0-45-59 0-28 12-43.5t33-15.5z"/><glyph glyph-name="uni2077" unicode="⁷" horiz-adv-x="324" d="M8 688v88h305v-88q-66-79-100.5-151.5T172 384H54q11 88 46.5 159.5T203 688H8z"/><glyph glyph-name="uni2078" unicode="⁸" horiz-adv-x="380" d="M190 368q-76 0-124 33t-48 89q0 35 21 60t58 39q-31 13-48 35.5T32 676q0 46 42.5 75T190 780q72 0 115-29t43-75q0-29-17-51.5T283 589q37-14 58-39t21-60q0-56-48-89t-124-33zm0 255q37 0 37 44t-37 44q-37 0-37-44t37-44zm0-183q18 0 31.5 14t13.5 43q0 29-13.5 43T190 554q-18 0-31.5-14T145 497q0-29 13.5-43t31.5-14z"/><glyph glyph-name="uni2079" unicode="⁹" horiz-adv-x="373" d="M182 780q47 0 84.5-20.5t59.5-65Q348 650 348 579q0-94-42.5-152.5T172 368q-57 0-96.5 27T26 474h122q5-29 31-29 44 0 49 93-29-29-77-29-59 0-96 34.5T18 636q0 66 45 105t119 39zm1-77q-45 0-45-59t45-59q45 0 45 59 0 28-12 43.5T183 703z"/><glyph glyph-name="uni2080" unicode="₀" horiz-adv-x="382" d="M191-110q-84 0-125 55.5T25 96q0 95 41 150.5T191 302q84 0 125-55.5T357 96q0-95-41-150.5T191-110zm0 84q23 0 32 29t9 93q0 64-9 93t-32 29q-23 0-32-29t-9-93q0-64 9-93t32-29z"/><glyph glyph-name="uni2081" unicode="₁" horiz-adv-x="290" d="M17 144v95q35 6 65.5 18t55.5 35h91v-392H108v264q-47-16-91-20z"/><glyph glyph-name="uni2082" unicode="₂" horiz-adv-x="373" d="M29-100v14q0 51 23.5 89T128 78l45 32q25 18 36 32t11 33q0 45-35 45-19 0-29.5-16T143 153H28q4 71 48 110t117 39q67 0 108.5-33.5T343 180q0-37-18-67.5T266 55l-53-35q-30-19-37-31h170v-89H29z"/><glyph glyph-name="uni2083" unicode="₃" horiz-adv-x="367" d="M186-110q-76 0-120 35T15 28h113q4-57 52-57 47 0 47 46 0 29-18.5 42.5T150 73h-11v70h11q38 0 53.5 9.5T219 183q0 40-39 40-32 0-37-39H30q9 58 49.5 88T187 302q67 0 108.5-30.5T337 191q0-60-67-85 79-26 79-94 0-56-44-89t-119-33z"/><glyph glyph-name="uni2084" unicode="₄" horiz-adv-x="363" d="M16-28v75l189 245h101V56h44v-84h-44v-72H195v72H16zm99 84h80v106L115 56z"/><glyph glyph-name="uni2085" unicode="₅" horiz-adv-x="369" d="M39 63l16 228h267v-88H147l-4-63q30 23 72 23 60 0 97-36t37-94q0-66-45.5-105T182-111q-69 0-111 31T23 7h116q7-35 41-35 43 0 43 57 0 28-11.5 44T181 89q-30 0-47-26H39z"/><glyph glyph-name="uni2086" unicode="₆" horiz-adv-x="373" d="M197-110q-83 0-127.5 54T25 103q0 88 43 143.5T202 302q56 0 95-27t49-79H225q-6 30-31 30-44 0-49-95 31 31 81 31 56 0 92.5-35T355 33q0-65-44.5-104T197-110zm-7 77q45 0 45 59t-45 59q-45 0-45-59 0-28 12-43.5T190-33z"/><glyph glyph-name="uni2087" unicode="₇" horiz-adv-x="324" d="M8 204v88h305v-88q-66-79-100.5-151.5T172-100H54q11 88 46.5 159.5T203 204H8z"/><glyph glyph-name="uni2088" unicode="₈" horiz-adv-x="380" d="M190-110q-76 0-124 33T18 12q0 35 21 60t58 39q-31 13-48 35.5T32 198q0 46 42.5 75T190 302q72 0 115-29t43-75q0-29-17-51.5T283 111q37-14 58-39t21-60q0-56-48-89t-124-33zm0 255q37 0 37 44t-37 44q-37 0-37-44t37-44zm0-183q18 0 31.5 14T235 19q0 29-13.5 43T190 76q-18 0-31.5-14T145 19q0-29 13.5-43T190-38z"/><glyph glyph-name="uni2089" unicode="₉" horiz-adv-x="373" d="M182 302q47 0 84.5-20.5t59.5-65Q348 172 348 101q0-94-42.5-152.5T172-110q-57 0-96.5 27T26-4h122q5-29 31-29 44 0 49 93-29-29-77-29-59 0-96 34.5T18 158q0 66 45 105t119 39zm1-77q-45 0-45-59t45-59q45 0 45 59 0 28-12 43.5T183 225z"/><glyph glyph-name="Euro" unicode="€" horiz-adv-x="590" d="M338-16q-108 0-175.5 65T74 225H19v80h46v43H19v80h55q21 110 88.5 176T337 670q58 0 106.5-25t81.5-70q33-45 45-106H403q-5 33-23 55t-46 22q-70 0-88-118h172l-14-80H239v-43h159l-14-80H246q18-117 90-117 27 0 46 20.5t24 58.5h167q-9-61-42-106.5t-83-71Q398-16 338-16z"/><glyph glyph-name="uni20B9" unicode="₹" horiz-adv-x="590" d="M72 497h231q-10 35-42 56t-88 21H72v80h499l-14-80H423q32-34 43-77h96l-14-80h-81q-13-62-66.5-103.5T253 263L527 0H352L72 260v80h101q56 0 88 20.5t43 56.5H72v80z"/><glyph glyph-name="uni20BA" unicode="₺" horiz-adv-x="590" d="M27 297l58 21v55l-58-21v86l58 21v195h162V517l114 41v-86l-114-41v-55l114 41v-86l-114-41V121h31q68 0 96 44t33 146h144q-3-115-35-183.5t-93.5-98Q361 0 271 0H85v232l-58-21v86z"/><glyph glyph-name="trademark" unicode="™" horiz-adv-x="934" d="M128 250v320H6v100h371V570H256V250H128zm267 0l41 420h133l79-241 83 241h132l41-420H774l-18 236-68-193h-78l-69 196-19-239H395z"/><glyph glyph-name="minus" unicode="−" horiz-adv-x="590" d="M77 272v116h436V272H77z"/><glyph glyph-name="uniFB00" unicode="ﬀ" horiz-adv-x="709" d="M10 504h71q1 95 48 152t146 57q29 0 59-7t57-21l-24-100q-29 13-57 13-59 0-59-75v-19h163q1 95 48 152t146 57q28 0 58.5-7t57.5-21l-24-100q-29 13-57 13-59 0-59-75v-19h108V394H584V0H414v394H251V0H81v394H10v110z"/><glyph glyph-name="uniFB01" unicode="ﬁ" horiz-adv-x="644" d="M404 652q0 38 27.5 64.5T499 743q40 0 67.5-26.5T594 652q0-38-27.5-64.5T499 561q-40 0-67.5 26.5T404 652zM10 504h71q1 95 48 152t146 57q44 0 88-16l-24-103q-15 4-29 4-59 0-59-75v-19h90V394h-90V0H81v394H10v110zm404 0h170V0H414v504z"/><glyph glyph-name="uniFB02" unicode="ﬂ" horiz-adv-x="641" d="M10 504h71q1 95 48 152t146 57q44 0 88-16l-24-103q-15 4-29 4-59 0-59-75v-19h90V394h-90V0H81v394H10v110zm401 196h170V0H411v700z"/><glyph glyph-name="uniFB03" unicode="ﬃ" horiz-adv-x="977" d="M737 652q0 38 27.5 64.5T832 743q40 0 67.5-26.5T927 652q0-38-27.5-64.5T832 561q-40 0-67.5 26.5T737 652zM10 504h71q1 95 48 152t146 57q29 0 59-7t57-21l-24-100q-29 13-57 13-59 0-59-75v-19h163q1 95 48 152t146 57q44 0 88-16l-24-103q-15 4-29 4-59 0-59-75v-19h90V394h-90V0H414v394H251V0H81v394H10v110zm737 0h170V0H747v504z"/><glyph glyph-name="uniFB04" unicode="ﬄ" horiz-adv-x="974" d="M10 504h71q1 95 48 152t146 57q29 0 59-7t57-21l-24-100q-29 13-57 13-59 0-59-75v-19h163q1 95 48 152t146 57q44 0 88-16l-24-103q-15 4-29 4-59 0-59-75v-19h90V394h-90V0H414v394H251V0H81v394H10v110zm734 196h170V0H744v700z"/></font>
</svg>
